{
	"patcher" : 	{
		"fileversion" : 1,
		"appversion" : 		{
			"major" : 8,
			"minor" : 5,
			"revision" : 6,
			"architecture" : "x64",
			"modernui" : 1
		}
,
		"classnamespace" : "box",
		"rect" : [ 34.0, 99.0, 647.0, 615.0 ],
		"bglocked" : 0,
		"openinpresentation" : 0,
		"default_fontsize" : 12.0,
		"default_fontface" : 0,
		"default_fontname" : "Arial",
		"gridonopen" : 1,
		"gridsize" : [ 15.0, 15.0 ],
		"gridsnaponopen" : 1,
		"objectsnaponopen" : 1,
		"statusbarvisible" : 2,
		"toolbarvisible" : 1,
		"lefttoolbarpinned" : 0,
		"toptoolbarpinned" : 0,
		"righttoolbarpinned" : 0,
		"bottomtoolbarpinned" : 0,
		"toolbars_unpinned_last_save" : 0,
		"tallnewobj" : 0,
		"boxanimatetime" : 200,
		"enablehscroll" : 1,
		"enablevscroll" : 1,
		"devicewidth" : 0.0,
		"description" : "",
		"digest" : "",
		"tags" : "",
		"style" : "",
		"subpatcher_template" : "",
		"showrootpatcherontab" : 0,
		"showontab" : 0,
		"assistshowspatchername" : 0,
		"boxes" : [ 			{
				"box" : 				{
					"id" : "obj-14",
					"maxclass" : "newobj",
					"numinlets" : 0,
					"numoutlets" : 0,
					"patcher" : 					{
						"fileversion" : 1,
						"appversion" : 						{
							"major" : 8,
							"minor" : 5,
							"revision" : 6,
							"architecture" : "x64",
							"modernui" : 1
						}
,
						"classnamespace" : "box",
						"rect" : [ 0.0, 26.0, 647.0, 589.0 ],
						"bglocked" : 0,
						"openinpresentation" : 0,
						"default_fontsize" : 12.0,
						"default_fontface" : 0,
						"default_fontname" : "Arial",
						"gridonopen" : 1,
						"gridsize" : [ 15.0, 15.0 ],
						"gridsnaponopen" : 1,
						"objectsnaponopen" : 1,
						"statusbarvisible" : 2,
						"toolbarvisible" : 1,
						"lefttoolbarpinned" : 0,
						"toptoolbarpinned" : 0,
						"righttoolbarpinned" : 0,
						"bottomtoolbarpinned" : 0,
						"toolbars_unpinned_last_save" : 0,
						"tallnewobj" : 0,
						"boxanimatetime" : 200,
						"enablehscroll" : 1,
						"enablevscroll" : 1,
						"devicewidth" : 0.0,
						"description" : "",
						"digest" : "",
						"tags" : "",
						"style" : "",
						"subpatcher_template" : "",
						"showontab" : 1,
						"assistshowspatchername" : 0,
						"boxes" : [ 							{
								"box" : 								{
									"bgcolor" : [ 1.0, 1.0, 1.0, 1.0 ],
									"id" : "obj-24",
									"linecount" : 15,
									"maxclass" : "comment",
									"numinlets" : 1,
									"numoutlets" : 0,
									"patching_rect" : [ 457.571441999999934, 94.0, 182.0, 208.0 ],
									"text" : "abc_rev4~ is a classical reverberation module with 2 controls (with values between 0 and 127): the duration (127 means an 'infinite' duration) and the gain.\n\nAs it is a cascade of delay lines with reinjection, it is proposed in two versions: a stereo one, abc_rev4sterero~, and a quadriphonic one, abc_rev4quadri~ that splits the outputs of the delay lines to the 4 outputs."
								}

							}
, 							{
								"box" : 								{
									"id" : "obj-2",
									"maxclass" : "ezdac~",
									"numinlets" : 2,
									"numoutlets" : 0,
									"patching_rect" : [ 188.0, 489.0, 45.0, 45.0 ]
								}

							}
, 							{
								"box" : 								{
									"id" : "obj-12",
									"maxclass" : "newobj",
									"numinlets" : 2,
									"numoutlets" : 1,
									"outlettype" : [ "signal" ],
									"patching_rect" : [ 123.0, 298.0, 40.0, 22.0 ],
									"text" : "*~ 0.3"
								}

							}
, 							{
								"box" : 								{
									"args" : [ -127 ],
									"bgmode" : 0,
									"border" : 1,
									"clickthrough" : 0,
									"enablehscroll" : 0,
									"enablevscroll" : 0,
									"id" : "obj-10",
									"lockeddragscroll" : 0,
									"lockedsize" : 0,
									"maxclass" : "bpatcher",
									"name" : "abc_gaincontrol.maxpat",
									"numinlets" : 1,
									"numoutlets" : 1,
									"offset" : [ 0.0, 0.0 ],
									"outlettype" : [ "" ],
									"patching_rect" : [ 43.0, 266.0, 72.0, 110.0 ],
									"viewvisibility" : 1
								}

							}
, 							{
								"box" : 								{
									"id" : "obj-64",
									"maxclass" : "newobj",
									"numinlets" : 1,
									"numoutlets" : 1,
									"outlettype" : [ "" ],
									"patching_rect" : [ 344.0, 94.0, 82.0, 22.0 ],
									"text" : "loadmess 110"
								}

							}
, 							{
								"box" : 								{
									"id" : "obj-65",
									"maxclass" : "newobj",
									"numinlets" : 1,
									"numoutlets" : 1,
									"outlettype" : [ "" ],
									"patching_rect" : [ 241.0, 94.0, 82.0, 22.0 ],
									"text" : "loadmess 110"
								}

							}
, 							{
								"box" : 								{
									"bgmode" : 0,
									"border" : 1,
									"clickthrough" : 0,
									"enablehscroll" : 0,
									"enablevscroll" : 0,
									"id" : "obj-66",
									"lockeddragscroll" : 0,
									"lockedsize" : 0,
									"maxclass" : "bpatcher",
									"name" : "abc_simplefmburst~.maxpat",
									"numinlets" : 1,
									"numoutlets" : 1,
									"offset" : [ 0.0, 0.0 ],
									"outlettype" : [ "signal" ],
									"patching_rect" : [ 123.0, 204.0, 60.0, 67.0 ],
									"viewvisibility" : 1
								}

							}
, 							{
								"box" : 								{
									"id" : "obj-68",
									"maxclass" : "newobj",
									"numinlets" : 5,
									"numoutlets" : 3,
									"outlettype" : [ "signal", "signal", "list" ],
									"patching_rect" : [ 188.0, 439.0, 231.0, 22.0 ],
									"text" : "abc_2d_stereodecoder2~"
								}

							}
, 							{
								"box" : 								{
									"bgcolor" : [ 1.0, 1.0, 1.0, 1.0 ],
									"id" : "obj-69",
									"linecount" : 2,
									"maxclass" : "comment",
									"numinlets" : 1,
									"numoutlets" : 0,
									"patching_rect" : [ 367.0, 137.5, 74.0, 33.0 ],
									"text" : "rev4 gain\n0 to 127"
								}

							}
, 							{
								"box" : 								{
									"bgcolor" : [ 1.0, 1.0, 1.0, 1.0 ],
									"id" : "obj-70",
									"linecount" : 3,
									"maxclass" : "comment",
									"numinlets" : 1,
									"numoutlets" : 0,
									"patching_rect" : [ 165.0, 137.5, 74.0, 47.0 ],
									"text" : "rev4 duration\n0 to 127"
								}

							}
, 							{
								"box" : 								{
									"id" : "obj-71",
									"maxclass" : "number",
									"numinlets" : 1,
									"numoutlets" : 2,
									"outlettype" : [ "", "bang" ],
									"parameter_enable" : 0,
									"patching_rect" : [ 344.0, 298.0, 50.0, 22.0 ]
								}

							}
, 							{
								"box" : 								{
									"id" : "obj-72",
									"maxclass" : "number",
									"numinlets" : 1,
									"numoutlets" : 2,
									"outlettype" : [ "", "bang" ],
									"parameter_enable" : 0,
									"patching_rect" : [ 241.0, 298.0, 50.0, 22.0 ]
								}

							}
, 							{
								"box" : 								{
									"id" : "obj-73",
									"maxclass" : "slider",
									"numinlets" : 1,
									"numoutlets" : 1,
									"outlettype" : [ "" ],
									"parameter_enable" : 0,
									"patching_rect" : [ 344.0, 146.0, 20.0, 140.0 ]
								}

							}
, 							{
								"box" : 								{
									"bgcolor" : [ 0.301961, 0.301961, 0.301961, 1.0 ],
									"bgcolor2" : [ 0.301961, 0.301961, 0.301961, 1.0 ],
									"bgfillcolor_angle" : 270.0,
									"bgfillcolor_autogradient" : 0.0,
									"bgfillcolor_color" : [ 0.498039215686275, 0.498039215686275, 0.498039215686275, 1.0 ],
									"bgfillcolor_color1" : [ 0.301961, 0.301961, 0.301961, 1.0 ],
									"bgfillcolor_color2" : [ 0.2, 0.2, 0.2, 1.0 ],
									"bgfillcolor_proportion" : 0.5,
									"bgfillcolor_type" : "color",
									"gradient" : 1,
									"id" : "obj-74",
									"maxclass" : "message",
									"numinlets" : 2,
									"numoutlets" : 1,
									"outlettype" : [ "" ],
									"patching_rect" : [ 344.0, 340.0, 97.0, 22.0 ],
									"text" : "revGain $1"
								}

							}
, 							{
								"box" : 								{
									"id" : "obj-75",
									"maxclass" : "slider",
									"numinlets" : 1,
									"numoutlets" : 1,
									"outlettype" : [ "" ],
									"parameter_enable" : 0,
									"patching_rect" : [ 241.0, 146.0, 20.0, 140.0 ]
								}

							}
, 							{
								"box" : 								{
									"bgcolor" : [ 0.301961, 0.301961, 0.301961, 1.0 ],
									"bgcolor2" : [ 0.301961, 0.301961, 0.301961, 1.0 ],
									"bgfillcolor_angle" : 270.0,
									"bgfillcolor_autogradient" : 0.0,
									"bgfillcolor_color" : [ 0.498039215686275, 0.498039215686275, 0.498039215686275, 1.0 ],
									"bgfillcolor_color1" : [ 0.301961, 0.301961, 0.301961, 1.0 ],
									"bgfillcolor_color2" : [ 0.2, 0.2, 0.2, 1.0 ],
									"bgfillcolor_proportion" : 0.5,
									"bgfillcolor_type" : "color",
									"gradient" : 1,
									"id" : "obj-76",
									"maxclass" : "message",
									"numinlets" : 2,
									"numoutlets" : 1,
									"outlettype" : [ "" ],
									"patching_rect" : [ 241.0, 340.0, 61.0, 22.0 ],
									"text" : "revDur $1"
								}

							}
, 							{
								"box" : 								{
									"color" : [ 0.490196, 0.498039, 0.517647, 1.0 ],
									"fontface" : 1,
									"fontsize" : 14.0,
									"id" : "obj-77",
									"maxclass" : "newobj",
									"numinlets" : 1,
									"numoutlets" : 5,
									"outlettype" : [ "signal", "signal", "signal", "signal", "list" ],
									"patching_rect" : [ 241.0, 381.5, 231.0, 24.0 ],
									"text" : "abc_rev4quadri~",
									"textcolor" : [ 0.968627450980392, 0.968627450980392, 0.968627450980392, 1.0 ],
									"varname" : "faustgen-3857d0[1]"
								}

							}
, 							{
								"box" : 								{
									"args" : [ "@size", 0 ],
									"bgmode" : 0,
									"border" : 0,
									"clickthrough" : 0,
									"enablehscroll" : 0,
									"enablevscroll" : 0,
									"id" : "obj-1",
									"lockeddragscroll" : 0,
									"lockedsize" : 0,
									"maxclass" : "bpatcher",
									"name" : "abc.helpcredit.maxpat",
									"numinlets" : 1,
									"numoutlets" : 0,
									"offset" : [ 0.0, 0.0 ],
									"patching_rect" : [ 6.0, 559.0, 548.0, 23.0 ],
									"presentation" : 1,
									"presentation_rect" : [ 42.0, 732.916625999999951, 548.0, 23.0 ],
									"viewvisibility" : 1
								}

							}
, 							{
								"box" : 								{
									"args" : [ "@obj-name", "abc_rev4~", "@obj-desc", "Rev4~", "reverberation" ],
									"bgmode" : 0,
									"border" : 0,
									"clickthrough" : 0,
									"enablehscroll" : 0,
									"enablevscroll" : 0,
									"id" : "obj-3",
									"lockeddragscroll" : 0,
									"lockedsize" : 0,
									"maxclass" : "bpatcher",
									"name" : "abc.helpheader.maxpat",
									"numinlets" : 1,
									"numoutlets" : 0,
									"offset" : [ 0.0, 0.0 ],
									"patching_rect" : [ 6.0, 6.0, 485.0, 61.0 ],
									"viewvisibility" : 1
								}

							}
 ],
						"lines" : [ 							{
								"patchline" : 								{
									"destination" : [ "obj-68", 0 ],
									"midpoints" : [ 52.5, 404.0, 197.5, 404.0 ],
									"source" : [ "obj-10", 0 ]
								}

							}
, 							{
								"patchline" : 								{
									"destination" : [ "obj-68", 0 ],
									"midpoints" : [ 132.5, 374.5, 197.5, 374.5 ],
									"order" : 1,
									"source" : [ "obj-12", 0 ]
								}

							}
, 							{
								"patchline" : 								{
									"destination" : [ "obj-77", 0 ],
									"midpoints" : [ 132.5, 374.75, 250.5, 374.75 ],
									"order" : 0,
									"source" : [ "obj-12", 0 ]
								}

							}
, 							{
								"patchline" : 								{
									"destination" : [ "obj-73", 0 ],
									"source" : [ "obj-64", 0 ]
								}

							}
, 							{
								"patchline" : 								{
									"destination" : [ "obj-75", 0 ],
									"source" : [ "obj-65", 0 ]
								}

							}
, 							{
								"patchline" : 								{
									"destination" : [ "obj-12", 0 ],
									"source" : [ "obj-66", 0 ]
								}

							}
, 							{
								"patchline" : 								{
									"destination" : [ "obj-2", 1 ],
									"source" : [ "obj-68", 1 ]
								}

							}
, 							{
								"patchline" : 								{
									"destination" : [ "obj-2", 0 ],
									"source" : [ "obj-68", 0 ]
								}

							}
, 							{
								"patchline" : 								{
									"destination" : [ "obj-74", 0 ],
									"source" : [ "obj-71", 0 ]
								}

							}
, 							{
								"patchline" : 								{
									"destination" : [ "obj-76", 0 ],
									"source" : [ "obj-72", 0 ]
								}

							}
, 							{
								"patchline" : 								{
									"destination" : [ "obj-71", 0 ],
									"source" : [ "obj-73", 0 ]
								}

							}
, 							{
								"patchline" : 								{
									"destination" : [ "obj-77", 0 ],
									"midpoints" : [ 353.5, 371.25, 250.5, 371.25 ],
									"source" : [ "obj-74", 0 ]
								}

							}
, 							{
								"patchline" : 								{
									"destination" : [ "obj-72", 0 ],
									"source" : [ "obj-75", 0 ]
								}

							}
, 							{
								"patchline" : 								{
									"destination" : [ "obj-77", 0 ],
									"source" : [ "obj-76", 0 ]
								}

							}
, 							{
								"patchline" : 								{
									"destination" : [ "obj-68", 4 ],
									"source" : [ "obj-77", 3 ]
								}

							}
, 							{
								"patchline" : 								{
									"destination" : [ "obj-68", 3 ],
									"source" : [ "obj-77", 2 ]
								}

							}
, 							{
								"patchline" : 								{
									"destination" : [ "obj-68", 2 ],
									"source" : [ "obj-77", 1 ]
								}

							}
, 							{
								"patchline" : 								{
									"destination" : [ "obj-68", 1 ],
									"source" : [ "obj-77", 0 ]
								}

							}
 ]
					}
,
					"patching_rect" : [ 15.0, 122.0, 87.0, 22.0 ],
					"saved_object_attributes" : 					{
						"description" : "",
						"digest" : "",
						"globalpatchername" : "",
						"tags" : ""
					}
,
					"text" : "p \"rev4 quadri\""
				}

			}
, 			{
				"box" : 				{
					"id" : "obj-13",
					"maxclass" : "newobj",
					"numinlets" : 0,
					"numoutlets" : 0,
					"patcher" : 					{
						"fileversion" : 1,
						"appversion" : 						{
							"major" : 8,
							"minor" : 5,
							"revision" : 6,
							"architecture" : "x64",
							"modernui" : 1
						}
,
						"classnamespace" : "box",
						"rect" : [ 34.0, 125.0, 647.0, 589.0 ],
						"bglocked" : 0,
						"openinpresentation" : 0,
						"default_fontsize" : 12.0,
						"default_fontface" : 0,
						"default_fontname" : "Arial",
						"gridonopen" : 1,
						"gridsize" : [ 15.0, 15.0 ],
						"gridsnaponopen" : 1,
						"objectsnaponopen" : 1,
						"statusbarvisible" : 2,
						"toolbarvisible" : 1,
						"lefttoolbarpinned" : 0,
						"toptoolbarpinned" : 0,
						"righttoolbarpinned" : 0,
						"bottomtoolbarpinned" : 0,
						"toolbars_unpinned_last_save" : 0,
						"tallnewobj" : 0,
						"boxanimatetime" : 200,
						"enablehscroll" : 1,
						"enablevscroll" : 1,
						"devicewidth" : 0.0,
						"description" : "",
						"digest" : "",
						"tags" : "",
						"style" : "",
						"subpatcher_template" : "",
						"showontab" : 1,
						"assistshowspatchername" : 0,
						"boxes" : [ 							{
								"box" : 								{
									"id" : "obj-19",
									"maxclass" : "comment",
									"numinlets" : 1,
									"numoutlets" : 0,
									"patching_rect" : [ 288.0, 131.0, 52.5, 20.0 ],
									"text" : "Control"
								}

							}
, 							{
								"box" : 								{
									"angle" : 270.0,
									"bgcolor" : [ 1.0, 0.996078431372549, 0.984313725490196, 1.0 ],
									"border" : 1,
									"id" : "obj-20",
									"maxclass" : "panel",
									"mode" : 0,
									"numinlets" : 1,
									"numoutlets" : 0,
									"patching_rect" : [ 289.0, 130.0, 48.821442000000047, 22.0 ],
									"proportion" : 0.5,
									"rounded" : 10
								}

							}
, 							{
								"box" : 								{
									"fontface" : 1,
									"fontname" : "Avenir Book",
									"fontsize" : 12.0,
									"id" : "obj-22",
									"maxclass" : "comment",
									"numinlets" : 1,
									"numoutlets" : 0,
									"patching_rect" : [ 266.0, 130.0, 23.0, 23.0 ],
									"text" : "3",
									"textcolor" : [ 1.0, 1.0, 1.0, 1.0 ]
								}

							}
, 							{
								"box" : 								{
									"angle" : 270.0,
									"bgcolor" : [ 0.905882352941176, 0.862745098039216, 0.658823529411765, 1.0 ],
									"id" : "obj-9",
									"maxclass" : "panel",
									"mode" : 0,
									"numinlets" : 1,
									"numoutlets" : 0,
									"patching_rect" : [ 262.0, 128.0, 23.0, 25.0 ],
									"proportion" : 0.5,
									"shape" : 1
								}

							}
, 							{
								"box" : 								{
									"id" : "obj-122",
									"maxclass" : "comment",
									"numinlets" : 1,
									"numoutlets" : 0,
									"patching_rect" : [ 63.321441999999934, 279.5, 38.821442000000062, 20.0 ],
									"text" : "Gain"
								}

							}
, 							{
								"box" : 								{
									"angle" : 270.0,
									"bgcolor" : [ 1.0, 0.996078431372549, 0.984313725490196, 1.0 ],
									"border" : 1,
									"id" : "obj-123",
									"maxclass" : "panel",
									"mode" : 0,
									"numinlets" : 1,
									"numoutlets" : 0,
									"patching_rect" : [ 61.321441999999934, 279.5, 40.821442000000062, 20.0 ],
									"proportion" : 0.5,
									"rounded" : 10
								}

							}
, 							{
								"box" : 								{
									"fontface" : 1,
									"fontname" : "Avenir Book",
									"fontsize" : 12.0,
									"id" : "obj-116",
									"maxclass" : "comment",
									"numinlets" : 1,
									"numoutlets" : 0,
									"patching_rect" : [ 38.321441999999934, 279.5, 23.0, 23.0 ],
									"text" : "2",
									"textcolor" : [ 1.0, 1.0, 1.0, 1.0 ]
								}

							}
, 							{
								"box" : 								{
									"angle" : 270.0,
									"bgcolor" : [ 0.905882352941176, 0.862745098039216, 0.658823529411765, 1.0 ],
									"id" : "obj-117",
									"maxclass" : "panel",
									"mode" : 0,
									"numinlets" : 1,
									"numoutlets" : 0,
									"patching_rect" : [ 34.321441999999934, 277.5, 23.0, 25.0 ],
									"proportion" : 0.5,
									"shape" : 1
								}

							}
, 							{
								"box" : 								{
									"id" : "obj-120",
									"maxclass" : "comment",
									"numinlets" : 1,
									"numoutlets" : 0,
									"patching_rect" : [ 256.321441999999934, 495.0, 49.0, 20.0 ],
									"text" : "Turn on"
								}

							}
, 							{
								"box" : 								{
									"fontface" : 1,
									"fontname" : "Avenir Book",
									"fontsize" : 12.0,
									"id" : "obj-114",
									"maxclass" : "comment",
									"numinlets" : 1,
									"numoutlets" : 0,
									"patching_rect" : [ 230.321441999999934, 494.0, 23.0, 23.0 ],
									"text" : "1",
									"textcolor" : [ 1.0, 1.0, 1.0, 1.0 ]
								}

							}
, 							{
								"box" : 								{
									"angle" : 270.0,
									"bgcolor" : [ 0.905882352941176, 0.862745098039216, 0.658823529411765, 1.0 ],
									"id" : "obj-115",
									"maxclass" : "panel",
									"mode" : 0,
									"numinlets" : 1,
									"numoutlets" : 0,
									"patching_rect" : [ 226.321441999999934, 492.0, 23.0, 25.0 ],
									"proportion" : 0.5,
									"shape" : 1
								}

							}
, 							{
								"box" : 								{
									"angle" : 270.0,
									"bgcolor" : [ 1.0, 0.996078431372549, 0.984313725490196, 1.0 ],
									"border" : 1,
									"id" : "obj-121",
									"maxclass" : "panel",
									"mode" : 0,
									"numinlets" : 1,
									"numoutlets" : 0,
									"patching_rect" : [ 256.321441999999934, 495.0, 54.0, 20.0 ],
									"proportion" : 0.5,
									"rounded" : 10
								}

							}
, 							{
								"box" : 								{
									"id" : "obj-10",
									"maxclass" : "ezdac~",
									"numinlets" : 2,
									"numoutlets" : 0,
									"patching_rect" : [ 176.0, 483.0, 45.0, 45.0 ]
								}

							}
, 							{
								"box" : 								{
									"bgcolor" : [ 1.0, 1.0, 1.0, 1.0 ],
									"id" : "obj-24",
									"linecount" : 15,
									"maxclass" : "comment",
									"numinlets" : 1,
									"numoutlets" : 0,
									"patching_rect" : [ 458.571441999999934, 97.0, 182.0, 208.0 ],
									"text" : "abc_rev4~ is a classical reverberation module with 2 controls (with values between 0 and 127): the duration (127 means an 'infinite' duration) and the gain.\n\nAs it is a cascade of delay lines with reinjection, it is proposed in two versions: a stereo one, abc_rev4sterero~, and a quadriphonic one, abc_rev4quadri~ that splits the outputs of the delay lines to the 4 outputs."
								}

							}
, 							{
								"box" : 								{
									"id" : "obj-11",
									"maxclass" : "newobj",
									"numinlets" : 2,
									"numoutlets" : 1,
									"outlettype" : [ "signal" ],
									"patching_rect" : [ 111.0, 301.0, 40.0, 22.0 ],
									"text" : "*~ 0.3"
								}

							}
, 							{
								"box" : 								{
									"args" : [ -127 ],
									"bgmode" : 0,
									"border" : 1,
									"clickthrough" : 0,
									"enablehscroll" : 0,
									"enablevscroll" : 0,
									"id" : "obj-4",
									"lockeddragscroll" : 0,
									"lockedsize" : 0,
									"maxclass" : "bpatcher",
									"name" : "abc_gaincontrol.maxpat",
									"numinlets" : 1,
									"numoutlets" : 1,
									"offset" : [ 0.0, 0.0 ],
									"outlettype" : [ "" ],
									"patching_rect" : [ 33.0, 306.0, 72.0, 110.0 ],
									"viewvisibility" : 1
								}

							}
, 							{
								"box" : 								{
									"id" : "obj-63",
									"maxclass" : "newobj",
									"numinlets" : 1,
									"numoutlets" : 1,
									"outlettype" : [ "" ],
									"patching_rect" : [ 342.0, 97.0, 82.0, 22.0 ],
									"text" : "loadmess 110"
								}

							}
, 							{
								"box" : 								{
									"id" : "obj-62",
									"maxclass" : "newobj",
									"numinlets" : 1,
									"numoutlets" : 1,
									"outlettype" : [ "" ],
									"patching_rect" : [ 239.0, 97.0, 82.0, 22.0 ],
									"text" : "loadmess 110"
								}

							}
, 							{
								"box" : 								{
									"bgmode" : 0,
									"border" : 1,
									"clickthrough" : 0,
									"enablehscroll" : 0,
									"enablevscroll" : 0,
									"id" : "obj-59",
									"lockeddragscroll" : 0,
									"lockedsize" : 0,
									"maxclass" : "bpatcher",
									"name" : "abc_simplefmburst~.maxpat",
									"numinlets" : 1,
									"numoutlets" : 1,
									"offset" : [ 0.0, 0.0 ],
									"outlettype" : [ "signal" ],
									"patching_rect" : [ 111.0, 207.0, 60.0, 67.0 ],
									"viewvisibility" : 1
								}

							}
, 							{
								"box" : 								{
									"id" : "obj-54",
									"maxclass" : "newobj",
									"numinlets" : 3,
									"numoutlets" : 3,
									"outlettype" : [ "signal", "signal", "list" ],
									"patching_rect" : [ 176.0, 442.0, 145.0, 22.0 ],
									"text" : "abc_2d_stereodecoder1~"
								}

							}
, 							{
								"box" : 								{
									"bgcolor" : [ 1.0, 1.0, 1.0, 1.0 ],
									"id" : "obj-53",
									"linecount" : 2,
									"maxclass" : "comment",
									"numinlets" : 1,
									"numoutlets" : 0,
									"patching_rect" : [ 367.0, 140.5, 74.0, 33.0 ],
									"text" : "rev4 gain\n0 to 127"
								}

							}
, 							{
								"box" : 								{
									"bgcolor" : [ 1.0, 1.0, 1.0, 1.0 ],
									"id" : "obj-51",
									"linecount" : 3,
									"maxclass" : "comment",
									"numinlets" : 1,
									"numoutlets" : 0,
									"patching_rect" : [ 160.0, 140.5, 74.0, 47.0 ],
									"text" : "rev4 duration\n0 to 127"
								}

							}
, 							{
								"box" : 								{
									"id" : "obj-49",
									"maxclass" : "number",
									"numinlets" : 1,
									"numoutlets" : 2,
									"outlettype" : [ "", "bang" ],
									"parameter_enable" : 0,
									"patching_rect" : [ 342.0, 301.0, 50.0, 22.0 ]
								}

							}
, 							{
								"box" : 								{
									"id" : "obj-48",
									"maxclass" : "number",
									"numinlets" : 1,
									"numoutlets" : 2,
									"outlettype" : [ "", "bang" ],
									"parameter_enable" : 0,
									"patching_rect" : [ 239.0, 301.0, 50.0, 22.0 ]
								}

							}
, 							{
								"box" : 								{
									"id" : "obj-7",
									"maxclass" : "slider",
									"numinlets" : 1,
									"numoutlets" : 1,
									"outlettype" : [ "" ],
									"parameter_enable" : 0,
									"patching_rect" : [ 342.0, 149.0, 20.0, 140.0 ]
								}

							}
, 							{
								"box" : 								{
									"bgcolor" : [ 0.301961, 0.301961, 0.301961, 1.0 ],
									"bgcolor2" : [ 0.301961, 0.301961, 0.301961, 1.0 ],
									"bgfillcolor_angle" : 270.0,
									"bgfillcolor_autogradient" : 0.0,
									"bgfillcolor_color" : [ 0.498039215686275, 0.498039215686275, 0.498039215686275, 1.0 ],
									"bgfillcolor_color1" : [ 0.301961, 0.301961, 0.301961, 1.0 ],
									"bgfillcolor_color2" : [ 0.2, 0.2, 0.2, 1.0 ],
									"bgfillcolor_proportion" : 0.5,
									"bgfillcolor_type" : "color",
									"gradient" : 1,
									"id" : "obj-8",
									"maxclass" : "message",
									"numinlets" : 2,
									"numoutlets" : 1,
									"outlettype" : [ "" ],
									"patching_rect" : [ 342.0, 343.0, 67.0, 22.0 ],
									"text" : "revGain $1"
								}

							}
, 							{
								"box" : 								{
									"id" : "obj-6",
									"maxclass" : "slider",
									"numinlets" : 1,
									"numoutlets" : 1,
									"outlettype" : [ "" ],
									"parameter_enable" : 0,
									"patching_rect" : [ 239.0, 149.0, 20.0, 140.0 ]
								}

							}
, 							{
								"box" : 								{
									"bgcolor" : [ 0.301961, 0.301961, 0.301961, 1.0 ],
									"bgcolor2" : [ 0.301961, 0.301961, 0.301961, 1.0 ],
									"bgfillcolor_angle" : 270.0,
									"bgfillcolor_autogradient" : 0.0,
									"bgfillcolor_color" : [ 0.498039215686275, 0.498039215686275, 0.498039215686275, 1.0 ],
									"bgfillcolor_color1" : [ 0.301961, 0.301961, 0.301961, 1.0 ],
									"bgfillcolor_color2" : [ 0.2, 0.2, 0.2, 1.0 ],
									"bgfillcolor_proportion" : 0.5,
									"bgfillcolor_type" : "color",
									"gradient" : 1,
									"id" : "obj-5",
									"maxclass" : "message",
									"numinlets" : 2,
									"numoutlets" : 1,
									"outlettype" : [ "" ],
									"patching_rect" : [ 239.0, 343.0, 61.0, 22.0 ],
									"text" : "revDur $1"
								}

							}
, 							{
								"box" : 								{
									"color" : [ 0.490196, 0.498039, 0.517647, 1.0 ],
									"fontface" : 1,
									"fontsize" : 14.0,
									"id" : "obj-2",
									"maxclass" : "newobj",
									"numinlets" : 1,
									"numoutlets" : 3,
									"outlettype" : [ "signal", "signal", "list" ],
									"patching_rect" : [ 239.0, 384.5, 145.0, 24.0 ],
									"text" : "abc_rev4stereo~",
									"textcolor" : [ 0.968627450980392, 0.968627450980392, 0.968627450980392, 1.0 ],
									"varname" : "faustgen-3857d0"
								}

							}
, 							{
								"box" : 								{
									"args" : [ "@size", 0 ],
									"bgmode" : 0,
									"border" : 0,
									"clickthrough" : 0,
									"enablehscroll" : 0,
									"enablevscroll" : 0,
									"id" : "obj-1",
									"lockeddragscroll" : 0,
									"lockedsize" : 0,
									"maxclass" : "bpatcher",
									"name" : "abc.helpcredit.maxpat",
									"numinlets" : 1,
									"numoutlets" : 0,
									"offset" : [ 0.0, 0.0 ],
									"patching_rect" : [ 6.0, 559.0, 548.0, 23.0 ],
									"presentation" : 1,
									"presentation_rect" : [ 42.0, 732.916625999999951, 548.0, 23.0 ],
									"viewvisibility" : 1
								}

							}
, 							{
								"box" : 								{
									"args" : [ "@obj-name", "abc_rev4~", "@obj-desc", "Rev4~", "reverberation" ],
									"bgmode" : 0,
									"border" : 0,
									"clickthrough" : 0,
									"enablehscroll" : 0,
									"enablevscroll" : 0,
									"id" : "obj-3",
									"lockeddragscroll" : 0,
									"lockedsize" : 0,
									"maxclass" : "bpatcher",
									"name" : "abc.helpheader.maxpat",
									"numinlets" : 1,
									"numoutlets" : 0,
									"offset" : [ 0.0, 0.0 ],
									"patching_rect" : [ 6.0, 6.0, 485.0, 61.0 ],
									"viewvisibility" : 1
								}

							}
 ],
						"lines" : [ 							{
								"patchline" : 								{
									"destination" : [ "obj-2", 0 ],
									"midpoints" : [ 120.5, 377.75, 248.5, 377.75 ],
									"order" : 0,
									"source" : [ "obj-11", 0 ]
								}

							}
, 							{
								"patchline" : 								{
									"destination" : [ "obj-54", 0 ],
									"midpoints" : [ 120.5, 377.5, 185.5, 377.5 ],
									"order" : 1,
									"source" : [ "obj-11", 0 ]
								}

							}
, 							{
								"patchline" : 								{
									"destination" : [ "obj-54", 2 ],
									"source" : [ "obj-2", 1 ]
								}

							}
, 							{
								"patchline" : 								{
									"destination" : [ "obj-54", 1 ],
									"source" : [ "obj-2", 0 ]
								}

							}
, 							{
								"patchline" : 								{
									"destination" : [ "obj-54", 0 ],
									"midpoints" : [ 42.5, 434.5, 185.5, 434.5 ],
									"source" : [ "obj-4", 0 ]
								}

							}
, 							{
								"patchline" : 								{
									"destination" : [ "obj-5", 0 ],
									"source" : [ "obj-48", 0 ]
								}

							}
, 							{
								"patchline" : 								{
									"destination" : [ "obj-8", 0 ],
									"source" : [ "obj-49", 0 ]
								}

							}
, 							{
								"patchline" : 								{
									"destination" : [ "obj-2", 0 ],
									"source" : [ "obj-5", 0 ]
								}

							}
, 							{
								"patchline" : 								{
									"destination" : [ "obj-10", 1 ],
									"source" : [ "obj-54", 1 ]
								}

							}
, 							{
								"patchline" : 								{
									"destination" : [ "obj-10", 0 ],
									"source" : [ "obj-54", 0 ]
								}

							}
, 							{
								"patchline" : 								{
									"destination" : [ "obj-11", 0 ],
									"source" : [ "obj-59", 0 ]
								}

							}
, 							{
								"patchline" : 								{
									"destination" : [ "obj-48", 0 ],
									"source" : [ "obj-6", 0 ]
								}

							}
, 							{
								"patchline" : 								{
									"destination" : [ "obj-6", 0 ],
									"source" : [ "obj-62", 0 ]
								}

							}
, 							{
								"patchline" : 								{
									"destination" : [ "obj-7", 0 ],
									"source" : [ "obj-63", 0 ]
								}

							}
, 							{
								"patchline" : 								{
									"destination" : [ "obj-49", 0 ],
									"source" : [ "obj-7", 0 ]
								}

							}
, 							{
								"patchline" : 								{
									"destination" : [ "obj-2", 0 ],
									"midpoints" : [ 351.5, 374.25, 248.5, 374.25 ],
									"source" : [ "obj-8", 0 ]
								}

							}
 ]
					}
,
					"patching_rect" : [ 6.0, 93.0, 87.0, 22.0 ],
					"saved_object_attributes" : 					{
						"description" : "",
						"digest" : "",
						"globalpatchername" : "",
						"tags" : ""
					}
,
					"text" : "p \"rev4 stereo\""
				}

			}
, 			{
				"box" : 				{
					"args" : [ "@size", 0 ],
					"bgmode" : 0,
					"border" : 0,
					"clickthrough" : 0,
					"enablehscroll" : 0,
					"enablevscroll" : 0,
					"id" : "obj-1",
					"lockeddragscroll" : 0,
					"lockedsize" : 0,
					"maxclass" : "bpatcher",
					"name" : "abc.helpcredit.maxpat",
					"numinlets" : 1,
					"numoutlets" : 0,
					"offset" : [ 0.0, 0.0 ],
					"patching_rect" : [ 6.0, 559.0, 548.0, 23.0 ],
					"presentation" : 1,
					"presentation_rect" : [ 42.0, 732.916625999999951, 548.0, 23.0 ],
					"viewvisibility" : 1
				}

			}
, 			{
				"box" : 				{
					"args" : [ "@obj-name", "abc_rev4~", "@obj-desc", "Rev4~", "reverberation" ],
					"bgmode" : 0,
					"border" : 0,
					"clickthrough" : 0,
					"enablehscroll" : 0,
					"enablevscroll" : 0,
					"id" : "obj-3",
					"lockeddragscroll" : 0,
					"lockedsize" : 0,
					"maxclass" : "bpatcher",
					"name" : "abc.helpheader.maxpat",
					"numinlets" : 1,
					"numoutlets" : 0,
					"offset" : [ 0.0, 0.0 ],
					"patching_rect" : [ 6.0, 6.0, 485.0, 61.0 ],
					"viewvisibility" : 1
				}

			}
 ],
		"lines" : [  ],
		"dependency_cache" : [ 			{
				"name" : "abc.helpcredit.maxpat",
				"bootpath" : "~/Documents/Max 8/Packages/abclib/misc/others",
				"patcherrelativepath" : "../../../../Max 8/Packages/abclib/misc/others",
				"type" : "JSON",
				"implicit" : 1
			}
, 			{
				"name" : "abc.helpheader.maxpat",
				"bootpath" : "~/Documents/Max 8/Packages/abclib/misc/others",
				"patcherrelativepath" : "../../../../Max 8/Packages/abclib/misc/others",
				"type" : "JSON",
				"implicit" : 1
			}
, 			{
				"name" : "abc_2d_stereodecoder1~.mxo",
				"type" : "iLaX"
			}
, 			{
				"name" : "abc_2d_stereodecoder2~.mxo",
				"type" : "iLaX"
			}
, 			{
				"name" : "abc_gaincontrol.maxpat",
				"bootpath" : "~/Documents/Max 8/Packages/abclib/misc/others",
				"patcherrelativepath" : "../../../../Max 8/Packages/abclib/misc/others",
				"type" : "JSON",
				"implicit" : 1
			}
, 			{
				"name" : "abc_help_icon.png",
				"bootpath" : "~/Documents/Max 8/Packages/abclib/misc/others",
				"patcherrelativepath" : "../../../../Max 8/Packages/abclib/misc/others",
				"type" : "PNG",
				"implicit" : 1
			}
, 			{
				"name" : "abc_rev4quadri~.mxo",
				"type" : "iLaX"
			}
, 			{
				"name" : "abc_rev4stereo~.mxo",
				"type" : "iLaX"
			}
, 			{
				"name" : "abc_simplefmburst~.maxpat",
				"bootpath" : "~/Documents/Max 8/Packages/abclib/misc/others",
				"patcherrelativepath" : "../../../../Max 8/Packages/abclib/misc/others",
				"type" : "JSON",
				"implicit" : 1
			}
 ],
		"autosave" : 0,
		"styles" : [ 			{
				"name" : "newobjBlue-1",
				"default" : 				{
					"accentcolor" : [ 0.317647, 0.654902, 0.976471, 1.0 ]
				}
,
				"parentstyle" : "",
				"multi" : 0
			}
, 			{
				"name" : "newobjGreen-1",
				"default" : 				{
					"accentcolor" : [ 0.0, 0.533333, 0.168627, 1.0 ]
				}
,
				"parentstyle" : "",
				"multi" : 0
			}
, 			{
				"name" : "newobjYellow-1",
				"default" : 				{
					"accentcolor" : [ 0.82517, 0.78181, 0.059545, 1.0 ],
					"fontsize" : [ 12.059008 ]
				}
,
				"parentstyle" : "",
				"multi" : 0
			}
 ]
	}

}
