{
	"patcher" : 	{
		"fileversion" : 1,
		"appversion" : 		{
			"major" : 8,
			"minor" : 2,
			"revision" : 2,
			"architecture" : "x64",
			"modernui" : 1
		}
,
		"classnamespace" : "box",
		"rect" : [ 1140.0, 125.0, 952.0, 635.0 ],
		"bglocked" : 0,
		"openinpresentation" : 0,
		"default_fontsize" : 12.0,
		"default_fontface" : 0,
		"default_fontname" : "Arial",
		"gridonopen" : 1,
		"gridsize" : [ 15.0, 15.0 ],
		"gridsnaponopen" : 1,
		"objectsnaponopen" : 1,
		"statusbarvisible" : 2,
		"toolbarvisible" : 1,
		"lefttoolbarpinned" : 0,
		"toptoolbarpinned" : 0,
		"righttoolbarpinned" : 0,
		"bottomtoolbarpinned" : 0,
		"toolbars_unpinned_last_save" : 0,
		"tallnewobj" : 0,
		"boxanimatetime" : 200,
		"enablehscroll" : 1,
		"enablevscroll" : 1,
		"devicewidth" : 0.0,
		"description" : "",
		"digest" : "",
		"tags" : "",
		"style" : "",
		"subpatcher_template" : "",
		"assistshowspatchername" : 0,
		"boxes" : [ 			{
				"box" : 				{
					"id" : "obj-8",
					"maxclass" : "live.meter~",
					"numinlets" : 1,
					"numoutlets" : 2,
					"outlettype" : [ "float", "int" ],
					"patching_rect" : [ 558.0, 502.0, 5.0, 100.0 ]
				}

			}
, 			{
				"box" : 				{
					"id" : "obj-2",
					"maxclass" : "ezdac~",
					"numinlets" : 2,
					"numoutlets" : 0,
					"patching_rect" : [ 382.0, 529.5, 45.0, 45.0 ]
				}

			}
, 			{
				"box" : 				{
					"args" : [ -25.0 ],
					"bgmode" : 0,
					"border" : 1,
					"clickthrough" : 0,
					"enablehscroll" : 0,
					"enablevscroll" : 0,
					"id" : "obj-20",
					"lockeddragscroll" : 0,
					"lockedsize" : 0,
					"maxclass" : "bpatcher",
					"name" : "abc_stereoout~.maxpat",
					"numinlets" : 2,
					"numoutlets" : 0,
					"offset" : [ 0.0, 0.0 ],
					"patching_rect" : [ 71.571441999999934, 472.0, 185.0, 26.0 ],
					"viewvisibility" : 1
				}

			}
, 			{
				"box" : 				{
					"id" : "obj-10",
					"maxclass" : "newobj",
					"numinlets" : 1,
					"numoutlets" : 1,
					"outlettype" : [ "bang" ],
					"patching_rect" : [ 781.0, 224.0, 58.0, 22.0 ],
					"text" : "loadbang"
				}

			}
, 			{
				"box" : 				{
					"id" : "obj-9",
					"linecount" : 2,
					"maxclass" : "comment",
					"numinlets" : 1,
					"numoutlets" : 0,
					"patching_rect" : [ 781.0, 575.0, 101.0, 33.0 ],
					"text" : "all rarefactions initialized at 0.5"
				}

			}
, 			{
				"box" : 				{
					"bgcolor" : [ 0.301961, 0.301961, 0.301961, 1.0 ],
					"bgcolor2" : [ 0.301961, 0.301961, 0.301961, 1.0 ],
					"bgfillcolor_angle" : 270.0,
					"bgfillcolor_autogradient" : 0.0,
					"bgfillcolor_color" : [ 0.498039215686275, 0.498039215686275, 0.498039215686275, 1.0 ],
					"bgfillcolor_color1" : [ 0.301961, 0.301961, 0.301961, 1.0 ],
					"bgfillcolor_color2" : [ 0.2, 0.2, 0.2, 1.0 ],
					"bgfillcolor_proportion" : 0.5,
					"bgfillcolor_type" : "color",
					"gradient" : 1,
					"id" : "obj-6",
					"linecount" : 22,
					"maxclass" : "message",
					"numinlets" : 2,
					"numoutlets" : 1,
					"outlettype" : [ "" ],
					"patching_rect" : [ 781.0, 251.5, 101.0, 317.0 ],
					"text" : ";\rgctrl2 gs00 100;\rgctrl2 dt00 500;\rgctrl2 fdbk00 0.1;\rgctrl2 gs01 100;\rgctrl2 dt01 750;\rgctrl2 fdbk01 0.2;\rgctrl2 gs02 100;\rgctrl2 dt02 1000;\rgctrl2 fdbk02 0.3;\rgctrl2 gs03 100;\rgctrl2 dt03 1250;\rgctrl2 fdbk03 0.4;\rgctrl2 gs04 100;\rgctrl2 dt04 1500;\rgctrl2 fdbk04 0.5;\rgctrl2 gs05 100;\rgctrl2 dt05 1750;\rgctrl2 fdbk05 0.6;\rgctrl2 gs06 100;\rgctrl2 dt06 2000;\rgctrl2 fdbk06 0.7;\r"
				}

			}
, 			{
				"box" : 				{
					"bgcolor" : [ 0.043137254901961, 0.125490196078431, 0.572549019607843, 1.0 ],
					"bgcolor2" : [ 0.043137254901961, 0.125490196078431, 0.572549019607843, 1.0 ],
					"bgfillcolor_angle" : 270.0,
					"bgfillcolor_autogradient" : 0.0,
					"bgfillcolor_color" : [ 0.498039215686275, 0.498039215686275, 0.498039215686275, 1.0 ],
					"bgfillcolor_color1" : [ 0.043137254901961, 0.125490196078431, 0.572549019607843, 1.0 ],
					"bgfillcolor_color2" : [ 0.2, 0.2, 0.2, 1.0 ],
					"bgfillcolor_proportion" : 0.5,
					"bgfillcolor_type" : "color",
					"gradient" : 1,
					"id" : "obj-26",
					"linecount" : 9,
					"maxclass" : "message",
					"numinlets" : 2,
					"numoutlets" : 1,
					"outlettype" : [ "" ],
					"patching_rect" : [ 269.0, 231.5, 101.0, 143.0 ],
					"text" : ";\rgctrl1 gs00 50;\rgctrl1 dt00 500;\rgctrl1 fdbk00 0.2;\rgctrl1 rrf00 0.5;\rgctrl1 gs01 400;\rgctrl1 dt01 100;\rgctrl1 fdbk01 0.1;\rgctrl1 rrf01 0.4;\r"
				}

			}
, 			{
				"box" : 				{
					"bgcolor" : [ 0.301961, 0.301961, 0.301961, 1.0 ],
					"id" : "obj-19",
					"maxclass" : "newobj",
					"numinlets" : 0,
					"numoutlets" : 1,
					"outlettype" : [ "" ],
					"patching_rect" : [ 24.571441999999934, 315.0, 45.0, 22.0 ],
					"text" : "r gctrl1"
				}

			}
, 			{
				"box" : 				{
					"id" : "obj-14",
					"maxclass" : "newobj",
					"numinlets" : 1,
					"numoutlets" : 1,
					"outlettype" : [ "bang" ],
					"patching_rect" : [ 212.821441999999934, 186.5, 58.0, 22.0 ],
					"text" : "loadbang"
				}

			}
, 			{
				"box" : 				{
					"bgcolor" : [ 0.498039215686275, 0.498039215686275, 0.498039215686275, 1.0 ],
					"bgcolor2" : [ 0.498039215686275, 0.498039215686275, 0.498039215686275, 1.0 ],
					"bgfillcolor_angle" : 270.0,
					"bgfillcolor_autogradient" : 0.0,
					"bgfillcolor_color" : [ 0.498039215686275, 0.498039215686275, 0.498039215686275, 1.0 ],
					"bgfillcolor_color1" : [ 0.498039215686275, 0.498039215686275, 0.498039215686275, 1.0 ],
					"bgfillcolor_color2" : [ 0.2, 0.2, 0.2, 1.0 ],
					"bgfillcolor_proportion" : 0.5,
					"bgfillcolor_type" : "color",
					"gradient" : 1,
					"id" : "obj-7",
					"maxclass" : "message",
					"numinlets" : 2,
					"numoutlets" : 1,
					"outlettype" : [ "" ],
					"patching_rect" : [ 212.821441999999934, 231.5, 45.0, 22.0 ],
					"text" : "gain 0."
				}

			}
, 			{
				"box" : 				{
					"id" : "obj-4",
					"maxclass" : "newobj",
					"numinlets" : 1,
					"numoutlets" : 3,
					"outlettype" : [ "signal", "signal", "list" ],
					"patching_rect" : [ 71.571441999999934, 231.5, 124.0, 22.0 ],
					"text" : "abc_multinoise2~"
				}

			}
, 			{
				"box" : 				{
					"id" : "obj-42",
					"linecount" : 2,
					"maxclass" : "newobj",
					"numinlets" : 8,
					"numoutlets" : 0,
					"patching_rect" : [ 575.0, 515.5, 108.0, 35.0 ],
					"text" : "dac~ 1 2 3 4 5 6 7 8"
				}

			}
, 			{
				"box" : 				{
					"hidden" : 1,
					"id" : "obj-86",
					"maxclass" : "newobj",
					"numinlets" : 1,
					"numoutlets" : 1,
					"outlettype" : [ "" ],
					"patching_rect" : [ 691.5, 316.0, 70.0, 22.0 ],
					"text" : "loadmess 1"
				}

			}
, 			{
				"box" : 				{
					"id" : "obj-85",
					"maxclass" : "newobj",
					"numinlets" : 1,
					"numoutlets" : 8,
					"outlettype" : [ "signal", "signal", "signal", "signal", "signal", "signal", "signal", "list" ],
					"patching_rect" : [ 575.0, 200.0, 156.0, 22.0 ],
					"text" : "abc_addsynth7~ @gain -10"
				}

			}
, 			{
				"box" : 				{
					"id" : "obj-5",
					"maxclass" : "newobj",
					"numinlets" : 2,
					"numoutlets" : 3,
					"outlettype" : [ "signal", "signal", "list" ],
					"patching_rect" : [ 71.571441999999934, 287.0, 71.0, 22.0 ],
					"text" : "abc_gain2~"
				}

			}
, 			{
				"box" : 				{
					"id" : "obj-84",
					"linecount" : 12,
					"maxclass" : "comment",
					"numinlets" : 1,
					"numoutlets" : 0,
					"patching_rect" : [ 569.0, 6.0, 367.0, 181.0 ],
					"text" : "abc_grain1~, abc_grain2~, ... objects are parallel granular processes.\ngs00, gs01, gs02, ... are the grain sizes expressed in milliseconds for the n granulators.\ndt00, dt01, dt02, ... are the maximum delays expressed in milliseconds for the n granulators.\nfdbk00, fdbk01, fdbk02, ... are the feedbacks of the n granulators (between 0 and 1)\nrrf00, rrf01, rrf02, ... are the rarefactions of the n granulators (between 0 and 1, 0 means no rarefaction, 1 means total rarefaction) \n \n"
				}

			}
, 			{
				"box" : 				{
					"id" : "obj-47",
					"maxclass" : "toggle",
					"numinlets" : 1,
					"numoutlets" : 1,
					"outlettype" : [ "int" ],
					"parameter_enable" : 0,
					"patching_rect" : [ 691.5, 387.0, 24.0, 24.0 ]
				}

			}
, 			{
				"box" : 				{
					"bgcolor" : [ 0.301961, 0.301961, 0.301961, 1.0 ],
					"bgcolor2" : [ 0.301961, 0.301961, 0.301961, 1.0 ],
					"bgfillcolor_angle" : 270.0,
					"bgfillcolor_autogradient" : 0.0,
					"bgfillcolor_color" : [ 0.498039215686275, 0.498039215686275, 0.498039215686275, 1.0 ],
					"bgfillcolor_color1" : [ 0.301961, 0.301961, 0.301961, 1.0 ],
					"bgfillcolor_color2" : [ 0.2, 0.2, 0.2, 1.0 ],
					"bgfillcolor_proportion" : 0.5,
					"bgfillcolor_type" : "color",
					"gradient" : 1,
					"id" : "obj-48",
					"maxclass" : "message",
					"numinlets" : 2,
					"numoutlets" : 1,
					"outlettype" : [ "" ],
					"patching_rect" : [ 691.5, 419.0, 59.0, 22.0 ],
					"text" : "stereo $1"
				}

			}
, 			{
				"box" : 				{
					"id" : "obj-54",
					"maxclass" : "newobj",
					"numinlets" : 7,
					"numoutlets" : 9,
					"outlettype" : [ "signal", "signal", "signal", "signal", "signal", "signal", "signal", "signal", "list" ],
					"patching_rect" : [ 575.0, 463.5, 118.428571428571331, 22.0 ],
					"text" : "abc_2d_decoder3~"
				}

			}
, 			{
				"box" : 				{
					"args" : [ -127 ],
					"bgmode" : 0,
					"border" : 1,
					"clickthrough" : 0,
					"enablehscroll" : 0,
					"enablevscroll" : 0,
					"id" : "obj-57",
					"lockeddragscroll" : 0,
					"lockedsize" : 0,
					"maxclass" : "bpatcher",
					"name" : "abc_gaincontrol.maxpat",
					"numinlets" : 0,
					"numoutlets" : 1,
					"offset" : [ 0.0, 0.0 ],
					"outlettype" : [ "" ],
					"patching_rect" : [ 483.75, 291.0, 74.0, 72.0 ],
					"viewvisibility" : 1
				}

			}
, 			{
				"box" : 				{
					"bgcolor" : [ 0.301961, 0.301961, 0.301961, 1.0 ],
					"id" : "obj-45",
					"maxclass" : "newobj",
					"numinlets" : 0,
					"numoutlets" : 1,
					"outlettype" : [ "" ],
					"patching_rect" : [ 597.5, 320.5, 45.0, 22.0 ],
					"text" : "r gctrl2"
				}

			}
, 			{
				"box" : 				{
					"fontface" : 1,
					"fontsize" : 14.0,
					"id" : "obj-44",
					"maxclass" : "newobj",
					"numinlets" : 7,
					"numoutlets" : 8,
					"outlettype" : [ "signal", "signal", "signal", "signal", "signal", "signal", "signal", "list" ],
					"patching_rect" : [ 575.0, 354.5, 134.999999999999773, 24.0 ],
					"text" : "abc_grain7~"
				}

			}
, 			{
				"box" : 				{
					"args" : [ "@size", 0 ],
					"bgmode" : 0,
					"border" : 0,
					"clickthrough" : 0,
					"enablehscroll" : 0,
					"enablevscroll" : 0,
					"id" : "obj-1",
					"lockeddragscroll" : 0,
					"lockedsize" : 0,
					"maxclass" : "bpatcher",
					"name" : "abc.helpcredit.maxpat",
					"numinlets" : 1,
					"numoutlets" : 0,
					"offset" : [ 0.0, 0.0 ],
					"patching_rect" : [ 6.0, 610.0, 548.0, 23.0 ],
					"presentation" : 1,
					"presentation_rect" : [ 42.0, 732.916625999999951, 548.0, 23.0 ],
					"viewvisibility" : 1
				}

			}
, 			{
				"box" : 				{
					"args" : [ "@obj-name", "abc_grainN~", "@obj-desc", "Parallel", "granular", "processes" ],
					"bgmode" : 0,
					"border" : 0,
					"clickthrough" : 0,
					"enablehscroll" : 0,
					"enablevscroll" : 0,
					"id" : "obj-3",
					"lockeddragscroll" : 0,
					"lockedsize" : 0,
					"maxclass" : "bpatcher",
					"name" : "abc.helpheader.maxpat",
					"numinlets" : 1,
					"numoutlets" : 0,
					"offset" : [ 0.0, 0.0 ],
					"patching_rect" : [ 6.0, 6.0, 485.0, 61.0 ],
					"viewvisibility" : 1
				}

			}
, 			{
				"box" : 				{
					"fontface" : 1,
					"fontsize" : 14.0,
					"id" : "obj-11",
					"maxclass" : "newobj",
					"numinlets" : 2,
					"numoutlets" : 3,
					"outlettype" : [ "signal", "signal", "list" ],
					"patching_rect" : [ 71.571441999999934, 363.0, 91.0, 24.0 ],
					"text" : "abc_grain2~"
				}

			}
 ],
		"lines" : [ 			{
				"patchline" : 				{
					"destination" : [ "obj-6", 0 ],
					"source" : [ "obj-10", 0 ]
				}

			}
, 			{
				"patchline" : 				{
					"destination" : [ "obj-20", 1 ],
					"midpoints" : [ 117.071441999999934, 429.0, 247.071441999999934, 429.0 ],
					"source" : [ "obj-11", 1 ]
				}

			}
, 			{
				"patchline" : 				{
					"destination" : [ "obj-20", 0 ],
					"source" : [ "obj-11", 0 ]
				}

			}
, 			{
				"patchline" : 				{
					"destination" : [ "obj-26", 0 ],
					"midpoints" : [ 222.321441999999934, 219.5, 278.5, 219.5 ],
					"order" : 0,
					"source" : [ "obj-14", 0 ]
				}

			}
, 			{
				"patchline" : 				{
					"destination" : [ "obj-7", 0 ],
					"order" : 1,
					"source" : [ "obj-14", 0 ]
				}

			}
, 			{
				"patchline" : 				{
					"destination" : [ "obj-11", 0 ],
					"midpoints" : [ 34.071441999999934, 348.5, 81.071441999999934, 348.5 ],
					"source" : [ "obj-19", 0 ]
				}

			}
, 			{
				"patchline" : 				{
					"destination" : [ "obj-5", 1 ],
					"midpoints" : [ 133.571441999999934, 266.25, 133.071441999999934, 266.25 ],
					"source" : [ "obj-4", 1 ]
				}

			}
, 			{
				"patchline" : 				{
					"destination" : [ "obj-5", 0 ],
					"source" : [ "obj-4", 0 ]
				}

			}
, 			{
				"patchline" : 				{
					"destination" : [ "obj-54", 6 ],
					"source" : [ "obj-44", 6 ]
				}

			}
, 			{
				"patchline" : 				{
					"destination" : [ "obj-54", 5 ],
					"source" : [ "obj-44", 5 ]
				}

			}
, 			{
				"patchline" : 				{
					"destination" : [ "obj-54", 4 ],
					"source" : [ "obj-44", 4 ]
				}

			}
, 			{
				"patchline" : 				{
					"destination" : [ "obj-54", 3 ],
					"source" : [ "obj-44", 3 ]
				}

			}
, 			{
				"patchline" : 				{
					"destination" : [ "obj-54", 2 ],
					"source" : [ "obj-44", 2 ]
				}

			}
, 			{
				"patchline" : 				{
					"destination" : [ "obj-54", 1 ],
					"source" : [ "obj-44", 1 ]
				}

			}
, 			{
				"patchline" : 				{
					"destination" : [ "obj-54", 0 ],
					"source" : [ "obj-44", 0 ]
				}

			}
, 			{
				"patchline" : 				{
					"destination" : [ "obj-44", 0 ],
					"midpoints" : [ 607.0, 348.0, 584.5, 348.0 ],
					"source" : [ "obj-45", 0 ]
				}

			}
, 			{
				"patchline" : 				{
					"destination" : [ "obj-48", 0 ],
					"source" : [ "obj-47", 0 ]
				}

			}
, 			{
				"patchline" : 				{
					"destination" : [ "obj-54", 0 ],
					"midpoints" : [ 701.0, 455.25, 584.5, 455.25 ],
					"source" : [ "obj-48", 0 ]
				}

			}
, 			{
				"patchline" : 				{
					"destination" : [ "obj-11", 1 ],
					"midpoints" : [ 107.071441999999934, 335.5, 153.071441999999934, 335.5 ],
					"source" : [ "obj-5", 1 ]
				}

			}
, 			{
				"patchline" : 				{
					"destination" : [ "obj-11", 0 ],
					"source" : [ "obj-5", 0 ]
				}

			}
, 			{
				"patchline" : 				{
					"destination" : [ "obj-42", 7 ],
					"source" : [ "obj-54", 7 ]
				}

			}
, 			{
				"patchline" : 				{
					"destination" : [ "obj-42", 6 ],
					"source" : [ "obj-54", 6 ]
				}

			}
, 			{
				"patchline" : 				{
					"destination" : [ "obj-42", 5 ],
					"source" : [ "obj-54", 5 ]
				}

			}
, 			{
				"patchline" : 				{
					"destination" : [ "obj-42", 4 ],
					"source" : [ "obj-54", 4 ]
				}

			}
, 			{
				"patchline" : 				{
					"destination" : [ "obj-42", 3 ],
					"source" : [ "obj-54", 3 ]
				}

			}
, 			{
				"patchline" : 				{
					"destination" : [ "obj-42", 2 ],
					"source" : [ "obj-54", 2 ]
				}

			}
, 			{
				"patchline" : 				{
					"destination" : [ "obj-42", 1 ],
					"source" : [ "obj-54", 1 ]
				}

			}
, 			{
				"patchline" : 				{
					"destination" : [ "obj-42", 0 ],
					"order" : 0,
					"source" : [ "obj-54", 0 ]
				}

			}
, 			{
				"patchline" : 				{
					"destination" : [ "obj-8", 0 ],
					"order" : 1,
					"source" : [ "obj-54", 0 ]
				}

			}
, 			{
				"patchline" : 				{
					"destination" : [ "obj-54", 0 ],
					"midpoints" : [ 493.25, 412.75, 584.5, 412.75 ],
					"source" : [ "obj-57", 0 ]
				}

			}
, 			{
				"patchline" : 				{
					"destination" : [ "obj-5", 0 ],
					"midpoints" : [ 222.321441999999934, 272.25, 81.071441999999934, 272.25 ],
					"source" : [ "obj-7", 0 ]
				}

			}
, 			{
				"patchline" : 				{
					"destination" : [ "obj-44", 6 ],
					"source" : [ "obj-85", 6 ]
				}

			}
, 			{
				"patchline" : 				{
					"destination" : [ "obj-44", 5 ],
					"source" : [ "obj-85", 5 ]
				}

			}
, 			{
				"patchline" : 				{
					"destination" : [ "obj-44", 4 ],
					"source" : [ "obj-85", 4 ]
				}

			}
, 			{
				"patchline" : 				{
					"destination" : [ "obj-44", 3 ],
					"source" : [ "obj-85", 3 ]
				}

			}
, 			{
				"patchline" : 				{
					"destination" : [ "obj-44", 2 ],
					"source" : [ "obj-85", 2 ]
				}

			}
, 			{
				"patchline" : 				{
					"destination" : [ "obj-44", 1 ],
					"source" : [ "obj-85", 1 ]
				}

			}
, 			{
				"patchline" : 				{
					"destination" : [ "obj-44", 0 ],
					"source" : [ "obj-85", 0 ]
				}

			}
, 			{
				"patchline" : 				{
					"destination" : [ "obj-47", 0 ],
					"hidden" : 1,
					"source" : [ "obj-86", 0 ]
				}

			}
 ],
		"dependency_cache" : [ 			{
				"name" : "abc.helpcredit.maxpat",
				"bootpath" : "~/Documents/Max 8/Packages/abclib/misc/others",
				"patcherrelativepath" : "../../../../Max 8/Packages/abclib/misc/others",
				"type" : "JSON",
				"implicit" : 1
			}
, 			{
				"name" : "abc.helpheader.maxpat",
				"bootpath" : "~/Documents/Max 8/Packages/abclib/misc/others",
				"patcherrelativepath" : "../../../../Max 8/Packages/abclib/misc/others",
				"type" : "JSON",
				"implicit" : 1
			}
, 			{
				"name" : "abc_2d_decoder3~.mxo",
				"type" : "iLaX"
			}
, 			{
				"name" : "abc_addsynth7~.mxo",
				"type" : "iLaX"
			}
, 			{
				"name" : "abc_gain2~.mxo",
				"type" : "iLaX"
			}
, 			{
				"name" : "abc_gaincontrol.maxpat",
				"bootpath" : "~/Documents/Max 8/Packages/abclib/misc/others",
				"patcherrelativepath" : "../../../../Max 8/Packages/abclib/misc/others",
				"type" : "JSON",
				"implicit" : 1
			}
, 			{
				"name" : "abc_grain2~.mxo",
				"type" : "iLaX"
			}
, 			{
				"name" : "abc_grain7~.mxo",
				"type" : "iLaX"
			}
, 			{
				"name" : "abc_help_icon.png",
				"bootpath" : "~/Documents/Max 8/Packages/abclib/misc/others",
				"patcherrelativepath" : "../../../../Max 8/Packages/abclib/misc/others",
				"type" : "PNG",
				"implicit" : 1
			}
, 			{
				"name" : "abc_multinoise2~.mxo",
				"type" : "iLaX"
			}
, 			{
				"name" : "abc_stereoout~.maxpat",
				"bootpath" : "~/Documents/Max 8/Packages/abclib/misc/others",
				"patcherrelativepath" : "../../../../Max 8/Packages/abclib/misc/others",
				"type" : "JSON",
				"implicit" : 1
			}
 ],
		"autosave" : 0,
		"styles" : [ 			{
				"name" : "newobjBlue-1",
				"default" : 				{
					"accentcolor" : [ 0.317647, 0.654902, 0.976471, 1.0 ]
				}
,
				"parentstyle" : "",
				"multi" : 0
			}
, 			{
				"name" : "newobjGreen-1",
				"default" : 				{
					"accentcolor" : [ 0.0, 0.533333, 0.168627, 1.0 ]
				}
,
				"parentstyle" : "",
				"multi" : 0
			}
, 			{
				"name" : "newobjYellow-1",
				"default" : 				{
					"accentcolor" : [ 0.82517, 0.78181, 0.059545, 1.0 ],
					"fontsize" : [ 12.059008 ]
				}
,
				"parentstyle" : "",
				"multi" : 0
			}
 ]
	}

}
