#N canvas 578 82 575 784 10;
#X obj 14 6 cnv 15 500 25 empty empty abc_slider2map 20 12 0 18 #606060 #fcfcfc 0;
#X obj 13 746 abc_helpcredit;
#X obj 14 32 cnv 15 500 25 empty empty Graphic_2D_control_of_a_source_position 20 12 0 12 #606060 #fcfcfc 0;
#X obj 374 664 tgl 15 0 empty empty DSP_on/off 17 7 0 10 #dfdfdf #000000 #000000 0 1;
#X msg 374 694 \; pd dsp \$1 \;;
#X obj 35 412 tgl 15 0 empty empty empty 17 7 0 10 #dfdfdf #000000 #000000 0 1;
#X msg 35 434 stereo \$1;
#X obj 129 329 abc_soundcoat~;
#X obj 224 147 abc_slider2map;
#X text 140 69 DESCRIPTION;
#X text 140 89 abc_slider2map is an abstraction that enables to graphically control the abc_2d_map objects. There are no default values;
#X text 266 298 generates the polar coordinates of the source;
#X obj 111 216 loadbang;
#X msg 111 240 1;
#X obj 111 264 tgl 15 0 empty empty empty 17 7 0 10 #fcfcfc #000000 #000000 0 1;
#X msg 111 288 directangles \$1;
#X obj 17 203 abc_gain -127;
#X obj 348 468 abc_ambi_scope3;
#X obj 157 382 abc_2d_map3~, f 27;
#X obj 143 468 abc_2d_decoder3~, f 31;
#X obj 165 515 snake~ in 8;
#X obj 165 544 abc_meter8_m;
#X obj 120 546 dac~ 1;
#X connect 3 0 4 0;
#X connect 5 0 6 0;
#X connect 6 0 19 0;
#X connect 7 1 18 1;
#X connect 8 0 18 2;
#X connect 8 1 18 3;
#X connect 12 0 13 0;
#X connect 13 0 14 0;
#X connect 14 0 15 0;
#X connect 15 0 19 0;
#X connect 16 0 19 0;
#X connect 18 1 17 1;
#X connect 18 1 19 1;
#X connect 18 2 17 2;
#X connect 18 2 19 2;
#X connect 18 3 17 3;
#X connect 18 3 19 3;
#X connect 18 4 17 4;
#X connect 18 4 19 4;
#X connect 18 5 17 5;
#X connect 18 5 19 5;
#X connect 18 6 17 6;
#X connect 18 6 19 6;
#X connect 18 7 17 7;
#X connect 18 7 19 7;
#X connect 19 1 20 0;
#X connect 19 2 20 1;
#X connect 19 3 20 2;
#X connect 19 4 20 3;
#X connect 19 5 20 4;
#X connect 19 6 20 5;
#X connect 19 7 20 6;
#X connect 19 8 20 7;
#X connect 20 0 21 0;
#X connect 20 0 22 0;
