#N canvas 50 43 1462 867 10;
#X obj 14 6 cnv 15 500 25 empty empty abc_drops~ 20 12 0 18 #606060
#fcfcfc 0;
#X obj 14 828 abc_helpcredit;
#X obj 14 32 cnv 15 500 25 empty empty Rain_drop_synthetizer 20 12
0 12 #606060 #fcfcfc 0;
#X obj 606 611 tgl 15 0 empty empty DSP_on/off 17 7 0 10 #fcfcfc #000000
#000000 0 1;
#X msg 606 641 \; pd dsp \$1 \;;
#X text 22 64 DESCRIPTION;
#X obj 205 652 abc_meter;
#X obj 335 219 loadbang;
#X floatatom 163 329 5 0 0 0 - - - 0;
#X msg 163 308 1000;
#X msg 163 349 dropperiod \$1;
#X floatatom 256 328 5 0 0 0 - - - 0;
#X msg 256 348 dropthinness \$1;
#X msg 256 307 50;
#X floatatom 360 328 5 0 0 0 - - - 0;
#X msg 360 307 50;
#X msg 360 348 qf \$1;
#X msg 407 349 limiter \$1;
#X obj 407 329 tgl 15 0 empty empty empty 17 7 0 10 #fcfcfc #000000
#000000 0 1;
#X msg 407 307 1;
#X floatatom 479 329 5 0 0 0 - - - 0;
#X msg 479 308 1000;
#X msg 479 349 avgfreq \$1;
#X floatatom 552 329 5 0 0 0 - - - 0;
#X msg 552 308 5;
#X msg 552 349 attackdur \$1;
#X text 22 85 abc_drops~ simulates raindrops with a periodic exciter
that enters a reson filter whose frequency varies randomly at a random
speed.;
#X text 434 65 CONTROLS;
#X text 436 78 - the period of the drop: dropperiod in milliseconds
- the thinness of the drop: dropthinness is the thinness of the impulsion
to enter the reason filter (the higher the thinner) - the quality factor
of the reason filter: qf - the use of the limiter at the output or
not: limiter 1 or 0 - the average frequency of the randomization of
drop frequencies: avgfreq in Hz - the duration of the attack of the
envelope: attackdur in milliseconds;
#X obj 1006 136 loadbang;
#X msg 900 196 1.618;
#X msg 1108 196 700;
#X obj 907 378 expr 1000 / $f1;
#X floatatom 907 399 5 0 0 0 - - - 0;
#X msg 907 419 dropperiod \$1;
#X obj 44 397 abc_drops;
#X msg 845 440 speed \$1;
#X msg 1171 195 1.1;
#X floatatom 1171 216 5 0 0 1 frequency_ratio - - 0;
#X floatatom 900 217 5 0 0 0 rotation_speed_of_drop_1 - - 0;
#X floatatom 1108 217 5 0 0 0 average_frequency_of_drop_1 - - 0;
#X obj 1108 299 *;
#X obj 1171 237 t b f f;
#X obj 1210 263 t b f;
#X obj 1218 307 *;
#X floatatom 1218 328 5 0 0 0 - - - 0;
#X floatatom 1108 329 5 0 0 0 - - - 0;
#X obj 1219 377 expr 1000 / $f1;
#X floatatom 1219 398 5 0 0 0 - - - 0;
#X msg 1219 418 dropperiod \$1;
#X msg 1315 419 speed \$1;
#X msg 999 419 avgfreq \$1;
#X msg 1108 418 avgfreq \$1;
#X obj 1013 612 abc_2d_decoder1~;
#X obj 822 531 tgl 15 0 empty empty empty 17 7 0 10 #fcfcfc #000000
#000000 0 1;
#X msg 822 555 stereo \$1;
#X obj 735 390 abc_gain -127;
#X obj 974 464 abc_drops~;
#X obj 1108 464 abc_drops~;
#X obj 938 509 abc_2d_encoder1~;
#X obj 1072 510 abc_2d_encoder1~;
#X obj 44 185 abc_gain 0;
#X obj 272 652 abc_stereoout -15;
#X obj 1010 711 abc_quadriout 0 1 2 3 4;
#X connect 3 0 4 0;
#X connect 7 0 9 0;
#X connect 7 0 13 0;
#X connect 7 0 15 0;
#X connect 7 0 19 0;
#X connect 7 0 21 0;
#X connect 7 0 24 0;
#X connect 8 0 10 0;
#X connect 9 0 8 0;
#X connect 10 0 35 0;
#X connect 11 0 12 0;
#X connect 12 0 35 0;
#X connect 13 0 11 0;
#X connect 14 0 16 0;
#X connect 15 0 14 0;
#X connect 16 0 35 0;
#X connect 17 0 35 0;
#X connect 18 0 17 0;
#X connect 19 0 18 0;
#X connect 20 0 22 0;
#X connect 21 0 20 0;
#X connect 22 0 35 0;
#X connect 23 0 25 0;
#X connect 24 0 23 0;
#X connect 25 0 35 0;
#X connect 29 0 30 0;
#X connect 29 0 31 0;
#X connect 29 0 37 0;
#X connect 30 0 39 0;
#X connect 31 0 40 0;
#X connect 32 0 33 0;
#X connect 33 0 34 0;
#X connect 34 0 57 0;
#X connect 35 1 6 0;
#X connect 35 1 62 0;
#X connect 35 1 62 1;
#X connect 36 0 59 0;
#X connect 37 0 38 0;
#X connect 38 0 42 0;
#X connect 39 0 36 0;
#X connect 39 0 32 0;
#X connect 39 0 44 0;
#X connect 40 0 41 0;
#X connect 40 0 51 0;
#X connect 41 0 46 0;
#X connect 42 0 41 0;
#X connect 42 1 41 1;
#X connect 42 2 43 0;
#X connect 43 0 44 0;
#X connect 43 1 44 1;
#X connect 44 0 45 0;
#X connect 45 0 47 0;
#X connect 45 0 50 0;
#X connect 46 0 52 0;
#X connect 47 0 48 0;
#X connect 48 0 49 0;
#X connect 49 0 58 0;
#X connect 50 0 60 0;
#X connect 51 0 57 0;
#X connect 52 0 58 0;
#X connect 53 1 63 0;
#X connect 53 2 63 1;
#X connect 53 3 63 2;
#X connect 53 4 63 3;
#X connect 54 0 55 0;
#X connect 55 0 53 0;
#X connect 56 0 53 0;
#X connect 57 1 59 1;
#X connect 58 1 60 1;
#X connect 59 1 53 1;
#X connect 59 2 53 2;
#X connect 59 3 53 3;
#X connect 60 1 53 1;
#X connect 60 2 53 2;
#X connect 60 3 53 3;
#X connect 61 0 35 0;
