#N canvas 647 97 865 776 10;
#X obj 11 5 cnv 15 500 25 empty empty abc_mult2pi~ 20 12 0 18 #606060
#fcfcfc 0;
#X obj 10 733 abc_helpcredit;
#X obj 11 31 cnv 15 500 25 empty empty Multiplication_by_2*PI 20 12
0 12 #606060 #fcfcfc 0;
#X obj 499 643 tgl 15 0 empty empty DSP_on/off 17 7 0 10 #fcfcfc #000000
#000000 0 1;
#X msg 499 671 \; pd dsp \$1 \;;
#X text 494 154 CONTROLS;
#X text 492 73 DESCRIPTION;
#X obj 49 546 abc_meter;
#X text 494 174 no specific control;
#X obj 129 374 abc_2d_map1~;
#X obj 120 468 abc_2d_decoder1~;
#X obj 7 420 tgl 15 0 empty empty empty 17 7 0 10 #fcfcfc #000000 #000000
0 1;
#X msg 7 440 stereo \$1;
#X obj 175 274 sig~ 1;
#X obj 291 233 phasor~ 1;
#X obj 222 275 abc_mult2pi~;
#X obj 407 242 loadbang;
#X msg 407 263 1;
#X obj 407 302 metro 50;
#X obj 407 335 snapshot~;
#X obj 407 282 tgl 15 0 empty empty empty 17 7 0 10 #fcfcfc #000000
#000000 0 1;
#X floatatom 407 356 5 0 0 0 - - - 0;
#X obj 336 336 snapshot~;
#X floatatom 336 357 5 0 0 0 - - - 0;
#X text 493 91 abc_mult2pi~ multiplies the incoming signal by 2*PI.
Therefore a phasor~ between 0 and 1 becomes an angle between 0 and
2*Pi;
#X obj 316 439 abc_2d_scope1~;
#X obj 150 121 abc_env_noise 200 0.3 0;
#X obj 292 490 cyclone/scope~ 130 130 16 3 256 -1 1 0 0 0 0 205 229
232 74 79 77 96 98 102 0 empty;
#X text 311 623 cyclone/scope~;
#X text 155 257 constant r;
#X text 234 357 theta in radians;
#X obj 15 228 abc_gain -127;
#X obj 115 546 abc_quadriout 0 1 2 3 4;
#X connect 3 0 4 0;
#X connect 9 1 10 1;
#X connect 9 1 25 1;
#X connect 9 2 10 2;
#X connect 9 2 25 2;
#X connect 9 3 10 3;
#X connect 9 3 25 3;
#X connect 10 1 7 0;
#X connect 10 1 32 0;
#X connect 10 2 32 1;
#X connect 10 3 32 2;
#X connect 10 4 32 3;
#X connect 11 0 12 0;
#X connect 12 0 10 0;
#X connect 13 0 9 2;
#X connect 14 0 15 1;
#X connect 14 0 19 0;
#X connect 15 1 9 3;
#X connect 15 1 22 0;
#X connect 16 0 17 0;
#X connect 17 0 20 0;
#X connect 18 0 19 0;
#X connect 18 0 22 0;
#X connect 19 0 21 0;
#X connect 20 0 18 0;
#X connect 22 0 23 0;
#X connect 25 1 27 0;
#X connect 25 2 27 1;
#X connect 26 0 9 1;
#X connect 31 0 10 0;
#X coords 0 776 1 775 85 60 0;
