#N canvas 939 96 1440 776 10;
#X obj 11 5 cnv 15 500 25 empty empty abc_matrixN~ 20 12 0 18 #606060
#fcfcfc 0;
#X obj 10 733 abc_helpcredit;
#X obj 11 31 cnv 15 500 25 empty empty Signal_matrices_with_coefficients_from_-1_to_1_and_transition_ramp
20 12 0 12 #606060 #fcfcfc 0;
#X obj 749 672 tgl 15 0 empty empty DSP_on/off 17 7 0 10 #fcfcfc #000000
#000000 0 1;
#X msg 749 700 \; pd dsp \$1 \;;
#X text 935 3 CONTROLS;
#X text 539 5 DESCRIPTION;
#X obj 168 446 abc_meter;
#X obj 123 328 abc_matrix2;
#X obj 33 141 hsl 128 15 0 1 0 0 empty empty empty -2 -8 0 10 #fcfcfc
#000000 #000000 0 1;
#X msg 30 161 m-0 \$1;
#X obj 172 141 hsl 128 15 0 1 0 0 empty empty empty -2 -8 0 10 #fcfcfc
#000000 #000000 0 1;
#X msg 170 161 m-1 \$1;
#X obj 33 204 hsl 128 15 0 1 0 0 empty empty empty -2 -8 0 10 #fcfcfc
#000000 #000000 0 1;
#X obj 172 204 hsl 128 15 0 1 0 0 empty empty empty -2 -8 0 10 #fcfcfc
#000000 #000000 0 1;
#X msg 30 224 m-2 \$1;
#X msg 170 224 m-3 \$1;
#X obj 156 265 abc_soundcoat~;
#X obj 264 265 abc_soundgrain~;
#X text 200 244 2 sounds as inputs;
#N canvas 0 23 1440 397 randomcells 0;
#X obj 34 31 loadbang;
#X msg 34 52 1;
#X obj 34 72 metro 10000;
#X obj 35 150 random 1000;
#X floatatom 35 192 5 0 0 0 - - - 0;
#X obj 35 171 expr $f1 / 1000 * 0.4 -0.2;
#X obj 35 237 outlet;
#X obj 201 147 random 1000;
#X floatatom 201 189 5 0 0 0 - - - 0;
#X obj 201 168 expr $f1 / 1000 * 0.4 -0.2;
#X obj 201 234 outlet;
#X obj 367 146 random 1000;
#X floatatom 367 188 5 0 0 0 - - - 0;
#X obj 367 167 expr $f1 / 1000 * 0.4 -0.2;
#X obj 367 233 outlet;
#X obj 532 144 random 1000;
#X floatatom 532 186 5 0 0 0 - - - 0;
#X obj 532 165 expr $f1 / 1000 * 0.4 -0.2;
#X obj 532 231 outlet;
#X obj 697 144 random 1000;
#X floatatom 697 186 5 0 0 0 - - - 0;
#X obj 697 165 expr $f1 / 1000 * 0.4 -0.2;
#X obj 697 231 outlet;
#X obj 863 142 random 1000;
#X floatatom 863 184 5 0 0 0 - - - 0;
#X obj 863 163 expr $f1 / 1000 * 0.4 -0.2;
#X obj 863 229 outlet;
#X obj 1032 139 random 1000;
#X floatatom 1032 181 5 0 0 0 - - - 0;
#X obj 1032 160 expr $f1 / 1000 * 0.4 -0.2;
#X obj 1032 226 outlet;
#X obj 1197 139 random 1000;
#X floatatom 1197 181 5 0 0 0 - - - 0;
#X obj 1197 160 expr $f1 / 1000 * 0.4 -0.2;
#X obj 1197 226 outlet;
#X obj 1363 137 random 1000;
#X floatatom 1363 179 5 0 0 0 - - - 0;
#X obj 1363 158 expr $f1 / 1000 * 0.4 -0.2;
#X obj 1363 224 outlet;
#X connect 0 0 1 0;
#X connect 1 0 2 0;
#X connect 2 0 3 0;
#X connect 2 0 7 0;
#X connect 2 0 11 0;
#X connect 2 0 15 0;
#X connect 2 0 19 0;
#X connect 2 0 23 0;
#X connect 2 0 27 0;
#X connect 2 0 31 0;
#X connect 2 0 35 0;
#X connect 3 0 5 0;
#X connect 4 0 6 0;
#X connect 5 0 4 0;
#X connect 7 0 9 0;
#X connect 8 0 10 0;
#X connect 9 0 8 0;
#X connect 11 0 13 0;
#X connect 12 0 14 0;
#X connect 13 0 12 0;
#X connect 15 0 17 0;
#X connect 16 0 18 0;
#X connect 17 0 16 0;
#X connect 19 0 21 0;
#X connect 20 0 22 0;
#X connect 21 0 20 0;
#X connect 23 0 25 0;
#X connect 24 0 26 0;
#X connect 25 0 24 0;
#X connect 27 0 29 0;
#X connect 28 0 30 0;
#X connect 29 0 28 0;
#X connect 31 0 33 0;
#X connect 32 0 34 0;
#X connect 33 0 32 0;
#X connect 35 0 37 0;
#X connect 36 0 38 0;
#X connect 37 0 36 0;
#X restore 466 125 pd randomcells;
#X text 30 119 here a 2x2 matrix with coefficients m-0 \, m-1 \, m-2
\, m-3;
#X obj 505 340 abc_matrix3;
#X msg 447 188 m-0 \$1;
#X msg 494 188 m-1 \$1;
#X msg 541 188 m-2 \$1;
#X msg 447 215 m-3 \$1;
#X msg 494 215 m-4 \$1;
#X msg 541 215 m-5 \$1;
#X msg 447 240 m-6 \$1;
#X msg 494 240 m-7 \$1;
#X msg 541 240 m-8 \$1;
#X obj 653 303 abc_addsynth5~;
#X obj 744 146 loadbang;
#X msg 708 185 10000;
#X floatatom 708 206 5 0 0 0 - - - 0;
#X msg 708 226 ramp \$1;
#X obj 642 512 abc_chopan3~;
#X text 540 26 abc_matrix2~ \, abc_matrix3~ \, etc. objects (there
is no abc_matrix1~) provide signal matrices with coefficients from
-1 and 1;
#X text 934 21 The ramp parameter enables to set the crossfade duration
between the current status of the matrix and the next to come (in milliseconds)
;
#X obj 1083 238 abc_multinoise6~;
#X obj 1070 290 abc_substractsynth6~;
#X obj 872 339 abc_matrix6;
#X obj 1099 563 abc_chopan6~;
#X obj 569 558 abc_meter;
#X obj 1021 599 abc_meter;
#X obj 872 306 r mat;
#X msg 868 162 \; mat m-0 0.2 \; mat m-1 0.3 \; mat m-4 0.25 \; mat
m-8 0.1 \; mat m-9 0.25 \; mat m-17 0.2 \; mat m-18 0.1 \; mat m-24
0.2 \; mat m-25 0.3 \; mat m-35 0.2 \;;
#X obj 868 135 loadbang;
#X msg 1243 157 \; mat m-0 0 \; mat m-1 0 \; mat m-4 0 \; mat m-8 0
\; mat m-9 0 \; mat m-17 0 \; mat m-18 0 \; mat m-24 0 \; mat m-25
0 \; mat m-35 0 \;;
#X floatatom 776 206 5 0 0 0 - - - 0;
#X msg 776 185 415;
#X msg 776 227 f0 \$1;
#X obj 237 294 *~ 0.1;
#X obj 351 294 *~ 0.1;
#X obj 995 97 abc_gain -127;
#X obj 239 446 abc_stereoout 0;
#X obj 681 565 dac~;
#X obj 602 78 abc_gain -127;
#X obj 1095 599 abc_stereoout 0;
#X connect 3 0 4 0;
#X connect 8 1 7 0;
#X connect 8 1 56 0;
#X connect 8 2 56 1;
#X connect 9 0 10 0;
#X connect 10 0 8 0;
#X connect 11 0 12 0;
#X connect 12 0 8 0;
#X connect 13 0 15 0;
#X connect 14 0 16 0;
#X connect 15 0 8 0;
#X connect 16 0 8 0;
#X connect 17 1 53 0;
#X connect 18 1 54 0;
#X connect 20 0 23 0;
#X connect 20 1 24 0;
#X connect 20 2 25 0;
#X connect 20 3 26 0;
#X connect 20 4 27 0;
#X connect 20 5 28 0;
#X connect 20 6 29 0;
#X connect 20 7 30 0;
#X connect 20 8 31 0;
#X connect 22 1 37 1;
#X connect 22 2 37 2;
#X connect 22 3 37 3;
#X connect 23 0 22 0;
#X connect 24 0 22 0;
#X connect 25 0 22 0;
#X connect 26 0 22 0;
#X connect 27 0 22 0;
#X connect 28 0 22 0;
#X connect 29 0 22 0;
#X connect 30 0 22 0;
#X connect 31 0 22 0;
#X connect 32 1 22 1;
#X connect 32 2 22 1;
#X connect 32 3 22 2;
#X connect 32 4 22 2;
#X connect 32 5 22 3;
#X connect 33 0 34 0;
#X connect 33 0 51 0;
#X connect 34 0 35 0;
#X connect 35 0 36 0;
#X connect 36 0 22 0;
#X connect 36 0 42 0;
#X connect 37 1 44 0;
#X connect 37 1 57 0;
#X connect 37 2 57 1;
#X connect 40 1 41 1;
#X connect 40 2 41 2;
#X connect 40 3 41 3;
#X connect 40 4 41 4;
#X connect 40 5 41 5;
#X connect 40 6 41 6;
#X connect 41 1 42 1;
#X connect 41 2 42 2;
#X connect 41 3 42 3;
#X connect 41 4 42 4;
#X connect 41 5 42 5;
#X connect 41 6 42 6;
#X connect 42 1 43 1;
#X connect 42 2 43 2;
#X connect 42 3 43 3;
#X connect 42 4 43 4;
#X connect 42 5 43 5;
#X connect 42 6 43 6;
#X connect 43 1 45 0;
#X connect 43 1 59 0;
#X connect 43 2 59 1;
#X connect 46 0 42 0;
#X connect 48 0 47 0;
#X connect 50 0 52 0;
#X connect 51 0 50 0;
#X connect 52 0 32 0;
#X connect 53 0 8 1;
#X connect 54 0 8 2;
#X connect 55 0 41 0;
#X connect 58 0 32 0;
#X coords 0 776 1 775 85 60 0;
