#N canvas 632 266 1495 776 10;
#X obj 11 5 cnv 15 500 25 empty empty abc_busmultN~ 20 12 0 18 #606060 #fcfcfc 0;
#X obj 10 733 abc_helpcredit;
#X obj 11 31 cnv 15 500 25 empty empty Multiplies_two_buses_of_n_signals 20 12 0 12 #606060 #fcfcfc 0;
#X obj 480 606 tgl 15 0 empty empty DSP_on/off 17 7 0 10 #dfdfdf #000000 #000000 0 1;
#X msg 480 634 \; pd dsp \$1 \;;
#X text 539 5 DESCRIPTION;
#X obj 575 173 abc_gain -127;
#X obj 54 131 abc_gain -127;
#X obj 239 198 abc_upanddown;
#X obj 239 178 tgl 15 1 empty empty empty 17 7 0 10 #fcfcfc #000000 #000000 1 1;
#X obj 237 136 loadbang;
#X msg 238 157 1;
#X obj 239 274 + 0.1;
#X msg 182 292 220;
#X floatatom 182 313 5 0 0 0 - - - 0;
#X msg 182 351 f0 \$1;
#X floatatom 239 314 5 0 0 0 - - - 0;
#X msg 239 350 f0 \$1;
#X obj 132 570 abc_meter2_m;
#X obj 77 398 loadbang;
#X msg 77 429 gain -6;
#X text 540 26 abc_busmult1~ \, abc_busmult2~ \, ... objects enable to implement multichannel bus multiplications (from 1 signal to 16 signals). Two buses are connected to the object \, the left one and the right one.;
#X obj 239 253 * 20;
#X floatatom 878 318 5 0 0 0 - - - 0;
#X msg 878 340 f0 \$1;
#X obj 790 537 abc_meter8_m;
#X obj 684 358 tgl 15 0 empty empty empty 17 7 0 10 #fcfcfc #000000 #000000 0 1;
#X msg 684 382 stereo \$1;
#X obj 878 161 abc_envfollower~;
#X obj 994 221 cyclone/scope~ 130 130 256 3 128 -1 1 0 0 0 0 205 229 232 74 79 77 96 98 102 0 empty;
#X obj 878 267 loadbang;
#X msg 878 292 440;
#X text 980 161 generates an envelope;
#X obj 707 197 r deco;
#X obj 971 108 abc_env_noise 50 0.6 0;
#X obj 1147 616 loadbang;
#X msg 1147 646 \; deco delay 48000 \; deco fdbk 0 \; deco functiontype 0 \;;
#X text 749 197 decorrelates the envelope;
#X obj 1190 222 abc_upanddown;
#X obj 1190 202 tgl 15 1 empty empty empty 17 7 0 10 #fcfcfc #000000 #000000 1 1;
#X obj 1188 160 loadbang;
#X msg 1189 181 1;
#X obj 1190 303 s deco;
#X msg 1190 274 factor \$1;
#X text 958 423 applies the 7 decorrelated envelopes to the set of 7 harmonics of the 440 Hz A;
#X text 280 448 ring modulation on a set of 7 harmonics of the 220 Hz A with 7 harmonics of a LF fundamental (between 0.1 and 20.1 Hz);
#X text 1139 326 The decorrelation factor scans the range between 0 and 1 This provides both spectral and spatialization changes;
#X obj 139 397 abc_addsynth4~;
#X obj 239 397 abc_addsynth4~;
#X obj 186 452 abc_busmult4~;
#X obj 195 485 abc_gain4~;
#X obj 187 518 abc_chopan4~;
#X obj 231 556 abc_stereoout -20;
#X obj 707 230 abc_2d_syn_decorrelation3~;
#X obj 788 424 abc_busmult7~, f 24;
#X obj 947 537 abc_ambi_scope3;
#X obj 786 481 abc_2d_decoder3~;
#X obj 790 511 snake~ in 8, f 16;
#X obj 878 365 abc_addsynth7~;
#X obj 746 538 dac~ 1;
#X text 1015 355 cyclone/scope~;
#X obj 132 547 snake~ in 2;
#X connect 3 0 4 0;
#X connect 6 0 56 0;
#X connect 7 0 47 0;
#X connect 7 0 48 0;
#X connect 8 0 22 0;
#X connect 9 0 8 0;
#X connect 10 0 13 0;
#X connect 10 0 11 0;
#X connect 11 0 9 0;
#X connect 12 0 16 0;
#X connect 13 0 14 0;
#X connect 14 0 15 0;
#X connect 15 0 47 0;
#X connect 16 0 17 0;
#X connect 17 0 48 0;
#X connect 19 0 20 0;
#X connect 20 0 50 0;
#X connect 22 0 12 0;
#X connect 23 0 24 0;
#X connect 24 0 58 0;
#X connect 26 0 27 0;
#X connect 27 0 56 0;
#X connect 28 1 29 0;
#X connect 28 1 53 1;
#X connect 30 0 31 0;
#X connect 31 0 23 0;
#X connect 33 0 53 0;
#X connect 34 0 28 1;
#X connect 35 0 36 0;
#X connect 38 0 43 0;
#X connect 39 0 38 0;
#X connect 40 0 41 0;
#X connect 41 0 39 0;
#X connect 43 0 42 0;
#X connect 47 1 49 1;
#X connect 47 2 49 2;
#X connect 47 3 49 3;
#X connect 47 4 49 4;
#X connect 48 1 49 5;
#X connect 48 2 49 6;
#X connect 48 3 49 7;
#X connect 48 4 49 8;
#X connect 49 1 50 1;
#X connect 49 2 50 2;
#X connect 49 3 50 3;
#X connect 49 4 50 4;
#X connect 50 1 51 1;
#X connect 50 2 51 2;
#X connect 50 3 51 3;
#X connect 50 4 51 4;
#X connect 51 1 52 0;
#X connect 51 1 61 0;
#X connect 51 2 52 1;
#X connect 51 2 61 1;
#X connect 53 1 54 1;
#X connect 53 2 54 2;
#X connect 53 3 54 3;
#X connect 53 4 54 4;
#X connect 53 5 54 5;
#X connect 53 6 54 6;
#X connect 53 7 54 7;
#X connect 54 1 55 1;
#X connect 54 1 56 1;
#X connect 54 2 55 2;
#X connect 54 2 56 2;
#X connect 54 3 55 3;
#X connect 54 3 56 3;
#X connect 54 4 55 4;
#X connect 54 4 56 4;
#X connect 54 5 55 5;
#X connect 54 5 56 5;
#X connect 54 6 55 6;
#X connect 54 6 56 6;
#X connect 54 7 55 7;
#X connect 54 7 56 7;
#X connect 56 1 57 0;
#X connect 56 2 57 1;
#X connect 56 3 57 2;
#X connect 56 4 57 3;
#X connect 56 5 57 4;
#X connect 56 6 57 5;
#X connect 56 7 57 6;
#X connect 56 8 57 7;
#X connect 57 0 25 0;
#X connect 57 0 59 0;
#X connect 58 1 54 8;
#X connect 58 2 54 9;
#X connect 58 3 54 10;
#X connect 58 4 54 11;
#X connect 58 5 54 12;
#X connect 58 6 54 13;
#X connect 58 7 54 14;
#X connect 61 0 18 0;
#X coords 0 776 1 775 85 60 0;
