#N canvas 1067 25 1346 776 10;
#X obj 11 5 cnv 15 500 25 empty empty abc_flangerN~ 20 12 0 18 #606060
#fcfcfc 0;
#X obj 10 733 abc_helpcredit;
#X obj 11 31 cnv 15 500 25 empty empty Multichannel_flangers 20 12
0 12 #606060 #fcfcfc 0;
#X obj 644 673 tgl 15 0 empty empty DSP_on/off 17 7 0 10 #fcfcfc #000000
#000000 0 1;
#X msg 644 701 \; pd dsp \$1 \;;
#X text 560 7 CONTROLS;
#X text 202 75 DESCRIPTION;
#X obj 83 508 abc_meter;
#X obj 853 571 abc_meter;
#X obj 327 331 abc_upanddown;
#X msg 327 376 spread \$1;
#X obj 51 330 r rate;
#X floatatom 51 351 5 0 0 0 - - - 0;
#X msg 51 371 rate \$1;
#X obj 139 430 abc_flanger2~;
#X floatatom 105 351 5 0 0 0 - - - 0;
#X obj 105 330 r depth;
#X msg 105 371 depth \$1;
#X obj 447 379 abc_soundcoat~;
#X obj 447 193 abc_gain -127;
#X floatatom 166 351 5 0 0 0 - - - 0;
#X obj 166 330 r offset;
#X msg 166 371 offset \$1;
#X floatatom 233 351 5 0 0 0 - - - 0;
#X obj 233 330 r fdbk;
#X msg 233 371 fdbk \$1;
#X msg 315 543 \; rate 0.5 \; depth 40 \; offset 10 \; fdbk 1 \;;
#X obj 315 516 loadbang;
#X msg 404 544 \; rate 2 \; depth 5 \; offset 0 \; fdbk 1 \;;
#X msg 480 544 \; rate 100 \; depth 10 \; offset 5 \; fdbk 0.6 \;;
#X msg 558 544 \; rate 0.15 \; depth 1500 \; offset 5 \; fdbk 0.6 \;
;
#X obj 1099 337 loadbang;
#X msg 1099 358 f0 50;
#X obj 1099 379 abc_soundcoat~;
#X floatatom 852 359 5 0 0 0 - - - 0;
#X msg 852 379 rate \$1;
#X floatatom 906 359 5 0 0 0 - - - 0;
#X msg 906 379 depth \$1;
#X floatatom 967 359 5 0 0 0 - - - 0;
#X msg 967 379 offset \$1;
#X floatatom 1034 359 5 0 0 0 - - - 0;
#X msg 1034 379 fdbk \$1;
#X obj 949 455 abc_flanger7~;
#X obj 907 516 abc_2d_decoder3~ ---------;
#X obj 934 583 dac~ 1 2 3 4 5 6 7 8;
#X obj 767 360 tgl 15 0 empty empty empty 17 7 0 10 #fcfcfc #000000
#000000 0 1;
#X msg 767 380 stereo \$1;
#X obj 852 338 r rate2;
#X obj 906 338 r depth2;
#X obj 967 338 r offset2;
#X obj 1034 338 r fdbk2;
#X obj 1238 511 loadbang;
#X msg 1238 538 \; rate2 100 \; depth2 10 \; offset2 5 \; fdbk2 0.6
\;;
#X obj 1076 516 abc_2d_scope3~ ------;
#X text 203 95 abc_flanger1~ \, abc_flanger2~ \, ... \, provide classic
multichannel flangers with sinusoidal delay;
#X text 559 27 rate is the frequency of the sinusoid varying the delay
duration;
#X text 559 54 depth is the maximum of the delay duration expressed
in milliseconds;
#X text 559 84 offset enables to shift the variation of the delay duration
between offset and offset+depth;
#X text 559 118 feeedback is the amount of delayed sound added to the
original;
#X text 560 153 spread controls spatial spreading 0 => mono \, all
outputs identical 1 => maximum spatial split. For abc_flanger2~ it
means a maximum stereo effect.;
#X obj 152 508 abc_stereoout -15;
#X obj 1092 589 cyclone/scope~ 130 130 16 3 256 -1 1 0 0 0 0 205 229
232 74 79 77 96 98 102 0 empty;
#X text 1111 722 cyclone/scope~;
#X obj 684 216 abc_gain -15;
#X connect 3 0 4 0;
#X connect 9 0 10 0;
#X connect 10 0 14 0;
#X connect 10 0 42 0;
#X connect 11 0 12 0;
#X connect 12 0 13 0;
#X connect 13 0 14 0;
#X connect 14 1 7 0;
#X connect 14 1 60 0;
#X connect 14 2 60 1;
#X connect 15 0 17 0;
#X connect 16 0 15 0;
#X connect 17 0 14 0;
#X connect 18 1 14 1;
#X connect 19 0 18 0;
#X connect 20 0 22 0;
#X connect 21 0 20 0;
#X connect 22 0 14 0;
#X connect 23 0 25 0;
#X connect 24 0 23 0;
#X connect 25 0 14 0;
#X connect 27 0 26 0;
#X connect 31 0 32 0;
#X connect 32 0 33 0;
#X connect 33 1 42 1;
#X connect 34 0 35 0;
#X connect 35 0 42 0;
#X connect 36 0 37 0;
#X connect 37 0 42 0;
#X connect 38 0 39 0;
#X connect 39 0 42 0;
#X connect 40 0 41 0;
#X connect 41 0 42 0;
#X connect 42 1 43 1;
#X connect 42 1 53 1;
#X connect 42 2 43 2;
#X connect 42 2 53 2;
#X connect 42 3 43 3;
#X connect 42 3 53 3;
#X connect 42 4 43 4;
#X connect 42 4 53 4;
#X connect 42 5 43 5;
#X connect 42 5 53 5;
#X connect 42 6 43 6;
#X connect 42 6 53 6;
#X connect 42 7 43 7;
#X connect 42 7 53 7;
#X connect 43 1 44 0;
#X connect 43 1 8 0;
#X connect 43 2 44 1;
#X connect 43 3 44 2;
#X connect 43 4 44 3;
#X connect 43 5 44 4;
#X connect 43 6 44 5;
#X connect 43 7 44 6;
#X connect 43 8 44 7;
#X connect 45 0 46 0;
#X connect 46 0 43 0;
#X connect 47 0 34 0;
#X connect 48 0 36 0;
#X connect 49 0 38 0;
#X connect 50 0 40 0;
#X connect 51 0 52 0;
#X connect 53 1 61 0;
#X connect 53 2 61 1;
#X connect 63 0 43 0;
#X coords 0 776 1 775 85 60 0;
