#N canvas 339 494 1916 741 10;
#X obj 14 6 cnv 15 500 25 empty empty abclib_synthesizers 20 12 0 18 #606060 #fcfcfc 0;
#X obj 13 698 abc_helpcredit;
#X obj 14 32 cnv 15 500 25 empty empty Synthesizers_in_Faust 20 12 0 12 #606060 #fcfcfc 0;
#X obj 302 610 tgl 15 0 empty empty DSP_on/off 17 7 0 10 #dfdfdf #000000 #000000 0 1;
#X msg 302 640 \; pd dsp \$1 \;;
#X obj 108 500 abc_meter;
#X text 91 74 DESCRIPTION;
#X obj 201 345 loadbang;
#X msg 201 366 3000;
#X floatatom 201 387 5 0 0 0 - - - 0;
#X msg 201 407 randwin \$1;
#X obj 429 492 abc_meter;
#X obj 473 341 loadbang;
#X floatatom 473 383 5 0 0 0 - - - 0;
#X obj 354 239 abc_gain -127;
#X msg 473 362 1;
#X msg 473 403 freqmult \$1;
#X text 91 91 abc_soundcoat~ is a set of 16 bandpass filters receiving a noise sound as input. The output gains of the filters are slowly randomized. randwin is the duration of the cycle of randomization of the 16 outputs in milliseconds (3000 is the default value \, 1 minimum \, 20000 maximum).;
#X text 90 151 abc_soundgrain~ is a granulator on a rainstick sound which is looped at freqmult speed (default value 1 \, minimum 0.01 \, maximum 100);
#X obj 785 231 abc_gain -127;
#X msg 899 396 n \$1;
#X obj 899 253 vradio 15 1 0 5 empty empty loudspeaker_number 0 -8 0 10 #dfdfdf #000000 #000000 0;
#N canvas 1610 691 162 269 hpnumber 0;
#X obj 37 21 inlet;
#X obj 37 42 select 0 1 2 3 4;
#X msg 37 79 1;
#X msg 54 100 2;
#X msg 73 123 4;
#X msg 91 146 8;
#X msg 109 168 16;
#X obj 37 240 outlet;
#X connect 0 0 1 0;
#X connect 1 0 2 0;
#X connect 1 1 3 0;
#X connect 1 2 4 0;
#X connect 1 3 5 0;
#X connect 1 4 6 0;
#X connect 2 0 7 0;
#X connect 3 0 7 0;
#X connect 4 0 7 0;
#X connect 5 0 7 0;
#X connect 6 0 7 0;
#X restore 899 333 pd hpnumber;
#X floatatom 899 354 5 0 0 0 - - - 0;
#X text 918 252 1;
#X text 918 268 2;
#X text 918 283 4;
#X text 918 296 8;
#X text 918 311 16;
#X obj 639 491 abc_meter;
#X obj 702 491 abc_meter;
#X obj 764 490 dac~ 1 2 3 4 5 6 7 8 9 10 11 12 13 14 15 16;
#X obj 1029 328 loadbang;
#X msg 1029 349 1;
#X floatatom 1029 370 5 0 0 0 - - - 0;
#X msg 1029 396 freq \$1;
#X text 90 188 abc_audiotester~ enables to test the audio configuration from 1 to 16 loudspeakers by sending a pink noise alternatively to them;
#X obj 175 500 abc_stereoout -15;
#X obj 496 492 abc_stereoout -15;
#X obj 899 182 loadbang;
#X msg 899 203 1;
#X obj 82 243 abc_gain -127;
#X obj 82 436 abc_soundcoat~;
#X obj 354 429 abc_soundgrain~;
#X obj 785 421 abc_audiotester~;
#X obj 1221 417 abc_drops~;
#X obj 1217 495 abc_stereoout -15;
#X obj 1221 224 abc_gain -127;
#X obj 1189 388 r dr;
#X obj 1311 295 loadbang;
#X msg 1311 322 \; dr dropperiod 1000 \; dr dropthinness 50 \; dr qf 50 \; dr limiter 1 \; dr avgfreq 1407 \; dr attackdur 5 \;;
#X text 468 89 abc_drops~ synthetizes rain drops;
#X obj 1152 494 abc_meter;
#X obj 1525 216 abc_gain -127;
#X obj 1525 409 abc_pulsedenv2synth8~;
#X obj 1494 380 r pe;
#X obj 1627 297 loadbang;
#X obj 1565 498 abc_stereoout -15;
#X obj 1525 459 abc_chopan8~, f 21;
#X msg 1627 324 \; pe envFreq 8.36 \; pe carrierFreq 880 \; pe ratio 34 \; pe spread 0.5 \; pe fc 1500 \;;
#X text 468 108 abc_pulsedenv2synthN~ are multichannel generators of sound bursts based on a sinusoid sound (at carrierFreq frequency) to which short triangular envelopes are applied (at envFreq frequency). The ratio silence/sound is controlable (ratio). The short envelopes can be decorrelated thanks to spread control (between 0 and 1). A lowpass filter (at frequency fc) is applied to the output.;
#X obj 1626 194 abc_upanddown;
#X obj 1626 174 tgl 15 1 empty empty empty 17 7 0 10 #dfdfdf #000000 #000000 1 1;
#X obj 1626 152 loadbang;
#X msg 1626 244 spread \$1;
#X obj 1626 268 s pe;
#X connect 3 0 4 0;
#X connect 7 0 8 0;
#X connect 8 0 9 0;
#X connect 9 0 10 0;
#X connect 10 0 42 0;
#X connect 12 0 15 0;
#X connect 13 0 16 0;
#X connect 14 0 43 0;
#X connect 15 0 13 0;
#X connect 16 0 43 0;
#X connect 19 0 44 0;
#X connect 20 0 44 0;
#X connect 21 0 22 0;
#X connect 22 0 23 0;
#X connect 23 0 20 0;
#X connect 32 0 33 0;
#X connect 33 0 34 0;
#X connect 34 0 35 0;
#X connect 35 0 44 0;
#X connect 39 0 40 0;
#X connect 40 0 21 0;
#X connect 41 0 42 0;
#X connect 42 1 5 0;
#X connect 42 1 37 0;
#X connect 42 1 37 1;
#X connect 43 1 11 0;
#X connect 43 1 38 0;
#X connect 43 1 38 1;
#X connect 44 1 29 0;
#X connect 44 1 31 0;
#X connect 44 2 30 0;
#X connect 44 2 31 1;
#X connect 44 3 31 2;
#X connect 44 4 31 3;
#X connect 44 5 31 4;
#X connect 44 6 31 5;
#X connect 44 7 31 6;
#X connect 44 8 31 7;
#X connect 44 9 31 8;
#X connect 44 10 31 9;
#X connect 44 11 31 10;
#X connect 44 12 31 11;
#X connect 44 13 31 12;
#X connect 44 14 31 13;
#X connect 44 15 31 14;
#X connect 44 16 31 15;
#X connect 45 1 46 0;
#X connect 45 1 46 1;
#X connect 45 1 52 0;
#X connect 47 0 45 0;
#X connect 48 0 45 0;
#X connect 49 0 50 0;
#X connect 53 0 54 0;
#X connect 54 1 58 1;
#X connect 54 2 58 2;
#X connect 54 3 58 3;
#X connect 54 4 58 4;
#X connect 54 5 58 5;
#X connect 54 6 58 6;
#X connect 54 7 58 7;
#X connect 54 8 58 8;
#X connect 55 0 54 0;
#X connect 56 0 59 0;
#X connect 58 1 57 0;
#X connect 58 2 57 1;
#X connect 61 0 64 0;
#X connect 62 0 61 0;
#X connect 63 0 62 0;
#X connect 64 0 65 0;
