#N canvas 588 38 797 776 10;
#X obj 11 5 cnv 15 500 25 empty empty abc_cartopol~ 20 12 0 18 #606060 #fcfcfc 0;
#X obj 10 733 abc_helpcredit;
#X obj 11 31 cnv 15 500 25 empty empty Cartesian_to_polar_coordinates 20 12 0 12 #606060 #fcfcfc 0;
#X obj 338 632 tgl 15 0 empty empty DSP_on/off 17 7 0 10 #dfdfdf #000000 #000000 0 1;
#X msg 338 660 \; pd dsp \$1 \;;
#X text 455 154 CONTROLS;
#X text 453 73 DESCRIPTION;
#X obj 76 543 abc_meter;
#X text 454 94 abc_cartopol~ converts cartesian coordinates to polar coordinates (both as signals) The angle is in radians;
#X text 455 174 no specific control;
#X obj 204 243 abc_2d_squaretrajectory~;
#X obj 182 304 abc_cartopol~;
#X obj 138 401 abc_2d_map1~;
#X text 199 214 generates a square trajectory in cartesian;
#X obj 128 468 abc_2d_decoder1~;
#X obj 15 420 tgl 15 0 empty empty empty 17 7 0 10 #fcfcfc #000000 #000000 0 1;
#X msg 15 440 stereo \$1;
#X obj 108 122 abc_env_noise 200 0.3 0;
#X obj 288 302 cyclone/scope~ 130 130 16 3 256 -2 2 0 0 0 0 205 229 232 74 79 77 96 98 102 0 empty;
#X text 307 435 cyclone/scope~;
#X obj 23 228 abc_gain -127;
#X obj 141 543 abc_quadriout 0 1 2 3 4;
#X connect 3 0 4 0;
#X connect 10 1 11 1;
#X connect 10 1 18 0;
#X connect 10 2 11 2;
#X connect 10 2 18 1;
#X connect 11 1 12 2;
#X connect 11 2 12 3;
#X connect 12 1 14 1;
#X connect 12 2 14 2;
#X connect 12 3 14 3;
#X connect 14 1 7 0;
#X connect 14 1 21 0;
#X connect 14 2 21 1;
#X connect 14 3 21 2;
#X connect 14 4 21 3;
#X connect 15 0 16 0;
#X connect 16 0 14 0;
#X connect 17 0 12 1;
#X connect 20 0 14 0;
#X coords 0 776 1 775 85 60 0;
