#N canvas 582 147 1440 686 10;
#X obj 9 13 cnv 15 500 25 empty empty abc_grainN~ 20 12 0 18 #606060 #fcfcfc 0;
#X obj 8 649 abc_helpcredit;
#X obj 9 39 cnv 15 500 25 empty empty Parallel_granular_processes 20 12 0 12 #606060 #fcfcfc 0;
#X obj 848 513 tgl 15 0 empty empty DSP_on/off 17 7 0 10 #dfdfdf #000000 #000000 0 1;
#X msg 848 541 \; pd dsp \$1 \;;
#X text 935 23 CONTROLS;
#X text 534 25 DESCRIPTION;
#X obj 248 172 loadbang;
#X obj 1306 187 loadbang;
#X obj 597 310 abc_gain2~;
#X obj 10 305 r gctrl1;
#X msg 248 199 \; gctrl1 gs-0 50 \; gctrl1 dt-0 500 \; gctrl1 fdbk-0 0.2 \; gctrl1 rrf-0 0.5 \; gctrl1 gs-1 400 \; gctrl1 dt-1 100 \; gctrl1 fdbk-1 0.1 \; gctrl1 rrf-1 0.4 \;;
#X obj 576 248 abc_multinoise2~;
#X obj 461 441 abc_meter;
#X text 535 46 abc_grain1~ \, abc_grain2~ \, ... objects are parallel granular processes.;
#X obj 10 333 abc_grain2;
#X obj 1134 157 abc_addsynth7~ --------;
#X obj 1140 261 abc_grain7~ ---------;
#X obj 1100 194 r gctrl2;
#X obj 1127 431 abc_2d_decoder3~ --------;
#X msg 1306 221 \; gctrl2 gs-0 100 \; gctrl2 dt-0 500 \; gctrl2 fdbk-0 0.1 \; gctrl2 gs-1 100 \; gctrl2 dt-1 750 \; gctrl2 fdbk-1 0.2 \; gctrl2 gs-2 100 \; gctrl2 dt-2 1000 \; gctrl2 fdbk-2 0.3 \; gctrl2 gs-3 100 \; gctrl2 dt-3 1250 \; gctrl2 fdbk-3 0.4 \; gctrl2 gs-4 100 \; gctrl2 dt-4 1500 \; gctrl2 fdbk-4 0.5 \; gctrl2 gs-5 100 \; gctrl2 dt-5 1750 \; gctrl2 fdbk-5 0.6 \; gctrl2 gs-6 100 \; gctrl2 dt-6 2000 \; gctrl2 fdbk-6 0.7 \;;
#X obj 1039 238 abc_gain -127;
#X obj 970 333 loadbang;
#X msg 970 354 1;
#X obj 970 377 tgl 15 0 empty empty empty 17 7 0 10 #dfdfdf #000000 #000000 0 1;
#X msg 970 399 stereo \$1;
#X text 935 44 gs-0 \, gs-1 \, gs-2 \, ... are the grain sizes expressed in milliseconds for the n granulators.;
#X text 936 69 dt-0 \, dt-1 \, dt-2 \, ... are the maximum delays expressed in milliseconds for the n granulators.;
#X text 936 95 fdbk-0 \, fdbk-1 \, fdbk-2 \, ... are the feedbacks of the n granulators (between 0 and 1);
#X text 936 121 rrf-0 \, rrf-1 \, rrf-2 \, ... are the rarefactions of the n granulators (between 0 and 1 \, 0 means no rarefaction \, 1 means total rarefaction);
#X obj 658 437 abc_stereoout -15;
#X obj 396 124 abc_gain -127;
#X obj 1167 464 snake~ in 8;
#X obj 1167 491 abc_meter8_m;
#X obj 1124 493 dac~ 1;
#X connect 3 0 4 0;
#X connect 7 0 11 0;
#X connect 8 0 20 0;
#X connect 9 1 15 1;
#X connect 9 2 15 2;
#X connect 10 0 15 0;
#X connect 12 1 9 1;
#X connect 12 2 9 2;
#X connect 15 1 13 0;
#X connect 15 1 30 0;
#X connect 15 2 30 1;
#X connect 16 1 17 1;
#X connect 16 2 17 2;
#X connect 16 3 17 3;
#X connect 16 4 17 4;
#X connect 16 5 17 5;
#X connect 16 6 17 6;
#X connect 16 7 17 7;
#X connect 17 1 19 1;
#X connect 17 2 19 2;
#X connect 17 3 19 3;
#X connect 17 4 19 4;
#X connect 17 5 19 5;
#X connect 17 6 19 6;
#X connect 17 7 19 7;
#X connect 18 0 17 0;
#X connect 19 1 32 0;
#X connect 19 2 32 1;
#X connect 19 3 32 2;
#X connect 19 4 32 3;
#X connect 19 5 32 4;
#X connect 19 6 32 5;
#X connect 19 7 32 6;
#X connect 19 8 32 7;
#X connect 21 0 19 0;
#X connect 22 0 23 0;
#X connect 23 0 24 0;
#X connect 24 0 25 0;
#X connect 25 0 19 0;
#X connect 31 0 9 0;
#X connect 32 0 33 0;
#X connect 32 0 34 0;
#X coords 0 686 1 685 85 60 0;
