#N canvas 519 25 744 740 10;
#X obj 14 6 cnv 15 500 25 empty empty abc_gain 20 12 0 18 #606060 #fcfcfc 0;
#X obj 13 698 abc_helpcredit;
#X obj 14 32 cnv 15 500 25 empty empty Graphic_control_of_amplitude_in_dB_between_-127_and_+18_dB 20 12 0 12 #606060 #fcfcfc 0;
#X obj 405 604 tgl 15 0 empty empty DSP_on/off 17 7 0 10 #dfdfdf #000000 #000000 0 1;
#X msg 405 634 \; pd dsp \$1 \;;
#X text 158 73 DESCRIPTION;
#X obj 49 395 print;
#X text 158 94 abc_gaincontrol is an abstraction that outputs a message 'gain' followed by an amplitude value in dB (from -127 to +18 dB). It enables to control abc_gain and abc_decoder objects.;
#X obj 49 172 abc_gain -127;
#X obj 283 481 abc_meter2_m;
#X obj 165 185 abc_multinoise16~, f 40;
#X obj 165 224 abc_substractsynth16~, f 40;
#X obj 165 262 abc_cosrandenv16~, f 40;
#X obj 165 409 abc_chopan16~, f 40;
#X obj 165 369 abc_gain16~, f 40;
#X obj 283 445 snake~ in 2;
#X obj 239 482 dac~ 1;
#X connect 3 0 4 0;
#X connect 8 0 6 0;
#X connect 8 0 14 0;
#X connect 10 1 11 1;
#X connect 10 2 11 2;
#X connect 10 3 11 3;
#X connect 10 4 11 4;
#X connect 10 5 11 5;
#X connect 10 6 11 6;
#X connect 10 7 11 7;
#X connect 10 8 11 8;
#X connect 10 9 11 9;
#X connect 10 10 11 10;
#X connect 10 11 11 11;
#X connect 10 12 11 12;
#X connect 10 13 11 13;
#X connect 10 14 11 14;
#X connect 10 15 11 15;
#X connect 10 16 11 16;
#X connect 11 1 12 1;
#X connect 11 2 12 2;
#X connect 11 3 12 3;
#X connect 11 4 12 4;
#X connect 11 5 12 5;
#X connect 11 6 12 6;
#X connect 11 7 12 7;
#X connect 11 8 12 8;
#X connect 11 9 12 9;
#X connect 11 10 12 10;
#X connect 11 11 12 11;
#X connect 11 12 12 12;
#X connect 11 13 12 13;
#X connect 11 14 12 14;
#X connect 11 15 12 15;
#X connect 11 16 12 16;
#X connect 12 1 14 1;
#X connect 12 2 14 2;
#X connect 12 3 14 3;
#X connect 12 4 14 4;
#X connect 12 5 14 5;
#X connect 12 6 14 6;
#X connect 12 7 14 7;
#X connect 12 8 14 8;
#X connect 12 9 14 9;
#X connect 12 10 14 10;
#X connect 12 11 14 11;
#X connect 12 12 14 12;
#X connect 12 13 14 13;
#X connect 12 14 14 14;
#X connect 12 15 14 15;
#X connect 12 16 14 16;
#X connect 13 1 15 0;
#X connect 13 2 15 1;
#X connect 14 1 13 1;
#X connect 14 2 13 2;
#X connect 14 3 13 3;
#X connect 14 4 13 4;
#X connect 14 5 13 5;
#X connect 14 6 13 6;
#X connect 14 7 13 7;
#X connect 14 8 13 8;
#X connect 14 9 13 9;
#X connect 14 10 13 10;
#X connect 14 11 13 11;
#X connect 14 12 13 12;
#X connect 14 13 13 13;
#X connect 14 14 13 14;
#X connect 14 15 13 15;
#X connect 14 16 13 16;
#X connect 15 0 9 0;
#X connect 15 0 16 0;
