#N canvas 301 182 1342 776 10;
#X obj 11 5 cnv 15 500 25 empty empty abc_chopanN~ 20 12 0 18 -99865
-262144 0;
#X obj 10 733 abc_helpcredit;
#X obj 11 31 cnv 15 500 25 empty empty Chowning_panners 20 12 0 12
-99865 -262144 0;
#X obj 544 584 tgl 15 0 empty empty DSP_on/off 17 7 0 10 -262144 -1
-1 0 1;
#X msg 544 612 \; pd dsp \$1 \;;
#X text 962 26 CONTROLS;
#X text 536 28 DESCRIPTION;
#X obj 129 476 abc_meter;
#X obj 47 152 hsl 128 20 -90 90 0 0 empty empty incidental_angle_in_deg
-2 -8 0 10 -262144 -1 -1 0 1;
#X floatatom 44 177 5 0 0 0 - - -;
#X msg 44 197 incAngle \$1;
#X text -5 221 (available only in the case of one source);
#X obj 283 142 loadbang;
#X msg 283 163 30;
#X floatatom 283 184 5 0 90 0 - - -;
#X msg 283 204 phi0 \$1;
#X obj 86 334 abc_chopan1;
#X obj 1007 262 abc_addsynth16~ --------------;
#X obj 1006 358 abc_cosrandenv16~ ------------;
#X obj 1019 462 abc_chopan16~ ------------;
#X obj 776 310 loadbang;
#X msg 776 331 30;
#X floatatom 776 352 5 0 90 0 - - -;
#X msg 776 372 phi0 \$1;
#X obj 998 510 abc_meter;
#X text 658 287 Half angle of the stereophony (in degrees);
#X text 963 47 phi0 angle is a parameter to set the opening angle of
the stereo in degrees;
#X text 964 79 for abc_chopan1~ only \, there is an incAngle parameter
that controls the incident angle (in degrees) of the incoming sound
;
#X text 537 49 abc_chopan1~ \, abc_chopan2~ \, ... objects enable multichannel
stereo panning using Chowning model to have a constant acoustic energy
and avoiding feeling a loss in the center of the scene (contrary to
linear panning). The first source is panned to the left \, the last
one to the right \, and the other ones are progressively spread from
the left to the right.;
#X floatatom 342 184 5 0 0 0 - - -;
#X msg 342 163 -127;
#X msg 342 204 gain \$1;
#X obj 1007 214 loadbang;
#X msg 1007 235 gain -10;
#X obj 314 288 abc_env_noise 200 0.3 0;
#X obj 1076 511 abc_stereoout -15;
#X obj 923 210 abc_gain -15;
#X obj 207 477 abc_stereoout -15;
#X connect 3 0 4 0;
#X connect 8 0 9 0;
#X connect 9 0 10 0;
#X connect 10 0 16 0;
#X connect 12 0 13 0;
#X connect 12 0 30 0;
#X connect 13 0 14 0;
#X connect 14 0 15 0;
#X connect 15 0 16 0;
#X connect 16 1 7 0;
#X connect 16 1 37 0;
#X connect 16 2 37 1;
#X connect 17 1 18 1;
#X connect 17 2 18 2;
#X connect 17 3 18 3;
#X connect 17 4 18 4;
#X connect 17 5 18 5;
#X connect 17 6 18 6;
#X connect 17 7 18 7;
#X connect 17 8 18 8;
#X connect 17 9 18 9;
#X connect 17 10 18 10;
#X connect 17 11 18 11;
#X connect 17 12 18 12;
#X connect 17 13 18 13;
#X connect 17 14 18 14;
#X connect 17 15 18 15;
#X connect 17 16 18 16;
#X connect 18 1 19 1;
#X connect 18 2 19 2;
#X connect 18 3 19 3;
#X connect 18 4 19 4;
#X connect 18 5 19 5;
#X connect 18 6 19 6;
#X connect 18 7 19 7;
#X connect 18 8 19 8;
#X connect 18 9 19 9;
#X connect 18 10 19 10;
#X connect 18 11 19 11;
#X connect 18 12 19 12;
#X connect 18 13 19 13;
#X connect 18 14 19 14;
#X connect 18 15 19 15;
#X connect 18 16 19 16;
#X connect 19 1 24 0;
#X connect 19 1 35 0;
#X connect 19 2 35 1;
#X connect 20 0 21 0;
#X connect 21 0 22 0;
#X connect 22 0 23 0;
#X connect 23 0 19 0;
#X connect 29 0 31 0;
#X connect 30 0 29 0;
#X connect 31 0 16 0;
#X connect 32 0 33 0;
#X connect 33 0 17 0;
#X connect 34 0 16 1;
#X connect 36 0 19 0;
#X coords 0 776 1 775 85 60 0;
