#N canvas 208 74 1779 827 10;
#X obj 11 56 cnv 15 500 25 empty empty abc_substractsynthN~ 20 12 0
18 -99865 -262144 0;
#X obj 10 784 abc_helpcredit;
#X obj 11 82 cnv 15 500 25 empty empty Additive_synthesis_generators
20 12 0 12 -99865 -262144 0;
#X obj 644 724 tgl 15 0 empty empty DSP_on/off 17 7 0 10 -262144 -1
-1 0 1;
#X msg 644 752 \; pd dsp \$1 \;;
#X text 935 54 CONTROLS;
#X text 539 56 DESCRIPTION;
#X obj 250 459 abc_meter;
#X obj 759 564 abc_meter;
#X obj 570 251 abc_gain -127;
#X obj 877 270 loadbang;
#X floatatom 680 381 5 0 0 0 - - -;
#X msg 680 401 f0 \$1;
#X floatatom 724 381 5 0 0 0 - - -;
#X msg 724 360 1;
#X msg 724 401 fmult-0 \$1;
#X msg 680 360 330;
#X floatatom 800 381 5 0 0 0 - - -;
#X msg 800 360 2;
#X msg 800 401 fmult-1 \$1;
#X floatatom 876 381 5 0 0 0 - - -;
#X floatatom 952 381 5 0 0 0 - - -;
#X msg 876 401 amp-0 \$1;
#X msg 952 401 amp-1 \$1;
#X msg 876 360 0;
#X msg 952 360 -6;
#X obj 168 118 loadbang;
#X msg 42 175 gain -127;
#X obj 1337 105 r s11;
#X obj 1210 590 loadbang;
#X obj 1397 649 abc_cosrandenv11~ -------------;
#X obj 1407 688 abc_chopan11~ -------------;
#X obj 1390 715 abc_meter;
#X obj 61 207 abc_substractsynth1;
#X msg 107 174 fmult-0 1;
#X obj 784 514 abc_substractsynth2~;
#X msg 175 174 filterQ \$1;
#X msg 273 175 filterG \$1;
#X msg 175 150 50;
#X msg 205 150 200;
#X msg 234 150 10;
#X msg 275 150 0.8;
#X msg 305 150 0;
#X msg 334 150 1;
#X msg 1019 401 filterQ \$1;
#X msg 1117 402 filterG \$1;
#X msg 1019 377 50;
#X msg 1049 377 200;
#X msg 1078 377 10;
#X msg 1119 377 0.8;
#X msg 1149 377 0;
#X msg 1178 377 1;
#X obj 963 468 noise~;
#X obj 1337 133 abc_substractsynth11;
#X obj 1414 78 abc_multinoise11~ -----------;
#X text 540 76 abc_substractsynth1~ \, abc_substract2~ \, ... objects
enable substractive synthesis by instantiating banks of band pass filters
on incoming sounds either white \, pink \, decorrelated etc. sounds
(having filterQ as quality factor \, and filterG as filter gain).;
#X text 935 74 f0 is the general fundamental frequency. fmult00 \,
fmult01 \, etc. are the multipliers of f0 to get the frequencies of
the partials. For an harmonic spectrum \, one can use fmult00 = 1 \,
fmult01 = 2 \, fmult02 = 3 etc. The amplitudes of the partials (in
dB) can also be set individually thanks to amp00 \, amp01 \, etc. messages.
gain (in dB) is the general control of the amplitude.;
#X text 935 127 comment;
#X text 935 166 filterQ is the quality factor \, and filterG is the
filter gain);
#X obj 319 459 abc_stereoout -15;
#X obj 824 564 abc_stereoout -15;
#X msg 1209 615 \; s11 gain -10 \; s11 f0 440 \; s11 fmult-0 0.56 \;
s11 fmult-1 0.56 \; s11 fmult-2 0.92 \; s11 fmult-3 0.92 \; s11 fmult-4
1.19 \; s11 fmult-5 1.7 \; s11 fmult-6 2 \; s11 fmult-7 2.74 \; s11
fmult-8 3 \; s11 fmult-9 3.76 \; s11 fmult10 4.07 \; s11 filterQ 70
\;;
#X obj 1472 733 abc_stereoout -25;
#X connect 3 0 4 0;
#X connect 9 0 35 0;
#X connect 10 0 16 0;
#X connect 10 0 14 0;
#X connect 10 0 18 0;
#X connect 10 0 24 0;
#X connect 10 0 25 0;
#X connect 10 0 46 0;
#X connect 10 0 49 0;
#X connect 11 0 12 0;
#X connect 12 0 35 0;
#X connect 13 0 15 0;
#X connect 14 0 13 0;
#X connect 15 0 35 0;
#X connect 16 0 11 0;
#X connect 17 0 19 0;
#X connect 18 0 17 0;
#X connect 19 0 35 0;
#X connect 20 0 22 0;
#X connect 21 0 23 0;
#X connect 22 0 35 0;
#X connect 23 0 35 0;
#X connect 24 0 20 0;
#X connect 25 0 21 0;
#X connect 26 0 27 0;
#X connect 26 0 34 0;
#X connect 26 0 38 0;
#X connect 26 0 41 0;
#X connect 27 0 33 0;
#X connect 28 0 53 0;
#X connect 29 0 61 0;
#X connect 30 1 31 1;
#X connect 30 2 31 2;
#X connect 30 3 31 3;
#X connect 30 4 31 4;
#X connect 30 5 31 5;
#X connect 30 6 31 6;
#X connect 30 7 31 7;
#X connect 30 8 31 8;
#X connect 30 9 31 9;
#X connect 30 10 31 10;
#X connect 30 11 31 11;
#X connect 31 1 32 0;
#X connect 31 1 62 0;
#X connect 31 2 62 1;
#X connect 33 1 7 0;
#X connect 33 1 59 0;
#X connect 33 1 59 1;
#X connect 34 0 33 0;
#X connect 35 1 8 0;
#X connect 35 1 60 0;
#X connect 35 2 60 1;
#X connect 36 0 33 0;
#X connect 37 0 33 0;
#X connect 38 0 36 0;
#X connect 39 0 36 0;
#X connect 40 0 36 0;
#X connect 41 0 37 0;
#X connect 42 0 37 0;
#X connect 43 0 37 0;
#X connect 44 0 35 0;
#X connect 45 0 35 0;
#X connect 46 0 44 0;
#X connect 47 0 44 0;
#X connect 48 0 44 0;
#X connect 49 0 45 0;
#X connect 50 0 45 0;
#X connect 51 0 45 0;
#X connect 52 0 35 1;
#X connect 52 0 35 2;
#X connect 53 1 30 1;
#X connect 53 2 30 2;
#X connect 53 3 30 3;
#X connect 53 4 30 4;
#X connect 53 5 30 5;
#X connect 53 6 30 6;
#X connect 53 7 30 7;
#X connect 53 8 30 8;
#X connect 53 9 30 9;
#X connect 53 10 30 10;
#X connect 53 11 30 11;
#X connect 54 1 53 1;
#X connect 54 2 53 2;
#X connect 54 3 53 3;
#X connect 54 4 53 4;
#X connect 54 5 53 5;
#X connect 54 6 53 6;
#X connect 54 7 53 7;
#X connect 54 8 53 8;
#X connect 54 9 53 9;
#X connect 54 10 53 10;
#X connect 54 11 53 11;
#X coords 0 827 1 826 85 60 0;
