#N canvas 1015 61 1394 776 10;
#X obj 11 5 cnv 15 500 25 empty empty abc_2d_syn_widerN~ 20 12 0 18
#606060 #fcfcfc 0;
#X obj 10 733 abc_helpcredit;
#X obj 11 31 cnv 15 500 25 empty empty Ambisonic_widening_of_the_sound_field_at_orders_1_2_3_...
20 12 0 12 #606060 #fcfcfc 0;
#X obj 644 673 tgl 15 0 empty empty DSP_on/off 17 7 0 10 #fcfcfc #000000
#000000 0 1;
#X msg 644 701 \; pd dsp \$1 \;;
#X text 936 3 CONTROLS;
#X text 539 5 DESCRIPTION;
#X obj 199 154 abc_upanddown;
#X obj 55 338 tgl 15 0 empty empty empty 17 7 0 10 #fcfcfc #000000
#000000 0 1;
#X msg 55 358 stereo \$1;
#X obj 195 460 abc_2d_decoder3~;
#X obj 182 531 dac~ 1 2 3 4 5 6 7 8;
#X obj 300 198 abc_soundcoat~;
#X obj 288 115 loadbang;
#X floatatom 288 157 5 0 0 0 - - - 0;
#X text 540 25 abc_2d_wider1~ \, abc_2d_wider2~ \, etc. objects can
be used to widen the diffusion of a localized sound. The order depending
signals are weighted and appear in a logarithmic way to have linear
changes.;
#X text 936 24 width parameter varies between 0 and 1;
#X obj 200 362 abc_2d_wider3~;
#X msg 199 199 width \$1;
#X obj 288 255 abc_2d_encoder3~;
#X msg 288 136 -0.2;
#X msg 288 177 speed \$1;
#X obj 329 460 abc_2d_scope3~;
#X obj 434 460 abc_2d_scope3~;
#X obj 606 363 tgl 15 0 empty empty empty 17 7 0 10 #fcfcfc #000000
#000000 0 1;
#X msg 606 383 stereo \$1;
#X obj 830 139 loadbang;
#X floatatom 830 181 5 0 0 0 - - - 0;
#X msg 726 215 width \$1;
#X msg 830 201 speed \$1;
#X msg 830 160 0.15;
#X obj 743 536 dac~ 1 2 3 4 5 6 7 8 9 10 11 12 13 14 15 16;
#X obj 775 473 abc_2d_decoder7~ ------------;
#X obj 806 364 abc_2d_wider7~ ------------;
#X obj 830 257 abc_2d_encoder7~ ------------;
#X obj 914 201 abc_soundgrain~;
#X obj 635 170 abc_gain -127;
#X obj 1180 509 abc_2d_scope7~ ------------;
#X obj 1018 509 abc_2d_scope7~ ----------;
#X obj 729 168 hsl 80 20 0 1 0 0 empty empty empty -2 -8 0 10 #fcfcfc
#000000 #000000 0 1;
#X floatatom 726 193 5 0 0 0 - - - 0;
#X obj 114 530 abc_meter;
#X obj 672 505 abc_meter;
#X obj 111 154 abc_gain -15;
#X obj 25 395 tgl 15 0 empty empty empty 17 7 0 10 #fcfcfc #000000
#000000 0 1;
#X msg 25 417 directangles \$1;
#X obj 583 397 tgl 15 0 empty empty empty 17 7 0 10 #fcfcfc #000000
#000000 0 1;
#X msg 583 419 directangles \$1;
#X obj 318 521 cyclone/scope~ 130 130 16 3 256 -1 1 0 0 0 0 205 229
232 74 79 77 96 98 102 0 empty;
#X text 337 654 cyclone/scope~;
#X obj 455 521 cyclone/scope~ 130 130 16 3 256 -1 1 0 0 0 0 205 229
232 74 79 77 96 98 102 0 empty;
#X text 474 654 cyclone/scope~;
#X obj 1040 565 cyclone/scope~ 130 130 16 3 256 -1 1 0 0 0 0 205 229
232 74 79 77 96 98 102 0 empty;
#X text 1059 698 cyclone/scope~;
#X obj 1177 565 cyclone/scope~ 130 130 16 3 256 -1 1 0 0 0 0 205 229
232 74 79 77 96 98 102 0 empty;
#X text 1196 698 cyclone/scope~;
#X connect 3 0 4 0;
#X connect 7 0 18 0;
#X connect 8 0 9 0;
#X connect 9 0 10 0;
#X connect 10 1 11 0;
#X connect 10 1 41 0;
#X connect 10 2 11 1;
#X connect 10 3 11 2;
#X connect 10 4 11 3;
#X connect 10 5 11 4;
#X connect 10 6 11 5;
#X connect 10 7 11 6;
#X connect 10 8 11 7;
#X connect 12 1 19 1;
#X connect 13 0 20 0;
#X connect 14 0 21 0;
#X connect 17 1 10 1;
#X connect 17 1 22 1;
#X connect 17 2 10 2;
#X connect 17 2 22 2;
#X connect 17 3 10 3;
#X connect 17 3 22 3;
#X connect 17 4 10 4;
#X connect 17 4 22 4;
#X connect 17 5 10 5;
#X connect 17 5 22 5;
#X connect 17 6 10 6;
#X connect 17 6 22 6;
#X connect 17 7 10 7;
#X connect 17 7 22 7;
#X connect 18 0 17 0;
#X connect 19 1 17 1;
#X connect 19 1 23 1;
#X connect 19 2 17 2;
#X connect 19 2 23 2;
#X connect 19 3 17 3;
#X connect 19 3 23 3;
#X connect 19 4 17 4;
#X connect 19 4 23 4;
#X connect 19 5 17 5;
#X connect 19 5 23 5;
#X connect 19 6 17 6;
#X connect 19 6 23 6;
#X connect 19 7 17 7;
#X connect 19 7 23 7;
#X connect 20 0 14 0;
#X connect 21 0 19 0;
#X connect 22 1 48 0;
#X connect 22 2 48 1;
#X connect 23 1 50 0;
#X connect 23 2 50 1;
#X connect 24 0 25 0;
#X connect 25 0 32 0;
#X connect 26 0 30 0;
#X connect 27 0 29 0;
#X connect 28 0 33 0;
#X connect 29 0 34 0;
#X connect 30 0 27 0;
#X connect 32 1 31 0;
#X connect 32 1 42 0;
#X connect 32 2 31 1;
#X connect 32 3 31 2;
#X connect 32 4 31 3;
#X connect 32 5 31 4;
#X connect 32 6 31 5;
#X connect 32 7 31 6;
#X connect 32 8 31 7;
#X connect 32 9 31 8;
#X connect 32 10 31 9;
#X connect 32 11 31 10;
#X connect 32 12 31 11;
#X connect 32 13 31 12;
#X connect 32 14 31 13;
#X connect 32 15 31 14;
#X connect 32 16 31 15;
#X connect 33 1 32 1;
#X connect 33 1 38 1;
#X connect 33 2 32 2;
#X connect 33 2 38 2;
#X connect 33 3 32 3;
#X connect 33 3 38 3;
#X connect 33 4 32 4;
#X connect 33 4 38 4;
#X connect 33 5 32 5;
#X connect 33 5 38 5;
#X connect 33 6 32 6;
#X connect 33 6 38 6;
#X connect 33 7 32 7;
#X connect 33 7 38 7;
#X connect 33 8 32 8;
#X connect 33 8 38 8;
#X connect 33 9 32 9;
#X connect 33 9 38 9;
#X connect 33 10 32 10;
#X connect 33 10 38 10;
#X connect 33 11 32 11;
#X connect 33 11 38 11;
#X connect 33 12 32 12;
#X connect 33 12 38 12;
#X connect 33 13 32 13;
#X connect 33 13 38 13;
#X connect 33 14 32 14;
#X connect 33 14 38 14;
#X connect 33 15 32 15;
#X connect 33 15 38 15;
#X connect 34 1 33 1;
#X connect 34 1 37 1;
#X connect 34 2 33 2;
#X connect 34 2 37 2;
#X connect 34 3 33 3;
#X connect 34 3 37 3;
#X connect 34 4 33 4;
#X connect 34 4 37 4;
#X connect 34 5 33 5;
#X connect 34 5 37 5;
#X connect 34 6 33 6;
#X connect 34 6 37 6;
#X connect 34 7 33 7;
#X connect 34 7 37 7;
#X connect 34 8 37 8;
#X connect 34 8 33 8;
#X connect 34 9 37 9;
#X connect 34 9 33 9;
#X connect 34 10 37 10;
#X connect 34 10 33 10;
#X connect 34 11 37 11;
#X connect 34 11 33 11;
#X connect 34 12 37 12;
#X connect 34 12 33 12;
#X connect 34 13 37 13;
#X connect 34 13 33 13;
#X connect 34 14 37 14;
#X connect 34 14 33 14;
#X connect 34 15 37 15;
#X connect 34 15 33 15;
#X connect 35 1 34 1;
#X connect 36 0 32 0;
#X connect 37 1 54 0;
#X connect 37 2 54 1;
#X connect 38 1 52 0;
#X connect 38 2 52 1;
#X connect 39 0 40 0;
#X connect 40 0 28 0;
#X connect 43 0 10 0;
#X connect 44 0 45 0;
#X connect 45 0 10 0;
#X connect 46 0 47 0;
#X connect 47 0 32 0;
#X coords 0 776 1 775 85 60 0;
