#N canvas 453 307 818 612 10;
#X obj 14 6 cnv 15 500 25 empty empty abc_2d_scopeN~  20 12 0 18 #606060
#fcfcfc 0;
#X obj 13 580 abc_helpcredit;
#X obj 14 32 cnv 15 500 25 empty empty Creates_X_Y_signals_for_ambisonic_vizualisation_using_amb_scope
20 12 0 12 #606060 #fcfcfc 0;
#X obj 48 98 loadbang;
#X floatatom 48 160 5 0 0 0 - - - 0;
#X msg 48 183 speed \$1;
#X obj 56 297 abc_2d_scope1~;
#X obj 219 474 tgl 15 0 empty empty DSP_on/off 17 7 0 10 #fcfcfc #000000
#000000 0 1;
#X msg 219 502 \; pd dsp \$1 \;;
#X msg 48 136 -0.2;
#X msg 12 137 0;
#X obj 417 298 abc_2d_scope7~ --------------;
#X text 189 407 CONTROLS;
#X text 186 315 DESCRIPTION;
#X obj 48 227 abc_2d_encoder1~;
#X text 81 161 t.s-1;
#X obj 280 133 sig~ 1;
#X text 189 431 The only control is the refresh time in milliseconds.
, f 47;
#X obj 245 189 loadbang;
#X msg 245 210 10;
#X msg 245 256 refresh \$1;
#X floatatom 245 231 5 0 0 0 - - - 0;
#X text 184 330 abc_scope1~ \, abc_scope~2 \, ... objects enable the
visualization of the ambisonic field in a cyclone/scope~ graphical
object. First output is X signal \, second output is Y signal \, and
third one is the sign (positive=>red or negative=>blue) of the space
function., f 47;
#X obj 28 359 cyclone/scope~ 130 130 16 3 256 -1 1 0 0 0 0 205 229
232 74 79 77 96 98 102 0 empty;
#X text 47 492 cyclone/scope~;
#X obj 516 397 *~;
#X obj 546 397 *~;
#X obj 485 437 cyclone/scope~ 130 130 16 3 256 -1 1 0 0 0 0 255 4 0
64 64 64 96 98 102 0 empty;
#X text 504 570 cyclone/scope~;
#X obj 661 339 *~ -1;
#X obj 661 360 +~ 1;
#X obj 646 393 *~;
#X obj 676 393 *~;
#X obj 636 437 cyclone/scope~ 130 130 16 3 256 -1 1 0 0 0 0 0 250 255
64 64 64 96 98 102 0 empty;
#X text 655 570 cyclone/scope~;
#X obj 415 234 abc_2d_encoder7~ --------------;
#X connect 3 0 9 0;
#X connect 4 0 5 0;
#X connect 5 0 14 0;
#X connect 5 0 35 0;
#X connect 6 1 23 0;
#X connect 6 2 23 1;
#X connect 7 0 8 0;
#X connect 9 0 4 0;
#X connect 10 0 4 0;
#X connect 11 1 25 0;
#X connect 11 1 31 0;
#X connect 11 2 26 0;
#X connect 11 2 32 0;
#X connect 11 3 25 1;
#X connect 11 3 26 1;
#X connect 11 3 29 0;
#X connect 14 1 6 1;
#X connect 14 2 6 2;
#X connect 14 3 6 3;
#X connect 16 0 14 1;
#X connect 16 0 35 1;
#X connect 18 0 19 0;
#X connect 19 0 21 0;
#X connect 20 0 6 0;
#X connect 20 0 11 0;
#X connect 21 0 20 0;
#X connect 25 0 27 0;
#X connect 26 0 27 1;
#X connect 29 0 30 0;
#X connect 30 0 31 1;
#X connect 30 0 32 1;
#X connect 31 0 33 0;
#X connect 32 0 33 1;
#X connect 35 1 11 1;
#X connect 35 2 11 2;
#X connect 35 3 11 3;
#X connect 35 4 11 4;
#X connect 35 5 11 5;
#X connect 35 6 11 6;
#X connect 35 7 11 7;
#X connect 35 8 11 8;
#X connect 35 9 11 9;
#X connect 35 10 11 10;
#X connect 35 11 11 11;
#X connect 35 12 11 12;
#X connect 35 13 11 13;
#X connect 35 14 11 14;
#X connect 35 15 11 15;
