#N canvas 566 52 691 740 10;
#X obj 14 6 cnv 15 500 25 empty empty abc_soundcoat~_&_abc_soundgrain~
20 12 0 18 -99865 -262144 0;
#X obj 13 698 abc_helpcredit;
#X obj 14 32 cnv 15 500 25 empty empty Synthetizers_in_Faust 20 12
0 12 -99865 -262144 0;
#X obj 362 598 tgl 15 0 empty empty DSP_on/off 17 7 0 10 -262144 -1
-1 1 1;
#X msg 362 628 \; pd dsp \$1 \;;
#X obj 157 484 abc_meter;
#X text 91 74 DESCRIPTION;
#X obj 224 484 abc_stereoout 0;
#X text 93 97 abc_soundcoat~ is a set of 16 bandpass filters receiving
a noise sound as input. The output gains of the filters are slowly
randomized. randwin is the duration of the cycle of randomization of
the 16 outputs in milliseconds (3000 is the default value \, 1 minimum
\, 20000 maximum). abc_soundgrain~ is a granulator on a rainstick sound
which is looped at freqmult speed (default value 1 \, minimum 0.01
\, maximum 100);
#X obj 82 421 abc_soundcoat~ ----------------;
#X obj 82 231 abc_gain -20;
#X obj 201 333 loadbang;
#X msg 201 354 3000;
#X floatatom 201 375 5 0 0 0 - - -;
#X msg 201 395 randwin \$1;
#X obj 489 480 abc_meter;
#X obj 556 480 abc_stereoout 0;
#X obj 533 329 loadbang;
#X floatatom 533 371 5 0 0 0 - - -;
#X obj 414 417 abc_soundgrain~ ----------------;
#X obj 414 227 abc_gain -127;
#X msg 533 350 1;
#X msg 533 391 freqmult \$1;
#X connect 3 0 4 0;
#X connect 9 1 5 0;
#X connect 9 1 7 0;
#X connect 9 1 7 1;
#X connect 10 0 9 0;
#X connect 11 0 12 0;
#X connect 12 0 13 0;
#X connect 13 0 14 0;
#X connect 14 0 9 0;
#X connect 17 0 21 0;
#X connect 18 0 22 0;
#X connect 19 1 15 0;
#X connect 19 1 16 0;
#X connect 19 1 16 1;
#X connect 20 0 19 0;
#X connect 21 0 18 0;
#X connect 22 0 19 0;
