#N canvas 204 23 1476 857 10;
#X obj 14 6 cnv 15 500 25 empty empty abc_2d_rotateN~  20 12 0 18
-99865 -262144 0;
#X obj 13 810 abc_helpcredit;
#X obj 14 32 cnv 15 500 25 empty empty Rotation_of_the_ambisonic_sound_field
20 12 0 12 -99865 -262144 0;
#X obj 46 77 loadbang;
#X floatatom 46 139 5 0 0 0 - - -;
#X msg 46 162 speed \$1;
#X obj 129 601 abc_quadriout -20;
#X obj 17 350 abc_gain -127;
#X obj 360 293 abc_2d_scope1~;
#X obj 509 591 tgl 15 0 empty empty DSP_on/off 17 7 0 10 -262144 -1
-1 0 1;
#X msg 509 619 \; pd dsp \$1 \;;
#X msg 46 115 -0.2;
#X msg 10 116 0;
#X obj 140 549 abc_2d_decoder1~;
#X floatatom 119 140 5 0 0 0 - - -;
#X msg 119 116 -45;
#X msg 119 163 angle \$1;
#X floatatom 184 140 5 0 0 0 - - -;
#X msg 184 116 20;
#X msg 184 163 returntime \$1;
#X text 79 140 t.s-1;
#X text 152 140 deg.;
#X text 218 140 msec;
#X obj 665 174 abc_gain -15;
#X obj 1211 287 loadbang;
#X floatatom 1211 349 5 0 0 0 - - -;
#X msg 1211 372 speed \$1;
#X floatatom 1284 350 5 0 0 0 - - -;
#X msg 1284 373 angle \$1;
#X floatatom 1349 350 5 0 0 0 - - -;
#X msg 1349 326 20;
#X msg 1349 373 returntime \$1;
#X text 1244 350 t.s-1;
#X text 1317 350 deg.;
#X text 1383 350 msec;
#X msg 1284 326 90;
#X obj 772 443 abc_2d_decoder7~ --------------;
#X obj 596 313 tgl 15 0 empty empty empty 17 7 0 10 -262144 -1 -1 1
1;
#X msg 596 337 stereo \$1;
#X obj 731 625 dac~ 1 2 3 4 5 6 7 8 9 10 11 12 13 14 15 16;
#X obj 1022 490 abc_2d_scope7~ --------------;
#X text 919 25 - speed is the rotation speed in turns by second;
#X text 925 41 - angle is the default static angle (in degrees) when
the speed is zero;
#X text 925 69 - returntime is the transition time (in msec) between
the fixed angle position and the position on the circle when the speed
is more than 0;
#X text 543 26 abc_encoder1~ \, abc_encoder2~ \, etc. objects enable
to create punctual sources either in rotation at a certain speed or
static and located at a precise angle (in degrees) on the ambisonic
circle.;
#X obj 54 579 abc_meter;
#X obj 665 492 abc_meter;
#X obj 364 358 abc_scope 0 0 2.5;
#X obj 1088 525 abc_scope 1 0 2.5;
#X text 921 7 CONTROLS;
#X text 542 6 DESCRIPTION;
#X obj 308 135 abc_env_noise 100 0.25;
#X obj 80 227 abc_2d_rotate1;
#X obj 106 489 tgl 15 0 empty empty empty 17 7 0 10 -262144 -1 -1 0
1;
#X msg 106 513 stereo \$1;
#X msg 1175 326 0.4;
#X msg 1211 325 0;
#X obj 1254 491 abc_2d_rotate7~ --------------;
#X obj 596 244 loadbang;
#X msg 596 282 1;
#X obj 1256 622 abc_2d_scope7~ --------------;
#X obj 1322 657 abc_scope 1 0 2.5;
#X obj 753 130 abc_soundgrain~;
#X obj 860 162 abc_2d_randomtrajectory~;
#X obj 883 214 abc_cartopol~;
#X obj 828 271 abc_2d_map7~ ------------;
#X obj 849 357 abc_2d_fx_decorrelation7~;
#X obj 757 217 loadbang;
#X floatatom 757 279 5 0 0 0 - - -;
#X msg 757 255 0.5;
#X msg 757 302 factor \$1;
#X connect 3 0 11 0;
#X connect 3 0 15 0;
#X connect 3 0 18 0;
#X connect 4 0 5 0;
#X connect 5 0 52 0;
#X connect 7 0 13 0;
#X connect 8 1 47 0;
#X connect 8 2 47 1;
#X connect 8 3 47 2;
#X connect 9 0 10 0;
#X connect 11 0 4 0;
#X connect 12 0 4 0;
#X connect 13 1 6 0;
#X connect 13 1 45 0;
#X connect 13 2 6 1;
#X connect 13 3 6 2;
#X connect 13 4 6 3;
#X connect 14 0 16 0;
#X connect 15 0 14 0;
#X connect 16 0 52 0;
#X connect 17 0 19 0;
#X connect 18 0 17 0;
#X connect 19 0 52 0;
#X connect 23 0 36 0;
#X connect 24 0 56 0;
#X connect 24 0 35 0;
#X connect 24 0 30 0;
#X connect 25 0 26 0;
#X connect 26 0 57 0;
#X connect 27 0 28 0;
#X connect 28 0 57 0;
#X connect 29 0 31 0;
#X connect 30 0 29 0;
#X connect 31 0 57 0;
#X connect 35 0 27 0;
#X connect 36 1 39 0;
#X connect 36 1 46 0;
#X connect 36 2 39 1;
#X connect 36 3 39 2;
#X connect 36 4 39 3;
#X connect 36 5 39 4;
#X connect 36 6 39 5;
#X connect 36 7 39 6;
#X connect 36 8 39 7;
#X connect 36 9 39 8;
#X connect 36 10 39 9;
#X connect 36 11 39 10;
#X connect 36 12 39 11;
#X connect 36 13 39 12;
#X connect 36 14 39 13;
#X connect 36 15 39 14;
#X connect 36 16 39 15;
#X connect 37 0 38 0;
#X connect 38 0 36 0;
#X connect 40 1 48 0;
#X connect 40 2 48 1;
#X connect 40 3 48 2;
#X connect 51 0 52 3;
#X connect 51 0 52 2;
#X connect 51 0 52 1;
#X connect 51 0 8 3;
#X connect 51 0 8 2;
#X connect 51 0 8 1;
#X connect 52 1 13 1;
#X connect 52 2 13 2;
#X connect 52 3 13 3;
#X connect 53 0 54 0;
#X connect 54 0 13 0;
#X connect 55 0 25 0;
#X connect 56 0 25 0;
#X connect 57 1 60 1;
#X connect 57 2 60 2;
#X connect 57 3 60 3;
#X connect 57 4 60 4;
#X connect 57 5 60 5;
#X connect 57 6 60 6;
#X connect 57 7 60 7;
#X connect 57 8 60 8;
#X connect 57 9 60 9;
#X connect 57 10 60 10;
#X connect 57 11 60 11;
#X connect 57 12 60 12;
#X connect 57 13 60 13;
#X connect 57 14 60 14;
#X connect 57 15 60 15;
#X connect 58 0 59 0;
#X connect 59 0 37 0;
#X connect 60 1 61 0;
#X connect 60 2 61 1;
#X connect 60 3 61 2;
#X connect 62 1 65 1;
#X connect 63 1 64 1;
#X connect 63 2 64 2;
#X connect 64 1 65 2;
#X connect 64 2 65 3;
#X connect 65 1 66 1;
#X connect 65 2 66 2;
#X connect 65 3 66 3;
#X connect 65 4 66 4;
#X connect 65 5 66 5;
#X connect 65 6 66 6;
#X connect 65 7 66 7;
#X connect 65 8 66 8;
#X connect 65 9 66 9;
#X connect 65 10 66 10;
#X connect 65 11 66 11;
#X connect 65 12 66 12;
#X connect 65 13 66 13;
#X connect 65 14 66 14;
#X connect 65 15 66 15;
#X connect 66 1 36 1;
#X connect 66 1 40 1;
#X connect 66 1 57 1;
#X connect 66 2 36 2;
#X connect 66 2 40 2;
#X connect 66 2 57 2;
#X connect 66 3 36 3;
#X connect 66 3 40 3;
#X connect 66 3 57 3;
#X connect 66 4 36 4;
#X connect 66 4 40 4;
#X connect 66 4 57 4;
#X connect 66 5 36 5;
#X connect 66 5 40 5;
#X connect 66 5 57 5;
#X connect 66 6 36 6;
#X connect 66 6 40 6;
#X connect 66 6 57 6;
#X connect 66 7 36 7;
#X connect 66 7 40 7;
#X connect 66 7 57 7;
#X connect 66 8 36 8;
#X connect 66 8 40 8;
#X connect 66 8 57 8;
#X connect 66 9 36 9;
#X connect 66 9 40 9;
#X connect 66 9 57 9;
#X connect 66 10 36 10;
#X connect 66 10 40 10;
#X connect 66 10 57 10;
#X connect 66 11 36 11;
#X connect 66 11 40 11;
#X connect 66 11 57 11;
#X connect 66 12 36 12;
#X connect 66 12 40 12;
#X connect 66 12 57 12;
#X connect 66 13 36 13;
#X connect 66 13 40 13;
#X connect 66 13 57 13;
#X connect 66 14 36 14;
#X connect 66 14 40 14;
#X connect 66 14 57 14;
#X connect 66 15 36 15;
#X connect 66 15 40 15;
#X connect 66 15 57 15;
#X connect 67 0 69 0;
#X connect 68 0 70 0;
#X connect 69 0 68 0;
#X connect 70 0 66 0;
