#N canvas 490 39 1308 811 10;
#X obj 11 21 cnv 15 500 25 empty empty abc_sounddetector~ 20 12 0 18 #606060 #fcfcfc 0;
#X obj 11 47 cnv 15 500 25 empty empty Sound_detector 20 12 0 12 #606060 #fcfcfc 0;
#X obj 1015 621 tgl 15 0 empty empty DSP_on/off 17 7 0 10 #dfdfdf #000000 #000000 0 1;
#X msg 1015 649 \; pd dsp \$1 \;;
#X text 932 19 CONTROLS;
#X text 539 21 DESCRIPTION;
#X obj 14 768 cnv 15 480 25 empty empty abclibrary|Alain_Bonardi_&_Paul_Goutmann_2019-2021_CICM|University_Paris_8 20 12 0 10 #606060 #fcfcfc 0;
#X text 540 41 abc_sounddetector~ provides the detection of attacks and releases of incoming sound Its first outlet is an on-off envelope The second outlet provides a binary signal of detection of the attack The third outlet provides a binary signal of detection of the release;
#X text 931 39 offset: dB offset to increase the measurement of the amplitude if necessary (10 dB by default) noiseFloor: dB threshold to make the distinction between the incoming sound and ambient noise (-50 dB by default) noteOn: on a scale between 0 and 120 dB \, noteOn is the threshold in dB of detection of the attack (60 by default);
#X obj 417 180 abc_simplefmburst;
#X obj 445 282 +~;
#X obj 374 385 abc_sounddetector~;
#X obj 174 204 loadbang;
#X msg 101 254 10;
#X floatatom 101 275 5 0 0 0 - - - 0;
#X msg 101 295 offset \$1;
#X floatatom 171 275 5 0 0 0 - - - 0;
#X msg 171 295 noiseFloor \$1;
#X msg 171 254 -50;
#X floatatom 265 274 5 0 0 0 - - - 0;
#X msg 265 253 60;
#X msg 265 294 noteOn \$1;
#X obj 604 468 snapshot~;
#X floatatom 604 489 5 0 0 0 - - - 0;
#X obj 710 469 snapshot~;
#X floatatom 710 490 5 0 0 0 - - - 0;
#X obj 742 281 loadbang;
#X msg 742 307 1;
#X obj 742 326 tgl 15 0 empty empty empty 17 7 0 10 #fcfcfc #000000 #000000 0 1;
#X obj 249 431 abc_meter;
#X obj 604 509 > 0;
#X obj 710 510 > 0;
#X obj 604 530 select 1;
#X obj 710 531 select 1;
#X obj 604 568 bng 50 100 50 0 empty empty empty 17 7 0 10 #00fc04 #000000 #000000;
#X obj 710 567 bng 50 100 50 0 empty empty empty 17 7 0 10 #fc0400 #000000 #000000;
#X obj 386 433 abc_peakamp~;
#X obj 455 467 snapshot~;
#X floatatom 455 488 5 0 0 0 - - - 0;
#X obj 742 346 metro 10;
#X floatatom 334 275 5 0 0 0 - - - 0;
#X msg 334 254 5;
#X msg 334 295 period \$1;
#X obj 899 517 dac~;
#X obj 455 529 vsl 15 128 0 1 0 0 empty empty amplitude 0 -9 0 10 #fcfcfc #000000 #000000 0 1;
#X obj 551 180 abc_env_noise 200 0.9 0;
#X obj 910 465 abc_gain1~;
#X obj 909 256 abc_gain -127;
#X connect 2 0 3 0;
#X connect 9 0 10 0;
#X connect 10 0 29 0;
#X connect 10 0 11 1;
#X connect 10 0 46 1;
#X connect 11 1 36 1;
#X connect 11 2 22 0;
#X connect 11 3 24 0;
#X connect 12 0 13 0;
#X connect 12 0 18 0;
#X connect 12 0 20 0;
#X connect 12 0 41 0;
#X connect 13 0 14 0;
#X connect 14 0 15 0;
#X connect 15 0 11 0;
#X connect 16 0 17 0;
#X connect 17 0 11 0;
#X connect 18 0 16 0;
#X connect 19 0 21 0;
#X connect 20 0 19 0;
#X connect 21 0 11 0;
#X connect 22 0 23 0;
#X connect 23 0 30 0;
#X connect 24 0 25 0;
#X connect 25 0 31 0;
#X connect 26 0 27 0;
#X connect 27 0 28 0;
#X connect 28 0 39 0;
#X connect 30 0 32 0;
#X connect 31 0 33 0;
#X connect 32 0 34 0;
#X connect 33 0 35 0;
#X connect 36 1 37 0;
#X connect 37 0 38 0;
#X connect 38 0 44 0;
#X connect 39 0 22 0;
#X connect 39 0 24 0;
#X connect 39 0 37 0;
#X connect 40 0 42 0;
#X connect 41 0 40 0;
#X connect 42 0 36 0;
#X connect 45 0 10 1;
#X connect 46 0 43 0;
#X connect 46 0 43 1;
#X connect 47 0 46 0;
#X coords 0 811 1 810 85 60 0;
