#N canvas 622 39 1440 781 10;
#X obj 14 6 cnv 15 500 25 empty empty abc_2d_decoderN[_P]~  20 12
0 18 #606060 #fcfcfc 0;
#X obj 13 746 abc_helpcredit;
#X obj 14 32 cnv 15 500 25 empty empty Ambisonic_decoders_at_orders_1_(3-16_LS)_2_(5-16_LS)_3_(7-16LS)_etc.
20 12 0 12 #606060 #fcfcfc 0;
#X obj 64 227 abc_2d_encoder1~;
#X obj 64 112 loadbang;
#X msg 64 136 0.1;
#X floatatom 64 160 5 0 0 0 - - - 0;
#X msg 64 183 speed \$1;
#X obj 19 337 r dec1;
#X obj 474 228 abc_gain -127;
#X obj 474 447 s dec1;
#X obj 581 317 loadbang;
#X floatatom 581 365 5 0 0 0 - - - 0;
#X msg 581 341 0;
#X msg 581 388 angularoffset \$1;
#X obj 707 316 loadbang;
#X msg 707 340 1;
#X obj 707 364 tgl 15 0 empty empty empty 17 7 0 10 #fcfcfc #000000
#000000 0 1;
#X msg 707 388 directangles \$1;
#X text 473 199 gain \, angularoffsert and directangles for the abc_decoder1~
below;
#X obj 515 518 loadbang;
#X msg 515 542 0 90 180 270;
#X obj 515 563 unpack 0 0 0 0;
#X floatatom 515 590 5 -360 360 0 - - - 0;
#X floatatom 570 590 5 -360 360 0 - - - 0;
#X floatatom 626 590 5 -360 360 0 - - - 0;
#X floatatom 680 590 5 -360 360 0 - - - 0;
#X obj 515 680 s dec1;
#X obj 442 620 tgl 15 0 empty empty empty 17 7 0 10 #fcfcfc #000000
#000000 0 1;
#X msg 442 644 stereo \$1;
#X text 512 496 angles for the abc_decoder1~ below;
#X msg 515 610 a-0 \$1;
#X msg 570 610 a-1 \$1;
#X msg 626 610 a-2 \$1;
#X msg 681 610 a-3 \$1;
#X obj 1130 242 noise~;
#X obj 914 440 tgl 15 0 empty empty empty 17 7 0 10 #fcfcfc #000000
#000000 0 1;
#X msg 914 464 stereo \$1;
#X obj 306 316 abc_2d_scope1~;
#X obj 796 613 tgl 15 0 empty empty DSP_on/off 17 7 0 10 #fcfcfc #000000
#000000 0 1;
#X msg 796 643 \; pd dsp \$1 \;;
#X obj 943 564 abc_meter;
#X obj 273 591 abc_meter;
#X text 907 26 - gain is the output gain in dB that can directly be
controlled;
#X text 907 53 - angularoffset is the possible angular shift of the
loudspeakers (in degrees);
#X text 906 84 - directangles is 1 for anticlockwise (as in ambisonic
norm) and 0 for clockwise;
#X text 906 114 - a_0 \, a_1 \, ... \, a_9 \, a10 \, a11... are the
angles in degrees of the loudspeakers on the circle \, making possible
to decode an irregular implentation;
#X text 532 27 abc_2d_decoder1~ \, abc_2d_decoder2~ \, etc. objects
enable to decode from ambisonic spatial components to sets of loudspeakers.
Since these decoders were developed in Faust language \, we had to
set fixed configurations. At order 1 \, it is planned for 4 loudspeakers
\, at order 2 \, 6 LS \, at order 3 8 LS \, ... at order 7 16 LS;
#X text 905 8 CONTROLS;
#X text 532 7 DESCRIPTION;
#X obj 158 112 abc_env_noise 200 0.3 0;
#X obj 951 236 abc_gain -15;
#X obj 92 661 abc_quadriout -15;
#X obj 1130 263 *~ 0.2;
#X obj 19 372 abc_2d_decoder1_4;
#X text 80 339 or abc_2d_decoder1;
#X text 530 102 To change the number of loudspeakers \, objects have
been added to enable any number of loudspeakers betwen 3 (above stereo)
and 16 at any order. For instance abc_2d_decoder1_8~ (order 1 with
8 LS) \, abc_2d_decoder3_11~ (order 3 with 11 LS) and so on. Therefore
abc_2d_decoder1~ and abc_2d_decoder1_4~ are exactly the same objects.
;
#X obj 1054 397 abc_cosrandenv7~ -----------;
#X obj 1047 536 abc_2d_decoder3_10~ ------------;
#X obj 1075 693 dac~ 1 2 3 4 5 6 7 8 9 10;
#X obj 1257 480 abc_2d_scope3~ ------------;
#X obj 333 376 cyclone/scope~ 130 130 16 3 256 -1 1 0 0 0 0 205 229
232 74 79 77 96 98 102 0 empty;
#X text 352 509 cyclone/scope~;
#X obj 1276 522 cyclone/scope~ 130 130 16 3 256 -1 1 0 0 0 0 205 229
232 74 79 77 96 98 102 0 empty;
#X text 1295 655 cyclone/scope~;
#X text 906 156 - it is possible to decode in stereo when setting stereo
to 1 \; 0 is for ambisonic decoding;
#X text 906 194 - using cyclone/scope~ \, it is possible to give a
simple representation of the sound field;
#X connect 3 1 38 1;
#X connect 3 1 54 1;
#X connect 3 2 38 2;
#X connect 3 2 54 2;
#X connect 3 3 38 3;
#X connect 3 3 54 3;
#X connect 4 0 5 0;
#X connect 5 0 6 0;
#X connect 6 0 7 0;
#X connect 7 0 3 0;
#X connect 8 0 54 0;
#X connect 9 0 10 0;
#X connect 11 0 13 0;
#X connect 12 0 14 0;
#X connect 13 0 12 0;
#X connect 14 0 10 0;
#X connect 15 0 16 0;
#X connect 16 0 17 0;
#X connect 17 0 18 0;
#X connect 18 0 10 0;
#X connect 20 0 21 0;
#X connect 21 0 22 0;
#X connect 22 0 23 0;
#X connect 22 1 24 0;
#X connect 22 2 25 0;
#X connect 22 3 26 0;
#X connect 23 0 31 0;
#X connect 24 0 32 0;
#X connect 25 0 33 0;
#X connect 26 0 34 0;
#X connect 28 0 29 0;
#X connect 29 0 27 0;
#X connect 31 0 27 0;
#X connect 32 0 27 0;
#X connect 33 0 27 0;
#X connect 34 0 27 0;
#X connect 35 0 53 0;
#X connect 36 0 37 0;
#X connect 37 0 58 0;
#X connect 38 1 61 0;
#X connect 38 2 61 1;
#X connect 39 0 40 0;
#X connect 50 0 3 1;
#X connect 51 0 58 0;
#X connect 53 0 57 1;
#X connect 53 0 57 2;
#X connect 53 0 57 3;
#X connect 53 0 57 4;
#X connect 53 0 57 5;
#X connect 53 0 57 6;
#X connect 53 0 57 7;
#X connect 54 1 42 0;
#X connect 54 1 52 0;
#X connect 54 2 52 1;
#X connect 54 3 52 2;
#X connect 54 4 52 3;
#X connect 57 1 58 1;
#X connect 57 1 60 1;
#X connect 57 2 58 2;
#X connect 57 2 60 2;
#X connect 57 3 58 3;
#X connect 57 3 60 3;
#X connect 57 4 58 4;
#X connect 57 4 60 4;
#X connect 57 5 58 5;
#X connect 57 5 60 5;
#X connect 57 6 58 6;
#X connect 57 6 60 6;
#X connect 57 7 58 7;
#X connect 57 7 60 7;
#X connect 58 1 41 0;
#X connect 58 1 59 0;
#X connect 58 2 59 1;
#X connect 58 3 59 2;
#X connect 58 4 59 3;
#X connect 58 5 59 4;
#X connect 58 6 59 5;
#X connect 58 7 59 6;
#X connect 58 8 59 7;
#X connect 58 9 59 8;
#X connect 58 10 59 9;
#X connect 60 1 63 0;
#X connect 60 2 63 1;
