#N canvas 564 25 1022 811 10;
#X obj 11 21 cnv 15 500 25 empty empty abc_envfollower~ 20 12 0 18 #606060 #fcfcfc 0;
#X obj 11 47 cnv 15 500 25 empty empty Envelope_follower 20 12 0 12 #606060 #fcfcfc 0;
#X obj 919 317 tgl 15 0 empty empty DSP_on/off 17 7 0 10 #fcfcfc #000000 #000000 0 1;
#X msg 919 345 \; pd dsp \$1 \;;
#X text 537 76 CONTROLS;
#X text 539 21 DESCRIPTION;
#X obj 14 776 cnv 15 480 25 empty empty abclibrary|Alain_Bonardi_&_Paul_Goutmann_2019-2021_CICM|University_Paris_8 20 12 0 10 #606060 #fcfcfc 0;
#X obj 339 162 abc_simplefmburst;
#X obj 367 264 +~;
#X obj 205 160 loadbang;
#X floatatom 176 221 5 0 0 0 - - - 0;
#X floatatom 246 221 5 0 0 0 - - - 0;
#X obj 421 337 abc_meter;
#X obj 356 388 dac~;
#X obj 367 336 *~ 0.05;
#X text 540 41 abc_sounddetector~ provides an envelope follower;
#X text 536 96 attack: it is the attack duration in seconds (initial value: 0.001 sec) release: it is the release duration in seconds (initial value : 0.01 sec);
#X obj 206 352 abc_envfollower~;
#X msg 176 200 0.01;
#X msg 246 200 0.001;
#X msg 176 241 attack \$1;
#X msg 246 241 release \$1;
#X obj 301 493 abc_amp_scope;
#X obj 656 493 abc_amp_scope;
#X obj 734 449 r scope;
#X msg 26 199 \; scope ticktime 258 \; scope buffersize 512 \; scope amprange 1 \; scope onoff 1 \;;
#X obj 473 162 abc_env_noise 500 0.7 -5;
#X connect 2 0 3 0;
#X connect 7 0 8 0;
#X connect 8 0 12 0;
#X connect 8 0 14 0;
#X connect 8 0 17 1;
#X connect 8 0 23 0;
#X connect 9 0 18 0;
#X connect 9 0 19 0;
#X connect 9 0 25 0;
#X connect 10 0 20 0;
#X connect 11 0 21 0;
#X connect 14 0 13 0;
#X connect 14 0 13 1;
#X connect 17 1 22 0;
#X connect 18 0 10 0;
#X connect 19 0 11 0;
#X connect 20 0 17 0;
#X connect 21 0 17 0;
#X connect 24 0 22 1;
#X connect 24 0 23 1;
#X connect 26 0 8 1;
#X coords 0 811 1 810 85 60 0;
