#N canvas 0 132 2190 785 10;
#X obj 14 6 cnv 15 500 25 empty empty abc_2d_mapN[_S]~  20 12 0 18
#606060 #fcfcfc 0;
#X obj 13 746 abc_helpcredit;
#X obj 14 32 cnv 15 500 25 empty empty Ambisonic_map_of_sources_in_polar_coordinates
20 12 0 12 #606060 #fcfcfc 0;
#X obj 23 319 abc_gain -127;
#X obj 706 635 tgl 15 0 empty empty DSP_on/off 17 7 0 10 #fcfcfc #000000
#000000 0 1;
#X msg 706 665 \; pd dsp \$1 \;;
#X obj 880 372 tgl 15 0 empty empty empty 17 7 0 10 #fcfcfc #000000
#000000 0 1;
#X msg 880 394 stereo \$1;
#X obj 187 184 cos~;
#X obj 187 205 +~ 1;
#X obj 8 521 tgl 15 0 empty empty empty 17 7 0 10 #fcfcfc #000000 #000000
0 1;
#X msg 8 545 stereo \$1;
#X obj 570 290 abc_2d_squaretrajectory~;
#X obj 109 268 abc_2d_map1~;
#X obj 235 185 abc_mult2pi~;
#X obj 216 296 abc_poltocar~;
#X obj 223 151 phasor~ 0.03;
#X obj 237 227 *~ 10;
#X obj 187 226 *~ 0.9;
#X obj 1013 460 abc_2d_decoder3~ --------------;
#X obj 1052 636 dac~ 1 2 3 4 5 6 7 8;
#X obj 1027 374 abc_2d_map3~ --------------;
#X obj 1220 461 abc_2d_scope3~ --------------;
#X obj 570 266 r sqtraj;
#X obj 722 186 loadbang;
#X obj 571 359 abc_cartopol~;
#X obj 496 421 abc_2d_map7~ -------------;
#X obj 470 528 abc_meter;
#X obj 999 327 abc_soundcoat~;
#X obj 1094 139 abc_slider2map;
#X obj 951 522 abc_meter;
#X text 542 6 DESCRIPTION;
#X text 1286 4 CONTROLS;
#X text 1287 22 there are no specific control parameters;
#X obj 440 218 abc_gain -127;
#X obj 28 590 abc_meter;
#X obj 544 115 abc_env_noise 125 0.5 0;
#X obj 46 98 abc_env_noise 200 0.3 0;
#X obj 385 388 tgl 15 0 empty empty empty 17 7 0 10 #fcfcfc #000000
#000000 0 1;
#X msg 385 410 stereo \$1;
#X obj 97 570 abc_2d_decoder1_4~;
#X text 914 22 abc_2d_map1_1~ to abc_2d_map7_8~ objects receive three
signals as inputs: - the source to be spatialized \, - the radius of
the position of the source (distance to the centre of the scene) -
the angle of the position of the source in radians;
#X text 542 23 abc_2d_map1_1~ \, abc_2d_map1_2~ \, abc_2d_map1_3~ etc.
are map objects to manipualte multple signal mapping. For instance
\, abc_2d_map3_4~ enables to handle 4 sources at order #3 of ambisonics.
When there is only one source abc_2_mapN_1~ and abc_2d_mapN~ objects
are equivalent \, for instance abc_2d_map3_1~ and abc_2d_map3~.;
#X obj 1496 157 abc_2d_squaretrajectory~;
#X obj 1529 190 abc_cartopol~;
#X obj 1496 133 r sqtraj2;
#X obj 1489 233 abc_soundgrain~;
#X obj 1640 232 abc_soundcoat~;
#X obj 1687 155 abc_2d_squaretrajectory~;
#X obj 1720 188 abc_cartopol~;
#X obj 1542 268 abc_2d_map1_3~ ---------~----------------------------
;
#X obj 1687 131 r ztraj;
#X obj 1786 88 abc_env_noise 125 0.5 -5;
#X obj 1834 184 cos~;
#X obj 1834 205 +~ 1;
#X obj 1881 185 abc_mult2pi~;
#X obj 1870 151 phasor~ 0.03;
#X obj 1884 227 *~ 10;
#X obj 1834 226 *~ 0.9;
#X obj 1767 395 abc_2d_scope1~ --------------;
#X obj 838 405 tgl 15 0 empty empty empty 17 7 0 10 #fcfcfc #000000
#000000 0 1;
#X msg 838 427 directangles \$1;
#X obj 1523 504 tgl 15 0 empty empty empty 17 7 0 10 #fcfcfc #000000
#000000 0 1;
#X msg 1523 528 stereo \$1;
#X obj 1558 599 abc_meter;
#X obj 1614 564 abc_2d_decoder1_4~;
#X obj 88 513 tgl 15 0 empty empty empty 17 7 0 10 #fcfcfc #000000
#000000 0 1;
#X msg 88 535 directangles \$1;
#X obj 359 417 tgl 15 0 empty empty empty 17 7 0 10 #fcfcfc #000000
#000000 0 1;
#X msg 359 439 directangles \$1;
#X obj 1489 528 tgl 15 0 empty empty empty 17 7 0 10 #fcfcfc #000000
#000000 0 1;
#X msg 1489 550 directangles \$1;
#X msg 722 207 \; sqtraj size 1.2 \; sqtraj freq 0.2 \; sqtraj2 size
0.7 \; sqtraj2 freq 0.5 \; ztraj size 1.3 \; ztraj freq 0.1;
#X obj 961 532;
#X obj 473 474 abc_2d_stereodecoder7~ ----------;
#X obj 209 337 cyclone/scope~ 130 130 16 3 256 -2 2 0 0 0 0 205 229
232 74 79 77 96 98 102 0 empty;
#X text 228 470 cyclone/scope~;
#X obj 683 345 cyclone/scope~ 130 130 16 3 256 -2 2 0 0 0 0 205 229
232 74 79 77 96 98 102 0 empty;
#X text 702 478 cyclone/scope~;
#X obj 1247 499 cyclone/scope~ 130 130 16 3 256 -1 1 0 0 0 0 205 229
232 74 79 77 96 98 102 0 empty;
#X text 1266 632 cyclone/scope~;
#X obj 1805 443 cyclone/scope~ 130 130 16 3 256 -1 1 0 0 0 0 205 229
232 74 79 77 96 98 102 0 empty;
#X text 1824 576 cyclone/scope~;
#X text 134 250 r and theta (in radians);
#X text 559 330 converts to polar;
#X text 1131 291 generates polar coordinates of the source;
#X obj 918 186 abc_gain -127;
#X obj 95 629 abc_quadriout -15 1 2 3 4;
#X obj 568 527 abc_stereoout -15;
#X obj 1622 623 abc_quadriout -15 1 2 3 4;
#X obj 1540 313 abc_gain -127;
#X connect 3 0 40 0;
#X connect 4 0 5 0;
#X connect 6 0 7 0;
#X connect 7 0 19 0;
#X connect 8 0 9 0;
#X connect 9 0 18 0;
#X connect 10 0 11 0;
#X connect 11 0 40 0;
#X connect 12 1 25 1;
#X connect 12 1 77 0;
#X connect 12 2 25 2;
#X connect 12 2 77 1;
#X connect 13 1 40 1;
#X connect 13 2 40 2;
#X connect 13 3 40 3;
#X connect 14 1 17 0;
#X connect 15 1 75 0;
#X connect 15 2 75 1;
#X connect 16 0 8 0;
#X connect 16 0 14 1;
#X connect 17 0 15 2;
#X connect 17 0 13 3;
#X connect 18 0 15 1;
#X connect 18 0 13 2;
#X connect 19 1 20 0;
#X connect 19 1 30 0;
#X connect 19 2 20 1;
#X connect 19 3 20 2;
#X connect 19 4 20 3;
#X connect 19 5 20 4;
#X connect 19 6 20 5;
#X connect 19 7 20 6;
#X connect 19 8 20 7;
#X connect 21 1 19 1;
#X connect 21 1 22 1;
#X connect 21 2 19 2;
#X connect 21 2 22 2;
#X connect 21 3 19 3;
#X connect 21 3 22 3;
#X connect 21 4 19 4;
#X connect 21 4 22 4;
#X connect 21 5 19 5;
#X connect 21 5 22 5;
#X connect 21 6 19 6;
#X connect 21 6 22 6;
#X connect 21 7 19 7;
#X connect 21 7 22 7;
#X connect 22 1 79 0;
#X connect 22 2 79 1;
#X connect 23 0 12 0;
#X connect 24 0 72 0;
#X connect 25 1 26 2;
#X connect 25 2 26 3;
#X connect 26 1 74 1;
#X connect 26 2 74 2;
#X connect 26 3 74 3;
#X connect 26 4 74 4;
#X connect 26 5 74 5;
#X connect 26 6 74 6;
#X connect 26 7 74 7;
#X connect 26 8 74 8;
#X connect 26 9 74 9;
#X connect 26 10 74 10;
#X connect 26 11 74 11;
#X connect 26 12 74 12;
#X connect 26 13 74 13;
#X connect 26 14 74 14;
#X connect 26 15 74 15;
#X connect 28 1 21 1;
#X connect 29 0 21 2;
#X connect 29 1 21 3;
#X connect 34 0 74 0;
#X connect 36 0 26 1;
#X connect 37 0 13 1;
#X connect 38 0 39 0;
#X connect 39 0 74 0;
#X connect 40 1 35 0;
#X connect 40 1 87 0;
#X connect 40 2 87 1;
#X connect 40 3 87 2;
#X connect 40 4 87 3;
#X connect 43 1 44 1;
#X connect 43 2 44 2;
#X connect 44 1 50 2;
#X connect 44 2 50 3;
#X connect 45 0 43 0;
#X connect 46 1 50 1;
#X connect 47 1 50 4;
#X connect 48 1 49 1;
#X connect 48 2 49 2;
#X connect 49 1 50 5;
#X connect 49 2 50 6;
#X connect 50 1 59 1;
#X connect 50 1 65 1;
#X connect 50 2 59 2;
#X connect 50 2 65 2;
#X connect 50 3 59 3;
#X connect 50 3 65 3;
#X connect 51 0 48 0;
#X connect 52 0 50 7;
#X connect 53 0 54 0;
#X connect 54 0 58 0;
#X connect 55 1 57 0;
#X connect 56 0 53 0;
#X connect 56 0 55 1;
#X connect 57 0 50 9;
#X connect 58 0 50 8;
#X connect 59 1 81 0;
#X connect 59 2 81 1;
#X connect 60 0 61 0;
#X connect 61 0 19 0;
#X connect 62 0 63 0;
#X connect 63 0 65 0;
#X connect 65 1 64 0;
#X connect 65 1 89 0;
#X connect 65 2 89 1;
#X connect 65 3 89 2;
#X connect 65 4 89 3;
#X connect 66 0 67 0;
#X connect 67 0 40 0;
#X connect 68 0 69 0;
#X connect 69 0 74 0;
#X connect 70 0 71 0;
#X connect 71 0 65 0;
#X connect 74 1 27 0;
#X connect 74 1 88 0;
#X connect 74 2 27 0;
#X connect 74 2 88 1;
#X connect 86 0 19 0;
#X connect 90 0 65 0;
