#N canvas 217 323 979 740 10;
#X obj 14 6 cnv 15 600 25 empty empty abc_ambi_scope_m 20 12 0 18 #606060 #fcfcfc 0;
#X obj 13 698 abc_helpcredit;
#X obj 14 32 cnv 15 600 25 empty empty Visualization_of_an_ambisonic_sound_field_combined_with_abc_2d_scope1_m...7_m\ objects 20 12 0 12 #606060 #fcfcfc 0;
#X text 18 68 DESCRIPTION;
#X text 389 65 CONTROLS;
#X msg 379 393 speed \$1;
#X obj 379 416 abc_2d_encoder1_m;
#X obj 391 472 abc_2d_scope1_m;
#X obj 276 500 abc_ambi_scope_m;
#X obj 275 397 loadbang;
#X msg 275 438 bgcolor 0 0 1;
#X obj 478 385 sig~ 1;
#X msg 276 417 gridcolor 0 0 0;
#X obj 231 282 abc_upanddown;
#X obj 231 260 tgl 16 0 empty empty empty 0 -8 0 10 #fcfcfc #000000 #000000 0 1;
#X obj 231 216 loadbang;
#X msg 231 237 1;
#X msg 167 459 bgcolor \$1 \$1 \$1;
#X msg 276 459 fgcolor 0 0 1;
#X obj 230 335 * 5;
#X obj 229 356 + 0.001;
#X obj 55 421 tgl 15 0 empty empty DSP_on/off 17 7 0 10 #fcfcfc #000000 #000000 0 1;
#X msg 55 451 \; pd dsp \$1 \;;
#X obj 626 367 snake~ in 5;
#X text 132 500 control messages of cyclone/scope~ object, f 22;
#X obj 584 296 tgl 16 0 empty empty empty 0 -8 0 10 #fcfcfc #000000 #000000 0 1;
#X obj 584 317 sig~;
#X obj 616 296 tgl 16 0 empty empty empty 0 -8 0 10 #fcfcfc #000000 #000000 0 1;
#X obj 616 317 sig~;
#X obj 648 295 tgl 16 0 empty empty empty 0 -8 0 10 #fcfcfc #000000 #000000 0 1;
#X obj 648 316 sig~;
#X obj 680 295 tgl 16 0 empty empty empty 0 -8 0 10 #fcfcfc #000000 #000000 0 1;
#X obj 680 316 sig~;
#X obj 712 295 tgl 16 0 empty empty empty 0 -8 0 10 #fcfcfc #000000 #000000 0 1;
#X obj 712 316 sig~;
#X obj 621 405 abc_2d_scope2_m;
#X obj 571 500 abc_ambi_scope_m;
#X text 541 272 combining elementary spatial harmonics;
#X text 18 91 abc_ambi_scope_m is a multichannel graphic abstraction that enables to visualize an ambisonic sound field. It receives the visualization signals from abc_2d_scope1_m...abc_2d_scope7_m multichannel objects. It requires the installation of cyclone library (this can be done from the help menu of PureData);
#X text 389 90 The control parameters are the ones of scope~ object in cyclone library \, especially colour parameters (gridcolor \, bgcolor \, fgcolor \, etc. messages);
#X connect 5 0 6 0;
#X connect 6 1 7 1;
#X connect 7 1 8 1;
#X connect 9 0 12 0;
#X connect 9 0 10 0;
#X connect 9 0 18 0;
#X connect 10 0 8 0;
#X connect 11 0 6 1;
#X connect 12 0 8 0;
#X connect 13 0 17 0;
#X connect 13 0 19 0;
#X connect 14 0 13 0;
#X connect 15 0 16 0;
#X connect 16 0 14 0;
#X connect 17 0 8 0;
#X connect 18 0 8 0;
#X connect 19 0 20 0;
#X connect 20 0 5 0;
#X connect 21 0 22 0;
#X connect 23 0 35 1;
#X connect 25 0 26 0;
#X connect 26 0 23 0;
#X connect 27 0 28 0;
#X connect 28 0 23 1;
#X connect 29 0 30 0;
#X connect 30 0 23 2;
#X connect 31 0 32 0;
#X connect 32 0 23 3;
#X connect 33 0 34 0;
#X connect 34 0 23 4;
#X connect 35 1 36 1;
