#N canvas 1208 328 1278 740 10;
#X obj 14 6 cnv 15 500 25 empty empty abc_stereodecoderN~  20 12 0
18 #606060 #fcfcfc 0;
#X obj 13 698 abc_helpcredit;
#X obj 14 32 cnv 15 500 25 empty empty Ambisonic_stereo_decoders_at_orders_1_2_3_etc.
20 12 0 12 #606060 #fcfcfc 0;
#X obj 503 568 tgl 15 0 empty empty DSP_on/off 17 7 0 10 #fcfcfc #000000
#000000 0 1;
#X msg 503 598 \; pd dsp \$1 \;;
#X obj 687 480 abc_meter;
#X obj 103 458 abc_meter;
#X text 905 8 CONTROLS;
#X text 532 7 DESCRIPTION;
#X obj 75 137 abc_addsynth16~ ----------------;
#X obj 71 198 abc_cosrandenv16~ ----------------;
#X obj 81 253 abc_chopan16~ ----------------;
#N canvas 500 105 296 306 encoder1 0;
#X obj 122 264 outlet;
#X obj 121 23 loadbang;
#X msg 57 91 0.71;
#X floatatom 57 112 5 0 0 0 - - - 0;
#X msg 57 132 speed \$1;
#X floatatom 121 112 5 0 0 0 - - - 0;
#X msg 121 132 angle \$1;
#X msg 121 91 0;
#X floatatom 183 111 5 0 0 0 - - - 0;
#X msg 183 90 10;
#X msg 184 131 returntime \$1;
#X connect 1 0 2 0;
#X connect 1 0 7 0;
#X connect 1 0 9 0;
#X connect 2 0 3 0;
#X connect 3 0 4 0;
#X connect 4 0 0 0;
#X connect 5 0 6 0;
#X connect 6 0 0 0;
#X connect 7 0 5 0;
#X connect 8 0 10 0;
#X connect 9 0 8 0;
#X connect 10 0 0 0;
#X restore 68 317 pd encoder1;
#N canvas 500 105 296 306 encoder2 0;
#X obj 122 264 outlet;
#X obj 121 23 loadbang;
#X floatatom 57 112 5 0 0 0 - - - 0;
#X msg 57 132 speed \$1;
#X floatatom 121 112 5 0 0 0 - - - 0;
#X msg 121 132 angle \$1;
#X msg 121 91 0;
#X floatatom 183 111 5 0 0 0 - - - 0;
#X msg 183 90 10;
#X msg 184 131 returntime \$1;
#X msg 57 91 0.7;
#X connect 1 0 10 0;
#X connect 1 0 6 0;
#X connect 1 0 8 0;
#X connect 2 0 3 0;
#X connect 3 0 0 0;
#X connect 4 0 5 0;
#X connect 5 0 0 0;
#X connect 6 0 4 0;
#X connect 7 0 9 0;
#X connect 8 0 7 0;
#X connect 9 0 0 0;
#X connect 10 0 2 0;
#X restore 185 316 pd encoder2;
#X obj 185 347 abc_2d_encoder1~;
#X obj 68 347 abc_2d_encoder1~;
#X obj 456 296 loadbang;
#X msg 456 317 1;
#X obj 455 339 tgl 15 0 empty empty empty 17 7 0 10 #fcfcfc #000000
#000000 0 1;
#X msg 455 361 directangles \$1;
#X obj 780 245 abc_2d_squaretrajectory~;
#X text 778 228 generates a square trajectory in cartesian;
#X text 532 27 abc_stereodecoder1~ \, abc_stereodecoder2~ \, etc. objects
enable to decode from ambisonic spatial components to stereo - gain
is the output gain in dB - directangles is 1 for anticlockwise (as
in ambisonic norm) and 0 for clockwise;
#X text 907 26 - gain is the output gain in dB;
#X text 907 53 - directangles is 1 for anticlockwise (as in ambisonic
norm) and 0 for clockwise;
#X obj 804 300 abc_cartopol~;
#X obj 698 365 abc_2d_map7~ ------------;
#X obj 655 163 abc_gain -127;
#X obj 75 90 loadbang;
#X obj 756 480 abc_stereoout -15;
#X obj 747 163 abc_env_noise 125 0.5 0;
#X obj 171 458 abc_stereoout -15;
#X msg 75 111 gain -10;
#X obj 353 174 abc_gain -15;
#X obj 135 411 abc_2d_stereodecoder1~;
#X obj 668 419 abc_2d_stereodecoder7~ ------------;
#X obj 916 331 cyclone/scope~ 130 130 16 3 256 -2 2 0 0 0 0 205 229
232 74 79 77 96 98 102 0 empty;
#X text 935 464 cyclone/scope~;
#X connect 3 0 4 0;
#X connect 9 1 10 1;
#X connect 9 2 10 2;
#X connect 9 3 10 3;
#X connect 9 4 10 4;
#X connect 9 5 10 5;
#X connect 9 6 10 6;
#X connect 9 7 10 7;
#X connect 9 8 10 8;
#X connect 9 9 10 9;
#X connect 9 10 10 10;
#X connect 9 11 10 11;
#X connect 9 12 10 12;
#X connect 9 13 10 13;
#X connect 9 14 10 14;
#X connect 9 15 10 15;
#X connect 9 16 10 16;
#X connect 10 1 11 1;
#X connect 10 2 11 2;
#X connect 10 3 11 3;
#X connect 10 4 11 4;
#X connect 10 5 11 5;
#X connect 10 6 11 6;
#X connect 10 7 11 7;
#X connect 10 8 11 8;
#X connect 10 9 11 9;
#X connect 10 10 11 10;
#X connect 10 11 11 11;
#X connect 10 12 11 12;
#X connect 10 13 11 13;
#X connect 10 14 11 14;
#X connect 10 15 11 15;
#X connect 10 16 11 16;
#X connect 11 1 15 1;
#X connect 11 2 14 1;
#X connect 12 0 15 0;
#X connect 13 0 14 0;
#X connect 14 1 34 1;
#X connect 14 2 34 2;
#X connect 14 3 34 3;
#X connect 15 1 34 1;
#X connect 15 2 34 2;
#X connect 15 3 34 3;
#X connect 16 0 17 0;
#X connect 17 0 18 0;
#X connect 18 0 19 0;
#X connect 19 0 34 0;
#X connect 19 0 35 0;
#X connect 20 1 25 1;
#X connect 20 1 36 0;
#X connect 20 2 25 2;
#X connect 20 2 36 1;
#X connect 25 1 26 2;
#X connect 25 2 26 3;
#X connect 26 1 35 1;
#X connect 26 2 35 2;
#X connect 26 3 35 3;
#X connect 26 4 35 4;
#X connect 26 5 35 5;
#X connect 26 6 35 6;
#X connect 26 7 35 7;
#X connect 26 8 35 8;
#X connect 26 9 35 9;
#X connect 26 10 35 10;
#X connect 26 11 35 11;
#X connect 26 12 35 12;
#X connect 26 13 35 13;
#X connect 26 14 35 14;
#X connect 26 15 35 15;
#X connect 27 0 35 0;
#X connect 28 0 32 0;
#X connect 30 0 26 1;
#X connect 32 0 9 0;
#X connect 33 0 34 0;
#X connect 34 1 6 0;
#X connect 34 1 31 0;
#X connect 34 2 31 1;
#X connect 35 1 5 0;
#X connect 35 1 29 0;
#X connect 35 2 29 1;
