#N canvas 761 183 1100 776 10;
#X obj 11 5 cnv 15 500 25 empty empty abc_busplusN~ 20 12 0 18 #606060 #fcfcfc 0;
#X obj 10 733 abc_helpcredit;
#X obj 11 31 cnv 15 500 25 empty empty Adds_two_buses_of_n_signals 20 12 0 12 #606060 #fcfcfc 0;
#X obj 419 630 tgl 15 0 empty empty DSP_on/off 17 7 0 10 #dfdfdf #000000 #000000 0 1;
#X msg 419 658 \; pd dsp \$1 \;;
#X text 539 5 DESCRIPTION;
#X obj 952 156 abc_gain -127;
#X obj 226 565 abc_stereoout -30;
#X obj 55 132 abc_gain -127;
#X text 540 26 abc_busplus1~ \, abc_busplus2~ \, ... objects enable to implement multichannel bus additions (from 1 signal to 16 signals). Two buses are connected to the object \, the left one and the right one.;
#X obj 260 154 abc_upanddown;
#X obj 260 134 tgl 15 1 empty empty empty 17 7 0 10 #fcfcfc #000000 #000000 1 1;
#X obj 258 92 loadbang;
#X msg 259 113 1;
#X obj 260 209 * 10;
#X obj 260 230 + 0.1;
#X obj 260 253 t b f;
#X msg 182 157 220;
#X floatatom 182 178 5 0 0 0 - - - 0;
#X msg 182 351 f0 \$1;
#X obj 239 293 +;
#X floatatom 239 314 5 0 0 0 - - - 0;
#X msg 239 350 f0 \$1;
#X obj 146 566 abc_meter2_m;
#X obj 77 398 loadbang;
#X msg 77 429 gain -6;
#X text 279 451 creates 4 frequency beats between 2 close harmonic sounds with 4 partials;
#X obj 759 515 abc_meter8_m;
#X obj 715 515 dac~ 1;
#X obj 607 158 abc_gain -127;
#X text 893 387 adds two buses of 7 signals and the result is considered as a set of spatial harmonics to be directly decoded, f 32;
#X obj 139 397 abc_addsynth4~;
#X obj 239 397 abc_addsynth4~;
#X obj 186 452 abc_busplus4~;
#X obj 196 481 abc_gain4~;
#X obj 192 508 abc_chopan4~;
#X obj 146 544 snake~ in 2;
#X obj 721 231 abc_multinoise7~;
#X obj 695 279 abc_substractsynth7~;
#X obj 832 230 abc_addsynth7~;
#X obj 831 279 abc_cosrandenv7~;
#X obj 703 349 abc_gain7~, f 19;
#X obj 833 348 abc_gain7~, f 18;
#X obj 725 388 abc_busplus7~, f 26;
#X obj 748 455 abc_2d_decoder3~;
#X obj 759 486 snake~ in 8, f 15;
#X connect 3 0 4 0;
#X connect 6 0 42 0;
#X connect 8 0 31 0;
#X connect 8 0 32 0;
#X connect 10 0 14 0;
#X connect 11 0 10 0;
#X connect 12 0 13 0;
#X connect 12 0 17 0;
#X connect 13 0 11 0;
#X connect 14 0 15 0;
#X connect 15 0 16 0;
#X connect 16 0 20 0;
#X connect 16 1 20 1;
#X connect 17 0 18 0;
#X connect 18 0 19 0;
#X connect 18 0 20 0;
#X connect 19 0 31 0;
#X connect 20 0 21 0;
#X connect 21 0 22 0;
#X connect 22 0 32 0;
#X connect 24 0 25 0;
#X connect 25 0 34 0;
#X connect 29 0 41 0;
#X connect 31 1 33 1;
#X connect 31 2 33 2;
#X connect 31 3 33 3;
#X connect 31 4 33 4;
#X connect 32 1 33 5;
#X connect 32 2 33 6;
#X connect 32 3 33 7;
#X connect 32 4 33 8;
#X connect 33 1 34 1;
#X connect 33 2 34 2;
#X connect 33 3 34 3;
#X connect 33 4 34 4;
#X connect 34 1 35 1;
#X connect 34 2 35 2;
#X connect 34 3 35 3;
#X connect 34 4 35 4;
#X connect 35 1 7 0;
#X connect 35 1 36 0;
#X connect 35 2 7 1;
#X connect 35 2 36 1;
#X connect 36 0 23 0;
#X connect 37 1 38 1;
#X connect 37 2 38 2;
#X connect 37 3 38 3;
#X connect 37 4 38 4;
#X connect 37 5 38 5;
#X connect 37 6 38 6;
#X connect 37 7 38 7;
#X connect 38 1 41 1;
#X connect 38 2 41 2;
#X connect 38 3 41 3;
#X connect 38 4 41 4;
#X connect 38 5 41 5;
#X connect 38 6 41 6;
#X connect 38 7 41 7;
#X connect 39 1 40 1;
#X connect 39 2 40 2;
#X connect 39 3 40 3;
#X connect 39 4 40 4;
#X connect 39 5 40 5;
#X connect 39 6 40 6;
#X connect 39 7 40 7;
#X connect 40 1 42 1;
#X connect 40 2 42 2;
#X connect 40 3 42 3;
#X connect 40 4 42 4;
#X connect 40 5 42 5;
#X connect 40 6 42 6;
#X connect 40 7 42 7;
#X connect 41 1 43 1;
#X connect 41 2 43 2;
#X connect 41 3 43 3;
#X connect 41 4 43 4;
#X connect 41 5 43 5;
#X connect 41 6 43 6;
#X connect 41 7 43 7;
#X connect 42 1 43 8;
#X connect 42 2 43 9;
#X connect 42 3 43 10;
#X connect 42 4 43 11;
#X connect 42 5 43 12;
#X connect 42 6 43 13;
#X connect 42 7 43 14;
#X connect 43 1 44 1;
#X connect 43 2 44 2;
#X connect 43 3 44 3;
#X connect 43 4 44 4;
#X connect 43 5 44 5;
#X connect 43 6 44 6;
#X connect 43 7 44 7;
#X connect 44 1 45 0;
#X connect 44 2 45 1;
#X connect 44 3 45 2;
#X connect 44 4 45 3;
#X connect 44 5 45 4;
#X connect 44 6 45 5;
#X connect 44 7 45 6;
#X connect 44 8 45 7;
#X connect 45 0 27 0;
#X connect 45 0 28 0;
#X coords 0 776 1 775 85 60 0;
