#N canvas 0 37 1470 789 10;
#X obj 14 65 cnv 15 500 25 empty empty abc_2d_squaretrajectory~ &_al. 20 12 0 18 #606060 #fcfcfc 0;
#X obj 13 753 abc_helpcredit;
#X obj 14 91 cnv 15 500 25 empty empty 2D_trajectory_generators 20 12 0 12 #606060 #fcfcfc 0;
#X obj 48 223 loadbang;
#X floatatom 48 285 5 0 0 0 - - - 0;
#X obj 878 668 tgl 15 0 empty empty DSP_on/off 17 7 0 10 #dfdfdf #000000 #000000 0 1;
#X msg 878 696 \; pd dsp \$1 \;;
#X text 939 63 CONTROLS;
#X text 542 65 DESCRIPTION;
#X obj 48 351 abc_2d_squaretrajectory~;
#X msg 48 308 freq \$1;
#X floatatom 114 284 5 0 0 0 - - - 0;
#X msg 114 307 size \$1;
#X obj 191 463 abc_cartopol~;
#X obj 210 542 abc_2d_map1~;
#X obj 309 447 receive~ s1;
#X obj 344 502 abc_meter;
#X obj 467 222 loadbang;
#X floatatom 467 284 5 0 0 0 - - - 0;
#X msg 467 307 freq \$1;
#X floatatom 533 283 5 0 0 0 - - - 0;
#X msg 533 306 size \$1;
#X obj 610 462 abc_cartopol~;
#X obj 763 501 abc_meter;
#X obj 467 350 abc_2d_ztrajectory~;
#X obj 629 541 abc_2d_map3~;
#X obj 728 446 receive~ s2;
#X obj 872 223 loadbang;
#X floatatom 872 285 5 0 0 0 - - - 0;
#X msg 872 308 freq \$1;
#X floatatom 938 284 5 0 0 0 - - - 0;
#X msg 938 307 size \$1;
#X obj 1015 463 abc_cartopol~;
#X obj 1157 502 abc_meter;
#X obj 1034 542 abc_2d_map3~;
#X obj 872 351 abc_2d_squareandztrajectory~;
#X floatatom 999 284 5 0 0 0 - - - 0;
#X msg 999 261 0.22;
#X msg 999 307 crossfade \$1;
#X obj 1133 447 receive~ s3;
#X msg 48 261 -0.2;
#X msg 467 260 0.4;
#X msg 533 260 1;
#X obj 1247 222 loadbang;
#X floatatom 1247 284 5 0 0 0 - - - 0;
#X msg 1247 307 freq \$1;
#X floatatom 1313 283 5 0 0 0 - - - 0;
#X msg 1313 306 size \$1;
#X obj 1390 462 abc_cartopol~;
#X obj 1543 501 abc_meter;
#X obj 1247 350 abc_2d_randomtrajectory~;
#X obj 1543 446 receive~ s4;
#X msg 1247 260 0.6;
#X msg 872 261 0.5;
#X text 543 85 abc_2d_squaretrajectory~ \, abc_2d_ztrajectory~ \, abc_2d_squareandztrajectory~ \, abc_2d_randomtrajectory~objects generate 2D trajectories in cartesian coordinates. abc_2d_squaretrajectory~ stands for a square \, abc_2d_ztrajectory~ for a Z \, abc_2d_squareandztrajectory~ for an interpolation between a square and a Z \, abc_2d_randomtrajectory~ for a random trajectory. All of them have in common two controllers: freq (frequency of the shape in s-1) \, and size.;
#X obj 632 604 abc_stereoout -15;
#X obj 213 605 abc_stereoout -15;
#X obj 1037 605 abc_stereoout -15;
#X obj 1413 610 abc_stereoout -15;
#X text 938 82 These trajectory generators have common controls: - freq is the frequency of the trajectory in period per second - size is the size of the square that marks out the trajectory For the abc_2d_squareandztrajectory~ object \, there is an extra parameter \, crossfade that enables the interpolate between z and square trajectories;
#X obj 180 575 abc_2d_stereodecoder1~;
#X obj 599 574 abc_2d_stereodecoder3~;
#X obj 1004 575 abc_2d_stereodecoder3~;
#X msg 114 260 0.8;
#X text 882 594 cyclone/scope~;
#X msg 938 261 0.9;
#X msg 1313 260 0.95;
#X obj 221 223 abc_gain -127;
#X obj 646 222 abc_gain -127;
#X obj 1101 225 abc_gain -127;
#X obj 1477 224 abc_gain -127;
#X obj 24 463 abc_xy_scope;
#X obj 447 463 abc_xy_scope;
#X obj 859 468 abc_xy_scope;
#X obj 1229 470 abc_xy_scope;
#X obj 1406 530 abc_2d_map5~;
#X obj 1380 580 abc_2d_stereodecoder5~;
#X obj 1688 222 loadbang;
#X floatatom 1688 284 5 0 0 0 - - - 0;
#X floatatom 1754 283 5 0 0 0 - - - 0;
#X msg 1688 307 ampRho \$1;
#X msg 1754 306 freqRho \$1;
#X msg 1754 260 0.2;
#X floatatom 1826 282 5 0 0 0 - - - 0;
#X floatatom 1904 281 5 0 0 0 - - - 0;
#X msg 1826 305 ampTheta \$1;
#X msg 1904 304 freqTheta \$1;
#X floatatom 1991 280 5 0 0 0 - - - 0;
#X msg 1991 303 rotSpeed \$1;
#X msg 1991 257 0.1;
#X msg 1904 258 2;
#X msg 1826 258 0.1;
#X msg 1688 260 0.3;
#X obj 1869 470 abc_xy_scope;
#X obj 1688 350 abc_2d_polarvariablecircle~;
#X obj 1722 542 abc_2d_map3~;
#X obj 1725 605 abc_stereoout -15;
#X obj 1692 575 abc_2d_stereodecoder3~;
#X obj 1900 405 abc_poltocar~;
#X obj 1583 224 abc_gain -127;
#X obj 1618 502 abc_meter;
#X obj 1618 447 receive~ s5;
#N canvas 0 37 427 282 5harmonics 0;
#X obj 44 205 send~ s1;
#X obj 101 205 send~ s2;
#X obj 159 205 send~ s3;
#X obj 215 205 send~ s4;
#X obj 105 24 noise~;
#X obj 105 45 *~ 0.2;
#X obj 74 143 abc_cosrandenv5~;
#X obj 62 83 abc_substractsynth5~;
#X obj 273 205 send~ s5;
#X connect 4 0 5 0;
#X connect 5 0 7 1;
#X connect 5 0 7 2;
#X connect 5 0 7 3;
#X connect 5 0 7 4;
#X connect 5 0 7 5;
#X connect 6 1 0 0;
#X connect 6 2 1 0;
#X connect 6 3 2 0;
#X connect 6 4 3 0;
#X connect 6 5 8 0;
#X connect 7 1 6 1;
#X connect 7 2 6 2;
#X connect 7 3 6 3;
#X connect 7 4 6 4;
#X connect 7 5 6 5;
#X restore 427 131 pd 5harmonics;
#X text 1685 124 abc_2d_polarvariablecircle~ generates a circular trajectory (radius = 1) in polar coordinates. The radius can be given a sinusoidal variation (with amplitude ampRho at frequency freqRho in Hz). The angle can be given a sinusoidal variation (with amplitude ampTheta in radians and freqTheta in Hz). The speed of rotation is controlled by rotSpeed (in turns by seconds).;
#X connect 3 0 40 0;
#X connect 3 0 63 0;
#X connect 4 0 10 0;
#X connect 5 0 6 0;
#X connect 9 1 13 1;
#X connect 9 1 71 1;
#X connect 9 2 13 2;
#X connect 9 2 71 2;
#X connect 10 0 9 0;
#X connect 11 0 12 0;
#X connect 12 0 9 0;
#X connect 13 1 14 2;
#X connect 13 2 14 3;
#X connect 14 1 60 1;
#X connect 14 2 60 2;
#X connect 14 3 60 3;
#X connect 15 0 16 0;
#X connect 15 0 14 1;
#X connect 17 0 41 0;
#X connect 17 0 42 0;
#X connect 18 0 19 0;
#X connect 19 0 24 0;
#X connect 20 0 21 0;
#X connect 21 0 24 0;
#X connect 22 1 25 2;
#X connect 22 2 25 3;
#X connect 24 1 22 1;
#X connect 24 1 72 1;
#X connect 24 2 22 2;
#X connect 24 2 72 2;
#X connect 25 1 61 1;
#X connect 25 2 61 2;
#X connect 25 3 61 3;
#X connect 25 4 61 4;
#X connect 25 5 61 5;
#X connect 25 6 61 6;
#X connect 25 7 61 7;
#X connect 26 0 23 0;
#X connect 26 0 25 1;
#X connect 27 0 53 0;
#X connect 27 0 65 0;
#X connect 27 0 37 0;
#X connect 28 0 29 0;
#X connect 29 0 35 0;
#X connect 30 0 31 0;
#X connect 31 0 35 0;
#X connect 32 1 34 2;
#X connect 32 2 34 3;
#X connect 34 1 62 1;
#X connect 34 2 62 2;
#X connect 34 3 62 3;
#X connect 34 4 62 4;
#X connect 34 5 62 5;
#X connect 34 6 62 6;
#X connect 34 7 62 7;
#X connect 35 1 32 1;
#X connect 35 1 73 1;
#X connect 35 2 32 2;
#X connect 35 2 73 2;
#X connect 36 0 38 0;
#X connect 37 0 36 0;
#X connect 38 0 35 0;
#X connect 39 0 34 1;
#X connect 39 0 33 0;
#X connect 40 0 4 0;
#X connect 41 0 18 0;
#X connect 42 0 20 0;
#X connect 43 0 52 0;
#X connect 43 0 66 0;
#X connect 44 0 45 0;
#X connect 45 0 50 0;
#X connect 46 0 47 0;
#X connect 47 0 50 0;
#X connect 48 1 75 2;
#X connect 48 2 75 3;
#X connect 50 1 48 1;
#X connect 50 1 74 1;
#X connect 50 2 48 2;
#X connect 50 2 74 2;
#X connect 51 0 49 0;
#X connect 51 0 75 1;
#X connect 52 0 44 0;
#X connect 53 0 28 0;
#X connect 60 1 56 0;
#X connect 60 2 56 1;
#X connect 61 1 55 0;
#X connect 61 2 55 1;
#X connect 62 1 57 0;
#X connect 62 2 57 1;
#X connect 63 0 11 0;
#X connect 65 0 30 0;
#X connect 66 0 46 0;
#X connect 67 0 60 0;
#X connect 68 0 61 0;
#X connect 69 0 62 0;
#X connect 70 0 76 0;
#X connect 75 1 76 1;
#X connect 75 2 76 2;
#X connect 75 3 76 3;
#X connect 75 4 76 4;
#X connect 75 5 76 5;
#X connect 75 6 76 6;
#X connect 75 7 76 7;
#X connect 75 8 76 8;
#X connect 75 9 76 9;
#X connect 75 10 76 10;
#X connect 75 11 76 11;
#X connect 76 1 58 0;
#X connect 76 2 58 1;
#X connect 77 0 92 0;
#X connect 77 0 82 0;
#X connect 77 0 91 0;
#X connect 77 0 90 0;
#X connect 77 0 89 0;
#X connect 78 0 80 0;
#X connect 79 0 81 0;
#X connect 80 0 94 0;
#X connect 81 0 94 0;
#X connect 82 0 79 0;
#X connect 83 0 85 0;
#X connect 84 0 86 0;
#X connect 85 0 94 0;
#X connect 86 0 94 0;
#X connect 87 0 88 0;
#X connect 88 0 94 0;
#X connect 89 0 87 0;
#X connect 90 0 84 0;
#X connect 91 0 83 0;
#X connect 92 0 78 0;
#X connect 94 1 95 2;
#X connect 94 1 98 1;
#X connect 94 2 95 3;
#X connect 94 2 98 2;
#X connect 95 1 97 1;
#X connect 95 2 97 2;
#X connect 95 3 97 3;
#X connect 95 4 97 4;
#X connect 95 5 97 5;
#X connect 95 6 97 6;
#X connect 95 7 97 7;
#X connect 97 1 96 0;
#X connect 97 2 96 1;
#X connect 98 1 93 1;
#X connect 98 2 93 2;
#X connect 99 0 97 0;
#X connect 101 0 100 0;
#X connect 101 0 95 1;
#X coords 0 789 1 788 85 60 0;
