#N canvas -18 273 1440 788 10;
#X obj 14 6 cnv 15 500 25 empty empty abc_2d_mirrorN~  20 12 0 18
-99865 -262144 0;
#X obj 13 746 abc_helpcredit;
#X obj 14 32 cnv 15 500 25 empty empty Ambisonic_mirrors_of_spatial_components_at_orders_1_2_3...
20 12 0 12 -99865 -262144 0;
#X obj 64 225 abc_2d_encoder1~;
#X obj 599 372 tgl 15 0 empty empty empty 17 7 0 10 -262144 -1 -1 0
1;
#X msg 599 396 stereo \$1;
#X obj 1112 562 abc_2d_decoder7~ ------------;
#X obj 1112 700 dac~ 1 2 3 4 5 6 7 8 9 10 11 12 13 14 15 16;
#X obj 722 472 abc_2d_scope7~ ------------;
#X obj 37 305 abc_2d_scope1~;
#X obj 574 674 tgl 15 0 empty empty DSP_on/off 17 7 0 10 -262144 -1
-1 0 1;
#X msg 574 704 \; pd dsp \$1 \;;
#X obj 1378 596 abc_meter;
#X obj 415 535 abc_meter;
#X obj 75 106 abc_soundcoat~;
#X obj 64 137 loadbang;
#X msg 64 158 -0.2;
#X floatatom 64 179 5 0 0 0 - - -;
#X msg 64 199 speed \$1;
#X obj 206 137 vradio 15 1 0 3 empty empty empty 0 -8 0 10 -262144
-1 -1 0;
#X obj 206 187 expr 1-$f1;
#X floatatom 206 208 5 0 0 0 - - -;
#X msg 206 111 0;
#X obj 206 82 loadbang;
#X msg 206 228 factor \$1;
#X obj 206 289 abc_2d_mirror1;
#X obj 192 398 abc_2d_scope1~;
#X obj 853 142 abc_addsynth5~;
#X obj 848 181 abc_cosrandenv5~;
#X obj 716 167 loadbang;
#X floatatom 716 209 5 0 0 0 - - -;
#X msg 716 229 speed \$1;
#X msg 716 188 0.1;
#X obj 716 271 abc_2d_encoder7~ ------------;
#X obj 431 473 abc_2d_decoder1~;
#X obj 505 231 abc_gain -127;
#X obj 1041 272 vradio 15 1 0 3 empty empty empty 0 -8 0 10 -262144
-1 -1 1;
#X obj 1041 322 expr 1-$f1;
#X floatatom 1041 343 5 0 0 0 - - -;
#X obj 1041 217 loadbang;
#X msg 1041 363 factor \$1;
#X obj 201 442 abc_scope 0 0 2.5;
#X obj 43 371 abc_scope 0 0 2.5;
#X obj 917 473 abc_2d_mirror7~ ---------------;
#X obj 918 518 abc_2d_scope7~ ------------;
#X obj 976 563 abc_scope 1 0 2.5;
#X obj 1328 442 tgl 15 0 empty empty empty 17 7 0 10 -262144 -1 -1
0 1;
#X msg 1328 466 stereo \$1;
#X obj 773 565 abc_scope 0 0 2.5;
#X msg 1041 246 1;
#X text 267 117 1 = Original sound field;
#X text 267 133 0 = Original + Mirror sound field;
#X text 262 148 -1 = Mirror sound field;
#X text 268 102 Mirror factor;
#X text 532 26 abc_2d_mirror1~ \, abc_2d_mirror2~ \, etc. objects apply
mirror L/R symmetry to a set of ambisonic spatial components using
a simple multiplication of negative components by a 'factor'. This
'factor' parameter can take three different values: 1 (original sound
field) \, 0 (original and mirror sound field together) and -1 (only
the mirror sound field);
#X text 1113 212 1 = Original sound field;
#X text 1113 228 0 = Original + Mirror sound field;
#X text 1108 243 -1 = Mirror sound field;
#X text 1114 197 Mirror factor;
#X text 905 8 CONTROLS;
#X text 532 7 DESCRIPTION;
#X text 905 42 1 = Original sound field;
#X text 905 58 0 = Original + Mirror sound field;
#X text 900 73 -1 = Mirror sound field;
#X text 906 27 Mirror factor;
#X obj 481 535 abc_quadriout 0;
#X obj 157 187 *~ 0.2;
#X obj 887 225 *~ 0.04;
#X obj 1244 301 abc_gain -10;
#X connect 3 1 9 1;
#X connect 3 1 25 1;
#X connect 3 2 9 2;
#X connect 3 2 25 2;
#X connect 3 3 9 3;
#X connect 3 3 25 3;
#X connect 4 0 5 0;
#X connect 5 0 34 0;
#X connect 6 1 7 0;
#X connect 6 1 12 0;
#X connect 6 2 7 1;
#X connect 6 3 7 2;
#X connect 6 4 7 3;
#X connect 6 5 7 4;
#X connect 6 6 7 5;
#X connect 6 7 7 6;
#X connect 6 8 7 7;
#X connect 6 9 7 8;
#X connect 6 10 7 9;
#X connect 6 11 7 10;
#X connect 6 12 7 11;
#X connect 6 13 7 12;
#X connect 6 14 7 13;
#X connect 6 15 7 14;
#X connect 6 16 7 15;
#X connect 8 1 48 0;
#X connect 8 2 48 1;
#X connect 8 3 48 2;
#X connect 9 1 42 0;
#X connect 9 2 42 1;
#X connect 9 3 42 2;
#X connect 10 0 11 0;
#X connect 14 1 66 0;
#X connect 15 0 16 0;
#X connect 16 0 17 0;
#X connect 17 0 18 0;
#X connect 18 0 3 0;
#X connect 19 0 20 0;
#X connect 20 0 21 0;
#X connect 21 0 24 0;
#X connect 22 0 19 0;
#X connect 23 0 22 0;
#X connect 24 0 25 0;
#X connect 25 1 26 1;
#X connect 25 1 34 1;
#X connect 25 2 26 2;
#X connect 25 2 34 2;
#X connect 25 3 26 3;
#X connect 25 3 34 3;
#X connect 26 1 41 0;
#X connect 26 2 41 1;
#X connect 26 3 41 2;
#X connect 27 1 28 1;
#X connect 27 2 28 2;
#X connect 27 3 28 3;
#X connect 27 4 28 4;
#X connect 27 5 28 5;
#X connect 28 1 67 0;
#X connect 28 2 67 0;
#X connect 28 3 67 0;
#X connect 28 4 67 0;
#X connect 28 5 67 0;
#X connect 29 0 32 0;
#X connect 30 0 31 0;
#X connect 31 0 33 0;
#X connect 32 0 30 0;
#X connect 33 1 43 1;
#X connect 33 1 8 1;
#X connect 33 2 43 2;
#X connect 33 2 8 2;
#X connect 33 3 43 3;
#X connect 33 3 8 3;
#X connect 33 4 43 4;
#X connect 33 4 8 4;
#X connect 33 5 43 5;
#X connect 33 5 8 5;
#X connect 33 6 43 6;
#X connect 33 6 8 6;
#X connect 33 7 43 7;
#X connect 33 7 8 7;
#X connect 33 8 43 8;
#X connect 33 8 8 8;
#X connect 33 9 43 9;
#X connect 33 9 8 9;
#X connect 33 10 43 10;
#X connect 33 10 8 10;
#X connect 33 11 43 11;
#X connect 33 11 8 11;
#X connect 33 12 43 12;
#X connect 33 12 8 12;
#X connect 33 13 43 13;
#X connect 33 13 8 13;
#X connect 33 14 43 14;
#X connect 33 14 8 14;
#X connect 33 15 43 15;
#X connect 33 15 8 15;
#X connect 34 1 13 0;
#X connect 34 1 65 0;
#X connect 34 2 65 1;
#X connect 34 3 65 2;
#X connect 34 4 65 3;
#X connect 35 0 34 0;
#X connect 36 0 37 0;
#X connect 37 0 38 0;
#X connect 38 0 40 0;
#X connect 39 0 49 0;
#X connect 40 0 43 0;
#X connect 43 1 44 1;
#X connect 43 1 6 1;
#X connect 43 2 44 2;
#X connect 43 2 6 2;
#X connect 43 3 44 3;
#X connect 43 3 6 3;
#X connect 43 4 44 4;
#X connect 43 4 6 4;
#X connect 43 5 44 5;
#X connect 43 5 6 5;
#X connect 43 6 44 6;
#X connect 43 6 6 6;
#X connect 43 7 44 7;
#X connect 43 7 6 7;
#X connect 43 8 44 8;
#X connect 43 8 6 8;
#X connect 43 9 44 9;
#X connect 43 9 6 9;
#X connect 43 10 44 10;
#X connect 43 10 6 10;
#X connect 43 11 44 11;
#X connect 43 11 6 11;
#X connect 43 12 44 12;
#X connect 43 12 6 12;
#X connect 43 13 44 13;
#X connect 43 13 6 13;
#X connect 43 14 44 14;
#X connect 43 14 6 14;
#X connect 43 15 44 15;
#X connect 43 15 6 15;
#X connect 44 1 45 0;
#X connect 44 2 45 1;
#X connect 44 3 45 2;
#X connect 46 0 47 0;
#X connect 47 0 6 0;
#X connect 49 0 36 0;
#X connect 66 0 3 1;
#X connect 67 0 33 1;
#X connect 68 0 6 0;
