#N canvas 352 435 1787 821 10;
#X obj 11 38 cnv 15 500 25 empty empty abc_rissetsbell~ 20 12 0 18
#606060 #fcfcfc 0;
#X obj 11 64 cnv 15 500 25 empty empty Risset's_bell_synthesis 20 12
0 12 #606060 #fcfcfc 0;
#X obj 1015 638 tgl 15 0 empty empty DSP_on/off 17 7 0 10 #fcfcfc #000000
#000000 0 1;
#X msg 1015 666 \; pd dsp \$1 \;;
#X text 932 36 CONTROLS;
#X text 539 38 DESCRIPTION;
#X obj 54 360 abc_gain -127;
#X obj 489 506 tgl 15 0 empty empty empty 17 7 0 10 #fcfcfc #000000
#000000 0 1;
#X msg 489 526 stereo \$1;
#X obj 79 592 abc_meter;
#X obj 511 591 abc_meter;
#N canvas 614 242 298 220 fx_delay_settings 0;
#X obj 118 38 loadbang;
#X msg 47 74 400;
#X floatatom 47 95 5 0 0 0 - - - 0;
#X msg 47 115 window \$1;
#X floatatom 118 95 5 0 0 0 - - - 0;
#X floatatom 194 94 5 0 0 0 - - - 0;
#X msg 118 115 deltime \$1;
#X msg 194 114 feedback \$1;
#X text 104 13 FX DELAYS;
#X msg 194 73 0.1;
#X obj 118 156 s fx_delay;
#X msg 118 74 800;
#X connect 0 0 1 0;
#X connect 0 0 11 0;
#X connect 0 0 9 0;
#X connect 1 0 2 0;
#X connect 2 0 3 0;
#X connect 3 0 10 0;
#X connect 4 0 6 0;
#X connect 5 0 7 0;
#X connect 6 0 10 0;
#X connect 7 0 10 0;
#X connect 9 0 5 0;
#X connect 11 0 4 0;
#X restore 292 176 pd fx_delay_settings;
#X obj 164 555 abc_chopan11~ ------------;
#X obj 327 313 bng 50 250 50 0 empty empty triggers_the_bell 0 -10
0 10 #fcfcfc #000000 #000000;
#X obj 327 368 t b b;
#X obj 327 394 del 100;
#X msg 382 394 1;
#X msg 327 415 0;
#X obj 156 491 abc_rissetsbell~ ------------;
#X obj 156 387 loadbang;
#X msg 156 414 440;
#X floatatom 156 435 5 0 0 0 - - - 0;
#X msg 156 455 freq \$1;
#X floatatom 209 434 5 0 0 0 - - - 0;
#X msg 210 454 dur \$1;
#X msg 209 413 30000;
#X text 540 58 abc_rissetsbell~ provides a bell synthesis according
to Risset's bell model. It is based on 11 layouts with oscillators
and envelopes. In our implementation \, the model is extended with
a double oscillator that enables detuning and a filter that inverts
the behavior (possible crossfade between synthesis and filtering) using
the osc2filter parameter;
#X obj 584 632 dac~ 1 2 3 4 5 6 7 8 9 10 11 12;
#X obj 592 563 abc_2d_decoder5~ -----------;
#X obj 588 419 r fx_delay;
#X obj 588 482 abc_2d_fx_delay5~ -----------;
#X obj 769 564 abc_2d_scope5~ ------------;
#X obj 732 242 bng 50 250 50 0 empty empty triggers_the_bell 0 -10
0 10 #fcfcfc #000000 #000000;
#X obj 732 297 t b b;
#X obj 732 323 del 100;
#X msg 787 323 1;
#X msg 732 344 0;
#X obj 656 418 abc_rissetsbell~ ------------;
#X obj 630 293 loadbang;
#X floatatom 630 338 5 0 0 0 - - - 0;
#X msg 631 358 dur \$1;
#X obj 733 198 r tr2;
#X msg 630 317 16000;
#X obj 655 382 r cmd;
#X obj 827 357 noise~;
#X obj 827 387 *~ 0.5;
#X obj 1020 278 loadbang;
#X msg 1020 299 1;
#X obj 1020 320 metro 5000;
#X obj 1020 341 t b b;
#X obj 1020 364 s tr2;
#X obj 1047 384 random 23;
#X obj 1047 405 + 60;
#X floatatom 1047 426 5 0 0 0 midi_code - - 0;
#X obj 1047 446 mtof;
#X floatatom 1047 467 5 0 0 0 - - - 0;
#X msg 1047 487 freq \$1;
#X obj 1272 617 s cmd;
#X obj 1120 424 loadbang;
#X msg 1120 445 8000;
#X floatatom 1120 466 5 0 0 0 - - - 0;
#X msg 1120 486 dur \$1;
#X obj 1272 447 hsl 128 15 1 2 0 0 empty empty detuning -2 -8 0 10
#fcfcfc #000000 #000000 0 1;
#X floatatom 1269 467 5 0 0 0 - - - 0;
#X msg 1269 487 pfreq2 \$1;
#X obj 1414 447 hsl 128 15 0 1 0 0 empty empty crossfade_synthesis/filtering
-2 -8 0 10 #fcfcfc #000000 #000000 0 1;
#X floatatom 1411 467 5 0 0 0 - - - 0;
#X msg 1411 487 osc2filter \$1;
#X obj 1595 424 loadbang;
#X floatatom 1595 466 5 0 0 0 - - - 0;
#X msg 1595 445 10;
#X msg 1595 486 resg \$1;
#X floatatom 1651 466 5 0 0 0 - - - 0;
#X msg 1651 486 resq \$1;
#X msg 1651 445 100;
#X text 931 55 freq (Hz) is the basic frequency used in Risset's model
to compute the 11 partials to be heard;
#X text 931 80 dur (milliseconds) is the global duration of the synthetized
bell;
#X text 931 105 gain is the global gain of the synthesis in dB;
#X text 931 122 pfreq2 is the factor of multiplication of the frequency
of each 2nd oscillator (when 1 no detuning);
#X text 931 150 osc2filter is the factor of multiplication of the frequency
of each 2nd oscillator (when 1 no detuning);
#X text 1321 54 resg is the gain of the filters when activated in crossfade
with the corresponding oscillator;
#X text 1321 83 resq is the quality factor of the filters when activated
in crossfade with the corresponding oscillator;
#X obj 14 785 cnv 15 480 25 empty empty abclibrary|Alain_Bonardi_&_Paul_Goutmann_2019-2021_CICM|University_Paris_8
20 12 0 10 #606060 #fcfcfc 0;
#X msg 327 447 gate \$1;
#X msg 732 374 gate \$1;
#X obj 488 457 loadbang;
#X msg 488 481 1;
#X obj 225 605 abc_stereoout -15;
#X obj 797 633 cyclone/scope~ 130 130 16 3 256 -1 1 0 0 0 0 205 229
232 74 79 77 96 98 102 0 empty;
#X text 816 766 cyclone/scope~;
#X obj 1178 325 abc_gain -127;
#X connect 2 0 3 0;
#X connect 6 0 12 0;
#X connect 7 0 8 0;
#X connect 8 0 28 0;
#X connect 12 1 9 0;
#X connect 12 1 87 0;
#X connect 12 2 87 1;
#X connect 13 0 14 0;
#X connect 14 0 15 0;
#X connect 14 1 16 0;
#X connect 15 0 17 0;
#X connect 16 0 83 0;
#X connect 17 0 83 0;
#X connect 18 1 12 1;
#X connect 18 2 12 2;
#X connect 18 3 12 3;
#X connect 18 4 12 4;
#X connect 18 5 12 5;
#X connect 18 6 12 6;
#X connect 18 7 12 7;
#X connect 18 8 12 8;
#X connect 18 9 12 9;
#X connect 18 10 12 10;
#X connect 18 11 12 11;
#X connect 19 0 20 0;
#X connect 19 0 25 0;
#X connect 20 0 21 0;
#X connect 21 0 22 0;
#X connect 22 0 18 0;
#X connect 23 0 24 0;
#X connect 24 0 18 0;
#X connect 25 0 23 0;
#X connect 28 1 10 0;
#X connect 28 1 27 0;
#X connect 28 2 27 1;
#X connect 28 3 27 2;
#X connect 28 4 27 3;
#X connect 28 5 27 4;
#X connect 28 6 27 5;
#X connect 28 7 27 6;
#X connect 28 8 27 7;
#X connect 28 9 27 8;
#X connect 28 10 27 9;
#X connect 28 11 27 10;
#X connect 28 12 27 11;
#X connect 29 0 30 0;
#X connect 30 1 28 1;
#X connect 30 1 31 1;
#X connect 30 2 28 2;
#X connect 30 2 31 2;
#X connect 30 3 28 3;
#X connect 30 3 31 3;
#X connect 30 4 28 4;
#X connect 30 4 31 4;
#X connect 30 5 28 5;
#X connect 30 5 31 5;
#X connect 30 6 28 6;
#X connect 30 6 31 6;
#X connect 30 7 28 7;
#X connect 30 7 31 7;
#X connect 30 8 28 8;
#X connect 30 8 31 8;
#X connect 30 9 28 9;
#X connect 30 9 31 9;
#X connect 30 10 28 10;
#X connect 30 10 31 10;
#X connect 30 11 28 11;
#X connect 30 11 31 11;
#X connect 31 1 88 0;
#X connect 31 2 88 1;
#X connect 32 0 33 0;
#X connect 33 0 34 0;
#X connect 33 1 35 0;
#X connect 34 0 36 0;
#X connect 35 0 84 0;
#X connect 36 0 84 0;
#X connect 37 1 30 1;
#X connect 37 2 30 2;
#X connect 37 3 30 3;
#X connect 37 4 30 4;
#X connect 37 5 30 5;
#X connect 37 6 30 6;
#X connect 37 7 30 7;
#X connect 37 8 30 8;
#X connect 37 9 30 9;
#X connect 37 10 30 10;
#X connect 37 11 30 11;
#X connect 38 0 42 0;
#X connect 39 0 40 0;
#X connect 40 0 37 0;
#X connect 41 0 32 0;
#X connect 42 0 39 0;
#X connect 43 0 37 0;
#X connect 44 0 45 0;
#X connect 45 0 37 1;
#X connect 46 0 47 0;
#X connect 47 0 48 0;
#X connect 48 0 49 0;
#X connect 49 0 50 0;
#X connect 49 1 51 0;
#X connect 51 0 52 0;
#X connect 52 0 53 0;
#X connect 53 0 54 0;
#X connect 54 0 55 0;
#X connect 55 0 56 0;
#X connect 56 0 57 0;
#X connect 58 0 59 0;
#X connect 59 0 60 0;
#X connect 60 0 61 0;
#X connect 61 0 57 0;
#X connect 62 0 63 0;
#X connect 63 0 64 0;
#X connect 64 0 57 0;
#X connect 65 0 66 0;
#X connect 66 0 67 0;
#X connect 67 0 57 0;
#X connect 68 0 70 0;
#X connect 68 0 74 0;
#X connect 69 0 71 0;
#X connect 70 0 69 0;
#X connect 71 0 57 0;
#X connect 72 0 73 0;
#X connect 73 0 57 0;
#X connect 74 0 72 0;
#X connect 83 0 18 0;
#X connect 84 0 37 0;
#X connect 85 0 86 0;
#X connect 86 0 7 0;
#X connect 90 0 57 0;
#X coords 0 821 1 820 85 60 0;
