#N canvas 634 275 1320 783 10;
#X obj 14 6 cnv 15 500 25 empty empty abc_2d_encoderN~  20 12 0 18
-99865 -262144 0;
#X obj 13 746 abc_helpcredit;
#X obj 14 32 cnv 15 500 25 empty empty Ambisonic_encoders_at_orders_1_2_3...
20 12 0 12 -99865 -262144 0;
#X obj 80 98 loadbang;
#X floatatom 80 160 5 0 0 0 - - -;
#X msg 80 183 speed \$1;
#X obj 17 350 abc_gain -127;
#X obj 304 404 abc_2d_scope1~;
#X obj 509 591 tgl 15 0 empty empty DSP_on/off 17 7 0 10 -262144 -1
-1 0 1;
#X msg 509 619 \; pd dsp \$1 \;;
#X msg 80 136 -0.2;
#X msg 44 137 0;
#X obj 80 227 abc_2d_encoder1;
#X obj 140 549 abc_2d_decoder1~;
#X floatatom 153 161 5 0 0 0 - - -;
#X msg 153 137 -45;
#X msg 153 184 angle \$1;
#X floatatom 218 161 5 0 0 0 - - -;
#X msg 218 137 20;
#X msg 218 184 returntime \$1;
#X text 113 161 t.s-1;
#X text 186 161 deg.;
#X text 252 161 msec;
#X obj 991 211 abc_cosrandenv5~;
#X obj 785 197 loadbang;
#X floatatom 785 259 5 0 0 0 - - -;
#X msg 785 282 speed \$1;
#X msg 749 236 0;
#X floatatom 858 260 5 0 0 0 - - -;
#X msg 858 283 angle \$1;
#X floatatom 923 260 5 0 0 0 - - -;
#X msg 923 236 20;
#X msg 923 283 returntime \$1;
#X text 818 260 t.s-1;
#X text 891 260 deg.;
#X text 957 260 msec;
#X obj 785 334 abc_2d_encoder7~ --------------;
#X msg 858 236 90;
#X msg 785 235 0.1;
#X obj 785 436 abc_2d_decoder7~ --------------;
#X obj 593 354 tgl 15 0 empty empty empty 17 7 0 10 -262144 -1 -1 1
1;
#X msg 593 378 stereo \$1;
#X obj 744 618 dac~ 1 2 3 4 5 6 7 8 9 10 11 12 13 14 15 16;
#X obj 990 508 abc_2d_scope7~ --------------;
#X text 919 25 - speed is the rotation speed in turns by second;
#X text 925 41 - angle is the default static angle (in degrees) when
the speed is zero;
#X text 925 69 - returntime is the transition time (in msec) between
the fixed angle position and the position on the circle when the speed
is more than 0;
#X text 543 26 abc_encoder1~ \, abc_encoder2~ \, etc. objects enable
to create punctual sources either in rotation at a certain speed or
static and located at a precise angle (in degrees) on the ambisonic
circle.;
#X obj 54 579 abc_meter;
#X obj 678 485 abc_meter;
#X obj 308 469 abc_scope 0 0 2.5;
#X obj 1056 543 abc_scope 1 0 2.5;
#X text 921 7 CONTROLS;
#X text 542 6 DESCRIPTION;
#X obj 308 135 abc_env_noise 200 0.3 0;
#X obj 992 175 abc_addsynth5~;
#X obj 1021 300 *~ 0.3;
#X obj 662 215 abc_gain -20;
#X obj 129 601 abc_quadriout -15;
#X obj 105 489 tgl 15 0 empty empty empty 17 7 0 10 -262144 -1 -1 1
1;
#X msg 105 513 stereo \$1;
#X connect 3 0 10 0;
#X connect 3 0 15 0;
#X connect 3 0 18 0;
#X connect 4 0 5 0;
#X connect 5 0 12 0;
#X connect 6 0 13 0;
#X connect 7 1 50 0;
#X connect 7 2 50 1;
#X connect 7 3 50 2;
#X connect 8 0 9 0;
#X connect 10 0 4 0;
#X connect 11 0 4 0;
#X connect 12 1 7 1;
#X connect 12 1 13 1;
#X connect 12 2 7 2;
#X connect 12 2 13 2;
#X connect 12 3 7 3;
#X connect 12 3 13 3;
#X connect 13 1 48 0;
#X connect 13 1 58 0;
#X connect 13 2 58 1;
#X connect 13 3 58 2;
#X connect 13 4 58 3;
#X connect 14 0 16 0;
#X connect 15 0 14 0;
#X connect 16 0 12 0;
#X connect 17 0 19 0;
#X connect 18 0 17 0;
#X connect 19 0 12 0;
#X connect 23 1 56 0;
#X connect 23 2 56 0;
#X connect 23 3 56 0;
#X connect 23 4 56 0;
#X connect 23 5 56 0;
#X connect 24 0 38 0;
#X connect 24 0 37 0;
#X connect 24 0 31 0;
#X connect 25 0 26 0;
#X connect 26 0 36 0;
#X connect 27 0 25 0;
#X connect 28 0 29 0;
#X connect 29 0 36 0;
#X connect 30 0 32 0;
#X connect 31 0 30 0;
#X connect 32 0 36 0;
#X connect 36 1 39 1;
#X connect 36 2 39 2;
#X connect 36 3 39 3;
#X connect 36 4 39 4;
#X connect 36 5 39 5;
#X connect 36 6 39 6;
#X connect 36 7 39 7;
#X connect 36 8 39 8;
#X connect 36 9 39 9;
#X connect 36 10 39 10;
#X connect 36 11 39 11;
#X connect 36 12 39 12;
#X connect 36 13 39 13;
#X connect 36 14 39 14;
#X connect 36 15 39 15;
#X connect 37 0 28 0;
#X connect 38 0 25 0;
#X connect 39 1 42 0;
#X connect 39 1 49 0;
#X connect 39 2 42 1;
#X connect 39 2 43 1;
#X connect 39 3 42 2;
#X connect 39 3 43 2;
#X connect 39 4 42 3;
#X connect 39 4 43 3;
#X connect 39 5 42 4;
#X connect 39 5 43 4;
#X connect 39 6 42 5;
#X connect 39 6 43 5;
#X connect 39 7 42 6;
#X connect 39 7 43 6;
#X connect 39 8 42 7;
#X connect 39 8 43 7;
#X connect 39 9 42 8;
#X connect 39 9 43 8;
#X connect 39 10 42 9;
#X connect 39 10 43 9;
#X connect 39 11 42 10;
#X connect 39 11 43 10;
#X connect 39 12 42 11;
#X connect 39 12 43 11;
#X connect 39 13 42 12;
#X connect 39 13 43 12;
#X connect 39 14 42 13;
#X connect 39 14 43 13;
#X connect 39 15 42 14;
#X connect 39 15 43 14;
#X connect 39 16 42 15;
#X connect 39 16 43 15;
#X connect 40 0 41 0;
#X connect 41 0 39 0;
#X connect 43 1 51 0;
#X connect 43 2 51 1;
#X connect 43 3 51 2;
#X connect 54 0 12 1;
#X connect 55 1 23 1;
#X connect 55 2 23 2;
#X connect 55 3 23 3;
#X connect 55 4 23 4;
#X connect 55 5 23 5;
#X connect 56 0 36 1;
#X connect 57 0 39 0;
#X connect 59 0 60 0;
#X connect 60 0 13 0;
