#N canvas 194 270 1161 647 10;
#X obj 14 6 cnv 15 500 25 empty empty abc_jupiterbank~  20 12 0 18
#606060 #fcfcfc 0;
#X obj 13 610 abc_helpcredit;
#X obj 14 32 cnv 15 500 25 empty empty A_synthetizer_inspired_by_Manoury's_Jupiter_bank_of_oscillators
20 12 0 12 #606060 #fcfcfc 0;
#X obj 701 406 tgl 15 0 empty empty DSP_on/off 17 7 0 10 #fcfcfc #000000
#000000 0 1;
#X msg 701 434 \; pd dsp \$1 \;;
#X obj 44 432 abc_meter;
#X text 766 271 CONTROLS;
#X text 765 50 DESCRIPTION;
#X obj 236 79 loadbang;
#X obj 405 118 abc_upanddown;
#X obj 416 209 noise~;
#X obj 185 322 abc_jupiterbank~ -------------;
#X msg 405 166 osc2filter \$1;
#X obj 255 225 s jup1;
#X msg 139 117 1.99;
#X floatatom 139 138 5 0 0 0 - - - 0;
#X msg 139 167 k \$1;
#X obj 185 294 r jup1;
#X floatatom 196 138 5 0 0 0 - - - 0;
#X msg 196 167 f0 \$1;
#X floatatom 258 138 5 0 0 0 - - - 0;
#X floatatom 312 138 5 0 0 0 - - - 0;
#X msg 258 167 resg \$1;
#X msg 312 167 resq \$1;
#X msg 258 117 10;
#X msg 312 117 60;
#X obj 287 421 abc_cosrandenv14~ -------------;
#X obj 437 320 abc_jupiterbank~ -------------;
#X obj 437 292 r jup2;
#X obj 603 76 loadbang;
#X floatatom 521 132 5 0 0 0 - - - 0;
#X msg 521 161 k \$1;
#X floatatom 578 132 5 0 0 0 - - - 0;
#X msg 578 161 f0 \$1;
#X floatatom 630 131 5 0 0 0 - - - 0;
#X floatatom 684 131 5 0 0 0 - - - 0;
#X msg 630 160 resg \$1;
#X msg 684 160 resq \$1;
#X msg 630 110 10;
#X msg 684 110 60;
#X obj 615 217 s jup2;
#X msg 521 111 1;
#X msg 196 117 220;
#X msg 578 111 220;
#N canvas 637 371 745 336 mix 0;
#X obj 15 15 inlet~;
#X obj 61 15 inlet~;
#X obj 107 15 inlet~;
#X obj 153 15 inlet~;
#X obj 198 15 inlet~;
#X obj 244 15 inlet~;
#X obj 290 15 inlet~;
#X obj 336 15 inlet~;
#X obj 382 15 inlet~;
#X obj 428 15 inlet~;
#X obj 474 15 inlet~;
#X obj 520 15 inlet~;
#X obj 565 15 inlet~;
#X obj 611 15 inlet~;
#X obj 16 289 outlet~;
#X obj 67 289 outlet~;
#X obj 117 289 outlet~;
#X obj 168 289 outlet~;
#X obj 219 289 outlet~;
#X obj 270 289 outlet~;
#X obj 321 289 outlet~;
#X obj 372 289 outlet~;
#X obj 423 289 outlet~;
#X obj 474 289 outlet~;
#X obj 525 288 outlet~;
#X obj 576 288 outlet~;
#X obj 626 287 outlet~;
#X obj 677 287 outlet~;
#X connect 0 0 14 0;
#X connect 1 0 27 0;
#X connect 2 0 15 0;
#X connect 3 0 26 0;
#X connect 4 0 16 0;
#X connect 5 0 25 0;
#X connect 6 0 17 0;
#X connect 7 0 24 0;
#X connect 8 0 18 0;
#X connect 9 0 23 0;
#X connect 10 0 19 0;
#X connect 11 0 22 0;
#X connect 12 0 20 0;
#X connect 13 0 21 0;
#X restore 299 469 pd mix ----------------------;
#X obj 287 515 abc_chopan14~ -----------------;
#X obj 47 77 abc_gain -10;
#N canvas 934 213 333 274 envs 0;
#X obj 116 36 loadbang;
#X msg 54 76 8;
#X msg 125 76 0.4;
#X msg 237 76 0.8;
#X floatatom 54 97 5 0 0 0 - - - 0;
#X floatatom 125 97 5 0 0 0 - - - 0;
#X floatatom 237 97 5 0 0 0 - - - 0;
#X msg 54 117 freq \$1;
#X msg 125 117 rarefaction \$1;
#X msg 237 117 spread \$1;
#X obj 129 218 outlet;
#X connect 0 0 1 0;
#X connect 0 0 2 0;
#X connect 0 0 3 0;
#X connect 1 0 4 0;
#X connect 2 0 5 0;
#X connect 3 0 6 0;
#X connect 4 0 7 0;
#X connect 5 0 8 0;
#X connect 6 0 9 0;
#X connect 7 0 10 0;
#X connect 8 0 10 0;
#X connect 9 0 10 0;
#X restore 184 387 pd envs;
#X obj 416 237 *~ 0.3;
#X obj 371 554 abc_stereoout -40;
#X text 767 292 - k is the constant that determines the harmonic/inharmonic
behaviour of the generator - f0 is the 'fundamental' frequency of the
generator - osc2filter provides a crossfade between the 14 oscillators
and the 14 resonant filters (0 => oscillators \, 1 => filters) - resg
is the gain of the filters - resq is the quality factor of the filters
;
#X text 766 70 abc_jupiterbank~ is inspired by the bank of 14 oscillators
used by Philippe Manoury in Jupiter for flute and live electronics.
It enables to generate spectra that can evoluate from harmonic to inharmonic
content. Each partial has a separate output in the object. The 14 frequencies
(i from 0 to 13) are given by the formula: f_i = (k+i)*f0 where k is
a constant and f0 a kind of 'fundamental' frequency. The distance between
the frequencies is always f0. When k is 1 \, the spectrem is harmonic
and results in f0 \, 2*f0 \, ... \, 14*f0. When k is diffrent from
integers \, the spectrum is inharmonic. We added to these 14 oscillators
14 resonant filters tuned at the same frequencies. Crossfading between
oscillators and filters is controlled by osc2filter.;
#X text 767 223 The Faust implementation is largely inspired by Maxence
Larrieu's article: https://hal.archives-ouvertes.fr/hal-02135597;
#X obj 405 90 tgl 15 1 empty empty empty 17 7 0 10 #fcfcfc #000000
#000000 1 1;
#X connect 3 0 4 0;
#X connect 8 0 14 0;
#X connect 8 0 42 0;
#X connect 8 0 24 0;
#X connect 8 0 25 0;
#X connect 9 0 12 0;
#X connect 10 0 48 0;
#X connect 11 1 26 1;
#X connect 11 2 26 2;
#X connect 11 3 26 3;
#X connect 11 4 26 4;
#X connect 11 5 26 5;
#X connect 11 6 26 6;
#X connect 11 7 26 7;
#X connect 11 8 26 8;
#X connect 11 9 26 9;
#X connect 11 10 26 10;
#X connect 11 11 26 11;
#X connect 11 12 26 12;
#X connect 11 13 26 13;
#X connect 11 14 26 14;
#X connect 12 0 13 0;
#X connect 12 0 40 0;
#X connect 14 0 15 0;
#X connect 15 0 16 0;
#X connect 16 0 13 0;
#X connect 17 0 11 0;
#X connect 18 0 19 0;
#X connect 19 0 13 0;
#X connect 20 0 22 0;
#X connect 21 0 23 0;
#X connect 22 0 13 0;
#X connect 23 0 13 0;
#X connect 24 0 20 0;
#X connect 25 0 21 0;
#X connect 26 1 44 0;
#X connect 26 2 44 1;
#X connect 26 3 44 2;
#X connect 26 4 44 3;
#X connect 26 5 44 4;
#X connect 26 6 44 5;
#X connect 26 7 44 6;
#X connect 26 8 44 7;
#X connect 26 9 44 8;
#X connect 26 10 44 9;
#X connect 26 11 44 10;
#X connect 26 12 44 11;
#X connect 26 13 44 12;
#X connect 26 14 44 13;
#X connect 27 1 26 1;
#X connect 27 2 26 2;
#X connect 27 3 26 3;
#X connect 27 4 26 4;
#X connect 27 5 26 5;
#X connect 27 6 26 6;
#X connect 27 7 26 7;
#X connect 27 8 26 8;
#X connect 27 9 26 9;
#X connect 27 10 26 10;
#X connect 27 11 26 11;
#X connect 27 12 26 12;
#X connect 27 13 26 13;
#X connect 27 14 26 14;
#X connect 28 0 27 0;
#X connect 29 0 41 0;
#X connect 29 0 43 0;
#X connect 29 0 38 0;
#X connect 29 0 39 0;
#X connect 30 0 31 0;
#X connect 31 0 40 0;
#X connect 32 0 33 0;
#X connect 33 0 40 0;
#X connect 34 0 36 0;
#X connect 35 0 37 0;
#X connect 36 0 40 0;
#X connect 37 0 40 0;
#X connect 38 0 34 0;
#X connect 39 0 35 0;
#X connect 41 0 30 0;
#X connect 42 0 18 0;
#X connect 43 0 32 0;
#X connect 44 0 45 1;
#X connect 44 1 45 2;
#X connect 44 2 45 3;
#X connect 44 3 45 4;
#X connect 44 4 45 5;
#X connect 44 5 45 6;
#X connect 44 6 45 7;
#X connect 44 7 45 8;
#X connect 44 8 45 9;
#X connect 44 9 45 10;
#X connect 44 10 45 11;
#X connect 44 11 45 12;
#X connect 44 12 45 13;
#X connect 44 13 45 14;
#X connect 45 1 49 0;
#X connect 45 2 49 1;
#X connect 46 0 11 0;
#X connect 46 0 27 0;
#X connect 47 0 26 0;
#X connect 48 0 11 1;
#X connect 48 0 27 1;
#X connect 53 0 9 0;
