#N canvas 0 98 1512 756 10;
#X obj 10 8 cnv 15 500 25 empty empty abc_2d_syn_decorrelationN~ &_fx
20 12 0 18 #606060 #fcfcfc 0;
#X obj 8 691 abc_helpcredit;
#X obj 10 34 cnv 15 500 25 empty empty Decorrelation_processes_to_generate_or_process_spatial_components
20 12 0 12 #606060 #fcfcfc 0;
#X obj 646 625 tgl 15 0 empty empty DSP_on/off 17 7 0 10 #fcfcfc #000000
#000000 0 1;
#X msg 646 653 \; pd dsp \$1 \;;
#X text 943 -3 CONTROLS;
#X text 546 -5 DESCRIPTION;
#X obj 112 321 abc_2d_syn_decorrelation1~, f 32;
#X obj 107 442 abc_2d_decoder1~, f 33;
#X obj 106 392 tgl 15 0 empty empty empty 17 7 0 10 #fcfcfc #000000
#000000 0 1;
#X msg 106 418 stereo \$1;
#X obj 1664 197 abc_upanddown;
#X obj 640 261 abc_soundgrain~;
#X obj 538 290 abc_2d_encoder1~, f 32;
#X obj 539 351 abc_2d_fx_decorrelation1~, f 32;
#X obj 537 444 abc_2d_decoder1~, f 33;
#X obj 535 398 tgl 15 0 empty empty empty 17 7 0 10 #fcfcfc #000000
#000000 0 1;
#X msg 535 418 stereo \$1;
#X obj 449 199 abc_gain -127;
#X obj 1140 320 abc_2d_randomtrajectory~, f 26;
#X obj 1141 357 abc_cartopol~, f 26;
#X msg 1140 298 freq \$1;
#X obj 1140 234 loadbang;
#X msg 1140 255 2;
#X floatatom 1140 276 5 0 0 0 - - - 0;
#X obj 1068 428 abc_2d_fx_decorrelation7~ ------------;
#X obj 776 399 abc_2d_scope1~;
#X obj 1004 392 tgl 15 0 empty empty empty 17 7 0 10 #fcfcfc #000000
#000000 0 1;
#X msg 1004 412 stereo \$1;
#X obj 951 194 abc_gain -127;
#X obj 1029 545 dac~ 1 2 3 4 5 6 7 8 9 10 11 12 13 14 15 16, f 30
;
#X obj 1018 476 abc_2d_decoder7~ ---------------;
#X obj 1227 477 abc_2d_scope7~ --------------;
#X msg 1664 242 factor \$1;
#X obj 75 484 abc_meter;
#X obj 509 485 abc_meter;
#X obj 953 504 abc_meter;
#X obj 112 294 r cmd;
#X obj 538 325 r cmd;
#X obj 1056 356 r cmd;
#X obj 1633 620 s cmd;
#X obj 1535 114 loadbang;
#X msg 1503 178 0;
#X obj 1503 205 vradio 15 1 0 22 empty empty empty 0 -8 0 10 #fcfcfc
#000000 #000000 0;
#X msg 1533 178 0;
#X floatatom 1533 205 5 0 1 0 - - - 0;
#X msg 1503 545 functiontype \$1;
#X msg 1533 240 fdbk \$1;
#X text 1451 250 log(1+x);
#X text 1488 208 x;
#X text 1476 220 x^2;
#X text 1476 236 sin;
#X text 1454 266 sqrt(x);
#X text 1418 281 1-cos(Pi/2*x);
#X text 1406 296 (1-cos(Pi*x))/2;
#X text 1441 311 1-(1-x)^2;
#X text 1429 325 composite 1;
#X text 1477 340 x^3;
#X text 1441 355 1-(1-x)^3;
#X text 1429 369 composite 2;
#X text 1477 384 x^4;
#X text 1441 399 1-(1-x)^4;
#X text 1429 414 composite 3;
#X text 1429 459 composite 4;
#X text 1477 429 x^5;
#X text 1441 444 1-(1-x)^5;
#X text 1429 489 composite 5;
#X text 1429 474 2^(10(x-1));
#X text 1417 506 1-sqrt(1-x^2);
#X text 1405 521 sqrt(1-(x-1)^2);
#X obj 110 229 abc_env_noise 125 0.25 0;
#X obj 1040 190 abc_env_noise 90 0.3 0;
#X obj 4 398 tgl 15 0 empty empty empty 17 7 0 10 #fcfcfc #000000 #000000
0 1;
#X msg 4 418 directangles \$1;
#X obj 432 395 tgl 15 0 empty empty empty 17 7 0 10 #fcfcfc #000000
#000000 0 1;
#X msg 432 417 directangles \$1;
#X obj 900 391 tgl 15 0 empty empty empty 17 7 0 10 #fcfcfc #000000
#000000 0 1;
#X msg 900 413 directangles \$1;
#X obj 766 478 cyclone/scope~ 130 130 16 3 256 -1 1 0 0 0 0 205 229
232 74 79 77 96 98 102 0 empty;
#X text 786 616 cyclone/scope~;
#X obj 1267 502 cyclone/scope~ 130 130 16 3 256 -1 1 0 0 0 0 205 229
232 74 79 77 96 98 102 0 empty;
#X text 1286 635 cyclone/scope~;
#X msg 1595 158 96000;
#X floatatom 1595 205 5 0 1 0 - - - 0;
#X msg 1595 242 delay \$1;
#X text 547 15 abc_2d_syn_decorrelation1~ \, abc_2d_syn_decorrelation2~
\, ... objects generate spatial decorrelated components in ambisonic
from one mono signal. abc_2d_fx_decorrelated1~ \, abc_2d_fx_decorrelated2~
\, ... objects apply decorrelation to spatial components already created
by encoders or maps for instance. If we are at order N in ambisonics
\, the number of spatial components is P = 2*N+1. Each spatial component
is delayed and the P delay lines are driven by a 'factor' parameter
between 0 and 1 The ith (i between 0 and P-1) delay is either 0 or
(i+1)*delay/P. The factor parameter is compared to 1-(i+1)/P. If it
is greater than this threshold the delay is (i+1)*delay/P \, else the
delay is 0;
#X text 943 18 delay is the maximum duration in samples of the delays
(by default it is 48000 \, minimum is 10 maximum 262144 \, that is
roughly 5 \, 46 sec at 48KHz);
#X obj 1664 177 tgl 15 1 empty empty empty 17 7 0 10 #fcfcfc #000000
#000000 1 1;
#X obj 1664 158 loadbang;
#X msg 537 266 angle \$1;
#X floatatom 537 245 5 -360 360 0 - - - 0;
#X obj 1068 388 abc_2d_map7~ ----------------, f 38;
#X obj 585 482 abc_quadriout -15 1 2 3 4;
#X obj 154 485 abc_quadriout -15 1 2 3 4;
#X text 942 58 factor (between 0 and 1) is a control parameter that
'opens' the delay lines when increasing;
#X text 942 95 functiontype (between 0 and 21) set the distribution
used to spread delay time between the spatial components;
#X text 941 130 fdbk set the amount of feedback of each delay line
;
#X obj 19 193 abc_gain -127;
#X connect 3 0 4 0;
#X connect 7 1 8 1;
#X connect 7 2 8 2;
#X connect 7 3 8 3;
#X connect 8 1 34 0;
#X connect 8 1 93 0;
#X connect 8 2 93 1;
#X connect 8 3 93 2;
#X connect 8 4 93 3;
#X connect 9 0 10 0;
#X connect 10 0 8 0;
#X connect 11 0 33 0;
#X connect 12 1 13 1;
#X connect 13 1 14 1;
#X connect 13 2 14 2;
#X connect 13 3 14 3;
#X connect 14 1 15 1;
#X connect 14 1 26 1;
#X connect 14 2 15 2;
#X connect 14 2 26 2;
#X connect 14 3 15 3;
#X connect 14 3 26 3;
#X connect 15 1 35 0;
#X connect 15 1 92 0;
#X connect 15 2 92 1;
#X connect 15 3 92 2;
#X connect 15 4 92 3;
#X connect 16 0 17 0;
#X connect 17 0 15 0;
#X connect 18 0 15 0;
#X connect 19 1 20 1;
#X connect 19 2 20 2;
#X connect 20 1 91 2;
#X connect 20 2 91 3;
#X connect 21 0 19 0;
#X connect 22 0 23 0;
#X connect 23 0 24 0;
#X connect 24 0 21 0;
#X connect 25 1 31 1;
#X connect 25 1 32 1;
#X connect 25 2 31 2;
#X connect 25 2 32 2;
#X connect 25 3 31 3;
#X connect 25 3 32 3;
#X connect 25 4 31 4;
#X connect 25 4 32 4;
#X connect 25 5 31 5;
#X connect 25 5 32 5;
#X connect 25 6 31 6;
#X connect 25 6 32 6;
#X connect 25 7 31 7;
#X connect 25 7 32 7;
#X connect 25 8 31 8;
#X connect 25 8 32 8;
#X connect 25 9 31 9;
#X connect 25 9 32 9;
#X connect 25 10 31 10;
#X connect 25 10 32 10;
#X connect 25 11 31 11;
#X connect 25 11 32 11;
#X connect 25 12 31 12;
#X connect 25 12 32 12;
#X connect 25 13 31 13;
#X connect 25 13 32 13;
#X connect 25 14 31 14;
#X connect 25 14 32 14;
#X connect 25 15 31 15;
#X connect 25 15 32 15;
#X connect 26 1 78 0;
#X connect 26 2 78 1;
#X connect 27 0 28 0;
#X connect 28 0 31 0;
#X connect 29 0 31 0;
#X connect 31 1 30 0;
#X connect 31 1 36 0;
#X connect 31 2 30 1;
#X connect 31 3 30 2;
#X connect 31 4 30 3;
#X connect 31 5 30 4;
#X connect 31 6 30 5;
#X connect 31 7 30 6;
#X connect 31 8 30 7;
#X connect 31 9 30 8;
#X connect 31 10 30 9;
#X connect 31 11 30 10;
#X connect 31 12 30 11;
#X connect 31 13 30 12;
#X connect 31 14 30 13;
#X connect 31 15 30 14;
#X connect 31 16 30 15;
#X connect 32 1 80 0;
#X connect 32 2 80 1;
#X connect 33 0 40 0;
#X connect 37 0 7 0;
#X connect 38 0 14 0;
#X connect 39 0 25 0;
#X connect 41 0 42 0;
#X connect 41 0 44 0;
#X connect 41 0 82 0;
#X connect 42 0 43 0;
#X connect 43 0 46 0;
#X connect 44 0 45 0;
#X connect 45 0 47 0;
#X connect 46 0 40 0;
#X connect 47 0 40 0;
#X connect 70 0 7 1;
#X connect 71 0 91 1;
#X connect 72 0 73 0;
#X connect 73 0 8 0;
#X connect 74 0 75 0;
#X connect 75 0 15 0;
#X connect 76 0 77 0;
#X connect 77 0 31 0;
#X connect 82 0 83 0;
#X connect 83 0 84 0;
#X connect 84 0 40 0;
#X connect 87 0 11 0;
#X connect 88 0 87 0;
#X connect 89 0 13 0;
#X connect 90 0 89 0;
#X connect 91 1 25 1;
#X connect 91 2 25 2;
#X connect 91 3 25 3;
#X connect 91 4 25 4;
#X connect 91 5 25 5;
#X connect 91 6 25 6;
#X connect 91 7 25 7;
#X connect 91 8 25 8;
#X connect 91 9 25 9;
#X connect 91 10 25 10;
#X connect 91 11 25 11;
#X connect 91 12 25 12;
#X connect 91 13 25 13;
#X connect 91 14 25 14;
#X connect 91 15 25 15;
#X connect 97 0 8 0;
#X coords 0 756 1 755 85 60 0;
