#N canvas 397 25 678 811 10;
#X obj 14 6 cnv 15 500 25 empty empty abc_stereoencoderN~  20 12 0
18 #606060 #fcfcfc 0;
#X obj 14 777 abc_helpcredit;
#X obj 14 32 cnv 15 500 25 empty empty Stereo_encoders_at_orders_1_2_3_..._to_diffuse_stereo_in_ambisonics
20 12 0 12 #606060 #fcfcfc 0;
#X obj 422 437 tgl 15 0 empty empty DSP_on/off 17 7 0 10 #fcfcfc #000000
#000000 0 1;
#X msg 422 467 \; pd dsp \$1 \;;
#X obj 26 481 abc_meter;
#X text 415 78 CONTROLS;
#X text 17 78 DESCRIPTION;
#X obj 308 338 tgl 15 0 empty empty empty 17 7 0 10 #fcfcfc #000000
#000000 0 1;
#X msg 308 360 directangles \$1;
#X obj 422 216 abc_gain -15;
#X text 17 98 abc_stereoencoder1~ \, abc_stereoencoder2~ \, etc. objects
enable to diffuse a stereo source in ambisonics using two encoders
with an opening angle in degrees (initialized to 60 degrees);
#N canvas 323 117 123 164 voice1 0;
#X obj 28 14 phasor~ 3;
#X obj 28 35 *~ 110;
#X obj 28 56 +~ 220;
#X obj 28 77 osc~;
#X obj 28 109 outlet~;
#X connect 0 0 1 0;
#X connect 1 0 2 0;
#X connect 2 0 3 0;
#X connect 3 0 4 0;
#X restore 278 179 pd voice1;
#N canvas 323 117 123 164 voice2 0;
#X obj 28 77 osc~;
#X obj 28 109 outlet~;
#X obj 28 14 phasor~ 2;
#X obj 28 35 *~ 50;
#X obj 28 56 +~ 660;
#X connect 0 0 1 0;
#X connect 2 0 3 0;
#X connect 3 0 4 0;
#X connect 4 0 0 0;
#X restore 351 179 pd voice2;
#X obj 241 238 abc_linrandenv2~;
#X obj 86 241 hsl 128 15 0 360 0 0 empty empty Opening\\\ angle -2
-8 0 10 #fcfcfc #000000 #000000 0 1;
#X floatatom 83 261 5 0 0 0 - - - 0;
#X obj 83 182 loadbang;
#X msg 83 203 60;
#X obj 225 178 r envs;
#X obj 118 678 loadbang;
#X msg 118 699 \; envs freq 16 \; envs rarefaction 0.5 \;;
#X msg 83 281 angle \$1;
#X text 417 96 - angle is the opening angle in degrees;
#X obj 83 326 abc_2d_stereoencoder3~;
#X obj 95 438 abc_2d_decoder3~;
#X obj 308 292 tgl 15 0 empty empty empty 17 7 0 10 #fcfcfc #000000
#000000 0 1;
#X msg 308 314 stereo \$1;
#X obj 88 538 dac~ 1 2 3 4 5 6 7 8;
#X obj 211 439 abc_2d_scope3~ ------------;
#X obj 237 494 cyclone/scope~ 130 130 16 3 256 -1 1 0 0 0 0 205 229
232 74 79 77 96 98 102 0 empty;
#X text 256 627 cyclone/scope~;
#X connect 3 0 4 0;
#X connect 8 0 9 0;
#X connect 9 0 25 0;
#X connect 10 0 25 0;
#X connect 12 0 14 1;
#X connect 13 0 14 2;
#X connect 14 1 24 1;
#X connect 14 2 24 2;
#X connect 15 0 16 0;
#X connect 16 0 22 0;
#X connect 17 0 18 0;
#X connect 18 0 15 0;
#X connect 19 0 14 0;
#X connect 20 0 21 0;
#X connect 22 0 24 0;
#X connect 24 1 25 1;
#X connect 24 1 29 1;
#X connect 24 2 25 2;
#X connect 24 2 29 2;
#X connect 24 3 25 3;
#X connect 24 3 29 3;
#X connect 24 4 25 4;
#X connect 24 4 29 4;
#X connect 24 5 25 5;
#X connect 24 5 29 5;
#X connect 24 6 25 6;
#X connect 24 6 29 6;
#X connect 24 7 25 7;
#X connect 24 7 29 7;
#X connect 25 1 5 0;
#X connect 25 1 28 0;
#X connect 25 2 28 1;
#X connect 25 3 28 2;
#X connect 25 4 28 3;
#X connect 25 5 28 4;
#X connect 25 6 28 5;
#X connect 25 7 28 6;
#X connect 25 8 28 7;
#X connect 26 0 27 0;
#X connect 27 0 25 0;
#X connect 29 1 30 0;
#X connect 29 2 30 1;
