#N canvas 1146 582 1320 783 10;
#X obj 14 6 cnv 15 500 25 empty empty abc_2d_multiencoderN_S~  20
12 0 18 #606060 #fcfcfc 0;
#X obj 13 746 abc_helpcredit;
#X obj 14 32 cnv 15 500 25 empty empty 1_to_8_source_encoders_at_orders_1_2_3...
20 12 0 12 #606060 #fcfcfc 0;
#X obj 532 308 tgl 15 0 empty empty DSP_on/off 17 7 0 10 #fcfcfc #000000
#000000 0 1;
#X msg 532 336 \; pd dsp \$1 \;;
#X obj 174 575 abc_meter;
#X text 921 7 CONTROLS;
#X text 542 6 DESCRIPTION;
#X obj 358 129 abc_env_noise 200 0.3 0;
#X obj 123 476 tgl 15 0 empty empty empty 17 7 0 10 #fcfcfc #000000
#000000 0 1;
#X msg 123 500 stereo \$1;
#X obj 123 426 tgl 15 0 empty empty empty 17 7 0 10 #fcfcfc #000000
#000000 0 1;
#X msg 123 450 directangles \$1;
#X obj 202 179 abc_linrandenv2~;
#X obj 187 222 abc_2d_multiencoder3_4;
#N canvas 1776 44 102 195 voice1 0;
#X obj 18 21 phasor~ 3;
#X obj 18 42 *~ 110;
#X obj 18 63 +~ 220;
#X obj 18 100 osc~;
#X obj 18 151 outlet~;
#X connect 0 0 1 0;
#X connect 1 0 2 0;
#X connect 2 0 3 0;
#X connect 3 0 4 0;
#X restore 231 130 pd voice1;
#N canvas 1776 44 102 195 voice2 0;
#X obj 18 100 osc~;
#X obj 18 151 outlet~;
#X obj 18 21 phasor~ 2;
#X obj 18 42 *~ 50;
#X obj 18 63 +~ 660;
#X connect 0 0 1 0;
#X connect 2 0 3 0;
#X connect 3 0 4 0;
#X connect 4 0 0 0;
#X restore 295 130 pd voice2;
#X obj 254 559 abc_2d_decoder3_8~;
#X obj 421 494 abc_2d_scope3~;
#X obj 250 615 dac~ 1 2 3 4 5 6 7 8;
#X obj 392 182 abc_soundcoat~;
#X msg 733 258 0.4 -0.5 2 -1.9;
#X obj 733 279 unpack 0 0 0 0;
#X floatatom 733 306 5 0 0 0 - - - 0;
#X floatatom 769 306 5 0 0 0 - - - 0;
#X floatatom 806 306 5 0 0 0 - - - 0;
#X floatatom 842 306 5 0 0 0 - - - 0;
#X obj 132 179 r multi1;
#X obj 779 479 s multi1;
#X msg 733 344 s-0 \$1;
#X msg 770 372 s-1 \$1;
#X msg 807 395 s-2 \$1;
#X msg 843 421 s-3 \$1;
#X obj 908 276 unpack 0 0 0 0;
#X floatatom 908 303 5 0 0 0 - - - 0;
#X floatatom 944 303 5 0 0 0 - - - 0;
#X floatatom 981 303 5 0 0 0 - - - 0;
#X floatatom 1017 303 5 0 0 0 - - - 0;
#X obj 954 476 s multi1;
#X msg 908 341 a-0 \$1;
#X msg 945 369 a-1 \$1;
#X msg 982 392 a-2 \$1;
#X msg 1018 418 a-3 \$1;
#X msg 908 255 45 102 -38 -67;
#X msg 1104 256 100;
#X floatatom 1104 277 5 0 0 0 - - - 0;
#X msg 1104 297 returntime \$1;
#X obj 1105 478 s multi1;
#X obj 908 199 loadbang;
#X text 543 26 abc_multiencoderN_S~ objects gather multiple encoders
within a single object. N is the ambisonic order and S is the number
of sources. It is possible to encode a maximum of 8 sources. N varies
between 1 and 7 For instance \, at ambisonic order 3 \, abc_2d_multiencoder3_4~
enables to encode 4 monophonic sources.;
#X text 921 26 The speeds (s00 \, s01 \, ...) of the sources in turns
per second and the fixed angles (a00 \, a01 \, ...) in degrees (when
the speeds equal 0) \, as well as the return time (it) in milliseconds
are the control parameters.;
#X msg 651 258 0 0 0 0;
#X obj 399 538 cyclone/scope~ 130 130 16 3 256 -1 1 0 0 0 0 205 229
232 74 79 77 96 98 102 0 empty;
#X text 418 671 cyclone/scope~;
#X obj 25 339 abc_gain -25;
#X connect 3 0 4 0;
#X connect 8 0 14 3;
#X connect 9 0 10 0;
#X connect 10 0 17 0;
#X connect 11 0 12 0;
#X connect 12 0 17 0;
#X connect 13 1 14 1;
#X connect 13 2 14 2;
#X connect 14 1 17 1;
#X connect 14 1 18 1;
#X connect 14 2 17 2;
#X connect 14 2 18 2;
#X connect 14 3 17 3;
#X connect 14 3 18 3;
#X connect 14 4 17 4;
#X connect 14 4 18 4;
#X connect 14 5 17 5;
#X connect 14 5 18 5;
#X connect 14 6 17 6;
#X connect 14 6 18 6;
#X connect 14 7 17 7;
#X connect 14 7 18 7;
#X connect 15 0 13 1;
#X connect 16 0 13 2;
#X connect 17 1 5 0;
#X connect 17 1 19 0;
#X connect 17 2 19 1;
#X connect 17 3 19 2;
#X connect 17 4 19 3;
#X connect 17 5 19 4;
#X connect 17 6 19 5;
#X connect 17 7 19 6;
#X connect 17 8 19 7;
#X connect 18 1 52 0;
#X connect 18 2 52 1;
#X connect 20 1 14 4;
#X connect 21 0 22 0;
#X connect 22 0 23 0;
#X connect 22 1 24 0;
#X connect 22 2 25 0;
#X connect 22 3 26 0;
#X connect 23 0 29 0;
#X connect 24 0 30 0;
#X connect 25 0 31 0;
#X connect 26 0 32 0;
#X connect 27 0 14 0;
#X connect 29 0 28 0;
#X connect 30 0 28 0;
#X connect 31 0 28 0;
#X connect 32 0 28 0;
#X connect 33 0 34 0;
#X connect 33 1 35 0;
#X connect 33 2 36 0;
#X connect 33 3 37 0;
#X connect 34 0 39 0;
#X connect 35 0 40 0;
#X connect 36 0 41 0;
#X connect 37 0 42 0;
#X connect 39 0 38 0;
#X connect 40 0 38 0;
#X connect 41 0 38 0;
#X connect 42 0 38 0;
#X connect 43 0 33 0;
#X connect 44 0 45 0;
#X connect 45 0 46 0;
#X connect 46 0 47 0;
#X connect 48 0 21 0;
#X connect 48 0 43 0;
#X connect 48 0 44 0;
#X connect 51 0 22 0;
#X connect 54 0 17 0;
