#N canvas 586 96 926 609 10;
#X obj 14 6 cnv 15 500 25 empty empty abc_2d_vbapN~  20 12 0 18 #606060 #fcfcfc 0;
#X obj 13 564 abc_helpcredit;
#X obj 14 32 cnv 15 500 25 empty empty A_circular_VBAP_spatialization_with_irregular_angles 20 12 0 12 #606060 #fcfcfc 0;
#X obj 415 427 tgl 15 0 empty empty DSP_on/off 17 7 0 10 #dfdfdf #000000 #000000 0 1;
#X msg 415 455 \; pd dsp \$1 \;;
#X obj 32 382 abc_meter;
#X text 547 110 CONTROLS;
#X text 542 6 DESCRIPTION;
#X obj 637 210 loadbang;
#X obj 637 255 unpack 0 0 0 0;
#X floatatom 637 282 5 -360 360 0 - - - 0;
#X floatatom 692 282 5 -360 360 0 - - - 0;
#X floatatom 748 282 5 -360 360 0 - - - 0;
#X floatatom 802 282 5 -360 360 0 - - - 0;
#X msg 637 302 a-0 \$1;
#X msg 692 302 a-1 \$1;
#X msg 748 302 a-2 \$1;
#X msg 803 302 a-3 \$1;
#X text 543 26 abc_vbap2~ \, abc_vbap3~ \, ...objects provide implementations of VBAP algorithm by Ville Pulkki for various number of loudspeakers dispatched on a circle with angles that can be irregular. http://lib.tkk.fi/Diss/2001/isbn9512255324/article1.pdf;
#X text 550 128 - Angles of the loudspeakers are given by parameters a-0 \, a-1 \, a-2... angles (in degrees).;
#X text 549 156 - theta is the angle of the virtual source (in degrees).;
#X obj 637 372 s vbap4;
#X obj 83 153 abc_soundcoat~;
#X obj 89 210 abc_2d_vbap4~;
#X obj 429 211 tgl 15 0 empty empty rotation_(1)_or_static_(0) 17 7 0 10 #fcfcfc #000000 #000000 0 1;
#X obj 274 184 phasor~ 0.1;
#X msg 637 234 0 84 182 278;
#X obj 274 205 *~ 360;
#X obj 274 234 snapshot~;
#X obj 357 167 loadbang;
#X msg 357 188 1;
#X obj 357 210 metro 20;
#X obj 274 285 spigot;
#X floatatom 274 258 5 0 0 0 - - - 0;
#X floatatom 274 315 5 0 0 0 - - - 0;
#X msg 274 335 theta \$1;
#X obj 274 362 s vbap4;
#X obj 89 183 r vbap4;
#X obj 96 382 abc_quadriout -127 1 2 3 4;
#X connect 3 0 4 0;
#X connect 8 0 26 0;
#X connect 9 0 10 0;
#X connect 9 1 11 0;
#X connect 9 2 12 0;
#X connect 9 3 13 0;
#X connect 10 0 14 0;
#X connect 11 0 15 0;
#X connect 12 0 16 0;
#X connect 13 0 17 0;
#X connect 14 0 21 0;
#X connect 15 0 21 0;
#X connect 16 0 21 0;
#X connect 17 0 21 0;
#X connect 22 1 23 1;
#X connect 23 1 5 0;
#X connect 23 1 38 0;
#X connect 23 2 38 1;
#X connect 23 3 38 2;
#X connect 23 4 38 3;
#X connect 24 0 32 1;
#X connect 25 0 27 0;
#X connect 26 0 9 0;
#X connect 27 0 28 0;
#X connect 28 0 33 0;
#X connect 29 0 30 0;
#X connect 30 0 31 0;
#X connect 31 0 28 0;
#X connect 32 0 34 0;
#X connect 33 0 32 0;
#X connect 34 0 35 0;
#X connect 35 0 36 0;
#X connect 37 0 23 0;
