#N canvas 0 25 2093 845 10;
#X obj 11 62 cnv 15 500 25 empty empty abc_2d_syn_delayN~ &_fx 20
12 0 18 #606060 #fcfcfc 0;
#X obj 10 814 abc_helpcredit;
#X obj 11 88 cnv 15 500 25 empty empty Delay_processes_to_generate_or_process_spatial_components
20 12 0 12 #606060 #fcfcfc 0;
#X obj 924 716 tgl 15 0 empty empty DSP_on/off 17 7 0 10 #fcfcfc #000000
#000000 0 1;
#X msg 924 744 \; pd dsp \$1 \;;
#X text 932 60 CONTROLS;
#X text 539 62 DESCRIPTION;
#X obj 152 595 abc_2d_decoder1~;
#X obj 24 490 tgl 15 0 empty empty empty 17 7 0 10 #fcfcfc #000000
#000000 0 1;
#X msg 24 512 stereo \$1;
#X obj 60 303 abc_gain -127;
#X obj 442 517 tgl 15 0 empty empty empty 17 7 0 10 #fcfcfc #000000
#000000 0 1;
#X msg 442 537 stereo \$1;
#X obj 555 605 abc_2d_decoder3~;
#X obj 547 674 dac~ 1 2 3 4 5 6 7 8;
#X obj 1229 310 abc_soundgrain~;
#X obj 1163 360 abc_2d_encoder1~;
#X obj 1127 555 abc_2d_decoder1~;
#X obj 1030 451 tgl 15 0 empty empty empty 17 7 0 10 #fcfcfc #000000
#000000 0 1;
#X msg 1030 471 stereo \$1;
#X obj 1070 241 abc_gain -127;
#X obj 1688 393 abc_2d_randomtrajectory~;
#X obj 1711 429 abc_cartopol~;
#X msg 1688 369 freq \$1;
#X obj 1688 305 loadbang;
#X msg 1688 326 2;
#X floatatom 1688 347 5 0 0 0 - - - 0;
#X obj 1614 460 abc_2d_map7~ -------- ----- ---;
#X obj 1238 554 abc_2d_scope1~;
#X obj 1498 494 tgl 15 0 empty empty empty 17 7 0 10 #fcfcfc #000000
#000000 0 1;
#X msg 1498 514 stereo \$1;
#X obj 1441 301 abc_gain -127;
#X obj 1529 664 dac~ 1 2 3 4 5 6 7 8 9 10 11 12 13 14 15 16;
#X obj 1561 597 abc_2d_decoder7~ ---------------;
#X obj 1769 595 abc_2d_scope7~ --------------;
#X obj 253 418 abc_simplefmburst;
#X obj 253 372 loadbang;
#X obj 253 393 del 1000;
#X obj 148 505 abc_2d_syn_delay1~;
#X obj 148 469 r syn_delay;
#X text 206 137 SYN DELAYS;
#X obj 220 162 loadbang;
#X msg 149 198 400;
#X floatatom 149 219 5 0 0 0 - - - 0;
#X msg 149 239 window \$1;
#X floatatom 220 219 5 0 0 0 - - - 0;
#X msg 220 198 300;
#X floatatom 296 218 5 0 0 0 - - - 0;
#X msg 296 197 0.2;
#X msg 220 239 deltime \$1;
#X msg 296 238 feedback \$1;
#X obj 220 280 s syn_delay;
#X text 936 81 deltime is the maximum delay in milliseconds of the
upper spatial component (defaut value 100 \, minimum 2 \, maximum 10000)
;
#X text 935 121 window is the duration in milliseconds of the interpolation
between two values of delay without any click (default value 400 \,
minimum 10 \, maximum 1000);
#X text 935 167 feedback (between 0 and 1) provides a possibiity of
reinjection on the P delay lines.;
#X text 540 82 abc_2d_syn_delay1~ \, abc_2d_syn_delay2~ \, ... objects
generate spatial delayed components in ambisonic from one mono signal.
abc_2d_fx_delay1~ \, abc_2d_fx_delay2~ \, ... objects apply delays
to spatial components already created by encoders or maps for instance.
If we are at order N in ambisonics \, the number of spatial components
is P = 2*N+1. The P delays are equally spread between deltime/N and
deltime which the maximum delay in milliseconds (H0 => deltime/N \,
H-1 & H1 => 2*deltime/N \, etc. \, H-N & HN => deltime).;
#X obj 551 506 abc_2d_syn_delay3~;
#X obj 551 470 r syn_delay;
#X obj 1160 404 r fx_delay;
#X obj 1160 430 abc_2d_fx_delay1~;
#X obj 1495 141 loadbang;
#X msg 1424 177 400;
#X floatatom 1424 198 5 0 0 0 - - - 0;
#X msg 1424 218 window \$1;
#X floatatom 1495 198 5 0 0 0 - - - 0;
#X msg 1495 177 300;
#X floatatom 1571 197 5 0 0 0 - - - 0;
#X msg 1495 218 deltime \$1;
#X msg 1571 217 feedback \$1;
#X text 1481 116 FX DELAYS;
#X msg 1571 176 0.1;
#X obj 1495 259 s fx_delay;
#X obj 1163 247 loadbang;
#X msg 1163 268 0.1;
#X floatatom 1163 289 5 0 0 0 - - - 0;
#X msg 1163 309 speed \$1;
#X obj 1565 513 abc_2d_fx_delay7~ ------------;
#X obj 1566 439 r fx_delay;
#X obj 79 630 abc_meter;
#X obj 474 633 abc_meter;
#X obj 1053 616 abc_meter;
#X obj 1460 634 abc_meter;
#X obj 1675 255 abc_env_noise 90 0.3 0;
#X obj 462 307 abc_gain -20;
#X obj 656 452 abc_env_noise 30 0.85 0;
#X obj 155 656 abc_quadriout -15;
#X obj 253 468 *~ 0.3;
#X obj 1316 334 *~ 0.5;
#X obj 1121 615 abc_quadriout -15;
#X obj 24 535 tgl 15 0 empty empty empty 17 7 0 10 #fcfcfc #000000
#000000 0 1;
#X msg 24 557 directangles \$1;
#X obj 408 540 tgl 15 0 empty empty empty 17 7 0 10 #fcfcfc #000000
#000000 0 1;
#X msg 408 562 directangles \$1;
#X obj 991 497 tgl 15 0 empty empty empty 17 7 0 10 #fcfcfc #000000
#000000 0 1;
#X msg 991 519 directangles \$1;
#X obj 1420 528 tgl 15 0 empty empty empty 17 7 0 10 #fcfcfc #000000
#000000 0 1;
#X msg 1420 550 directangles \$1;
#X obj 1244 617 cyclone/scope~ 130 130 16 3 256 -1 1 0 0 0 0 205 229
232 74 79 77 96 98 102 0 empty;
#X text 1263 750 cyclone/scope~;
#X obj 1814 634 cyclone/scope~ 130 130 16 3 256 -1 1 0 0 0 0 205 229
232 74 79 77 96 98 102 0 empty;
#X text 1833 767 cyclone/scope~;
#X connect 3 0 4 0;
#X connect 7 1 78 0;
#X connect 7 1 85 0;
#X connect 7 2 85 1;
#X connect 7 3 85 2;
#X connect 7 4 85 3;
#X connect 8 0 9 0;
#X connect 9 0 7 0;
#X connect 10 0 7 0;
#X connect 11 0 12 0;
#X connect 12 0 13 0;
#X connect 13 1 14 0;
#X connect 13 1 79 0;
#X connect 13 2 14 1;
#X connect 13 3 14 2;
#X connect 13 4 14 3;
#X connect 13 5 14 4;
#X connect 13 6 14 5;
#X connect 13 7 14 6;
#X connect 13 8 14 7;
#X connect 15 1 87 0;
#X connect 16 1 59 1;
#X connect 16 2 59 2;
#X connect 16 3 59 3;
#X connect 17 1 80 0;
#X connect 17 1 88 0;
#X connect 17 2 88 1;
#X connect 17 3 88 2;
#X connect 17 4 88 3;
#X connect 18 0 19 0;
#X connect 19 0 17 0;
#X connect 20 0 17 0;
#X connect 21 1 22 1;
#X connect 21 2 22 2;
#X connect 22 1 27 2;
#X connect 22 2 27 3;
#X connect 23 0 21 0;
#X connect 24 0 25 0;
#X connect 25 0 26 0;
#X connect 26 0 23 0;
#X connect 27 1 76 1;
#X connect 27 2 76 2;
#X connect 27 3 76 3;
#X connect 27 4 76 4;
#X connect 27 5 76 5;
#X connect 27 6 76 6;
#X connect 27 7 76 7;
#X connect 27 8 76 8;
#X connect 27 9 76 9;
#X connect 27 10 76 10;
#X connect 27 11 76 11;
#X connect 27 12 76 12;
#X connect 27 13 76 13;
#X connect 27 14 76 14;
#X connect 27 15 76 15;
#X connect 28 1 97 0;
#X connect 28 2 97 1;
#X connect 29 0 30 0;
#X connect 30 0 33 0;
#X connect 31 0 33 0;
#X connect 33 1 32 0;
#X connect 33 1 81 0;
#X connect 33 2 32 1;
#X connect 33 3 32 2;
#X connect 33 4 32 3;
#X connect 33 5 32 4;
#X connect 33 6 32 5;
#X connect 33 7 32 6;
#X connect 33 8 32 7;
#X connect 33 9 32 8;
#X connect 33 10 32 9;
#X connect 33 11 32 10;
#X connect 33 12 32 11;
#X connect 33 13 32 12;
#X connect 33 14 32 13;
#X connect 33 15 32 14;
#X connect 33 16 32 15;
#X connect 34 1 99 0;
#X connect 34 2 99 1;
#X connect 35 0 86 0;
#X connect 36 0 37 0;
#X connect 37 0 35 0;
#X connect 38 1 7 1;
#X connect 38 2 7 2;
#X connect 38 3 7 3;
#X connect 39 0 38 0;
#X connect 41 0 42 0;
#X connect 41 0 46 0;
#X connect 41 0 48 0;
#X connect 42 0 43 0;
#X connect 43 0 44 0;
#X connect 44 0 51 0;
#X connect 45 0 49 0;
#X connect 46 0 45 0;
#X connect 47 0 50 0;
#X connect 48 0 47 0;
#X connect 49 0 51 0;
#X connect 50 0 51 0;
#X connect 56 1 13 1;
#X connect 56 2 13 2;
#X connect 56 3 13 3;
#X connect 56 4 13 4;
#X connect 56 5 13 5;
#X connect 56 6 13 6;
#X connect 56 7 13 7;
#X connect 57 0 56 0;
#X connect 58 0 59 0;
#X connect 59 1 17 1;
#X connect 59 1 28 1;
#X connect 59 2 17 2;
#X connect 59 2 28 2;
#X connect 59 3 17 3;
#X connect 59 3 28 3;
#X connect 60 0 61 0;
#X connect 60 0 65 0;
#X connect 60 0 70 0;
#X connect 61 0 62 0;
#X connect 62 0 63 0;
#X connect 63 0 71 0;
#X connect 64 0 67 0;
#X connect 65 0 64 0;
#X connect 66 0 68 0;
#X connect 67 0 71 0;
#X connect 68 0 71 0;
#X connect 70 0 66 0;
#X connect 72 0 73 0;
#X connect 73 0 74 0;
#X connect 74 0 75 0;
#X connect 75 0 16 0;
#X connect 76 1 33 1;
#X connect 76 1 34 1;
#X connect 76 2 33 2;
#X connect 76 2 34 2;
#X connect 76 3 33 3;
#X connect 76 3 34 3;
#X connect 76 4 33 4;
#X connect 76 4 34 4;
#X connect 76 5 33 5;
#X connect 76 5 34 5;
#X connect 76 6 33 6;
#X connect 76 6 34 6;
#X connect 76 7 33 7;
#X connect 76 7 34 7;
#X connect 76 8 33 8;
#X connect 76 8 34 8;
#X connect 76 9 33 9;
#X connect 76 9 34 9;
#X connect 76 10 33 10;
#X connect 76 10 34 10;
#X connect 76 11 33 11;
#X connect 76 11 34 11;
#X connect 76 12 33 12;
#X connect 76 12 34 12;
#X connect 76 13 33 13;
#X connect 76 13 34 13;
#X connect 76 14 33 14;
#X connect 76 14 34 14;
#X connect 76 15 33 15;
#X connect 76 15 34 15;
#X connect 77 0 76 0;
#X connect 82 0 27 1;
#X connect 83 0 13 0;
#X connect 84 0 56 1;
#X connect 86 0 38 1;
#X connect 87 0 16 1;
#X connect 89 0 90 0;
#X connect 90 0 7 0;
#X connect 91 0 92 0;
#X connect 92 0 13 0;
#X connect 93 0 94 0;
#X connect 94 0 17 0;
#X connect 95 0 96 0;
#X connect 96 0 33 0;
#X coords 0 845 1 844 85 60 0;
