#N canvas 418 124 2017 822 10;
#X obj 11 39 cnv 15 500 25 empty empty abc_2d_syn_grainN~ &_fx 20
12 0 18 #606060 #fcfcfc 0;
#X obj 10 792 abc_helpcredit;
#X obj 11 65 cnv 15 500 25 empty empty Granular_processes_to_generate_or_process_spatial_components
20 12 0 12 #606060 #fcfcfc 0;
#X obj 924 693 tgl 15 0 empty empty DSP_on/off 17 7 0 10 #fcfcfc #000000
#000000 0 1;
#X msg 924 721 \; pd dsp \$1 \;;
#X text 932 37 CONTROLS;
#X text 539 39 DESCRIPTION;
#X obj 151 569 abc_2d_decoder1~;
#X obj 24 462 tgl 15 0 empty empty empty 17 7 0 10 #fcfcfc #000000
#000000 0 1;
#X msg 24 484 stereo \$1;
#X obj 409 473 tgl 15 0 empty empty empty 17 7 0 10 #fcfcfc #000000
#000000 0 1;
#X msg 409 493 stereo \$1;
#X obj 529 564 abc_2d_decoder3~;
#X obj 521 633 dac~ 1 2 3 4 5 6 7 8;
#X obj 1015 455 tgl 15 0 empty empty empty 17 7 0 10 #fcfcfc #000000
#000000 0 1;
#X msg 1015 475 stereo \$1;
#X obj 1055 245 abc_gain -127;
#X obj 1667 377 abc_2d_randomtrajectory~;
#X obj 1690 413 abc_cartopol~;
#X msg 1667 353 freq \$1;
#X obj 1667 289 loadbang;
#X msg 1667 310 2;
#X floatatom 1667 331 5 0 0 0 - - - 0;
#X obj 1593 444 abc_2d_map7~ -------- ----- ---;
#X obj 1477 478 tgl 15 0 empty empty empty 17 7 0 10 #fcfcfc #000000
#000000 0 1;
#X msg 1477 498 stereo \$1;
#X obj 1411 294 abc_gain -127;
#X obj 1508 648 dac~ 1 2 3 4 5 6 7 8 9 10 11 12 13 14 15 16;
#X obj 1540 581 abc_2d_decoder7~ ---------------;
#X obj 1748 579 abc_2d_scope7~ --------------;
#X obj 232 140 loadbang;
#X floatatom 99 198 5 0 0 0 - - - 0;
#X floatatom 186 198 5 0 0 0 - - - 0;
#X floatatom 262 197 5 0 0 0 - - - 0;
#X msg 262 176 0.2;
#X msg 186 218 deltime \$1;
#X msg 262 217 feedback \$1;
#X obj 525 483 abc_2d_syn_delay3~;
#X obj 1544 497 abc_2d_fx_delay7~ ------------;
#X text 540 59 abc_2d_syn_grain1~ \, abc_2d_syn_grain2~ \, ... objects
generate spatial granular components in ambisonic from one mono signal.
abc_2d_fx_grain1~ \, abc_2d_fx_grain2~ \, ... objects apply granulators
to spatial components already created by encoders or maps for instance.
If we are at order N in ambisonics \, the number of spatial components
is P = 2*N+1. For these P granulators \, grain sizes and maximum delays
are equally spread. The grain sizes are decreasing from GS (H0) to
GS/(N+1) (H-N & HN) through GS*N/(N+1) (H-1 & H1) \, etc. The maximum
delays (maximum of the randomization) are increasing from 0 (H0) to
D*N/(N+1) (H-N & HN) through D/(N+1) (H-1 & H1).;
#X msg 186 177 1000;
#X msg 99 218 grainsize \$1;
#X msg 99 177 200;
#X floatatom 348 197 5 0 0 0 - - - 0;
#X msg 348 217 rarefaction \$1;
#X msg 348 176 0.5;
#X obj 230 261 s syn_grain;
#X text 206 114 SYN GRANULATORS;
#X obj 148 446 r syn_grain;
#X obj 148 482 abc_2d_syn_grain1~;
#X obj 253 434 noise~;
#X text 936 58 The grain size GS (grain size) is expressed in milliseconds
(default value 400 \, minimum 2 \, maximum 3000).;
#X text 935 89 The delay D (deltime) is expressed in milliseconds (default
value is 100 \, minimum 2 \, maximum 5000).;
#X obj 432 277 abc_gain -127;
#X obj 525 447 r syn_grain;
#X text 935 124 The feedback (between 0 and 1) provides a possibiity
of reinjection on the P delay lines.;
#X obj 1114 555 abc_2d_decoder3~;
#X obj 1176 403 abc_addsynth7~;
#X obj 1101 446 r fx_grain;
#X obj 1142 503 abc_2d_fx_grain3~;
#X obj 1102 627 dac~ 1 2 3 4 5 6 7 8;
#X text 1481 93 FX GRANULATORS;
#X obj 1545 423 r fx_grain;
#X obj 1500 122 loadbang;
#X floatatom 1367 180 5 0 0 0 - - - 0;
#X floatatom 1454 180 5 0 0 0 - - - 0;
#X floatatom 1530 179 5 0 0 0 - - - 0;
#X msg 1454 200 deltime \$1;
#X msg 1530 199 feedback \$1;
#X msg 1367 200 grainsize \$1;
#X floatatom 1616 179 5 0 0 0 - - - 0;
#X msg 1616 199 rarefaction \$1;
#X msg 1616 158 0.5;
#X msg 1367 159 400;
#X msg 1454 159 300;
#X msg 1530 158 0.4;
#X obj 1498 243 s fx_grain;
#X obj 81 598 abc_meter;
#X obj 443 595 abc_meter;
#X obj 1037 587 abc_meter;
#X obj 1441 618 abc_meter;
#X obj 1176 344 loadbang;
#X obj 253 455 *~ 0.1;
#X obj 630 429 abc_env_noise 550 0.6 0;
#X msg 1176 371 gain -10;
#X obj 1654 239 abc_env_noise 700 0.35 0;
#X obj 155 619 abc_quadriout -15;
#X obj 67 280 abc_gain -10;
#X obj 24 507 tgl 15 0 empty empty empty 17 7 0 10 #fcfcfc #000000
#000000 0 1;
#X msg 24 529 directangles \$1;
#X obj 354 508 tgl 15 0 empty empty empty 17 7 0 10 #fcfcfc #000000
#000000 0 1;
#X msg 354 530 directangles \$1;
#X obj 954 494 tgl 15 0 empty empty empty 17 7 0 10 #fcfcfc #000000
#000000 0 1;
#X msg 954 516 directangles \$1;
#X obj 1378 508 tgl 15 0 empty empty empty 17 7 0 10 #fcfcfc #000000
#000000 0 1;
#X msg 1378 530 directangles \$1;
#X obj 1780 636 cyclone/scope~ 130 130 16 3 256 -1 1 0 0 0 0 205 229
232 74 79 77 96 98 102 0 empty;
#X text 1799 769 cyclone/scope~;
#X connect 3 0 4 0;
#X connect 7 1 77 0;
#X connect 7 1 86 0;
#X connect 7 2 86 1;
#X connect 7 3 86 2;
#X connect 7 4 86 3;
#X connect 8 0 9 0;
#X connect 9 0 7 0;
#X connect 10 0 11 0;
#X connect 11 0 12 0;
#X connect 12 1 13 0;
#X connect 12 1 78 0;
#X connect 12 2 13 1;
#X connect 12 3 13 2;
#X connect 12 4 13 3;
#X connect 12 5 13 4;
#X connect 12 6 13 5;
#X connect 12 7 13 6;
#X connect 12 8 13 7;
#X connect 14 0 15 0;
#X connect 15 0 56 0;
#X connect 16 0 56 0;
#X connect 17 1 18 1;
#X connect 17 2 18 2;
#X connect 18 1 23 2;
#X connect 18 2 23 3;
#X connect 19 0 17 0;
#X connect 20 0 21 0;
#X connect 21 0 22 0;
#X connect 22 0 19 0;
#X connect 23 1 38 1;
#X connect 23 2 38 2;
#X connect 23 3 38 3;
#X connect 23 4 38 4;
#X connect 23 5 38 5;
#X connect 23 6 38 6;
#X connect 23 7 38 7;
#X connect 23 8 38 8;
#X connect 23 9 38 9;
#X connect 23 10 38 10;
#X connect 23 11 38 11;
#X connect 23 12 38 12;
#X connect 23 13 38 13;
#X connect 23 14 38 14;
#X connect 23 15 38 15;
#X connect 24 0 25 0;
#X connect 25 0 28 0;
#X connect 26 0 28 0;
#X connect 28 1 27 0;
#X connect 28 1 80 0;
#X connect 28 2 27 1;
#X connect 28 3 27 2;
#X connect 28 4 27 3;
#X connect 28 5 27 4;
#X connect 28 6 27 5;
#X connect 28 7 27 6;
#X connect 28 8 27 7;
#X connect 28 9 27 8;
#X connect 28 10 27 9;
#X connect 28 11 27 10;
#X connect 28 12 27 11;
#X connect 28 13 27 12;
#X connect 28 14 27 13;
#X connect 28 15 27 14;
#X connect 28 16 27 15;
#X connect 29 1 96 0;
#X connect 29 2 96 1;
#X connect 30 0 42 0;
#X connect 30 0 40 0;
#X connect 30 0 34 0;
#X connect 30 0 45 0;
#X connect 31 0 41 0;
#X connect 32 0 35 0;
#X connect 33 0 36 0;
#X connect 34 0 33 0;
#X connect 35 0 46 0;
#X connect 36 0 46 0;
#X connect 37 1 12 1;
#X connect 37 2 12 2;
#X connect 37 3 12 3;
#X connect 37 4 12 4;
#X connect 37 5 12 5;
#X connect 37 6 12 6;
#X connect 37 7 12 7;
#X connect 38 1 28 1;
#X connect 38 1 29 1;
#X connect 38 2 28 2;
#X connect 38 2 29 2;
#X connect 38 3 28 3;
#X connect 38 3 29 3;
#X connect 38 4 28 4;
#X connect 38 4 29 4;
#X connect 38 5 28 5;
#X connect 38 5 29 5;
#X connect 38 6 28 6;
#X connect 38 6 29 6;
#X connect 38 7 28 7;
#X connect 38 7 29 7;
#X connect 38 8 28 8;
#X connect 38 8 29 8;
#X connect 38 9 28 9;
#X connect 38 9 29 9;
#X connect 38 10 28 10;
#X connect 38 10 29 10;
#X connect 38 11 28 11;
#X connect 38 11 29 11;
#X connect 38 12 28 12;
#X connect 38 12 29 12;
#X connect 38 13 28 13;
#X connect 38 13 29 13;
#X connect 38 14 28 14;
#X connect 38 14 29 14;
#X connect 38 15 28 15;
#X connect 38 15 29 15;
#X connect 40 0 32 0;
#X connect 41 0 46 0;
#X connect 42 0 31 0;
#X connect 43 0 44 0;
#X connect 44 0 46 0;
#X connect 45 0 43 0;
#X connect 48 0 49 0;
#X connect 49 1 7 1;
#X connect 49 2 7 2;
#X connect 49 3 7 3;
#X connect 50 0 82 0;
#X connect 53 0 12 0;
#X connect 54 0 37 0;
#X connect 56 1 60 0;
#X connect 56 1 79 0;
#X connect 56 2 60 1;
#X connect 56 3 60 2;
#X connect 56 4 60 3;
#X connect 56 5 60 4;
#X connect 56 6 60 5;
#X connect 56 7 60 6;
#X connect 56 8 60 7;
#X connect 57 1 59 1;
#X connect 57 2 59 2;
#X connect 57 3 59 3;
#X connect 57 4 59 4;
#X connect 57 5 59 5;
#X connect 57 6 59 6;
#X connect 57 7 59 7;
#X connect 58 0 59 0;
#X connect 59 1 56 1;
#X connect 59 2 56 2;
#X connect 59 3 56 3;
#X connect 59 4 56 4;
#X connect 59 5 56 5;
#X connect 59 6 56 6;
#X connect 59 7 56 7;
#X connect 62 0 38 0;
#X connect 63 0 73 0;
#X connect 63 0 74 0;
#X connect 63 0 75 0;
#X connect 63 0 72 0;
#X connect 64 0 69 0;
#X connect 65 0 67 0;
#X connect 66 0 68 0;
#X connect 67 0 76 0;
#X connect 68 0 76 0;
#X connect 69 0 76 0;
#X connect 70 0 71 0;
#X connect 71 0 76 0;
#X connect 72 0 70 0;
#X connect 73 0 64 0;
#X connect 74 0 65 0;
#X connect 75 0 66 0;
#X connect 81 0 84 0;
#X connect 82 0 49 1;
#X connect 83 0 37 1;
#X connect 84 0 57 0;
#X connect 85 0 23 1;
#X connect 87 0 7 0;
#X connect 88 0 89 0;
#X connect 89 0 7 0;
#X connect 90 0 91 0;
#X connect 91 0 12 0;
#X connect 92 0 93 0;
#X connect 93 0 56 0;
#X connect 94 0 95 0;
#X connect 95 0 28 0;
#X coords 0 822 1 821 85 60 0;
