#N canvas 62 280 1477 788 10;
#X obj 14 6 cnv 15 500 25 empty empty abc_2d_optimN~  20 12 0 18 -99865
-262144 0;
#X obj 13 746 abc_helpcredit;
#X obj 14 32 cnv 15 500 25 empty empty Ambisonic_optimizers_at_orders_1_2_3...
20 12 0 12 -99865 -262144 0;
#X obj 533 364 tgl 15 0 empty empty empty 17 7 0 10 -262144 -1 -1 1
1;
#X msg 533 388 stereo \$1;
#X obj 1111 548 abc_2d_decoder7~ ------------;
#X obj 1111 686 dac~ 1 2 3 4 5 6 7 8 9 10 11 12 13 14 15 16;
#X obj 721 458 abc_2d_scope7~ ------------;
#X obj 574 674 tgl 15 0 empty empty DSP_on/off 17 7 0 10 -262144 -1
-1 1 1;
#X msg 574 704 \; pd dsp \$1 \;;
#X obj 1390 619 abc_meter;
#X obj 349 527 abc_meter;
#X obj 65 110 abc_soundcoat~;
#X obj 53 137 loadbang;
#X msg 53 158 -0.2;
#X floatatom 53 179 5 0 0 0 - - -;
#X msg 53 199 speed \$1;
#X obj 195 137 vradio 15 1 0 3 empty empty empty 0 -8 0 10 -262144
-1 -1 2;
#X floatatom 195 208 5 0 0 0 - - -;
#X obj 195 82 loadbang;
#X obj 715 116 loadbang;
#X floatatom 715 158 5 0 0 0 - - -;
#X msg 715 178 speed \$1;
#X obj 715 220 abc_2d_encoder7~ ------------;
#X obj 1002 175 vradio 15 1 0 3 empty empty empty 0 -8 0 10 -262144
-1 -1 2;
#X floatatom 1002 231 5 0 0 0 - - -;
#X obj 1002 120 loadbang;
#X obj 43 371 abc_scope 0 0 2.5;
#X obj 917 504 abc_2d_scope7~ ------------;
#X obj 1327 428 tgl 15 0 empty empty empty 17 7 0 10 -262144 -1 -1
1 1;
#X msg 1327 452 stereo \$1;
#X obj 772 551 abc_scope 0 0 2.5;
#X obj 53 225 abc_2d_encoder3~;
#X obj 193 305 abc_2d_optim3~;
#X obj 364 465 abc_2d_decoder3~;
#X obj 37 305 abc_2d_scope3~;
#X obj 193 398 abc_2d_scope3~;
#X msg 194 228 optimtype \$1;
#X msg 195 111 2;
#X obj 419 528 dac~ 1 2 3 4 5 6 7 8;
#X text 268 102 optimtype value;
#X text 267 117 0 = basic \, no effect;
#X text 267 130 1 = maxRe optimization \, used when the audience is
confined to the center of the circle;
#X text 267 155 2 = inPhase optimization \, used when the audience
covers all the circle;
#X text 529 29 abc_2d_optim1~ \, abc_2d_optim2~ \, etc. objects enable
to apply optimizations to the sound field with 3 levels (depending
on optimtype value). It provides solutions when having an audience
that cannot be considered as staying in the center of the ambisonic
circle.;
#X msg 714 137 0.15;
#X obj 799 158 abc_soundgrain~;
#X msg 1002 149 2;
#X msg 1002 251 optimtype \$1;
#X text 1079 143 optimtype value;
#X text 1078 158 0 = basic \, no effect;
#X text 1078 171 1 = maxRe optimization \, used when the audience is
confined to the center of the circle;
#X text 1078 196 2 = inPhase optimization \, used when the audience
covers all the circle;
#X obj 916 459 abc_2d_optim7~ ---------------;
#X obj 201 442 abc_scope 1 0 2.5;
#X obj 972 553 abc_scope 0 0 2.5;
#X obj 1233 289 abc_gain -127;
#X text 905 8 CONTROLS;
#X text 532 7 DESCRIPTION;
#X text 905 28 optimtype value;
#X text 904 43 0 = basic \, no effect;
#X text 904 56 1 = maxRe optimization \, used when the audience is
confined to the center of the circle;
#X text 904 81 2 = inPhase optimization \, used when the audience covers
all the circle;
#X obj 146 152 *~ 0.2;
#X obj 439 223 abc_gain -10;
#X obj 886 179 *~ 0.2;
#X connect 3 0 4 0;
#X connect 4 0 34 0;
#X connect 5 1 6 0;
#X connect 5 1 10 0;
#X connect 5 2 6 1;
#X connect 5 3 6 2;
#X connect 5 4 6 3;
#X connect 5 5 6 4;
#X connect 5 6 6 5;
#X connect 5 7 6 6;
#X connect 5 8 6 7;
#X connect 5 9 6 8;
#X connect 5 10 6 9;
#X connect 5 11 6 10;
#X connect 5 12 6 11;
#X connect 5 13 6 12;
#X connect 5 14 6 13;
#X connect 5 15 6 14;
#X connect 5 16 6 15;
#X connect 7 1 31 0;
#X connect 7 2 31 1;
#X connect 7 3 31 2;
#X connect 8 0 9 0;
#X connect 12 1 63 0;
#X connect 13 0 14 0;
#X connect 14 0 15 0;
#X connect 15 0 16 0;
#X connect 16 0 32 0;
#X connect 17 0 18 0;
#X connect 18 0 37 0;
#X connect 19 0 38 0;
#X connect 20 0 45 0;
#X connect 21 0 22 0;
#X connect 22 0 23 0;
#X connect 23 1 7 1;
#X connect 23 1 53 1;
#X connect 23 2 7 2;
#X connect 23 2 53 2;
#X connect 23 3 7 3;
#X connect 23 3 53 3;
#X connect 23 4 7 4;
#X connect 23 4 53 4;
#X connect 23 5 7 5;
#X connect 23 5 53 5;
#X connect 23 6 7 6;
#X connect 23 6 53 6;
#X connect 23 7 7 7;
#X connect 23 7 53 7;
#X connect 23 8 7 8;
#X connect 23 8 53 8;
#X connect 23 9 7 9;
#X connect 23 9 53 9;
#X connect 23 10 7 10;
#X connect 23 10 53 10;
#X connect 23 11 7 11;
#X connect 23 11 53 11;
#X connect 23 12 7 12;
#X connect 23 12 53 12;
#X connect 23 13 7 13;
#X connect 23 13 53 13;
#X connect 23 14 7 14;
#X connect 23 14 53 14;
#X connect 23 15 7 15;
#X connect 23 15 53 15;
#X connect 24 0 25 0;
#X connect 25 0 48 0;
#X connect 26 0 47 0;
#X connect 28 1 55 0;
#X connect 28 2 55 1;
#X connect 28 3 55 2;
#X connect 29 0 30 0;
#X connect 30 0 5 0;
#X connect 32 1 33 1;
#X connect 32 1 35 1;
#X connect 32 2 33 2;
#X connect 32 2 35 2;
#X connect 32 3 33 3;
#X connect 32 3 35 3;
#X connect 32 4 35 4;
#X connect 32 4 33 4;
#X connect 32 5 35 5;
#X connect 32 5 33 5;
#X connect 32 6 35 6;
#X connect 32 6 33 6;
#X connect 32 7 33 7;
#X connect 33 1 34 1;
#X connect 33 1 36 1;
#X connect 33 2 34 2;
#X connect 33 2 36 2;
#X connect 33 3 34 3;
#X connect 33 3 36 3;
#X connect 33 4 36 4;
#X connect 33 4 34 4;
#X connect 33 5 36 5;
#X connect 33 5 34 5;
#X connect 33 6 36 6;
#X connect 33 6 34 6;
#X connect 33 7 36 7;
#X connect 33 7 34 7;
#X connect 34 1 11 0;
#X connect 34 1 39 0;
#X connect 34 2 39 1;
#X connect 34 3 39 2;
#X connect 34 4 39 3;
#X connect 34 5 39 4;
#X connect 34 6 39 5;
#X connect 34 7 39 6;
#X connect 34 8 39 7;
#X connect 35 1 27 0;
#X connect 35 2 27 1;
#X connect 35 3 27 2;
#X connect 36 1 54 0;
#X connect 36 2 54 1;
#X connect 36 3 54 2;
#X connect 37 0 33 0;
#X connect 38 0 17 0;
#X connect 45 0 21 0;
#X connect 46 1 65 0;
#X connect 47 0 24 0;
#X connect 48 0 53 0;
#X connect 53 1 28 1;
#X connect 53 1 5 1;
#X connect 53 2 28 2;
#X connect 53 2 5 2;
#X connect 53 3 28 3;
#X connect 53 3 5 3;
#X connect 53 4 28 4;
#X connect 53 4 5 4;
#X connect 53 5 28 5;
#X connect 53 5 5 5;
#X connect 53 6 28 6;
#X connect 53 6 5 6;
#X connect 53 7 28 7;
#X connect 53 7 5 7;
#X connect 53 8 28 8;
#X connect 53 8 5 8;
#X connect 53 9 28 9;
#X connect 53 9 5 9;
#X connect 53 10 28 10;
#X connect 53 10 5 10;
#X connect 53 11 28 11;
#X connect 53 11 5 11;
#X connect 53 12 28 12;
#X connect 53 12 5 12;
#X connect 53 13 28 13;
#X connect 53 13 5 13;
#X connect 53 14 28 14;
#X connect 53 14 5 14;
#X connect 53 15 28 15;
#X connect 53 15 5 15;
#X connect 56 0 5 0;
#X connect 63 0 32 1;
#X connect 64 0 34 0;
#X connect 65 0 23 1;
