#N canvas 741 129 1335 784 10;
#X obj 9 13 cnv 15 500 25 empty empty abc_multinoiseN~ 20 12 0 18 #606060
#fcfcfc 0;
#X obj 8 741 abc_helpcredit;
#X obj 9 39 cnv 15 500 25 empty empty Decorrelated_white_noise_generators_in_parallel
20 12 0 12 #606060 #fcfcfc 0;
#X obj 542 592 tgl 15 0 empty empty DSP_on/off 17 7 0 10 #fcfcfc #000000
#000000 0 1;
#X msg 542 620 \; pd dsp \$1 \;;
#X text 935 16 CONTROLS;
#X text 534 18 DESCRIPTION;
#X obj 807 159 abc_gain -127;
#X obj 178 261 abc_multinoise11~;
#X obj 169 315 abc_substractsynth11~;
#X obj 135 261 r s11;
#X obj 148 364 abc_cosrandenv11~ -----------;
#X obj 160 417 abc_chopan11~ -----------;
#X obj 152 483 abc_meter;
#X msg 333 156 \; s11 f0 440 \; s11 fmult-0 0.56 \; s11 fmult-1 0.56
\; s11 fmult-2 0.92 \; s11 fmult-3 0.92 \; s11 fmult-4 1.19 \; s11
fmult-5 1.7 \; s11 fmult-6 2 \; s11 fmult-7 2.74 \; s11 fmult-8 3 \;
s11 fmult-9 3.76 \; s11 fmult-10 4.07 \; s11 fbeat-1 1 \; s11 fbeat-3
1.7 \; s11 filterQ 70 \;;
#X obj 333 130 loadbang;
#X obj 529 262 abc_multinoise2~;
#X obj 1068 430 abc_2d_scope3~ ------------;
#X obj 965 322 abc_cosrandenv7~ ------------;
#X obj 885 431 abc_2d_decoder3~ ------------;
#X obj 1004 244 abc_multinoise7~;
#X obj 872 356 tgl 15 0 empty empty empty 17 7 0 10 #fcfcfc #000000
#000000 0 1;
#X msg 872 376 stereo \$1;
#X obj 922 502 dac~ 1 2 3 4 5 6 7 8;
#X text 535 39 abc_multinoise1~ \, abc_multinoise2~ \, ... objects
produce n decorrelated white noise signals;
#X text 936 37 no specific control;
#X obj 855 501 abc_meter;
#X obj 220 484 abc_stereoout -15;
#X obj 40 116 abc_gain -20;
#X obj 1084 502 cyclone/scope~ 130 130 16 3 256 -1 1 0 0 0 0 205 229
232 74 79 77 96 98 102 0 empty;
#X text 1103 635 cyclone/scope~;
#X obj 532 312 cyclone/scope~ 130 130 16 3 256 -1 1 0 0 0 0 205 229
232 74 79 77 96 98 102 0 empty;
#X text 551 445 cyclone/scope~;
#X connect 3 0 4 0;
#X connect 7 0 19 0;
#X connect 8 1 9 1;
#X connect 8 2 9 2;
#X connect 8 3 9 3;
#X connect 8 4 9 4;
#X connect 8 5 9 5;
#X connect 8 6 9 6;
#X connect 8 7 9 7;
#X connect 8 8 9 8;
#X connect 8 9 9 9;
#X connect 8 10 9 10;
#X connect 8 11 9 11;
#X connect 9 1 11 1;
#X connect 9 2 11 2;
#X connect 9 3 11 3;
#X connect 9 4 11 4;
#X connect 9 5 11 5;
#X connect 9 6 11 6;
#X connect 9 7 11 7;
#X connect 9 8 11 8;
#X connect 9 9 11 9;
#X connect 9 10 11 10;
#X connect 9 11 11 11;
#X connect 10 0 9 0;
#X connect 11 1 12 1;
#X connect 11 2 12 2;
#X connect 11 3 12 3;
#X connect 11 4 12 4;
#X connect 11 5 12 5;
#X connect 11 6 12 6;
#X connect 11 7 12 7;
#X connect 11 8 12 8;
#X connect 11 9 12 9;
#X connect 11 10 12 10;
#X connect 11 11 12 11;
#X connect 12 1 13 0;
#X connect 12 1 27 0;
#X connect 12 2 27 1;
#X connect 15 0 14 0;
#X connect 16 1 31 0;
#X connect 16 2 31 1;
#X connect 17 1 29 0;
#X connect 17 2 29 1;
#X connect 18 1 17 1;
#X connect 18 1 19 1;
#X connect 18 2 17 2;
#X connect 18 2 19 2;
#X connect 18 3 17 3;
#X connect 18 3 19 3;
#X connect 18 4 17 4;
#X connect 18 4 19 4;
#X connect 18 5 17 5;
#X connect 18 5 19 5;
#X connect 18 6 17 6;
#X connect 18 6 19 6;
#X connect 18 7 17 7;
#X connect 18 7 19 7;
#X connect 19 1 23 0;
#X connect 19 1 26 0;
#X connect 19 2 23 1;
#X connect 19 3 23 2;
#X connect 19 4 23 3;
#X connect 19 5 23 4;
#X connect 19 6 23 5;
#X connect 19 7 23 6;
#X connect 19 8 23 7;
#X connect 20 1 18 1;
#X connect 20 2 18 2;
#X connect 20 3 18 3;
#X connect 20 4 18 4;
#X connect 20 5 18 5;
#X connect 20 6 18 6;
#X connect 20 7 18 7;
#X connect 21 0 22 0;
#X connect 22 0 19 0;
#X connect 28 0 9 0;
#X coords 0 784 1 783 85 60 0;
