#N canvas 193 70 1335 784 10;
#X obj 9 13 cnv 15 500 25 empty empty abc_linrandenvN~ 20 12 0 18 #606060
#fcfcfc 0;
#X obj 8 741 abc_helpcredit;
#X obj 9 39 cnv 15 500 25 empty empty Linear_random_envelopes 20 12
0 12 #606060 #fcfcfc 0;
#X obj 542 592 tgl 15 0 empty empty DSP_on/off 17 7 0 10 #fcfcfc #000000
#000000 0 1;
#X msg 542 620 \; pd dsp \$1 \;;
#X text 935 12 CONTROLS;
#X text 534 14 DESCRIPTION;
#X obj 198 497 abc_2d_decoder1~;
#X obj 363 414 abc_2d_scope1~;
#X obj 199 198 abc_substractsynth3~;
#X obj 136 436 tgl 15 0 empty empty empty 17 7 0 10 #fcfcfc #000000
#000000 0 1;
#X msg 136 456 stereo \$1;
#X text 937 130 freq parameter is the frequency of the envelope generated.
;
#X obj 506 259 loadbang;
#X msg 506 291 5;
#X msg 568 291 0.5;
#X floatatom 506 312 5 0 0 0 - - - 0;
#X floatatom 568 312 5 0 0 0 - - - 0;
#X msg 506 332 freq \$1;
#X msg 568 332 rarefaction \$1;
#X obj 549 397 abc_addsynth2~;
#X obj 668 202 abc_gain -127;
#X obj 1051 206 noise~;
#X obj 1160 202 loadbang;
#X floatatom 1160 255 5 0 0 0 - - - 0;
#X floatatom 1222 255 5 0 0 0 - - - 0;
#X msg 1160 275 freq \$1;
#X msg 1222 275 rarefaction \$1;
#X msg 1160 234 30;
#X msg 1222 234 0.66;
#X obj 1068 430 abc_2d_scope7~ ------------;
#X obj 828 202 abc_gain -127;
#X obj 965 322 abc_linrandenv15~ ------------;
#X obj 506 447 abc_linrandenv2~;
#X obj 134 241 abc_linrandenv3;
#X text 535 35 abc_linrandenv1~ \, abc_linrandenv2~ \, etc. objects
provide multichannel envelopes based on linear segments.;
#X text 936 33 A probability distribution is applied to each channel
providing for each envelope a factor that is 1 or 0 and enables to
apply a statistic duration of silence. If the shortening is 0.3 \,
it means 30% of the envelopes are muted (multiplied by 0) and 70% of
them are played (multiplied by 1). When the shortening is 0 \, the
envelope is constantly played \, whereas whe it is 1 no sound is played
at all (maximum shortening).;
#X obj 136 554 abc_meter;
#X obj 886 492 abc_meter;
#X obj 474 493 abc_meter;
#X obj 246 141 noise~;
#X obj 49 291 abc_gain -10;
#X obj 1051 227 *~ 0.05;
#X obj 202 554 abc_quadriout -15;
#X obj 246 162 *~ 0.1;
#X obj 535 493 abc_stereoout -15;
#X obj 949 492 abc_stereoout -15;
#X obj 827 430 abc_2d_stereodecoder7~ ------------;
#X obj 324 465 cyclone/scope~ 130 130 16 3 256 -1 1 0 0 0 0 205 229
232 74 79 77 96 98 102 0 empty;
#X text 343 598 cyclone/scope~;
#X obj 1086 494 cyclone/scope~ 130 130 16 3 256 -1 1 0 0 0 0 205 229
232 74 79 77 96 98 102 0 empty;
#X text 1105 627 cyclone/scope~;
#X connect 3 0 4 0;
#X connect 7 1 37 0;
#X connect 7 1 43 0;
#X connect 7 2 43 1;
#X connect 7 3 43 2;
#X connect 7 4 43 3;
#X connect 8 1 48 0;
#X connect 8 2 48 1;
#X connect 9 1 34 1;
#X connect 9 2 34 2;
#X connect 9 3 34 3;
#X connect 10 0 11 0;
#X connect 11 0 7 0;
#X connect 13 0 14 0;
#X connect 13 0 15 0;
#X connect 14 0 16 0;
#X connect 15 0 17 0;
#X connect 16 0 18 0;
#X connect 17 0 19 0;
#X connect 18 0 33 0;
#X connect 19 0 33 0;
#X connect 20 1 33 1;
#X connect 20 2 33 2;
#X connect 21 0 20 0;
#X connect 22 0 42 0;
#X connect 23 0 28 0;
#X connect 23 0 29 0;
#X connect 24 0 26 0;
#X connect 25 0 27 0;
#X connect 26 0 32 0;
#X connect 27 0 32 0;
#X connect 28 0 24 0;
#X connect 29 0 25 0;
#X connect 30 1 50 0;
#X connect 30 2 50 1;
#X connect 31 0 47 0;
#X connect 32 1 30 1;
#X connect 32 1 47 1;
#X connect 32 2 30 2;
#X connect 32 2 47 2;
#X connect 32 3 30 3;
#X connect 32 3 47 3;
#X connect 32 4 30 4;
#X connect 32 4 47 4;
#X connect 32 5 30 5;
#X connect 32 5 47 5;
#X connect 32 6 30 6;
#X connect 32 6 47 6;
#X connect 32 7 30 7;
#X connect 32 7 47 7;
#X connect 32 8 30 8;
#X connect 32 8 47 8;
#X connect 32 9 30 9;
#X connect 32 9 47 9;
#X connect 32 10 30 10;
#X connect 32 10 47 10;
#X connect 32 11 30 11;
#X connect 32 11 47 11;
#X connect 32 12 30 12;
#X connect 32 12 47 12;
#X connect 32 13 30 13;
#X connect 32 13 47 13;
#X connect 32 14 30 14;
#X connect 32 14 47 14;
#X connect 32 15 30 15;
#X connect 32 15 47 14;
#X connect 33 1 39 0;
#X connect 33 1 45 0;
#X connect 33 2 45 1;
#X connect 34 1 7 1;
#X connect 34 1 8 1;
#X connect 34 2 7 2;
#X connect 34 2 8 2;
#X connect 34 3 7 3;
#X connect 34 3 8 3;
#X connect 40 0 44 0;
#X connect 41 0 7 0;
#X connect 42 0 32 0;
#X connect 42 0 32 1;
#X connect 42 0 32 2;
#X connect 42 0 32 3;
#X connect 42 0 32 4;
#X connect 42 0 32 5;
#X connect 42 0 32 6;
#X connect 42 0 32 7;
#X connect 42 0 32 8;
#X connect 42 0 32 9;
#X connect 42 0 32 10;
#X connect 42 0 32 11;
#X connect 42 0 32 12;
#X connect 42 0 32 13;
#X connect 42 0 32 14;
#X connect 42 0 32 15;
#X connect 44 0 9 1;
#X connect 44 0 9 2;
#X connect 44 0 9 3;
#X connect 47 1 38 0;
#X connect 47 1 46 0;
#X connect 47 2 46 1;
#X coords 0 784 1 783 85 60 0;
