#N canvas -34 648 1278 879 10;
#X obj 14 6 cnv 15 500 25 empty empty abc_puckettespaf~  20 12 0 18
#606060 #fcfcfc 0;
#X obj 13 948 abc_helpcredit;
#X obj 14 32 cnv 15 500 25 empty empty A_Phase_Aligned_Formant_(PAF)_generator
20 12 0 12 #606060 #fcfcfc 0;
#X obj 1142 354 tgl 15 0 empty empty DSP_on/off 17 7 0 10 #fcfcfc #000000
#000000 0 1;
#X msg 1142 382 \; pd dsp \$1 \;;
#X obj 153 81 r p1;
#N canvas 515 50 143 300 perfectThird 0;
#X obj 56 258 outlet;
#X obj 30 10 inlet;
#X obj 30 31 route f0;
#X obj 30 56 * 1.25;
#X msg 30 103 f0 \$1;
#X connect 1 0 2 0;
#X connect 2 0 3 0;
#X connect 2 1 0 0;
#X connect 3 0 4 0;
#X connect 4 0 0 0;
#X restore 264 118 pd perfectThird;
#X obj 153 265 abc_puckettespaf~;
#X obj 265 265 abc_puckettespaf~;
#X obj 501 80 r p1;
#N canvas 515 50 143 300 perfectThird 0;
#X obj 56 258 outlet;
#X obj 30 10 inlet;
#X obj 30 31 route f0;
#X obj 30 56 * 1.25;
#X msg 30 103 f0 \$1;
#X connect 1 0 2 0;
#X connect 2 0 3 0;
#X connect 2 1 0 0;
#X connect 3 0 4 0;
#X connect 4 0 0 0;
#X restore 618 117 pd perfectThird;
#X obj 543 221 r p2;
#X obj 501 264 abc_puckettespaf2~;
#X obj 619 264 abc_puckettespaf2~;
#N canvas 24 318 697 519 pafControl1 0;
#X obj 27 27 inlet;
#X obj 100 251 spigot;
#X obj 308 248 spigot;
#X obj 573 251 spigot;
#X obj 127 370 loadbang;
#X msg 127 391 350;
#X obj 102 442 outlet;
#X text 122 421 f0;
#X obj 146 49 *~ 5;
#X obj 146 70 +~ 349.228;
#X obj 146 161 snapshot~;
#X obj 332 370 loadbang;
#X obj 307 442 outlet;
#X msg 332 391 50;
#X text 327 421 bw;
#X obj 575 443 outlet;
#X text 595 422 a;
#X obj 308 49 +~ 1;
#X obj 308 70 *~ 100;
#X obj 308 91 +~ 50;
#X obj 308 162 snapshot~;
#X obj 445 34 loadbang;
#X msg 445 55 1;
#X obj 572 116 abc_upanddown;
#X obj 572 161 * 0.15;
#X obj 572 182 + 0.08;
#X floatatom 572 203 5 0 0 0 - - - 0;
#X obj 146 28 osc~ 0.09;
#X obj 308 28 osc~ 0.11;
#X obj 445 76 metro 20;
#X obj 572 90 tgl 15 0 empty empty empty 17 7 0 10 #fcfcfc #000000
#000000 0 1;
#X connect 0 0 1 1;
#X connect 0 0 2 1;
#X connect 0 0 3 1;
#X connect 1 0 6 0;
#X connect 2 0 12 0;
#X connect 3 0 15 0;
#X connect 4 0 5 0;
#X connect 5 0 6 0;
#X connect 8 0 9 0;
#X connect 9 0 10 0;
#X connect 10 0 1 0;
#X connect 11 0 13 0;
#X connect 13 0 12 0;
#X connect 17 0 18 0;
#X connect 18 0 19 0;
#X connect 19 0 20 0;
#X connect 20 0 2 0;
#X connect 21 0 22 0;
#X connect 22 0 29 0;
#X connect 23 0 24 0;
#X connect 24 0 25 0;
#X connect 25 0 26 0;
#X connect 26 0 3 0;
#X connect 27 0 8 0;
#X connect 28 0 17 0;
#X connect 29 0 20 0;
#X connect 29 0 10 0;
#X connect 30 0 23 0;
#X restore 770 113 pd pafControl1;
#N canvas 857 82 655 612 pafControl2 0;
#X obj 27 27 inlet;
#X obj 100 251 spigot;
#X obj 308 248 spigot;
#X obj 127 370 loadbang;
#X obj 102 442 outlet;
#X obj 146 161 snapshot~;
#X obj 332 370 loadbang;
#X obj 307 442 outlet;
#X obj 308 49 +~ 1;
#X obj 308 162 snapshot~;
#X obj 445 34 loadbang;
#X msg 445 55 1;
#X obj 445 76 metro 20;
#X obj 146 28 osc~ 0.1;
#X obj 308 28 osc~ 0.02;
#X obj 308 70 *~ 0.25;
#X obj 146 49 *~ 2;
#X obj 146 70 +~ 8;
#X msg 127 391 10;
#X msg 332 391 0.2;
#X text 122 421 ifreq;
#X text 327 421 iamp;
#X connect 0 0 1 1;
#X connect 0 0 2 1;
#X connect 1 0 4 0;
#X connect 2 0 7 0;
#X connect 3 0 18 0;
#X connect 5 0 1 0;
#X connect 6 0 19 0;
#X connect 8 0 15 0;
#X connect 9 0 2 0;
#X connect 10 0 11 0;
#X connect 11 0 12 0;
#X connect 12 0 9 0;
#X connect 12 0 5 0;
#X connect 13 0 16 0;
#X connect 14 0 8 0;
#X connect 15 0 9 0;
#X connect 16 0 17 0;
#X connect 17 0 5 0;
#X connect 18 0 4 0;
#X connect 19 0 7 0;
#X restore 1088 107 pd pafControl2;
#X obj 770 77 tgl 15 0 empty empty empty 17 7 0 10 #fcfcfc #000000
#000000 0 1;
#X floatatom 770 160 5 0 0 0 - - - 0;
#X msg 770 182 f0 \$1;
#X floatatom 810 160 5 0 0 0 - - - 0;
#X floatatom 851 161 5 0 0 0 - - - 0;
#X msg 810 182 bw \$1;
#X obj 770 239 s p1;
#X msg 851 182 a \$1;
#X obj 965 81 loadbang;
#X obj 770 27 loadbang;
#X msg 770 48 1;
#X msg 919 141 500;
#X floatatom 919 162 5 0 0 0 - - - 0;
#X msg 919 182 cf \$1;
#X floatatom 965 162 5 0 0 0 - - - 0;
#X msg 965 141 1;
#X msg 965 182 wf \$1;
#X floatatom 1010 163 5 0 0 0 - - - 0;
#X msg 1010 142 1;
#X msg 1010 183 sigma \$1;
#X obj 1089 71 tgl 15 0 empty empty empty 17 7 0 10 #fcfcfc #000000
#000000 0 1;
#X obj 1089 24 loadbang;
#X msg 1089 45 1;
#X obj 395 76 abc_gain -127;
#X obj 57 71 abc_gain -20;
#X floatatom 1088 144 5 0 0 0 - - - 0;
#X floatatom 1169 144 5 0 0 0 - - - 0;
#X msg 1088 180 ifreq \$1;
#X msg 1169 179 iamp \$1;
#X obj 1088 240 s p2;
#X text 749 627 abc_pucketttespaf~ is a Phase-Aligned Formant (PAF)
generator. It is based on the following paper by Miller Puckette: http://msp.ucsd.edu/techniques/v0.11/book-html/node96.html
It consists in a two-cosine carrier signal multiplied by a waveshaping
pulse generator. The central frequency cf (Hz) is bordered by two successive
multiples of the fundamental frequency f0 (Hz). The bandwith parameter
(bw \, in Hz) controls the width of the central peak in the spectrum
of the PAF generator. Two waveshaping functions are provided: either
Gaussian (wf = 0) or Cauchy (wf = 1). They are respectively controlled
by sigma and a parameters. PAF synthesis is a basis to generate variable
spectra on a pair of harmonics to build formants that enable to create
sound close to sung vowels thanks to formants. abc_puckettespaf2~ object
adds the possibility of inharmonic generation by adding a variable
phase to the driving phasor controlled by two parameters: ifreq (Hz)
and iamp (between 0 and 1).;
#N canvas 949 146 292 402 envRandControl 0;
#X obj 120 35 loadbang;
#X msg 50 85 0.8;
#X floatatom 50 106 5 0 0 0 - - - 0;
#X msg 50 126 freq \$1;
#X floatatom 120 105 5 0 0 0 - - - 0;
#X floatatom 218 104 5 0 0 0 - - - 0;
#X msg 218 83 1;
#X msg 120 84 0;
#X obj 50 319 outlet;
#X msg 218 124 spread \$1;
#X msg 120 125 rarefaction \$1;
#X connect 0 0 1 0;
#X connect 0 0 7 0;
#X connect 0 0 6 0;
#X connect 1 0 2 0;
#X connect 2 0 3 0;
#X connect 3 0 8 0;
#X connect 4 0 10 0;
#X connect 5 0 9 0;
#X connect 6 0 5 0;
#X connect 7 0 4 0;
#X connect 9 0 8 0;
#X connect 10 0 8 0;
#X restore 156 572 pd envRandControl;
#X obj 292 696 abc_cosrandenv8~;
#X obj 90 621 abc_gain -127;
#X obj 359 863 dac~;
#N canvas 616 151 476 435 mix 0;
#X obj 36 24 inlet~;
#X obj 81 24 inlet~;
#X obj 127 24 inlet~;
#X obj 172 24 inlet~;
#X obj 217 24 inlet~;
#X obj 262 24 inlet~;
#X obj 308 24 inlet~;
#X obj 353 24 inlet~;
#X obj 31 381 outlet~;
#X obj 81 381 outlet~;
#X obj 131 381 outlet~;
#X obj 181 381 outlet~;
#X obj 230 381 outlet~;
#X obj 280 381 outlet~;
#X obj 330 381 outlet~;
#X obj 380 381 outlet~;
#X connect 0 0 15 0;
#X connect 1 0 9 0;
#X connect 2 0 14 0;
#X connect 3 0 10 0;
#X connect 4 0 8 0;
#X connect 5 0 12 0;
#X connect 6 0 13 0;
#X connect 7 0 11 0;
#X restore 297 749 pd mix ---------;
#N canvas 642 121 870 589 convert 0;
#X obj 49 14 inlet;
#X obj 49 35 route pitch vamp vfreq amp cf bw;
#X obj 49 215 line 6000;
#X obj 49 236 * 0.01;
#X obj 49 257 mtof;
#X floatatom 49 278 5 0 0 0 - - - 0;
#X msg 49 298 f0 \$1;
#X obj 49 509 outlet;
#X obj 139 235 / 512;
#X floatatom 139 256 5 0 0 0 - - - 0;
#X floatatom 139 213 5 0 0 0 - - - 0;
#X msg 139 276 iamp \$1;
#X obj 202 214 abc_linedrive~;
#X obj 283 183 sig~;
#X obj 284 247 snapshot~;
#X floatatom 284 268 5 0 0 1 exponential_result - - 0;
#X obj 368 10 loadbang;
#X msg 368 31 1;
#X obj 368 52 metro 50;
#X obj 284 288 * 3;
#X floatatom 284 309 5 0 0 0 - - - 0;
#X msg 284 329 ifreq \$1;
#X obj 470 151 line 0;
#X floatatom 470 172 5 0 0 0 - - - 0;
#X obj 470 192 * 0.8;
#X obj 389 219 abc_linedrive~;
#X obj 470 246 snapshot~;
#X floatatom 470 267 5 0 0 1 exponential_result - - 0;
#X obj 470 287 rmstodb;
#X obj 470 308 - 100;
#X floatatom 470 329 5 0 0 0 - - - 0;
#X obj 470 361 + 15;
#X msg 470 382 gain \$1;
#X floatatom 667 182 5 0 0 0 - - - 0;
#X obj 667 202 mtof;
#X floatatom 667 223 5 0 0 0 - - - 0;
#X msg 668 383 cf \$1;
#X floatatom 728 182 5 0 0 0 - - - 0;
#X obj 728 202 mtof;
#X floatatom 728 223 5 0 0 0 - - - 0;
#X msg 729 383 bw \$1;
#X connect 0 0 1 0;
#X connect 1 0 2 0;
#X connect 1 1 10 0;
#X connect 1 2 13 0;
#X connect 1 3 22 0;
#X connect 1 4 33 0;
#X connect 1 5 37 0;
#X connect 2 0 3 0;
#X connect 3 0 4 0;
#X connect 4 0 5 0;
#X connect 5 0 6 0;
#X connect 6 0 7 0;
#X connect 8 0 9 0;
#X connect 9 0 11 0;
#X connect 10 0 8 0;
#X connect 11 0 7 0;
#X connect 12 1 14 0;
#X connect 13 0 12 1;
#X connect 14 0 15 0;
#X connect 15 0 19 0;
#X connect 16 0 17 0;
#X connect 17 0 18 0;
#X connect 18 0 14 0;
#X connect 18 0 26 0;
#X connect 19 0 20 0;
#X connect 20 0 21 0;
#X connect 21 0 7 0;
#X connect 22 0 23 0;
#X connect 23 0 24 0;
#X connect 24 0 25 1;
#X connect 25 1 26 0;
#X connect 26 0 27 0;
#X connect 27 0 28 0;
#X connect 28 0 29 0;
#X connect 29 0 30 0;
#X connect 30 0 31 0;
#X connect 31 0 32 0;
#X connect 32 0 7 0;
#X connect 33 0 34 0;
#X connect 34 0 35 0;
#X connect 35 0 36 0;
#X connect 36 0 7 0;
#X connect 37 0 38 0;
#X connect 38 0 39 0;
#X connect 39 0 40 0;
#X connect 40 0 7 0;
#X restore 159 468 pd convert;
#X obj 159 442 r paf1;
#X obj 159 489 abc_puckettespaf2~;
#X obj 272 818 abc_chopan8~ --------;
#N canvas 1403 121 870 589 convert 0;
#X obj 49 14 inlet;
#X obj 49 35 route pitch vamp vfreq amp cf bw;
#X obj 49 215 line 6000;
#X obj 49 236 * 0.01;
#X obj 49 257 mtof;
#X floatatom 49 278 5 0 0 0 - - - 0;
#X msg 49 298 f0 \$1;
#X obj 49 509 outlet;
#X obj 139 235 / 512;
#X floatatom 139 256 5 0 0 0 - - - 0;
#X floatatom 139 213 5 0 0 0 - - - 0;
#X msg 139 276 iamp \$1;
#X obj 202 214 abc_linedrive~;
#X obj 283 183 sig~;
#X obj 284 247 snapshot~;
#X floatatom 284 268 5 0 0 1 exponential_result - - 0;
#X obj 368 10 loadbang;
#X msg 368 31 1;
#X obj 368 52 metro 50;
#X obj 284 288 * 3;
#X floatatom 284 309 5 0 0 0 - - - 0;
#X msg 284 329 ifreq \$1;
#X obj 470 151 line 0;
#X floatatom 470 172 5 0 0 0 - - - 0;
#X obj 470 192 * 0.8;
#X obj 389 219 abc_linedrive~;
#X obj 470 246 snapshot~;
#X floatatom 470 267 5 0 0 1 exponential_result - - 0;
#X obj 470 287 rmstodb;
#X obj 470 308 - 100;
#X floatatom 470 329 5 0 0 0 - - - 0;
#X obj 470 361 + 15;
#X msg 470 382 gain \$1;
#X floatatom 667 182 5 0 0 0 - - - 0;
#X obj 667 202 mtof;
#X floatatom 667 223 5 0 0 0 - - - 0;
#X msg 668 383 cf \$1;
#X floatatom 728 182 5 0 0 0 - - - 0;
#X obj 728 202 mtof;
#X floatatom 728 223 5 0 0 0 - - - 0;
#X msg 729 383 bw \$1;
#X connect 0 0 1 0;
#X connect 1 0 2 0;
#X connect 1 1 10 0;
#X connect 1 2 13 0;
#X connect 1 3 22 0;
#X connect 1 4 33 0;
#X connect 1 5 37 0;
#X connect 2 0 3 0;
#X connect 3 0 4 0;
#X connect 4 0 5 0;
#X connect 5 0 6 0;
#X connect 6 0 7 0;
#X connect 8 0 9 0;
#X connect 9 0 11 0;
#X connect 10 0 8 0;
#X connect 11 0 7 0;
#X connect 12 1 14 0;
#X connect 13 0 12 1;
#X connect 14 0 15 0;
#X connect 15 0 19 0;
#X connect 16 0 17 0;
#X connect 17 0 18 0;
#X connect 18 0 14 0;
#X connect 18 0 26 0;
#X connect 19 0 20 0;
#X connect 20 0 21 0;
#X connect 21 0 7 0;
#X connect 22 0 23 0;
#X connect 23 0 24 0;
#X connect 24 0 25 1;
#X connect 25 1 26 0;
#X connect 26 0 27 0;
#X connect 27 0 28 0;
#X connect 28 0 29 0;
#X connect 29 0 30 0;
#X connect 30 0 31 0;
#X connect 31 0 32 0;
#X connect 32 0 7 0;
#X connect 33 0 34 0;
#X connect 34 0 35 0;
#X connect 35 0 36 0;
#X connect 36 0 7 0;
#X connect 37 0 38 0;
#X connect 38 0 39 0;
#X connect 39 0 40 0;
#X connect 40 0 7 0;
#X restore 280 468 pd convert;
#X obj 280 489 abc_puckettespaf2~;
#X obj 280 442 r paf2;
#N canvas 1403 121 870 589 convert 0;
#X obj 49 14 inlet;
#X obj 49 35 route pitch vamp vfreq amp cf bw;
#X obj 49 215 line 6000;
#X obj 49 236 * 0.01;
#X obj 49 257 mtof;
#X floatatom 49 278 5 0 0 0 - - - 0;
#X msg 49 298 f0 \$1;
#X obj 49 509 outlet;
#X obj 139 235 / 512;
#X floatatom 139 256 5 0 0 0 - - - 0;
#X floatatom 139 213 5 0 0 0 - - - 0;
#X msg 139 276 iamp \$1;
#X obj 202 214 abc_linedrive~;
#X obj 283 183 sig~;
#X obj 284 247 snapshot~;
#X floatatom 284 268 5 0 0 1 exponential_result - - 0;
#X obj 368 10 loadbang;
#X msg 368 31 1;
#X obj 368 52 metro 50;
#X obj 284 288 * 3;
#X floatatom 284 309 5 0 0 0 - - - 0;
#X msg 284 329 ifreq \$1;
#X obj 470 151 line 0;
#X floatatom 470 172 5 0 0 0 - - - 0;
#X obj 470 192 * 0.8;
#X obj 389 219 abc_linedrive~;
#X obj 470 246 snapshot~;
#X floatatom 470 267 5 0 0 1 exponential_result - - 0;
#X obj 470 287 rmstodb;
#X obj 470 308 - 100;
#X floatatom 470 329 5 0 0 0 - - - 0;
#X obj 470 361 + 15;
#X msg 470 382 gain \$1;
#X floatatom 667 182 5 0 0 0 - - - 0;
#X obj 667 202 mtof;
#X floatatom 667 223 5 0 0 0 - - - 0;
#X msg 668 383 cf \$1;
#X floatatom 728 182 5 0 0 0 - - - 0;
#X obj 728 202 mtof;
#X floatatom 728 223 5 0 0 0 - - - 0;
#X msg 729 383 bw \$1;
#X connect 0 0 1 0;
#X connect 1 0 2 0;
#X connect 1 1 10 0;
#X connect 1 2 13 0;
#X connect 1 3 22 0;
#X connect 1 4 33 0;
#X connect 1 5 37 0;
#X connect 2 0 3 0;
#X connect 3 0 4 0;
#X connect 4 0 5 0;
#X connect 5 0 6 0;
#X connect 6 0 7 0;
#X connect 8 0 9 0;
#X connect 9 0 11 0;
#X connect 10 0 8 0;
#X connect 11 0 7 0;
#X connect 12 1 14 0;
#X connect 13 0 12 1;
#X connect 14 0 15 0;
#X connect 15 0 19 0;
#X connect 16 0 17 0;
#X connect 17 0 18 0;
#X connect 18 0 14 0;
#X connect 18 0 26 0;
#X connect 19 0 20 0;
#X connect 20 0 21 0;
#X connect 21 0 7 0;
#X connect 22 0 23 0;
#X connect 23 0 24 0;
#X connect 24 0 25 1;
#X connect 25 1 26 0;
#X connect 26 0 27 0;
#X connect 27 0 28 0;
#X connect 28 0 29 0;
#X connect 29 0 30 0;
#X connect 30 0 31 0;
#X connect 31 0 32 0;
#X connect 32 0 7 0;
#X connect 33 0 34 0;
#X connect 34 0 35 0;
#X connect 35 0 36 0;
#X connect 36 0 7 0;
#X connect 37 0 38 0;
#X connect 38 0 39 0;
#X connect 39 0 40 0;
#X connect 40 0 7 0;
#X restore 398 467 pd convert;
#X obj 398 488 abc_puckettespaf2~;
#X obj 398 441 r paf3;
#N canvas 1403 121 870 589 convert 0;
#X obj 49 14 inlet;
#X obj 49 35 route pitch vamp vfreq amp cf bw;
#X obj 49 215 line 6000;
#X obj 49 236 * 0.01;
#X obj 49 257 mtof;
#X floatatom 49 278 5 0 0 0 - - - 0;
#X msg 49 298 f0 \$1;
#X obj 49 509 outlet;
#X obj 139 235 / 512;
#X floatatom 139 256 5 0 0 0 - - - 0;
#X floatatom 139 213 5 0 0 0 - - - 0;
#X msg 139 276 iamp \$1;
#X obj 202 214 abc_linedrive~;
#X obj 283 183 sig~;
#X obj 284 247 snapshot~;
#X floatatom 284 268 5 0 0 1 exponential_result - - 0;
#X obj 368 10 loadbang;
#X msg 368 31 1;
#X obj 368 52 metro 50;
#X obj 284 288 * 3;
#X floatatom 284 309 5 0 0 0 - - - 0;
#X msg 284 329 ifreq \$1;
#X obj 470 151 line 0;
#X floatatom 470 172 5 0 0 0 - - - 0;
#X obj 470 192 * 0.8;
#X obj 389 219 abc_linedrive~;
#X obj 470 246 snapshot~;
#X floatatom 470 267 5 0 0 1 exponential_result - - 0;
#X obj 470 287 rmstodb;
#X obj 470 308 - 100;
#X floatatom 470 329 5 0 0 0 - - - 0;
#X obj 470 361 + 15;
#X msg 470 382 gain \$1;
#X floatatom 667 182 5 0 0 0 - - - 0;
#X obj 667 202 mtof;
#X floatatom 667 223 5 0 0 0 - - - 0;
#X msg 668 383 cf \$1;
#X floatatom 728 182 5 0 0 0 - - - 0;
#X obj 728 202 mtof;
#X floatatom 728 223 5 0 0 0 - - - 0;
#X msg 729 383 bw \$1;
#X connect 0 0 1 0;
#X connect 1 0 2 0;
#X connect 1 1 10 0;
#X connect 1 2 13 0;
#X connect 1 3 22 0;
#X connect 1 4 33 0;
#X connect 1 5 37 0;
#X connect 2 0 3 0;
#X connect 3 0 4 0;
#X connect 4 0 5 0;
#X connect 5 0 6 0;
#X connect 6 0 7 0;
#X connect 8 0 9 0;
#X connect 9 0 11 0;
#X connect 10 0 8 0;
#X connect 11 0 7 0;
#X connect 12 1 14 0;
#X connect 13 0 12 1;
#X connect 14 0 15 0;
#X connect 15 0 19 0;
#X connect 16 0 17 0;
#X connect 17 0 18 0;
#X connect 18 0 14 0;
#X connect 18 0 26 0;
#X connect 19 0 20 0;
#X connect 20 0 21 0;
#X connect 21 0 7 0;
#X connect 22 0 23 0;
#X connect 23 0 24 0;
#X connect 24 0 25 1;
#X connect 25 1 26 0;
#X connect 26 0 27 0;
#X connect 27 0 28 0;
#X connect 28 0 29 0;
#X connect 29 0 30 0;
#X connect 30 0 31 0;
#X connect 31 0 32 0;
#X connect 32 0 7 0;
#X connect 33 0 34 0;
#X connect 34 0 35 0;
#X connect 35 0 36 0;
#X connect 36 0 7 0;
#X connect 37 0 38 0;
#X connect 38 0 39 0;
#X connect 39 0 40 0;
#X connect 40 0 7 0;
#X restore 515 466 pd convert;
#X obj 515 487 abc_puckettespaf2~;
#X obj 515 440 r paf4;
#N canvas 1403 121 870 589 convert 0;
#X obj 49 14 inlet;
#X obj 49 35 route pitch vamp vfreq amp cf bw;
#X obj 49 215 line 6000;
#X obj 49 236 * 0.01;
#X obj 49 257 mtof;
#X floatatom 49 278 5 0 0 0 - - - 0;
#X msg 49 298 f0 \$1;
#X obj 49 509 outlet;
#X obj 139 235 / 512;
#X floatatom 139 256 5 0 0 0 - - - 0;
#X floatatom 139 213 5 0 0 0 - - - 0;
#X msg 139 276 iamp \$1;
#X obj 202 214 abc_linedrive~;
#X obj 283 183 sig~;
#X obj 284 247 snapshot~;
#X floatatom 284 268 5 0 0 1 exponential_result - - 0;
#X obj 368 10 loadbang;
#X msg 368 31 1;
#X obj 368 52 metro 50;
#X obj 284 288 * 3;
#X floatatom 284 309 5 0 0 0 - - - 0;
#X msg 284 329 ifreq \$1;
#X obj 470 151 line 0;
#X floatatom 470 172 5 0 0 0 - - - 0;
#X obj 470 192 * 0.8;
#X obj 389 219 abc_linedrive~;
#X obj 470 246 snapshot~;
#X floatatom 470 267 5 0 0 1 exponential_result - - 0;
#X obj 470 287 rmstodb;
#X obj 470 308 - 100;
#X floatatom 470 329 5 0 0 0 - - - 0;
#X obj 470 361 + 15;
#X msg 470 382 gain \$1;
#X floatatom 667 182 5 0 0 0 - - - 0;
#X obj 667 202 mtof;
#X floatatom 667 223 5 0 0 0 - - - 0;
#X msg 668 383 cf \$1;
#X floatatom 728 182 5 0 0 0 - - - 0;
#X obj 728 202 mtof;
#X floatatom 728 223 5 0 0 0 - - - 0;
#X msg 729 383 bw \$1;
#X connect 0 0 1 0;
#X connect 1 0 2 0;
#X connect 1 1 10 0;
#X connect 1 2 13 0;
#X connect 1 3 22 0;
#X connect 1 4 33 0;
#X connect 1 5 37 0;
#X connect 2 0 3 0;
#X connect 3 0 4 0;
#X connect 4 0 5 0;
#X connect 5 0 6 0;
#X connect 6 0 7 0;
#X connect 8 0 9 0;
#X connect 9 0 11 0;
#X connect 10 0 8 0;
#X connect 11 0 7 0;
#X connect 12 1 14 0;
#X connect 13 0 12 1;
#X connect 14 0 15 0;
#X connect 15 0 19 0;
#X connect 16 0 17 0;
#X connect 17 0 18 0;
#X connect 18 0 14 0;
#X connect 18 0 26 0;
#X connect 19 0 20 0;
#X connect 20 0 21 0;
#X connect 21 0 7 0;
#X connect 22 0 23 0;
#X connect 23 0 24 0;
#X connect 24 0 25 1;
#X connect 25 1 26 0;
#X connect 26 0 27 0;
#X connect 27 0 28 0;
#X connect 28 0 29 0;
#X connect 29 0 30 0;
#X connect 30 0 31 0;
#X connect 31 0 32 0;
#X connect 32 0 7 0;
#X connect 33 0 34 0;
#X connect 34 0 35 0;
#X connect 35 0 36 0;
#X connect 36 0 7 0;
#X connect 37 0 38 0;
#X connect 38 0 39 0;
#X connect 39 0 40 0;
#X connect 40 0 7 0;
#X restore 639 464 pd convert;
#X obj 639 485 abc_puckettespaf2~;
#N canvas 1403 121 870 589 convert 0;
#X obj 49 14 inlet;
#X obj 49 35 route pitch vamp vfreq amp cf bw;
#X obj 49 215 line 6000;
#X obj 49 236 * 0.01;
#X obj 49 257 mtof;
#X floatatom 49 278 5 0 0 0 - - - 0;
#X msg 49 298 f0 \$1;
#X obj 49 509 outlet;
#X obj 139 235 / 512;
#X floatatom 139 256 5 0 0 0 - - - 0;
#X floatatom 139 213 5 0 0 0 - - - 0;
#X msg 139 276 iamp \$1;
#X obj 202 214 abc_linedrive~;
#X obj 283 183 sig~;
#X obj 284 247 snapshot~;
#X floatatom 284 268 5 0 0 1 exponential_result - - 0;
#X obj 368 10 loadbang;
#X msg 368 31 1;
#X obj 368 52 metro 50;
#X obj 284 288 * 3;
#X floatatom 284 309 5 0 0 0 - - - 0;
#X msg 284 329 ifreq \$1;
#X obj 470 151 line 0;
#X floatatom 470 172 5 0 0 0 - - - 0;
#X obj 470 192 * 0.8;
#X obj 389 219 abc_linedrive~;
#X obj 470 246 snapshot~;
#X floatatom 470 267 5 0 0 1 exponential_result - - 0;
#X obj 470 287 rmstodb;
#X obj 470 308 - 100;
#X floatatom 470 329 5 0 0 0 - - - 0;
#X obj 470 361 + 15;
#X msg 470 382 gain \$1;
#X floatatom 667 182 5 0 0 0 - - - 0;
#X obj 667 202 mtof;
#X floatatom 667 223 5 0 0 0 - - - 0;
#X msg 668 383 cf \$1;
#X floatatom 728 182 5 0 0 0 - - - 0;
#X obj 728 202 mtof;
#X floatatom 728 223 5 0 0 0 - - - 0;
#X msg 729 383 bw \$1;
#X connect 0 0 1 0;
#X connect 1 0 2 0;
#X connect 1 1 10 0;
#X connect 1 2 13 0;
#X connect 1 3 22 0;
#X connect 1 4 33 0;
#X connect 1 5 37 0;
#X connect 2 0 3 0;
#X connect 3 0 4 0;
#X connect 4 0 5 0;
#X connect 5 0 6 0;
#X connect 6 0 7 0;
#X connect 8 0 9 0;
#X connect 9 0 11 0;
#X connect 10 0 8 0;
#X connect 11 0 7 0;
#X connect 12 1 14 0;
#X connect 13 0 12 1;
#X connect 14 0 15 0;
#X connect 15 0 19 0;
#X connect 16 0 17 0;
#X connect 17 0 18 0;
#X connect 18 0 14 0;
#X connect 18 0 26 0;
#X connect 19 0 20 0;
#X connect 20 0 21 0;
#X connect 21 0 7 0;
#X connect 22 0 23 0;
#X connect 23 0 24 0;
#X connect 24 0 25 1;
#X connect 25 1 26 0;
#X connect 26 0 27 0;
#X connect 27 0 28 0;
#X connect 28 0 29 0;
#X connect 29 0 30 0;
#X connect 30 0 31 0;
#X connect 31 0 32 0;
#X connect 32 0 7 0;
#X connect 33 0 34 0;
#X connect 34 0 35 0;
#X connect 35 0 36 0;
#X connect 36 0 7 0;
#X connect 37 0 38 0;
#X connect 38 0 39 0;
#X connect 39 0 40 0;
#X connect 40 0 7 0;
#X restore 760 464 pd convert;
#X obj 760 485 abc_puckettespaf2~;
#N canvas 1403 121 870 589 convert 0;
#X obj 49 14 inlet;
#X obj 49 35 route pitch vamp vfreq amp cf bw;
#X obj 49 215 line 6000;
#X obj 49 236 * 0.01;
#X obj 49 257 mtof;
#X floatatom 49 278 5 0 0 0 - - - 0;
#X msg 49 298 f0 \$1;
#X obj 49 509 outlet;
#X obj 139 235 / 512;
#X floatatom 139 256 5 0 0 0 - - - 0;
#X floatatom 139 213 5 0 0 0 - - - 0;
#X msg 139 276 iamp \$1;
#X obj 202 214 abc_linedrive~;
#X obj 283 183 sig~;
#X obj 284 247 snapshot~;
#X floatatom 284 268 5 0 0 1 exponential_result - - 0;
#X obj 368 10 loadbang;
#X msg 368 31 1;
#X obj 368 52 metro 50;
#X obj 284 288 * 3;
#X floatatom 284 309 5 0 0 0 - - - 0;
#X msg 284 329 ifreq \$1;
#X obj 470 151 line 0;
#X floatatom 470 172 5 0 0 0 - - - 0;
#X obj 470 192 * 0.8;
#X obj 389 219 abc_linedrive~;
#X obj 470 246 snapshot~;
#X floatatom 470 267 5 0 0 1 exponential_result - - 0;
#X obj 470 287 rmstodb;
#X obj 470 308 - 100;
#X floatatom 470 329 5 0 0 0 - - - 0;
#X obj 470 361 + 15;
#X msg 470 382 gain \$1;
#X floatatom 667 182 5 0 0 0 - - - 0;
#X obj 667 202 mtof;
#X floatatom 667 223 5 0 0 0 - - - 0;
#X msg 668 383 cf \$1;
#X floatatom 728 182 5 0 0 0 - - - 0;
#X obj 728 202 mtof;
#X floatatom 728 223 5 0 0 0 - - - 0;
#X msg 729 383 bw \$1;
#X connect 0 0 1 0;
#X connect 1 0 2 0;
#X connect 1 1 10 0;
#X connect 1 2 13 0;
#X connect 1 3 22 0;
#X connect 1 4 33 0;
#X connect 1 5 37 0;
#X connect 2 0 3 0;
#X connect 3 0 4 0;
#X connect 4 0 5 0;
#X connect 5 0 6 0;
#X connect 6 0 7 0;
#X connect 8 0 9 0;
#X connect 9 0 11 0;
#X connect 10 0 8 0;
#X connect 11 0 7 0;
#X connect 12 1 14 0;
#X connect 13 0 12 1;
#X connect 14 0 15 0;
#X connect 15 0 19 0;
#X connect 16 0 17 0;
#X connect 17 0 18 0;
#X connect 18 0 14 0;
#X connect 18 0 26 0;
#X connect 19 0 20 0;
#X connect 20 0 21 0;
#X connect 21 0 7 0;
#X connect 22 0 23 0;
#X connect 23 0 24 0;
#X connect 24 0 25 1;
#X connect 25 1 26 0;
#X connect 26 0 27 0;
#X connect 27 0 28 0;
#X connect 28 0 29 0;
#X connect 29 0 30 0;
#X connect 30 0 31 0;
#X connect 31 0 32 0;
#X connect 32 0 7 0;
#X connect 33 0 34 0;
#X connect 34 0 35 0;
#X connect 35 0 36 0;
#X connect 36 0 7 0;
#X connect 37 0 38 0;
#X connect 38 0 39 0;
#X connect 39 0 40 0;
#X connect 40 0 7 0;
#X restore 878 463 pd convert;
#X obj 878 484 abc_puckettespaf2~;
#N canvas 1403 121 870 589 convert 0;
#X obj 49 14 inlet;
#X obj 49 35 route pitch vamp vfreq amp cf bw;
#X obj 49 215 line 6000;
#X obj 49 236 * 0.01;
#X obj 49 257 mtof;
#X floatatom 49 278 5 0 0 0 - - - 0;
#X msg 49 298 f0 \$1;
#X obj 49 509 outlet;
#X obj 139 235 / 512;
#X floatatom 139 256 5 0 0 0 - - - 0;
#X floatatom 139 213 5 0 0 0 - - - 0;
#X msg 139 276 iamp \$1;
#X obj 202 214 abc_linedrive~;
#X obj 283 183 sig~;
#X obj 284 247 snapshot~;
#X floatatom 284 268 5 0 0 1 exponential_result - - 0;
#X obj 368 10 loadbang;
#X msg 368 31 1;
#X obj 368 52 metro 50;
#X obj 284 288 * 3;
#X floatatom 284 309 5 0 0 0 - - - 0;
#X msg 284 329 ifreq \$1;
#X obj 470 151 line 0;
#X floatatom 470 172 5 0 0 0 - - - 0;
#X obj 470 192 * 0.8;
#X obj 389 219 abc_linedrive~;
#X obj 470 246 snapshot~;
#X floatatom 470 267 5 0 0 1 exponential_result - - 0;
#X obj 470 287 rmstodb;
#X obj 470 308 - 100;
#X floatatom 470 329 5 0 0 0 - - - 0;
#X obj 470 361 + 15;
#X msg 470 382 gain \$1;
#X floatatom 667 182 5 0 0 0 - - - 0;
#X obj 667 202 mtof;
#X floatatom 667 223 5 0 0 0 - - - 0;
#X msg 668 383 cf \$1;
#X floatatom 728 182 5 0 0 0 - - - 0;
#X obj 728 202 mtof;
#X floatatom 728 223 5 0 0 0 - - - 0;
#X msg 729 383 bw \$1;
#X connect 0 0 1 0;
#X connect 1 0 2 0;
#X connect 1 1 10 0;
#X connect 1 2 13 0;
#X connect 1 3 22 0;
#X connect 1 4 33 0;
#X connect 1 5 37 0;
#X connect 2 0 3 0;
#X connect 3 0 4 0;
#X connect 4 0 5 0;
#X connect 5 0 6 0;
#X connect 6 0 7 0;
#X connect 8 0 9 0;
#X connect 9 0 11 0;
#X connect 10 0 8 0;
#X connect 11 0 7 0;
#X connect 12 1 14 0;
#X connect 13 0 12 1;
#X connect 14 0 15 0;
#X connect 15 0 19 0;
#X connect 16 0 17 0;
#X connect 17 0 18 0;
#X connect 18 0 14 0;
#X connect 18 0 26 0;
#X connect 19 0 20 0;
#X connect 20 0 21 0;
#X connect 21 0 7 0;
#X connect 22 0 23 0;
#X connect 23 0 24 0;
#X connect 24 0 25 1;
#X connect 25 1 26 0;
#X connect 26 0 27 0;
#X connect 27 0 28 0;
#X connect 28 0 29 0;
#X connect 29 0 30 0;
#X connect 30 0 31 0;
#X connect 31 0 32 0;
#X connect 32 0 7 0;
#X connect 33 0 34 0;
#X connect 34 0 35 0;
#X connect 35 0 36 0;
#X connect 36 0 7 0;
#X connect 37 0 38 0;
#X connect 38 0 39 0;
#X connect 39 0 40 0;
#X connect 40 0 7 0;
#X restore 995 462 pd convert;
#X obj 995 483 abc_puckettespaf2~;
#X obj 639 438 r paf5;
#X obj 760 438 r paf6;
#X obj 878 437 r paf7;
#X obj 995 436 r paf8;
#X obj 60 480 r evt;
#X floatatom 60 501 5 0 0 0 - - - 24;
#N canvas 112 38 1400 879 meaLuxControl 0;
#X msg 1147 185 \; paf1 pitch 5100 1000 \; paf1 vamp 0 \; paf1 vfreq
0 \; paf1 amp 0 \; paf1 cf 75 \; paf1 bw 56 \; paf2 pitch 5900 1000
\; paf2 vamp 0 \; paf2 vfreq 0 \; paf2 amp 0 \; paf2 cf 80 \; paf2
bw 51 \; paf3 pitch 6200 1000 \; paf3 vamp 0 \; paf3 vfreq 0 \; paf3
amp 0 \; paf3 cf 82 \; paf3 bw 58 \; paf4 pitch 7000 1000 \; paf4 vamp
0 \; paf4 vfreq 0 \; paf4 amp 0 \; paf4 cf 86 \; paf4 bw 62 \; paf5
pitch 3200 1000 \; paf5 vamp 0 \; paf5 vfreq 0 \; paf5 amp 0 \; paf5
cf 36 \; paf5 bw 46 \; paf6 pitch 9100 1000 \; paf6 vamp 0 \; paf6
vfreq 0 \; paf6 amp 0 \; paf6 cf 0 \; paf6 bw 88 \; paf7 pitch 7000
1000 \; paf7 vamp 0 \; paf7 vfreq 0 \; paf7 amp 0 \; paf7 cf 81 \;
paf7 bw 88 \; paf8 pitch 7300 1000 \; paf8 vamp 0 \; paf8 vfreq 0 \;
paf8 amp 0 \; paf8 cf 80 \; paf8 bw 88 \; evt 1 \;;
#X msg 1014 211 \; paf1 amp 102 3000 \; paf2 amp 102 3000 \; paf3 amp
102 3000 \; paf4 amp 60 3000 \; paf5 amp 135 3000 \; paf6 amp 81 3000
\;;
#X msg 925 314 \; paf1 pitch 4800 1000 \; paf1 vamp 0 \; paf1 vfreq
0 \; paf1 amp 102 \; paf1 cf 64 \; paf1 bw 56 \; paf2 pitch 5900 1000
\; paf2 vamp 0 \; paf2 vfreq 0 \; paf2 amp 102 \; paf2 cf 66 \; paf2
bw 51 \; paf3 pitch 6300 1000 \; paf3 vamp 0 \; paf3 vfreq 0 \; paf3
amp 102 \; paf3 cf 72 \; paf3 bw 58 \; paf4 pitch 4800 1000 \; paf4
vamp 0 \; paf4 vfreq 0 \; paf4 amp 102 \; paf4 cf 68 \; paf4 bw 62
\; paf5 pitch 3200 1000 \; paf5 vamp 0 \; paf5 vfreq 0 \; paf5 amp
135 \; paf5 cf 36 \; paf5 bw 46 \; paf6 pitch 9100 1000 \; paf6 vamp
4 \; paf6 vfreq 111 \; paf6 amp 81 \; paf6 cf 96 \; paf6 bw 88 \; paf7
pitch 7000 1000 \; paf7 vamp 2 \; paf7 vfreq 108 \; paf7 amp 0 \; paf7
cf 81 \; paf7 bw 88 \; paf8 pitch 7300 1000 \; paf8 vamp 0 \; paf8
vfreq 0 \; paf8 amp 0 \; paf8 cf 80 \; paf8 bw 88 \; evt 2 \;;
#X msg 747 316 \; paf4 amp 60 \; paf5 pitch 2900 1000 \; paf5 vamp
3 \; paf5 vfreq 41 \; paf5 cf 52 \; paf5 bw 55 \; paf6 pitch 8200 1000
\; paf6 amp 90 \; paf6 cf 103 \; paf7 pitch 7300 1000 \; paf7 cf 80
\; paf7 bw 88 \; paf8 amp 100 \; paf8 cf 80 \; paf8 bw 88 \; evt 3
\;;
#X msg 586 406 \; paf1 pitch 4000 1000 \; paf1 vamp 0 \; paf1 vfreq
0 \; paf1 amp 108 \; paf1 cf 53 \; paf1 bw 48 \; paf2 pitch 5500 1000
\; paf2 vamp 0 \; paf2 vfreq 0 \; paf2 amp 108 \; paf2 cf 59 \; paf2
bw 45 \; paf3 amp 108 \; paf3 cf 71 \; paf3 bw 67 \; paf4 pitch 7800
1000 \; paf4 amp 108 \; paf4 cf 83 \; paf4 bw 107 \; evt 4 \;;
#X msg 428 463 \; paf1 pitch 5000 1000 \; paf1 vamp 0 \; paf1 vfreq
0 \; paf1 amp 110 \; paf1 cf 58 \; paf1 bw 60 \; paf2 pitch 5800 1000
\; paf2 vamp 0 \; paf2 vfreq 0 \; paf2 amp 110 \; paf2 cf 63 \; paf2
bw 53 \; paf3 pitch 6300 1000 \; paf3 vamp 0 \; paf3 vfreq 0 \; paf3
amp 110 \; paf3 cf 70 \; paf3 bw 56 \; paf4 pitch 6700 1000 \; paf4
vamp 0 \; paf4 vfreq 0 \; paf4 amp 110 \; paf4 cf 73 \; paf4 bw 65
\; paf5 pitch 6300 1000 \; paf5 vamp 3 \; paf5 vfreq 41 \; paf5 amp
87 \; paf5 cf 70 \; paf5 bw 73 \; paf6 pitch 9400 1000 \; paf6 vamp
127 \; paf6 vfreq 127 \; paf6 amp 98 \; paf6 cf 103 \; paf6 bw 88 \;
paf8 pitch 7300 1000 \; paf8 vamp 2 \; paf8 vfreq 108 \; paf8 amp 60
\; paf8 cf 80 \; paf8 bw 88 \; evt 5 \;;
#X msg 257 544 \; paf1 pitch 7400 2000 \; paf1 vamp 0 \; paf1 vfreq
0 \; paf1 amp 117 \; paf1 cf 88 \; paf1 bw 0 \; paf2 pitch 8000 2000
\; paf2 vamp 0 \; paf2 vfreq 0 \; paf2 amp 117 \; paf2 cf 92 \; paf2
bw 0 \; paf3 pitch 8500 2000 \; paf3 vamp 0 \; paf3 vfreq 0 \; paf3
amp 117 \; paf3 cf 93 \; paf3 bw 0 \; paf4 pitch 8800 2000 \; paf4
vamp 0 \; paf4 vfreq 0 \; paf4 amp 117 \; paf4 cf 93 \; paf4 bw 0 \;
paf5 pitch 6300 2000 \; paf5 vamp 3 \; paf5 vfreq 41 \; paf5 amp 87
\; paf5 cf 70 \; paf5 bw 73 \; paf6 pitch 9400 2000 \; paf6 vamp 127
\; paf6 vfreq 127 \; paf6 amp 98 \; paf6 cf 103 \; paf6 bw 88 \; paf7
pitch 7100 2000 \; paf7 vamp 127 \; paf7 vfreq 127 \; paf7 amp 127
\; paf6 cf 114 \; paf6 bw 60 \; paf8 pitch 7300 2000 \; paf8 vamp 2
\; paf8 vfreq 108 \; paf8 amp 60 \; paf8 cf 80 \; paf8 bw 88 \; evt
6 \;;
#X msg 257 1104;
#X msg 116 634 \; paf1 amp 0 3000 \; paf2 amp 0 3000 \; paf3 amp 0
3000 \; paf4 amp 0 3000 \; paf5 amp 0 3000 \; paf6 amp 0 3000 \; paf7
amp 0 3000 \; paf8 amp 0 3000;
#X obj 1014 93 loadbang;
#X obj 1014 114 t b b b;
#X obj 1014 181 del 1500;
#X obj 897 190 del 10000;
#X obj 897 211 t b b;
#X obj 720 256 del 7000;
#X obj 720 277 t b b;
#X obj 559 334 del 7000;
#X obj 559 355 t b b;
#X obj 401 404 del 7000;
#X obj 401 425 t b b;
#X obj 217 477 del 9000;
#X obj 217 498 t b b b;
#X obj 116 594 del 10000;
#X obj 57 562 del 13000;
#X obj 1095 44 bng 50 250 50 0 empty empty empty 17 7 0 10 #fcfcfc
#000000 #000000;
#X connect 6 0 7 0;
#X connect 9 0 10 0;
#X connect 10 0 12 0;
#X connect 10 1 11 0;
#X connect 10 2 0 0;
#X connect 11 0 1 0;
#X connect 12 0 13 0;
#X connect 13 0 14 0;
#X connect 13 1 2 0;
#X connect 14 0 15 0;
#X connect 15 0 16 0;
#X connect 15 1 3 0;
#X connect 16 0 17 0;
#X connect 17 0 18 0;
#X connect 17 1 4 0;
#X connect 18 0 19 0;
#X connect 19 0 20 0;
#X connect 19 1 5 0;
#X connect 20 0 21 0;
#X connect 21 0 23 0;
#X connect 21 1 22 0;
#X connect 21 2 6 0;
#X connect 22 0 8 0;
#X connect 23 0 24 0;
#X connect 24 0 10 0;
#X restore 60 537 pd meaLuxControl;
#X text 748 605 DESCRIPTION AND CONTROLS;
#X obj 255 305 abc_stereoout -20;
#X obj 610 305 abc_stereoout -20;
#X connect 3 0 4 0;
#X connect 5 0 6 0;
#X connect 5 0 7 0;
#X connect 6 0 8 0;
#X connect 7 1 81 0;
#X connect 8 1 81 1;
#X connect 9 0 10 0;
#X connect 9 0 12 0;
#X connect 10 0 13 0;
#X connect 11 0 12 0;
#X connect 11 0 13 0;
#X connect 12 1 82 0;
#X connect 13 1 82 1;
#X connect 14 0 17 0;
#X connect 14 1 19 0;
#X connect 14 2 20 0;
#X connect 15 0 41 0;
#X connect 15 1 42 0;
#X connect 16 0 14 0;
#X connect 17 0 18 0;
#X connect 18 0 22 0;
#X connect 19 0 21 0;
#X connect 20 0 23 0;
#X connect 21 0 22 0;
#X connect 23 0 22 0;
#X connect 24 0 27 0;
#X connect 24 0 31 0;
#X connect 24 0 34 0;
#X connect 25 0 26 0;
#X connect 26 0 16 0;
#X connect 27 0 28 0;
#X connect 28 0 29 0;
#X connect 29 0 22 0;
#X connect 30 0 32 0;
#X connect 31 0 30 0;
#X connect 32 0 22 0;
#X connect 33 0 35 0;
#X connect 34 0 33 0;
#X connect 35 0 22 0;
#X connect 36 0 15 0;
#X connect 37 0 38 0;
#X connect 38 0 36 0;
#X connect 39 0 12 0;
#X connect 39 0 13 0;
#X connect 40 0 7 0;
#X connect 40 0 8 0;
#X connect 41 0 43 0;
#X connect 42 0 44 0;
#X connect 43 0 45 0;
#X connect 44 0 45 0;
#X connect 47 0 48 0;
#X connect 48 1 51 0;
#X connect 48 2 51 1;
#X connect 48 3 51 2;
#X connect 48 4 51 3;
#X connect 48 5 51 4;
#X connect 48 6 51 5;
#X connect 48 7 51 6;
#X connect 48 8 51 7;
#X connect 49 0 55 0;
#X connect 51 0 55 1;
#X connect 51 1 55 2;
#X connect 51 2 55 3;
#X connect 51 3 55 4;
#X connect 51 4 55 5;
#X connect 51 5 55 6;
#X connect 51 6 55 7;
#X connect 51 7 55 8;
#X connect 52 0 54 0;
#X connect 53 0 52 0;
#X connect 54 1 48 1;
#X connect 55 1 50 0;
#X connect 55 2 50 1;
#X connect 56 0 57 0;
#X connect 57 1 48 2;
#X connect 58 0 56 0;
#X connect 59 0 60 0;
#X connect 60 1 48 3;
#X connect 61 0 59 0;
#X connect 62 0 63 0;
#X connect 63 1 48 4;
#X connect 64 0 62 0;
#X connect 65 0 66 0;
#X connect 66 1 48 5;
#X connect 67 0 68 0;
#X connect 68 1 48 6;
#X connect 69 0 70 0;
#X connect 70 1 48 7;
#X connect 71 0 72 0;
#X connect 72 1 48 8;
#X connect 73 0 65 0;
#X connect 74 0 67 0;
#X connect 75 0 69 0;
#X connect 76 0 71 0;
#X connect 77 0 78 0;
