#N canvas 217 323 1101 737 10;
#X obj 14 6 cnv 15 600 25 empty empty abc_xy_scope_m 20 12 0 18 #606060 #fcfcfc 0;
#X obj 13 698 abc_helpcredit;
#X obj 14 32 cnv 15 600 25 empty empty Visualization_of_an_XY_pair_of_signals 20 12 0 12 #606060 #fcfcfc 0;
#X text 18 68 DESCRIPTION;
#X text 389 65 CONTROLS;
#X msg 379 393 speed \$1;
#X obj 379 416 abc_2d_encoder1_m;
#X obj 391 472 abc_2d_scope1_m;
#X obj 275 397 loadbang;
#X msg 275 438 bgcolor 0 0 1;
#X obj 478 385 sig~ 1;
#X msg 276 417 gridcolor 0 0 0;
#X obj 231 282 abc_upanddown;
#X obj 231 260 tgl 16 0 empty empty empty 0 -8 0 10 #fcfcfc #000000 #000000 0 1;
#X obj 231 216 loadbang;
#X msg 231 237 1;
#X msg 167 459 bgcolor \$1 \$1 \$1;
#X msg 276 459 fgcolor 0 0 1;
#X obj 230 335 * 5;
#X obj 229 356 + 0.001;
#X obj 55 421 tgl 15 0 empty empty DSP_on/off 17 7 0 10 #dfdfdf #000000 #000000 0 1;
#X msg 55 451 \; pd dsp \$1 \;;
#X obj 896 367 snake~ in 5;
#X text 132 500 control messages of cyclone/scope~ object, f 22;
#X obj 854 296 tgl 16 0 empty empty empty 0 -8 0 10 #fcfcfc #000000 #000000 0 1;
#X obj 854 317 sig~;
#X obj 886 296 tgl 16 0 empty empty empty 0 -8 0 10 #fcfcfc #000000 #000000 0 1;
#X obj 886 317 sig~;
#X obj 918 295 tgl 16 0 empty empty empty 0 -8 0 10 #fcfcfc #000000 #000000 0 1;
#X obj 918 316 sig~;
#X obj 950 295 tgl 16 0 empty empty empty 0 -8 0 10 #fcfcfc #000000 #000000 0 1;
#X obj 950 316 sig~;
#X obj 982 295 tgl 16 0 empty empty empty 0 -8 0 10 #fcfcfc #000000 #000000 0 1;
#X obj 982 316 sig~;
#X obj 809 425 abc_2d_scope2_m;
#X text 811 272 combining elementary spatial harmonics;
#X text 18 91 abc_ambi_scope_m is a multichannel graphic abstraction that enables to visualize an ambisonic sound field. It receives the visualization signals from abc_2d_scope1_m...abc_2d_scope7_m multichannel objects. It requires the installation of cyclone library (this can be done from the help menu of PureData);
#X text 389 90 The control parameters are the ones of scope~ object in cyclone library \, especially colour parameters (gridcolor \, bgcolor \, fgcolor \, etc. messages);
#X obj 911 503 abc_ambi_scope2_m;
#X text 343 289 abc_ambi_scope1_m \, abc_ambi_scope2_m \, ... \, abc_ambiscope7_m include the necessary abc_2d_scope1_m \, abc_2d_scope2_m \, ... \, abc_2d_scope7_m object to enable direct visualization of the ambisonic sound field at the corresponding ambisonic order (1 to 7);
#X obj 506 502 abc_ambi_scope1_m;
#X obj 759 503 abc_xy_scope_m;
#X obj 276 500 abc_xy_scope_m;
#X connect 5 0 6 0;
#X connect 6 1 7 1;
#X connect 6 1 40 1;
#X connect 7 1 42 1;
#X connect 8 0 11 0;
#X connect 8 0 9 0;
#X connect 8 0 17 0;
#X connect 9 0 42 0;
#X connect 10 0 6 1;
#X connect 11 0 42 0;
#X connect 12 0 16 0;
#X connect 12 0 18 0;
#X connect 13 0 12 0;
#X connect 14 0 15 0;
#X connect 15 0 13 0;
#X connect 16 0 40 0;
#X connect 16 0 42 0;
#X connect 17 0 42 0;
#X connect 18 0 19 0;
#X connect 19 0 5 0;
#X connect 20 0 21 0;
#X connect 22 0 34 1;
#X connect 22 0 38 1;
#X connect 24 0 25 0;
#X connect 25 0 22 0;
#X connect 26 0 27 0;
#X connect 27 0 22 1;
#X connect 28 0 29 0;
#X connect 29 0 22 2;
#X connect 30 0 31 0;
#X connect 31 0 22 3;
#X connect 32 0 33 0;
#X connect 33 0 22 4;
#X connect 34 1 41 1;
