#N canvas 430 90 756 677 10;
#X obj 11 -43 cnv 15 500 25 empty empty abc_env_noise~ 20 12 0 18 #606060
#fcfcfc 0;
#X obj 10 574 abc_helpcredit;
#X obj 11 -17 cnv 15 500 25 empty empty Enveloped_noise_with_rarefaction
20 12 0 12 #606060 #fcfcfc 0;
#X obj 213 477 tgl 15 0 empty empty DSP_on/off 17 7 0 10 #fcfcfc #000000
#000000 0 1;
#X msg 213 505 \; pd dsp \$1 \;;
#X text 169 84 CONTROLS;
#X text 166 25 DESCRIPTION;
#X obj 37 386 abc_meter;
#X obj 37 192 abc_env_noise 200 0.3;
#X text 169 98 -argument 1 is the grain size (envelope period in milliseconds)
;
#X text 167 46 The abc_env_noise~ is a noise generator enveloped with
a positive cosine shape (Hanning window). It uses rarefaction.;
#X text 168 130 -argument 2 is the rarefaction between 0 and 1;
#X obj 381 192 abc_env_noise 123 0.4;
#X obj 382 386 abc_meter;
#X obj 107 278 *~ 0.1;
#X obj 277 280 *~ 0.1;
#X obj 136 386 abc_stereoout -15;
#X connect 3 0 4 0;
#X connect 8 0 7 0;
#X connect 8 0 14 0;
#X connect 12 0 13 0;
#X connect 12 0 15 0;
#X connect 14 0 16 0;
#X connect 15 0 16 1;
#X coords 0 677 1 676 85 60 0;
