#N canvas 206 53 732 387 12;
#X obj 137 98 abc_simplefmburst;
#X obj 69 188 abc_meter;
#X obj 11 8 cnv 15 500 25 empty empty abc_simplefmburst 20 12 0 18
-99865 -262144 0;
#X obj 11 34 cnv 15 500 25 empty empty Simple_and_short_(110_milliseconds)_FM_synthesis
20 12 0 12 -99865 -262144 0;
#X obj 11 352 cnv 15 480 25 empty empty abclibrary|Alain_Bonardi_&_Paul_Goutmann_2019-2021_CICM|University_Paris_8
20 12 0 10 -99865 -262144 0;
#X obj 415 254 tgl 15 0 empty empty DSP_on/off 17 7 0 10 -262144 -1
-1 0 1;
#X msg 415 282 \; pd dsp \$1 \;;
#X text 272 93 abc_simplefmburst is an abstraction that generates a
short (110 milliseconds) FM synthetized sound (carrier at 440 Hz \,
modulator at 220 Hz \, modulation index equals 5). There is no default
value in the bpatcher;
#X obj 149 188 abc_stereoout -15;
#X obj 137 138 *~ 0.3;
#X connect 0 0 9 0;
#X connect 5 0 6 0;
#X connect 9 0 1 0;
#X connect 9 0 8 0;
#X connect 9 0 8 1;
