#N canvas 0 41 1822 796 10;
#X obj 11 25 cnv 15 500 25 empty empty abc_addsynthN~ 20 12 0 18 -99865
-262144 0;
#X obj 10 753 abc_helpcredit;
#X obj 11 51 cnv 15 500 25 empty empty Additive_synthesis_generators
20 12 0 12 -99865 -262144 0;
#X obj 644 693 tgl 15 0 empty empty DSP_on/off 17 7 0 10 -262144 -1
-1 0 1;
#X msg 644 721 \; pd dsp \$1 \;;
#X text 935 23 CONTROLS;
#X text 539 25 DESCRIPTION;
#X obj 322 475 abc_meter;
#X obj 714 499 abc_meter;
#X obj 570 220 abc_gain -127;
#X obj 746 253 loadbang;
#X floatatom 680 350 5 0 0 0 - - -;
#X msg 680 370 f0 \$1;
#X floatatom 724 350 5 0 0 0 - - -;
#X msg 724 329 1;
#X floatatom 982 350 5 0 0 0 - - -;
#X msg 982 329 10;
#X msg 1012 329 15;
#X msg 1044 329 0;
#X obj 58 296 abc_addsynth1;
#X msg 724 370 fmult-0 \$1;
#X obj 436 420 *~ 0.15;
#X obj 777 450 abc_addsynth2~;
#X msg 680 329 330;
#X floatatom 800 350 5 0 0 0 - - -;
#X msg 800 329 2;
#X msg 800 370 fmult-1 \$1;
#X floatatom 884 350 5 0 0 0 - - -;
#X msg 884 329 10;
#X msg 914 329 15;
#X msg 946 329 0;
#X msg 884 370 fbeat-0 \$1;
#X msg 982 370 fbeat-1 \$1;
#X floatatom 1085 350 5 0 0 0 - - -;
#X floatatom 1161 350 5 0 0 0 - - -;
#X msg 1085 370 amp-0 \$1;
#X msg 1161 370 amp-1 \$1;
#X msg 1085 329 0;
#X msg 1161 329 -6;
#X obj 83 217 loadbang;
#X msg 39 264 gain -127;
#X obj 1331 104 abc_addsynth11;
#X obj 1331 74 r s11;
#X obj 1238 534 loadbang;
#X obj 1428 547 abc_cosrandenv11~ -------------;
#X obj 1438 586 abc_chopan11~ -------------;
#X msg 109 264 fbeat-0 10;
#X text 540 45 abc_addsynth1~ \, abc_addsynth2~ \, ... objects enable
additive synthesis by adding elementary sound modules.;
#X text 935 43 Each module includes two oscillators that start at the
same frequency but can be tuned finely thanks to fbeat frequencies
(fbeat is the frequential increment of the second oscillator).;
#X text 935 151 The amplitudes of the partials (in dB) can also be
set individually thanks to amp00 \, amp01 \, etc. messages.;
#X text 935 96 f0 is the general fundamental frequency. fmult00 \,
fmult01 \, etc. are the multipliers of f0 to get the frequencies of
the partials. For an harmonic spectrum \, one can use fmult00 = 1 \,
fmult01 = 2 \, fmult02 = 3 etc.;
#X text 936 185 gain (in dB) is the general control of the amplitude.
;
#X obj 1421 613 abc_meter;
#X obj 1503 631 abc_stereoout -30;
#X msg 1238 559 \; s11 gain -10 \; s11 f0 440 \; s11 fmult-0 0.56 \;
s11 fmult-1 0.56 \; s11 fmult-2 0.92 \; s11 fmult-3 0.92 \; s11 fmult-4
1.19 \; s11 fmult-5 1.7 \; s11 fmult-6 2 \; s11 fmult-7 2.74 \; s11
fmult-8 3 \; s11 fmult-9 3.76 \; s11 fmult10 4.07 \; s11 fbeat-1 1
\; s11 fbeat-3 1.7 \;;
#X obj 779 499 abc_stereoout -15;
#X obj 391 475 abc_stereoout -15;
#X connect 3 0 4 0;
#X connect 9 0 22 0;
#X connect 10 0 23 0;
#X connect 10 0 14 0;
#X connect 10 0 25 0;
#X connect 10 0 37 0;
#X connect 10 0 38 0;
#X connect 11 0 12 0;
#X connect 12 0 22 0;
#X connect 13 0 20 0;
#X connect 14 0 13 0;
#X connect 15 0 32 0;
#X connect 16 0 15 0;
#X connect 17 0 15 0;
#X connect 18 0 15 0;
#X connect 19 1 21 0;
#X connect 20 0 22 0;
#X connect 21 0 7 0;
#X connect 21 0 56 0;
#X connect 21 0 56 1;
#X connect 22 1 8 0;
#X connect 22 1 55 0;
#X connect 22 2 55 1;
#X connect 23 0 11 0;
#X connect 24 0 26 0;
#X connect 25 0 24 0;
#X connect 26 0 22 0;
#X connect 27 0 31 0;
#X connect 28 0 27 0;
#X connect 29 0 27 0;
#X connect 30 0 27 0;
#X connect 31 0 22 0;
#X connect 32 0 22 0;
#X connect 33 0 35 0;
#X connect 34 0 36 0;
#X connect 35 0 22 0;
#X connect 36 0 22 0;
#X connect 37 0 33 0;
#X connect 38 0 34 0;
#X connect 39 0 40 0;
#X connect 39 0 46 0;
#X connect 40 0 19 0;
#X connect 41 1 44 1;
#X connect 41 2 44 2;
#X connect 41 3 44 3;
#X connect 41 4 44 4;
#X connect 41 5 44 5;
#X connect 41 6 44 6;
#X connect 41 7 44 7;
#X connect 41 8 44 8;
#X connect 41 9 44 9;
#X connect 41 10 44 10;
#X connect 41 11 44 11;
#X connect 42 0 41 0;
#X connect 43 0 54 0;
#X connect 44 1 45 1;
#X connect 44 2 45 2;
#X connect 44 3 45 3;
#X connect 44 4 45 4;
#X connect 44 5 45 5;
#X connect 44 6 45 6;
#X connect 44 7 45 7;
#X connect 44 8 45 8;
#X connect 44 9 45 9;
#X connect 44 10 45 10;
#X connect 44 11 45 11;
#X connect 45 1 52 0;
#X connect 45 1 53 0;
#X connect 45 2 53 1;
#X connect 46 0 19 0;
#X coords 0 796 1 795 85 60 0;
