#N canvas 16 25 1187 811 10;
#X obj 11 21 cnv 15 500 25 empty empty abc_generator~ 20 12 0 18 -99865
-262144 0;
#X obj 11 47 cnv 15 500 25 empty empty Simple_multi-source_generator
20 12 0 12 -99865 -262144 0;
#X obj 216 677 tgl 15 0 empty empty DSP_on/off 17 7 0 10 -262144 -1
-1 1 1;
#X msg 216 705 \; pd dsp \$1 \;;
#X text 539 21 DESCRIPTION;
#X obj 14 768 cnv 15 480 25 empty empty abclibrary|Alain_Bonardi_&_Paul_Goutmann_2019-2021_CICM|University_Paris_8
20 12 0 10 -99865 -262144 0;
#X obj 117 505 abc_meter;
#X obj 192 506 dac~;
#X text 540 41 abc_generator~ enables the generation of various sounds
(noise \, sinus \, phasor). Generated sounds are pulsed at a certain
frequency (pulse rate) and have a pulse ratio (or duty: ratio between
sound and silence);
#X obj 117 452 abc_generator~;
#X obj 16 118 abc_gain -127;
#X obj 117 422 r gen;
#X obj 265 352 s gen;
#X obj 167 266 tgl 15 0 empty empty empty 17 7 0 10 -262144 -1 -1 0
1;
#X obj 264 266 tgl 15 0 empty empty empty 17 7 0 10 -262144 -1 -1 0
1;
#X obj 355 265 tgl 15 0 empty empty empty 17 7 0 10 -262144 -1 -1 1
1;
#X obj 129 125 hsl 128 15 50 5000 0 0 empty empty phasorfreq -2 -8
0 10 -262144 -1 -1 0 1;
#X floatatom 126 145 5 0 0 0 - - -;
#X msg 126 166 phasorfreq \$1;
#X obj 269 125 hsl 128 15 50 5000 0 0 empty empty noisecutoff -2 -8
0 10 -262144 -1 -1 0 1;
#X floatatom 266 145 5 0 0 0 - - -;
#X msg 266 166 noisecutoff \$1;
#X obj 408 124 hsl 128 15 50 5000 0 0 empty empty sinusfreq -2 -8 0
10 -262144 -1 -1 0 1;
#X floatatom 405 144 5 0 0 0 - - -;
#X msg 405 165 sinusfreq \$1;
#X obj 266 217 s gen;
#X obj 566 265 hsl 128 15 0 10 0 0 empty empty empty -2 -8 0 10 -262144
-1 -1 0 1;
#X obj 563 285 int;
#X floatatom 563 306 5 0 0 0 - - -;
#X obj 703 264 hsl 128 15 0 10 0 0 empty empty empty -2 -8 0 10 -262144
-1 -1 0 1;
#X obj 700 284 int;
#X floatatom 700 305 5 0 0 0 - - -;
#X obj 840 263 hsl 128 15 0 10 0 0 empty empty empty -2 -8 0 10 -262144
-1 -1 0 1;
#X obj 837 283 int;
#X floatatom 837 304 5 0 0 0 - - -;
#X obj 700 378 s gen;
#X msg 563 326 phasorpulseratio \$1;
#X msg 700 325 noisepulseratio \$1;
#X msg 837 324 sinuspulseratio \$1;
#X obj 563 123 hsl 128 15 0.01 20 0 0 empty empty empty -2 -8 0 10
-262144 -1 -1 0 1;
#X floatatom 560 143 5 0 0 0 - - -;
#X floatatom 697 142 5 0 0 0 - - -;
#X floatatom 834 141 5 0 0 0 - - -;
#X obj 697 215 s gen;
#X msg 560 163 phasorpulserate \$1;
#X msg 697 162 noisepulserate \$1;
#X msg 834 161 sinuspulserate \$1;
#X obj 700 123 hsl 128 15 0.01 20 0 0 empty empty empty -2 -8 0 10
-262144 -1 -1 0 1;
#X obj 837 122 hsl 128 15 0.01 20 0 0 empty empty empty -2 -8 0 10
-262144 -1 -1 0 1;
#X obj 414 437 abc_generator;
#X obj 414 397 r gen2;
#X obj 1055 624 abc_meter;
#X obj 1130 625 dac~;
#X obj 811 602 loadbang;
#X msg 167 293 phasoron \$1;
#X msg 264 293 noiseon \$1;
#X msg 355 292 sinuson \$1;
#X msg 811 623 \; gen2 gain -10 \; gen2 phasorfreq 330 \; gen2 sinusfreq
880 \; gen2 noisepulserate 1 \; gen2 phasorpulserate 1.01 \; gen2 sinuspulserate
0.99 \; gen2 noisepulseratio 3 \; gen2 phasorpulseratio 4 \; gen2 sinuspulseratio
2 \; gen2 noiseon 1 \; gen2 phasoron 1 \; gen2 sinuson 1 \;;
#X connect 2 0 3 0;
#X connect 9 1 6 0;
#X connect 9 1 7 0;
#X connect 9 1 7 1;
#X connect 10 0 12 0;
#X connect 11 0 9 0;
#X connect 13 0 54 0;
#X connect 14 0 55 0;
#X connect 15 0 56 0;
#X connect 16 0 17 0;
#X connect 17 0 18 0;
#X connect 18 0 25 0;
#X connect 19 0 20 0;
#X connect 20 0 21 0;
#X connect 21 0 25 0;
#X connect 22 0 23 0;
#X connect 23 0 24 0;
#X connect 24 0 25 0;
#X connect 26 0 27 0;
#X connect 27 0 28 0;
#X connect 28 0 36 0;
#X connect 29 0 30 0;
#X connect 30 0 31 0;
#X connect 31 0 37 0;
#X connect 32 0 33 0;
#X connect 33 0 34 0;
#X connect 34 0 38 0;
#X connect 36 0 35 0;
#X connect 37 0 35 0;
#X connect 38 0 35 0;
#X connect 39 0 40 0;
#X connect 40 0 44 0;
#X connect 41 0 45 0;
#X connect 42 0 46 0;
#X connect 44 0 43 0;
#X connect 45 0 43 0;
#X connect 46 0 43 0;
#X connect 47 0 41 0;
#X connect 48 0 42 0;
#X connect 49 1 52 0;
#X connect 49 1 52 1;
#X connect 49 1 51 0;
#X connect 50 0 49 0;
#X connect 53 0 57 0;
#X connect 54 0 12 0;
#X connect 55 0 12 0;
#X connect 56 0 12 0;
#X coords 0 811 1 810 85 60 0;
