#N canvas 64 38 1335 784 10;
#X obj 9 13 cnv 15 500 25 empty empty abc_cosrandenvN~ 20 12 0 18 #606060
#fcfcfc 0;
#X obj 8 741 abc_helpcredit;
#X obj 9 39 cnv 15 500 25 empty empty Cosinus_random_envelopes 20 12
0 12 #606060 #fcfcfc 0;
#X obj 645 592 tgl 15 0 empty empty DSP_on/off 17 7 0 10 #fcfcfc #000000
#000000 0 1;
#X msg 645 620 \; pd dsp \$1 \;;
#X text 935 34 CONTROLS;
#X text 534 36 DESCRIPTION;
#X obj 112 241 abc_cosrandenv3;
#X obj 224 141 noise~;
#X obj 176 497 abc_2d_decoder1~;
#X obj 315 411 abc_2d_scope1~;
#X obj 177 198 abc_substractsynth3~;
#X obj 114 436 tgl 15 0 empty empty empty 17 7 0 10 #fcfcfc #000000
#000000 0 1;
#X msg 114 456 stereo \$1;
#X text 535 57 abc_cosrandenv1~ \, abc_cosrandenv2~ \, ... objects
provide multichannel envelopes based on the cosinus curve.;
#X obj 506 446 abc_cosrandenv2~;
#X text 936 55 A probability distribution is applied to each channel
providing for each envelope a factor that is 1 or 0 and enables to
apply a statistic duration of silence. If the rarefaction is 0.3 \,
it means 30% of the envelopes are muted (multiplied by 0) and 70% of
them are played (multiplied by 1). When the rarefaction is 0 \, the
envelope is constantly played \, whereas when it is 1 no sound is played
at all (maximum rarefaction).;
#X text 937 152 freq parameter is the frequency of the envelope generated.
;
#X obj 506 259 loadbang;
#X msg 506 291 5;
#X msg 568 291 0.5;
#X floatatom 506 312 5 0 0 0 - - - 0;
#X floatatom 568 312 5 0 0 0 - - - 0;
#X msg 506 332 freq \$1;
#X msg 568 332 rarefaction \$1;
#X obj 549 397 abc_addsynth2~;
#X obj 668 202 abc_gain -127;
#X obj 1051 206 noise~;
#X obj 1008 305 abc_cosrandenv15~ ------------;
#X obj 1160 202 loadbang;
#X floatatom 1160 255 5 0 0 0 - - - 0;
#X floatatom 1222 255 5 0 0 0 - - - 0;
#X msg 1160 275 freq \$1;
#X msg 1222 275 rarefaction \$1;
#X msg 1160 234 30;
#X msg 1222 234 0.66;
#X obj 1068 430 abc_2d_scope7~ ------------;
#X obj 840 202 abc_gain -127;
#X obj 79 553 abc_meter;
#X obj 470 493 abc_meter;
#X obj 821 483 dac~ 1 2 3 4 5 6 7 8 9 10 11 12 13 14 15 16;
#X obj 840 430 abc_2d_decoder7~ -----------------;
#X obj 760 484 abc_meter;
#X obj 224 162 *~ 0.1;
#X obj 28 291 abc_gain 0;
#X obj 1051 227 *~ 0.1;
#X obj 535 493 abc_stereoout -15;
#X obj 312 450 cyclone/scope~ 130 130 16 3 256 -1 1 0 0 0 0 205 229
232 74 79 77 96 98 102 0 empty;
#X text 331 583 cyclone/scope~;
#X obj 1093 483 cyclone/scope~ 130 130 16 3 256 -1 1 0 0 0 0 205 229
232 74 79 77 96 98 102 0 empty;
#X text 1112 616 cyclone/scope~;
#X obj 150 554 abc_quadriout -15 1 2 3 4;
#X connect 3 0 4 0;
#X connect 7 1 9 1;
#X connect 7 1 10 1;
#X connect 7 2 9 2;
#X connect 7 2 10 2;
#X connect 7 3 9 3;
#X connect 7 3 10 3;
#X connect 8 0 43 0;
#X connect 9 1 38 0;
#X connect 9 1 51 0;
#X connect 9 2 51 1;
#X connect 9 3 51 2;
#X connect 9 4 51 3;
#X connect 10 1 47 0;
#X connect 10 2 47 1;
#X connect 11 1 7 1;
#X connect 11 2 7 2;
#X connect 11 3 7 3;
#X connect 12 0 13 0;
#X connect 13 0 9 0;
#X connect 15 1 39 0;
#X connect 15 1 46 0;
#X connect 15 2 46 1;
#X connect 18 0 19 0;
#X connect 18 0 20 0;
#X connect 19 0 21 0;
#X connect 20 0 22 0;
#X connect 21 0 23 0;
#X connect 22 0 24 0;
#X connect 23 0 15 0;
#X connect 24 0 15 0;
#X connect 25 1 15 1;
#X connect 25 2 15 2;
#X connect 26 0 25 0;
#X connect 27 0 45 0;
#X connect 28 1 36 1;
#X connect 28 1 41 1;
#X connect 28 2 36 2;
#X connect 28 2 41 2;
#X connect 28 3 36 3;
#X connect 28 3 41 3;
#X connect 28 4 36 4;
#X connect 28 4 41 4;
#X connect 28 5 36 5;
#X connect 28 5 41 5;
#X connect 28 6 36 6;
#X connect 28 6 41 6;
#X connect 28 7 36 7;
#X connect 28 7 41 7;
#X connect 28 8 36 8;
#X connect 28 8 41 8;
#X connect 28 9 36 9;
#X connect 28 9 41 9;
#X connect 28 10 36 10;
#X connect 28 10 41 10;
#X connect 28 11 36 11;
#X connect 28 11 41 11;
#X connect 28 12 36 12;
#X connect 28 12 41 12;
#X connect 28 13 36 13;
#X connect 28 13 41 13;
#X connect 28 14 36 14;
#X connect 28 14 41 14;
#X connect 28 15 36 15;
#X connect 28 15 41 15;
#X connect 29 0 34 0;
#X connect 29 0 35 0;
#X connect 30 0 32 0;
#X connect 31 0 33 0;
#X connect 32 0 28 0;
#X connect 33 0 28 0;
#X connect 34 0 30 0;
#X connect 35 0 31 0;
#X connect 36 1 49 0;
#X connect 36 2 49 1;
#X connect 37 0 41 0;
#X connect 41 1 40 0;
#X connect 41 1 42 0;
#X connect 41 2 40 1;
#X connect 41 3 40 2;
#X connect 41 4 40 3;
#X connect 41 5 40 4;
#X connect 41 6 40 5;
#X connect 41 7 40 6;
#X connect 41 8 40 7;
#X connect 41 9 40 8;
#X connect 41 10 40 9;
#X connect 41 11 40 10;
#X connect 41 12 40 11;
#X connect 41 13 40 12;
#X connect 41 14 40 13;
#X connect 41 15 40 14;
#X connect 41 16 40 15;
#X connect 43 0 11 1;
#X connect 43 0 11 2;
#X connect 43 0 11 3;
#X connect 44 0 9 0;
#X connect 45 0 28 0;
#X connect 45 0 28 1;
#X connect 45 0 28 2;
#X connect 45 0 28 3;
#X connect 45 0 28 4;
#X connect 45 0 28 5;
#X connect 45 0 28 6;
#X connect 45 0 28 7;
#X connect 45 0 28 8;
#X connect 45 0 28 9;
#X connect 45 0 28 10;
#X connect 45 0 28 11;
#X connect 45 0 28 12;
#X connect 45 0 28 13;
#X connect 45 0 28 14;
#X connect 45 0 28 15;
#X coords 0 784 1 783 85 60 0;
