#N canvas 574 27 759 740 10;
#X obj 14 6 cnv 15 500 25 empty empty abc_xy_scope 20 12 0 18 #606060 #fcfcfc 0;
#X obj 13 698 abc_helpcredit;
#X obj 14 32 cnv 15 500 25 empty empty Visualization_of_X-Y_signals_using_Cyclone/scope~_Library 20 12 0 12 #606060 #fcfcfc 0;
#X obj 362 598 tgl 15 0 empty empty DSP_on/off 17 7 0 10 #dfdfdf #000000 #000000 0 1;
#X msg 362 628 \; pd dsp \$1 \;;
#X text 18 68 DESCRIPTION;
#X text 389 65 CONTROLS;
#X obj 171 403 abc_xy_scope;
#X text 18 91 abc_xy_scope is an abstraction to visualize X-Y signals for instance ambisonic components at the order N with abc_2d_scopeN~ objects. It uses the scope~ object from the cyclone library.;
#X text 389 90 They are the controls of scope~ object (from cyclone library). Please refer to the help of this object.;
#X msg 40 352 bgcolor \$1 \$1 \$1;
#X obj 43 307 hsl 136 16 0 1 0 0 empty empty empty -2 -8 0 10 #dfdfdf #000000 #000000 0 1;
#X floatatom 40 328 5 0 0 0 - - - 0;
#X obj 217 204 abc_multinoise7~;
#X obj 205 264 abc_substractsynth7~;
#X obj 215 330 abc_2d_scope3~;
#X connect 3 0 4 0;
#X connect 10 0 7 0;
#X connect 11 0 12 0;
#X connect 12 0 10 0;
#X connect 13 1 14 1;
#X connect 13 2 14 2;
#X connect 13 3 14 3;
#X connect 13 4 14 4;
#X connect 13 5 14 5;
#X connect 13 6 14 6;
#X connect 13 7 14 7;
#X connect 14 1 15 1;
#X connect 14 2 15 2;
#X connect 14 3 15 3;
#X connect 14 4 15 4;
#X connect 14 5 15 5;
#X connect 14 6 15 6;
#X connect 14 7 15 7;
#X connect 15 1 7 1;
#X connect 15 2 7 2;
