#N canvas 1075 557 839 737 10;
#X obj 14 5 cnv 15 600 25 empty empty abc_ambi_scope[N] 20 12 0 18 #606060 #fcfcfc 0;
#X obj 13 698 abc_helpcredit;
#X obj 14 32 cnv 15 600 25 empty empty Visualization_of_an_ambisonic_sound_field 20 12 0 12 #606060 #fcfcfc 0;
#X text 18 68 DESCRIPTION;
#X text 389 65 CONTROLS;
#X msg 314 354 speed \$1;
#X obj 275 409 loadbang;
#X msg 275 450 bgcolor 0 0 1;
#X obj 407 355 sig~ 1;
#X msg 276 429 gridcolor 0 0 0;
#X obj 224 239 abc_upanddown;
#X obj 224 217 tgl 16 0 empty empty empty 0 -8 0 10 #fcfcfc #000000 #000000 0 1;
#X obj 224 173 loadbang;
#X msg 224 194 1;
#X msg 167 459 bgcolor \$1 \$1 \$1;
#X msg 276 471 fgcolor 0 0 1;
#X obj 223 286 * 5;
#X obj 222 307 + 0.001;
#X obj 55 421 tgl 15 0 empty empty DSP_on/off 17 7 0 10 #dfdfdf #000000 #000000 0 1;
#X msg 55 451 \; pd dsp \$1 \;;
#X text 132 500 control messages of cyclone/scope~ object, f 22;
#X obj 589 297 tgl 16 0 empty empty empty 0 -8 0 10 #dfdfdf #000000 #000000 0 1;
#X obj 589 318 sig~;
#X obj 621 297 tgl 16 0 empty empty empty 0 -8 0 10 #dfdfdf #000000 #000000 0 1;
#X obj 621 318 sig~;
#X obj 653 296 tgl 16 0 empty empty empty 0 -8 0 10 #dfdfdf #000000 #000000 0 1;
#X obj 653 317 sig~;
#X obj 685 296 tgl 16 0 empty empty empty 0 -8 0 10 #dfdfdf #000000 #000000 0 1;
#X obj 685 317 sig~;
#X obj 717 296 tgl 16 0 empty empty empty 0 -8 0 10 #dfdfdf #000000 #000000 0 1;
#X obj 717 317 sig~;
#X text 546 273 combining elementary spatial harmonics;
#X text 389 87 The control parameters are the ones of scope~ object in cyclone library \, especially colour parameters (gridcolor \, bgcolor \, fgcolor \, etc. messages);
#X text 17 87 abc_ambi_scope1_m \, abc_ambi_scope2_m \, ... \, abc_ambiscope7_m include the necessary abc_2d_scope1_m \, abc_2d_scope2_m \, ... \, abc_2d_scope7_m object to enable direct visualization of the ambisonic sound field at the corresponding ambisonic order (1 to 7);
#X floatatom 222 328 5 0 0 0 - - - 0;
#X text 388 129 It is also possible to set the refresh time in milliseconds of abc_2d_scope[N] objects embedded in these abstractions;
#X obj 314 377 abc_2d_encoder1~;
#X obj 276 500 abc_ambi_scope1;
#X obj 494 502 abc_ambi_scope2;
#X connect 5 0 36 0;
#X connect 6 0 9 0;
#X connect 6 0 7 0;
#X connect 6 0 15 0;
#X connect 7 0 37 0;
#X connect 8 0 36 1;
#X connect 9 0 37 0;
#X connect 10 0 14 0;
#X connect 10 0 16 0;
#X connect 11 0 10 0;
#X connect 12 0 13 0;
#X connect 13 0 11 0;
#X connect 14 0 37 0;
#X connect 15 0 37 0;
#X connect 16 0 17 0;
#X connect 17 0 34 0;
#X connect 18 0 19 0;
#X connect 21 0 22 0;
#X connect 22 0 38 1;
#X connect 23 0 24 0;
#X connect 24 0 38 2;
#X connect 25 0 26 0;
#X connect 26 0 38 3;
#X connect 27 0 28 0;
#X connect 28 0 38 4;
#X connect 29 0 30 0;
#X connect 30 0 38 5;
#X connect 34 0 5 0;
#X connect 36 1 37 1;
#X connect 36 2 37 2;
#X connect 36 3 37 3;
