#N canvas 574 27 781 740 10;
#X obj 14 6 cnv 15 500 25 empty empty abc_scope 20 12 0 18 -99865 -262144
0;
#X obj 13 698 abc_helpcredit;
#X obj 14 32 cnv 15 500 25 empty empty Visualization_of_X-Y_signals_using_Gem_Library
20 12 0 12 -99865 -262144 0;
#X obj 362 598 tgl 15 0 empty empty DSP_on/off 17 7 0 10 -262144 -1
-1 0 1;
#X msg 362 628 \; pd dsp \$1 \;;
#X obj 133 439 abc_meter;
#X text 18 68 DESCRIPTION;
#X obj 157 185 abc_multinoise7~ ----------------;
#X obj 144 246 abc_substractsynth7~ ----------------;
#X obj 155 311 abc_2d_scope3~ ----------------;
#X obj 217 439 abc_scope 1 0 2.5;
#X text 18 91 abc_scope is an abstraction to be used within a bpatcher
in association with abc_2d_scopeN~ objects to visualize X-Y signals
for instance ambisonic components at the order N. There are 3 signal
inputs: X signal \, Y signal and a binary signal (1/0) to tell the
drawing corresponds to positive (red) values or negative (blue) ones
;
#X text 389 65 CONTROLS;
#X text 389 90 Three parameters can be set: - the type of drawing:
points or lines - the size of the drawing (1 by default) - display
on/off the floating window with the visualization.;
#X connect 3 0 4 0;
#X connect 7 1 8 1;
#X connect 7 2 8 2;
#X connect 7 3 8 3;
#X connect 7 4 8 4;
#X connect 7 5 8 5;
#X connect 7 6 8 6;
#X connect 7 7 8 7;
#X connect 8 1 9 1;
#X connect 8 2 9 2;
#X connect 8 3 9 3;
#X connect 8 4 9 4;
#X connect 8 5 9 5;
#X connect 8 6 9 6;
#X connect 8 7 9 7;
#X connect 9 1 5 0;
#X connect 9 1 10 0;
#X connect 9 2 10 1;
#X connect 9 3 10 2;
