#N canvas 11 25 1278 740 10;
#X obj 14 6 cnv 15 500 25 empty empty abc_stereodecoderN~  20 12 0
18 -99865 -262144 0;
#X obj 13 698 abc_helpcredit;
#X obj 14 32 cnv 15 500 25 empty empty Ambisonic_stereo_decoders_at_orders_1_2_3_etc.
20 12 0 12 -99865 -262144 0;
#X obj 503 568 tgl 15 0 empty empty DSP_on/off 17 7 0 10 -262144 -1
-1 0 1;
#X msg 503 598 \; pd dsp \$1 \;;
#X obj 687 480 abc_meter;
#X obj 103 458 abc_meter;
#X text 905 8 CONTROLS;
#X text 532 7 DESCRIPTION;
#X obj 171 458 abc_stereoout;
#X obj 75 137 abc_addsynth16~ ----------------;
#X obj 71 198 abc_cosrandenv16~ ----------------;
#X obj 81 253 abc_chopan16~ ----------------;
#N canvas 500 105 296 306 encoder1 0;
#X obj 122 264 outlet;
#X obj 121 23 loadbang;
#X msg 57 91 0.71;
#X floatatom 57 112 5 0 0 0 - - -;
#X msg 57 132 speed \$1;
#X floatatom 121 112 5 0 0 0 - - -;
#X msg 121 132 angle \$1;
#X msg 121 91 0;
#X floatatom 183 111 5 0 0 0 - - -;
#X msg 183 90 10;
#X msg 184 131 returntime \$1;
#X connect 1 0 2 0;
#X connect 1 0 7 0;
#X connect 1 0 9 0;
#X connect 2 0 3 0;
#X connect 3 0 4 0;
#X connect 4 0 0 0;
#X connect 5 0 6 0;
#X connect 6 0 0 0;
#X connect 7 0 5 0;
#X connect 8 0 10 0;
#X connect 9 0 8 0;
#X connect 10 0 0 0;
#X restore 68 317 pd encoder1;
#N canvas 500 105 296 306 encoder2 0;
#X obj 122 264 outlet;
#X obj 121 23 loadbang;
#X floatatom 57 112 5 0 0 0 - - -;
#X msg 57 132 speed \$1;
#X floatatom 121 112 5 0 0 0 - - -;
#X msg 121 132 angle \$1;
#X msg 121 91 0;
#X floatatom 183 111 5 0 0 0 - - -;
#X msg 183 90 10;
#X msg 184 131 returntime \$1;
#X msg 57 91 0.7;
#X connect 1 0 10 0;
#X connect 1 0 6 0;
#X connect 1 0 8 0;
#X connect 2 0 3 0;
#X connect 3 0 0 0;
#X connect 4 0 5 0;
#X connect 5 0 0 0;
#X connect 6 0 4 0;
#X connect 7 0 9 0;
#X connect 8 0 7 0;
#X connect 9 0 0 0;
#X connect 10 0 2 0;
#X restore 185 316 pd encoder2;
#X obj 185 347 abc_2d_encoder1~;
#X obj 68 347 abc_2d_encoder1~;
#X obj 135 411 abc_stereodecoder1~;
#X obj 456 296 loadbang;
#X msg 456 317 1;
#X obj 455 339 tgl 15 0 empty empty empty 17 7 0 10 -262144 -1 -1 1
1;
#X msg 455 361 directangles \$1;
#X obj 778 255 abc_2d_squaretrajectory~;
#X text 778 228 generates a square trajectory in cartesian;
#X text 532 27 abc_stereodecoder1~ \, abc_stereodecoder2~ \, etc. objects
enable to decode from ambisonic spatial components to stereo - gain
is the output gain in dB - directangles is 1 for anticlockwise (as
in ambisonic norm) and 0 for clockwise;
#X text 907 26 - gain is the output gain in dB;
#X text 907 53 - directangles is 1 for anticlockwise (as in ambisonic
norm) and 0 for clockwise;
#X obj 804 300 abc_cartopol~;
#X obj 1006 327 sig~ 0;
#X obj 907 353 abc_scope 0 0 2.5;
#X obj 756 480 abc_stereoout;
#X obj 668 419 abc_stereodecoder7~ ------------;
#X obj 698 365 abc_2d_map7~ ------------;
#X obj 655 163 abc_gain -127;
#X obj 75 90 loadbang;
#X msg 75 111 gain -30;
#X obj 353 174 abc_gain -10;
#X obj 747 152 abc_env_noise 125 0.5 -30;
#X connect 3 0 4 0;
#X connect 10 1 11 1;
#X connect 10 2 11 2;
#X connect 10 3 11 3;
#X connect 10 4 11 4;
#X connect 10 5 11 5;
#X connect 10 6 11 6;
#X connect 10 7 11 7;
#X connect 10 8 11 8;
#X connect 10 9 11 9;
#X connect 10 10 11 10;
#X connect 10 11 11 11;
#X connect 10 12 11 12;
#X connect 10 13 11 13;
#X connect 10 14 11 14;
#X connect 10 15 11 15;
#X connect 10 16 11 16;
#X connect 11 1 12 1;
#X connect 11 2 12 2;
#X connect 11 3 12 3;
#X connect 11 4 12 4;
#X connect 11 5 12 5;
#X connect 11 6 12 6;
#X connect 11 7 12 7;
#X connect 11 8 12 8;
#X connect 11 9 12 9;
#X connect 11 10 12 10;
#X connect 11 11 12 11;
#X connect 11 12 12 12;
#X connect 11 13 12 13;
#X connect 11 14 12 14;
#X connect 11 15 12 15;
#X connect 11 16 12 16;
#X connect 12 1 16 1;
#X connect 12 2 15 1;
#X connect 13 0 16 0;
#X connect 14 0 15 0;
#X connect 15 1 17 1;
#X connect 15 2 17 2;
#X connect 15 3 17 3;
#X connect 16 1 17 1;
#X connect 16 2 17 2;
#X connect 16 3 17 3;
#X connect 17 1 9 0;
#X connect 17 1 6 0;
#X connect 17 2 9 1;
#X connect 18 0 19 0;
#X connect 19 0 20 0;
#X connect 20 0 21 0;
#X connect 21 0 17 0;
#X connect 21 0 31 0;
#X connect 22 1 27 1;
#X connect 22 2 27 2;
#X connect 27 1 29 0;
#X connect 27 1 32 2;
#X connect 27 2 29 1;
#X connect 27 2 32 3;
#X connect 28 0 29 2;
#X connect 31 1 30 0;
#X connect 31 1 5 0;
#X connect 31 2 30 1;
#X connect 32 1 31 1;
#X connect 32 2 31 2;
#X connect 32 3 31 3;
#X connect 32 4 31 4;
#X connect 32 5 31 5;
#X connect 32 6 31 6;
#X connect 32 7 31 7;
#X connect 32 8 31 8;
#X connect 32 9 31 9;
#X connect 32 10 31 10;
#X connect 32 11 31 11;
#X connect 32 12 31 12;
#X connect 32 13 31 13;
#X connect 32 14 31 14;
#X connect 32 15 31 15;
#X connect 33 0 31 0;
#X connect 34 0 35 0;
#X connect 35 0 10 0;
#X connect 36 0 17 0;
#X connect 37 0 32 1;
