#N canvas 682 57 618 776 10;
#X obj 11 5 cnv 15 500 25 empty empty abc_phasor2pi~ 20 12 0 18 #606060 #fcfcfc 0;
#X obj 10 733 abc_helpcredit;
#X obj 11 31 cnv 15 500 25 empty empty A_phasor_between_0_and_2*PI 20 12 0 12 #606060 #fcfcfc 0;
#X obj 499 643 tgl 15 0 empty empty DSP_on/off 17 7 0 10 #dfdfdf #000000 #000000 0 1;
#X msg 499 671 \; pd dsp \$1 \;;
#X text 410 71 CONTROLS;
#X text 13 69 DESCRIPTION;
#X obj 57 543 abc_meter;
#X text 410 91 no specific control;
#X obj 137 374 abc_2d_map1~;
#X obj 128 468 abc_2d_decoder1~;
#X obj 15 420 tgl 15 0 empty empty empty 17 7 0 10 #fcfcfc #000000 #000000 0 1;
#X msg 15 440 stereo \$1;
#X obj 183 274 sig~ 1;
#X obj 415 172 loadbang;
#X msg 415 237 1;
#X obj 415 276 metro 50;
#X obj 415 256 tgl 15 0 empty empty empty 17 7 0 10 #fcfcfc #000000 #000000 0 1;
#X obj 344 336 snapshot~;
#X floatatom 344 357 5 0 0 0 - - - 0;
#X obj 314 433 abc_2d_scope1~;
#X text 14 87 abc_phasor2pi~ is a phasor going from 0 to 2*PI instead of 1 It directly expresses an angle in radian;
#X obj 230 275 abc_phasor2pi~;
#X msg 230 213 0.2;
#X floatatom 230 234 5 0 0 0 - - - 0;
#X msg 230 254 freq \$1;
#X obj 160 129 abc_env_noise 200 0.3 0;
#X obj 300 487 cyclone/scope~ 130 130 16 3 256 -1 1 0 0 0 0 205 229 232 74 79 77 96 98 102 0 empty;
#X text 319 620 cyclone/scope~;
#X obj 123 543 abc_quadriout -15 1 2 3 4;
#X obj 23 228 abc_gain -127;
#X connect 3 0 4 0;
#X connect 9 1 10 1;
#X connect 9 1 20 1;
#X connect 9 2 10 2;
#X connect 9 2 20 2;
#X connect 9 3 10 3;
#X connect 9 3 20 3;
#X connect 10 1 7 0;
#X connect 10 1 29 0;
#X connect 10 2 29 1;
#X connect 10 3 29 2;
#X connect 10 4 29 3;
#X connect 11 0 12 0;
#X connect 12 0 10 0;
#X connect 13 0 9 2;
#X connect 14 0 15 0;
#X connect 14 0 23 0;
#X connect 15 0 17 0;
#X connect 16 0 18 0;
#X connect 17 0 16 0;
#X connect 18 0 19 0;
#X connect 20 1 27 0;
#X connect 20 2 27 1;
#X connect 22 1 9 3;
#X connect 22 1 18 0;
#X connect 23 0 24 0;
#X connect 24 0 25 0;
#X connect 25 0 22 0;
#X connect 26 0 9 1;
#X connect 30 0 10 0;
#X coords 0 776 1 775 85 60 0;
