#N canvas 1281 25 550 776 10;
#X obj 11 5 cnv 15 500 25 empty empty abc_poltocar~ 20 12 0 18 #606060
#fcfcfc 0;
#X obj 10 733 abc_helpcredit;
#X obj 11 31 cnv 15 500 25 empty empty A_polar_to_cartesian_converter
20 12 0 12 #606060 #fcfcfc 0;
#X obj 338 654 tgl 15 0 empty empty DSP_on/off 17 7 0 10 #fcfcfc #000000
#000000 0 1;
#X msg 338 682 \; pd dsp \$1 \;;
#X text 382 67 CONTROLS;
#X text 17 68 DESCRIPTION;
#X obj 104 543 abc_meter;
#X text 382 87 no specific control;
#X obj 138 401 abc_2d_map1~;
#X obj 128 468 abc_2d_decoder1~;
#X obj 15 420 tgl 15 0 empty empty empty 17 7 0 10 #fcfcfc #000000
#000000 0 1;
#X msg 15 440 stereo \$1;
#X text 18 89 abc_cartopol~ converts polar coordinates to cartesian
coordinates (both as signals) The angle is in radians;
#X obj 232 202 phasor~ 0.03;
#X obj 184 238 cos~;
#X obj 184 259 +~ 1;
#X obj 255 256 abc_mult2pi~;
#X obj 324 280 *~ 10;
#X obj 305 345 abc_poltocar~;
#X obj 184 280 *~ 0.8;
#X obj 160 138 abc_env_noise 200 0.3 0;
#X obj 23 228 abc_gain -15;
#X obj 293 390 cyclone/scope~ 130 130 16 3 256 -1 1 0 0 0 0 205 229
232 74 79 77 96 98 102 0 empty;
#X text 312 523 cyclone/scope~;
#X obj 169 543 abc_quadriout -20;
#X connect 3 0 4 0;
#X connect 9 1 10 1;
#X connect 9 2 10 2;
#X connect 9 3 10 3;
#X connect 10 1 7 0;
#X connect 10 1 25 0;
#X connect 10 2 25 1;
#X connect 10 3 25 2;
#X connect 10 4 25 3;
#X connect 11 0 12 0;
#X connect 12 0 10 0;
#X connect 14 0 15 0;
#X connect 14 0 17 1;
#X connect 15 0 16 0;
#X connect 16 0 20 0;
#X connect 17 1 18 0;
#X connect 18 0 9 3;
#X connect 18 0 19 2;
#X connect 19 1 23 0;
#X connect 19 2 23 1;
#X connect 20 0 9 2;
#X connect 20 0 19 1;
#X connect 21 0 9 1;
#X connect 22 0 10 0;
#X coords 0 776 1 775 85 60 0;
