#N canvas 249 190 1331 697 10;
#X obj 9 9 cnv 15 500 25 empty empty abc_delayN~ 20 12 0 18 -99865
-262144 0;
#X obj 8 657 abc_helpcredit;
#X obj 9 35 cnv 15 500 25 empty empty Parallel_double_overlapped_delays_with_reinjection
20 12 0 12 -99865 -262144 0;
#X obj 533 466 tgl 15 0 empty empty DSP_on/off 17 7 0 10 -262144 -1
-1 1 1;
#X msg 533 494 \; pd dsp \$1 \;;
#X text 935 30 CONTROLS;
#X text 534 32 DESCRIPTION;
#X obj 87 211 loadbang;
#X obj 87 232 del 1000;
#X obj 87 281 abc_simplefmburst;
#X obj 88 512 abc_stereoout;
#X text 95 489 original;
#X obj 128 449 abc_delay1~;
#X msg 282 346 dur-0 \$1;
#X obj 221 191 vsl 15 128 1 128 0 0 empty empty tempo 0 -9 0 10 -262144
-1 -1 7900 1;
#X obj 221 133 loadbang;
#X msg 221 155 80;
#X floatatom 221 327 5 0 0 0 - - -;
#X msg 221 347 tempo \$1;
#X obj 282 177 abc_musdur 3;
#X obj 403 189 vsl 15 128 0 1 0 0 empty empty Feedback 0 -9 0 10 -262144
-1 -1 0 1;
#X floatatom 282 326 5 0 0 0 - - -;
#X floatatom 403 325 5 0 0 0 - - -;
#X msg 403 345 fdbk-0 \$1;
#X obj 429 465 loadbang;
#X msg 429 487 1;
#X obj 429 511 tgl 15 0 empty empty empty 17 7 0 10 -262144 -1 -1 1
1;
#X obj 429 533 metro 20000;
#X obj 429 556 s top;
#X obj 105 253 r top;
#X text 199 491 echo;
#X obj 495 281 loadbang;
#X msg 495 303 30;
#X floatatom 495 324 5 0 0 0 - - -;
#X msg 495 344 updatefreq \$1;
#X obj 802 446 abc_delay4~;
#X obj 879 255 r top;
#N canvas 850 71 200 227 aleafreq 0;
#X obj 30 18 inlet;
#X obj 30 39 random 8;
#X obj 30 60 + 1;
#X obj 30 81 * 110;
#X floatatom 30 109 5 0 0 0 - - -;
#X msg 30 153 f0 \$1;
#X obj 30 174 outlet;
#X obj 79 174 outlet;
#X connect 0 0 1 0;
#X connect 1 0 2 0;
#X connect 2 0 3 0;
#X connect 3 0 4 0;
#X connect 4 0 5 0;
#X connect 4 0 7 0;
#X connect 5 0 6 0;
#X restore 879 283 pd aleafreq;
#X floatatom 942 311 5 0 0 0 - - -;
#X text 919 311 f0;
#X obj 879 337 abc_addsynth4~;
#X obj 872 374 abc_cosrandenv4~;
#X obj 715 264 loadbang;
#X floatatom 715 317 5 0 0 0 - - -;
#X floatatom 777 317 5 0 0 0 - - -;
#X msg 715 337 freq \$1;
#X msg 777 337 rarefaction \$1;
#X msg 715 296 4;
#X msg 777 296 0.95;
#X obj 802 408 r dels;
#X obj 853 503 abc_chopan8~ ---------;
#X obj 899 544 abc_stereoout;
#X obj 1113 384 loadbang;
#X msg 1113 406 \; dels dur-0 1 \; dels fdbk-0 0.2 \; dels gain-0 0
\; dels dur-1 1.5 \; dels fdbk-1 0.4 \; dels gain-1 -3 \; dels dur-2
2 \; dels fdbk-2 0.6 \; dels gain-2 -6 \; dels dur-3 2.5 \; dels fdbk-3
0.8 \; dels gain-3 -9 \;;
#X obj 993 251 vsl 15 128 1 128 0 0 empty empty tempo 0 -9 0 10 -262144
-1 -1 5900 1;
#X obj 993 193 loadbang;
#X floatatom 993 387 5 0 0 0 - - -;
#X msg 993 407 tempo \$1;
#X msg 993 215 60;
#X text 535 53 abc_delay1~ \, abc_delay2~ \, ... objects provide multiple
parallel delay lines with reinjection. Each line is a double overlapped
delay enabling duration changes without clicking at a maximum speed
set by updatefreq parameter which is initialized at 30 Hz (30 Hz means
one can change the duration of the delay up to 30 times per second).
The other important feature of these delays lines is that all durations
are given not in milliseconds but as a musical durations: 1 stands
for a quarter \, 0.5 for an 8th \, 0.25 for a 16th \, etc.;
#X text 936 51 Durations are parameters dur-0 \, dur-1 \, dur-2 \,
etc.These musical durations are automatically converted to milliseconds
thanks to the tempo parameter expressed in bpm.;
#X text 937 96 Each delay line has got an individual feedback: fdbk-0
\, fdbk-1 \, fdbk-2 \, etc. (between 0 and 1);
#X text 938 131 Each delay line has got an individual gain: gain-0
\, gain-1 \, gain-2 \, etc. in dB (between -127 and +18);
#X obj 765 506 abc_meter;
#X obj 1018 504 abc_meter;
#X text 770 657 delays;
#X text 1003 657 original sounds;
#X connect 3 0 4 0;
#X connect 7 0 8 0;
#X connect 8 0 9 0;
#X connect 9 0 10 0;
#X connect 9 0 12 1;
#X connect 12 1 10 1;
#X connect 13 0 12 0;
#X connect 14 0 17 0;
#X connect 15 0 16 0;
#X connect 16 0 14 0;
#X connect 17 0 18 0;
#X connect 18 0 12 0;
#X connect 19 0 21 0;
#X connect 20 0 22 0;
#X connect 21 0 13 0;
#X connect 22 0 23 0;
#X connect 23 0 12 0;
#X connect 24 0 25 0;
#X connect 25 0 26 0;
#X connect 26 0 27 0;
#X connect 27 0 28 0;
#X connect 29 0 9 0;
#X connect 31 0 32 0;
#X connect 32 0 33 0;
#X connect 33 0 34 0;
#X connect 34 0 12 0;
#X connect 34 0 35 0;
#X connect 35 1 50 5;
#X connect 35 1 63 0;
#X connect 35 2 50 6;
#X connect 35 2 63 0;
#X connect 35 3 50 7;
#X connect 35 3 63 0;
#X connect 35 4 50 8;
#X connect 35 4 63 0;
#X connect 36 0 37 0;
#X connect 37 0 40 0;
#X connect 37 1 38 0;
#X connect 40 1 41 1;
#X connect 40 2 41 2;
#X connect 40 3 41 3;
#X connect 40 4 41 4;
#X connect 41 1 35 1;
#X connect 41 1 50 1;
#X connect 41 1 64 0;
#X connect 41 2 35 2;
#X connect 41 2 50 2;
#X connect 41 2 64 0;
#X connect 41 3 35 3;
#X connect 41 3 50 3;
#X connect 41 3 64 0;
#X connect 41 4 35 4;
#X connect 41 4 50 4;
#X connect 41 4 64 0;
#X connect 42 0 47 0;
#X connect 42 0 48 0;
#X connect 43 0 45 0;
#X connect 44 0 46 0;
#X connect 45 0 41 0;
#X connect 46 0 41 0;
#X connect 47 0 43 0;
#X connect 48 0 44 0;
#X connect 49 0 35 0;
#X connect 50 1 51 0;
#X connect 50 2 51 1;
#X connect 52 0 53 0;
#X connect 54 0 56 0;
#X connect 55 0 58 0;
#X connect 56 0 57 0;
#X connect 57 0 35 0;
#X connect 58 0 54 0;
#X coords 0 697 1 696 85 60 0;
