#N canvas 462 53 809 783 10;
#X obj 11 12 cnv 15 500 25 empty empty abc_gainN~ 20 12 0 18 -99865
-262144 0;
#X obj 10 744 abc_helpcredit;
#X obj 11 38 cnv 15 500 25 empty empty Multichannel_gains 20 12 0 12
-99865 -262144 0;
#X obj 331 575 tgl 15 0 empty empty DSP_on/off 17 7 0 10 -262144 -1
-1 0 1;
#X msg 331 603 \; pd dsp \$1 \;;
#X text 414 105 CONTROLS;
#X text 23 105 DESCRIPTION;
#X obj 75 410 abc_meter;
#X text 24 126 abc_gain1~ \, abc_gain2~ \, ... provide multichannel
gain controls in dB;
#X obj 22 315 abc_gain1;
#X obj 517 238 abc_multinoise16~ -------------;
#X obj 505 294 abc_substractsynth16~ -------------;
#X obj 515 344 abc_cosrandenv16~ -------------;
#X obj 521 420 abc_gain16~ -----------------;
#X obj 515 505 abc_chopan16~ -----------------;
#X obj 420 315 loadbang;
#X floatatom 420 357 5 0 0 0 - - -;
#X msg 420 377 gain \$1;
#X msg 22 256 gain -127;
#X obj 22 225 loadbang;
#X obj 514 546 abc_meter;
#X text 414 125 gain message followed by the value of the gain in dB
;
#X obj 471 186 loadbang;
#X obj 187 410 abc_stereoout -15;
#X obj 599 559 abc_stereoout -15;
#X msg 471 211 gain -10;
#X msg 421 336 -15;
#X obj 114 255 abc_env_noise 200 0.3 0;
#X connect 3 0 4 0;
#X connect 9 1 7 0;
#X connect 9 1 23 0;
#X connect 9 1 23 1;
#X connect 10 1 11 1;
#X connect 10 2 11 2;
#X connect 10 3 11 3;
#X connect 10 4 11 4;
#X connect 10 5 11 5;
#X connect 10 6 11 6;
#X connect 10 7 11 7;
#X connect 10 8 11 8;
#X connect 10 9 11 9;
#X connect 10 10 11 10;
#X connect 10 11 11 11;
#X connect 10 12 11 12;
#X connect 10 13 11 13;
#X connect 10 14 11 14;
#X connect 10 15 11 15;
#X connect 10 16 11 16;
#X connect 11 1 12 1;
#X connect 11 2 12 2;
#X connect 11 3 12 3;
#X connect 11 4 12 4;
#X connect 11 5 12 5;
#X connect 11 6 12 6;
#X connect 11 7 12 7;
#X connect 11 8 12 8;
#X connect 11 9 12 9;
#X connect 11 10 12 10;
#X connect 11 11 12 11;
#X connect 11 12 12 12;
#X connect 11 13 12 13;
#X connect 11 14 12 14;
#X connect 11 15 12 15;
#X connect 11 16 12 16;
#X connect 12 1 13 1;
#X connect 12 2 13 2;
#X connect 12 3 13 3;
#X connect 12 4 13 4;
#X connect 12 5 13 5;
#X connect 12 6 13 6;
#X connect 12 7 13 7;
#X connect 12 8 13 8;
#X connect 12 9 13 9;
#X connect 12 10 13 10;
#X connect 12 11 13 11;
#X connect 12 12 13 12;
#X connect 12 13 13 13;
#X connect 12 14 13 14;
#X connect 12 15 13 15;
#X connect 12 16 13 16;
#X connect 13 1 14 1;
#X connect 13 2 14 2;
#X connect 13 3 14 3;
#X connect 13 4 14 4;
#X connect 13 5 14 5;
#X connect 13 6 14 6;
#X connect 13 7 14 7;
#X connect 13 8 14 8;
#X connect 13 9 14 9;
#X connect 13 10 14 10;
#X connect 13 11 14 11;
#X connect 13 12 14 12;
#X connect 13 13 14 13;
#X connect 13 14 14 14;
#X connect 13 15 14 15;
#X connect 13 16 14 16;
#X connect 14 1 20 0;
#X connect 14 1 24 0;
#X connect 14 2 24 1;
#X connect 15 0 26 0;
#X connect 16 0 17 0;
#X connect 17 0 13 0;
#X connect 18 0 9 0;
#X connect 19 0 18 0;
#X connect 22 0 25 0;
#X connect 25 0 11 0;
#X connect 26 0 16 0;
#X connect 27 0 9 1;
#X coords 0 783 1 782 85 60 0;
