#N canvas 508 113 1339 603 10;
#X obj 9 10 cnv 15 500 25 empty empty abc_harmoN~ 20 12 0 18 #606060 #fcfcfc 0;
#X obj 8 570 abc_helpcredit;
#X obj 9 36 cnv 15 500 25 empty empty Parallel_multiple_harmonizers 20 12 0 12 #606060 #fcfcfc 0;
#X obj 532 365 tgl 15 0 empty empty DSP_on/off 17 7 0 10 #dfdfdf #000000 #000000 0 1;
#X msg 532 393 \; pd dsp \$1 \;;
#X text 935 6 CONTROLS;
#X text 534 8 DESCRIPTION;
#X obj 166 139 loadbang;
#X obj 166 160 del 1000;
#X obj 166 209 abc_simplefmburst;
#X text 115 272 original;
#X obj 303 143 loadbang;
#X floatatom 303 209 5 0 0 0 - - - 0;
#X obj 439 365 loadbang;
#X msg 439 387 1;
#X obj 439 411 tgl 15 0 empty empty empty 17 7 0 10 #fcfcfc #000000 #000000 0 1;
#X obj 439 456 s top;
#X obj 184 181 r top;
#X obj 579 160 loadbang;
#X msg 579 182 30;
#X floatatom 579 203 5 0 0 0 - - - 0;
#X msg 579 223 updatefreq \$1;
#X obj 821 269 r dels;
#X obj 1063 233 loadbang;
#X obj 223 318 abc_delaychain3~;
#X text 328 320 echoes 1 to 3;
#X obj 206 375 abc_chopan4~;
#X obj 914 201 r top;
#X obj 914 224 del 5000;
#X obj 914 246 bng 15 250 50 0 empty empty empty 17 7 0 10 #fcfcfc #000000 #000000;
#N canvas 1116 82 249 299 noisenv 0;
#X obj 140 23 inlet;
#X obj 140 44 t b b;
#X msg 167 75 -0.25;
#X msg 140 101 0.25 50;
#X obj 42 73 noise~;
#X obj 42 94 *~ 0.2;
#X obj 106 211 *~;
#X obj 140 162 cos~;
#X obj 106 255 outlet~;
#X obj 140 142 line~;
#X obj 179 44 loadbang;
#X connect 0 0 1 0;
#X connect 1 0 3 0;
#X connect 1 1 2 0;
#X connect 2 0 9 0;
#X connect 3 0 9 0;
#X connect 4 0 5 0;
#X connect 5 0 6 0;
#X connect 6 0 8 0;
#X connect 7 0 6 1;
#X connect 9 0 7 0;
#X connect 10 0 2 0;
#X restore 914 266 pd noisenv;
#X obj 669 275 tgl 15 0 empty empty empty 17 7 0 10 #dfdfdf #000000 #000000 0 1;
#X msg 669 295 stereo \$1;
#X floatatom 374 208 5 0 0 0 - - - 0;
#X floatatom 448 208 5 0 0 0 - - - 0;
#X msg 1063 290 \; dels dur-0 0.5 \; dels dur-1 1 \; dels dur-2 0.5 \; dels dur-3 1 \; dels dur-4 0.5 \; dels dur-5 0.25 \; dels tempo 200 \;;
#X obj 736 294 r harmos;
#X obj 439 433 metro 10000;
#X msg 303 184 200;
#X msg 374 183 -300;
#X msg 448 183 500;
#X msg 303 229 trans-0 \$1;
#X msg 374 228 trans-1 \$1;
#X msg 448 228 trans-2 \$1;
#X obj 225 346 abc_harmo3~;
#X obj 830 325 abc_harmo6~;
#X msg 1180 288 \; harmos trans-0 100 \; harmos gain-0 0 \; harmos trans-1 -200 \; harmos gain-1 2 \; harmos trans-2 300 \; harmos gain-2 4 \; harmos trans-3 -400 \; harmos gain-3 6 \; harmos trans-4 500 \; harmos gain-4 8 \; harmos trans-5 -50 \; harmos gain-5 10 \;;
#X text 535 29 abc_harmo1~ \, abc_harmo2~ \, ... provide parallel multiple harmonizers. Each line is an overlapped harmonizer by Doppler effect.;
#X text 935 28 Each harmonizer has got an individual gain: gain-0 \, gain-1 \, gain-2 \, etc. in dB (between -127 and +18) and a transposition coefficient: trans-0 \, trans-1 \, etc. in midicents (100 for an upper semiton \, 200 for an upper ton \, -400 for a lower major third \, ...);
#X obj 126 407 abc_meter;
#X obj 166 248 *~ 0.3;
#X obj 809 81 abc_gain -127;
#X obj 243 407 dac~;
#X obj 21 151 abc_gain -127;
#X obj 821 292 abc_delaychain6~;
#X obj 810 359 abc_2d_decoder3~;
#X obj 830 393 snake~ in 8;
#X obj 830 417 abc_meter8_m;
#X obj 787 418 dac~ 1;
#X connect 3 0 4 0;
#X connect 7 0 8 0;
#X connect 8 0 9 0;
#X connect 9 0 50 0;
#X connect 11 0 38 0;
#X connect 11 0 39 0;
#X connect 11 0 40 0;
#X connect 12 0 41 0;
#X connect 13 0 14 0;
#X connect 14 0 15 0;
#X connect 15 0 37 0;
#X connect 17 0 9 0;
#X connect 18 0 19 0;
#X connect 19 0 20 0;
#X connect 20 0 21 0;
#X connect 21 0 24 0;
#X connect 21 0 54 0;
#X connect 22 0 54 0;
#X connect 23 0 35 0;
#X connect 23 0 46 0;
#X connect 24 1 44 1;
#X connect 24 2 44 2;
#X connect 24 3 44 3;
#X connect 26 1 49 0;
#X connect 26 1 52 0;
#X connect 26 2 52 1;
#X connect 27 0 28 0;
#X connect 28 0 29 0;
#X connect 29 0 30 0;
#X connect 30 0 54 1;
#X connect 30 0 55 1;
#X connect 31 0 32 0;
#X connect 32 0 55 0;
#X connect 33 0 42 0;
#X connect 34 0 43 0;
#X connect 36 0 45 0;
#X connect 37 0 16 0;
#X connect 38 0 12 0;
#X connect 39 0 33 0;
#X connect 40 0 34 0;
#X connect 41 0 44 0;
#X connect 42 0 44 0;
#X connect 43 0 44 0;
#X connect 44 1 26 2;
#X connect 44 2 26 3;
#X connect 44 3 26 4;
#X connect 45 1 55 2;
#X connect 45 2 55 3;
#X connect 45 3 55 4;
#X connect 45 4 55 5;
#X connect 45 5 55 6;
#X connect 45 6 55 7;
#X connect 50 0 26 1;
#X connect 50 0 24 1;
#X connect 51 0 55 0;
#X connect 53 0 26 0;
#X connect 54 1 45 1;
#X connect 54 2 45 2;
#X connect 54 3 45 3;
#X connect 54 4 45 4;
#X connect 54 5 45 5;
#X connect 54 6 45 6;
#X connect 55 1 56 0;
#X connect 55 2 56 1;
#X connect 55 3 56 2;
#X connect 55 4 56 3;
#X connect 55 5 56 4;
#X connect 55 6 56 5;
#X connect 55 7 56 6;
#X connect 55 8 56 7;
#X connect 56 0 57 0;
#X connect 56 0 58 0;
#X coords 0 603 1 602 85 60 0;
