#N canvas 130 164 1577 876 10;
#X obj 14 6 cnv 15 500 25 empty empty abclib_Library 20 12 0 18 #606060 #fcfcfc 0;
#X obj 13 824 abc_helpcredit;
#X obj 14 32 cnv 15 500 25 empty empty abc_2d_ambisonic_fx_processes 20 12 0 12 #606060 #fcfcfc 0;
#X obj 891 460 abc_env_noise 200 0.3 0;
#X text 529 6 we provide 2D FX processes on ambisonic components: 2D FX decorrelators \, 2D FX delays \, 2D FX granulators \, 2D FX ring modulators;
#X obj 108 149 r cmd;
#X obj 320 415 abc_upanddown;
#X msg 320 460 factor \$1;
#X obj 275 792 s cmd;
#X obj 190 351 loadbang;
#X msg 159 396 0;
#X obj 159 423 vradio 15 1 0 22 empty empty empty 0 -8 0 10 #fcfcfc #000000 #000000 0;
#X msg 189 396 0;
#X floatatom 189 423 5 0 1 0 - - - 0;
#X msg 159 763 functiontype \$1;
#X msg 189 458 fdbk \$1;
#X text 107 468 log(1+x);
#X text 144 426 x;
#X text 132 438 x^2;
#X text 132 454 sin;
#X text 110 484 sqrt(x);
#X text 74 499 1-cos(Pi/2*x);
#X text 62 514 (1-cos(Pi*x))/2;
#X text 97 529 1-(1-x)^2;
#X text 85 543 composite 1;
#X text 133 558 x^3;
#X text 97 573 1-(1-x)^3;
#X text 85 587 composite 2;
#X text 133 602 x^4;
#X text 97 617 1-(1-x)^4;
#X text 85 632 composite 3;
#X text 85 677 composite 4;
#X text 133 647 x^5;
#X text 97 662 1-(1-x)^5;
#X text 85 707 composite 5;
#X text 85 692 2^(10(x-1));
#X text 73 724 1-sqrt(1-x^2);
#X text 61 739 sqrt(1-(x-1)^2);
#X msg 251 376 96000;
#X floatatom 251 423 5 0 1 0 - - - 0;
#X msg 251 460 delay \$1;
#X obj 320 376 tgl 25 1 empty empty empty 17 7 0 10 #dfdfdf #000000 #000000 1 1;
#X obj 17 71 abc_gain -127;
#X obj 1103 771 tgl 15 0 empty empty DSP_on/off 17 7 0 10 #dfdfdf #2f004d #000000 0 1;
#X msg 1103 801 \; pd dsp \$1 \;;
#X obj 590 100 loadbang;
#X msg 519 136 400;
#X floatatom 519 157 5 0 0 0 - - - 0;
#X msg 519 177 window \$1;
#X floatatom 590 157 5 0 0 0 - - - 0;
#X msg 590 136 300;
#X floatatom 666 156 5 0 1 0 - - - 0;
#X msg 590 177 deltime \$1;
#X msg 666 176 feedback \$1;
#X msg 666 135 0.1;
#X text 166 99 FX DECORRELATOR;
#X obj 432 103 abc_gain -127;
#X obj 155 317 throw~ dec;
#X text 523 85 FX DELAY;
#X obj 1043 692 send~ source1 7;
#X obj 163 126 receive~ source1;
#X text 187 561 FX DECORRELATOR CONTROLS;
#X obj 159 791 s cmd2;
#X obj 1266 574 send~ source2 7;
#X obj 780 104 abc_gain -127;
#X text 871 81 FX GRANULATORS;
#X obj 999 92 loadbang;
#X floatatom 866 150 5 0 0 0 - - - 0;
#X floatatom 953 150 5 0 0 0 - - - 0;
#X floatatom 1029 149 5 0 0 0 - - - 0;
#X msg 953 170 deltime \$1;
#X msg 1029 169 feedback \$1;
#X msg 866 170 grainsize \$1;
#X floatatom 1115 149 5 0 0 0 - - - 0;
#X msg 1115 169 rarefaction \$1;
#X msg 1115 128 0.5;
#X msg 866 129 400;
#X msg 953 129 300;
#X msg 1029 128 0.4;
#X obj 1241 101 abc_gain -127;
#X obj 1328 142 loadbang;
#X msg 1328 165 220;
#X floatatom 1328 188 5 0 0 0 - - - 0;
#X msg 1328 213 f0 \$1;
#X obj 1372 213 r cmd2;
#X text 1340 82 FX RING MODULATORS;
#X text 1384 141 function type to be chosen on the bottom left of the patch, f 32;
#X text 1218 431 SOURCES;
#X obj 453 436 tgl 15 0 empty empty empty 17 7 0 10 #dfdfdf #000000 #000000 0 1;
#X msg 453 462 stereo \$1;
#X msg 521 462 directangles \$1;
#X obj 521 436 tgl 15 0 empty empty empty 17 7 0 10 #dfdfdf #000000 #000000 0 1;
#X obj 486 579 dac~ 1;
#X obj 532 579 abc_meter8_m;
#X obj 660 436 catch~ dec 7;
#X text 429 514 COMMON DECODER AT ORDER 3, f 14;
#X obj 108 187 abc_2d_fx_decorrelation3~;
#X obj 163 148 snake~ out 7;
#X obj 141 263 abc_gain7~, f 16;
#X obj 155 294 snake~ in 7;
#X obj 519 265 abc_2d_fx_delay3~;
#X obj 649 205 receive~ source1;
#X obj 649 226 snake~ out 7;
#X obj 533 348 throw~ dec;
#X obj 520 294 abc_gain7~, f 16;
#X obj 533 325 snake~ in 7;
#X obj 1103 196 receive~ source1;
#X obj 1103 217 snake~ out 7;
#X obj 879 354 throw~ dec;
#X obj 866 300 abc_gain7~, f 16;
#X obj 879 331 snake~ in 7;
#X obj 865 270 abc_2d_fx_grain3~;
#X obj 521 515 abc_2d_decoder3~;
#X obj 1429 218 snake~ out 7;
#X obj 1342 349 throw~ dec;
#X obj 1329 295 abc_gain7~, f 16;
#X obj 1342 326 snake~ in 7;
#X obj 1328 265 abc_2d_fx_ringmod3~;
#X obj 1429 197 receive~ source2;
#X obj 1259 463 abc_addsynth7~;
#X obj 1251 500 abc_cosrandenv7~;
#X obj 532 546 snake~ in 8, f 16;
#X obj 942 507 abc_2d_randomtrajectory~;
#X obj 841 581 abc_xy_scope;
#X obj 660 460 snake~ out 7;
#X obj 1266 538 snake~ in 7, f 13;
#X obj 1365 573 abc_ambi_scope3_m;
#X obj 1034 559 abc_cartopol~;
#X obj 1037 623 abc_2d_map3~;
#X obj 1043 660 snake~ in 7;
#X connect 3 0 128 1;
#X connect 5 0 96 0;
#X connect 6 0 7 0;
#X connect 7 0 8 0;
#X connect 9 0 10 0;
#X connect 9 0 12 0;
#X connect 9 0 38 0;
#X connect 10 0 11 0;
#X connect 11 0 14 0;
#X connect 12 0 13 0;
#X connect 13 0 15 0;
#X connect 14 0 8 0;
#X connect 14 0 62 0;
#X connect 15 0 8 0;
#X connect 38 0 39 0;
#X connect 39 0 40 0;
#X connect 40 0 8 0;
#X connect 41 0 6 0;
#X connect 42 0 98 0;
#X connect 43 0 44 0;
#X connect 45 0 46 0;
#X connect 45 0 50 0;
#X connect 45 0 54 0;
#X connect 46 0 47 0;
#X connect 47 0 48 0;
#X connect 48 0 100 0;
#X connect 49 0 52 0;
#X connect 50 0 49 0;
#X connect 51 0 53 0;
#X connect 52 0 100 0;
#X connect 53 0 100 0;
#X connect 54 0 51 0;
#X connect 56 0 104 0;
#X connect 60 0 97 0;
#X connect 64 0 109 0;
#X connect 66 0 76 0;
#X connect 66 0 77 0;
#X connect 66 0 78 0;
#X connect 66 0 75 0;
#X connect 67 0 72 0;
#X connect 68 0 70 0;
#X connect 69 0 71 0;
#X connect 70 0 111 0;
#X connect 71 0 111 0;
#X connect 72 0 111 0;
#X connect 73 0 74 0;
#X connect 74 0 111 0;
#X connect 75 0 73 0;
#X connect 76 0 67 0;
#X connect 77 0 68 0;
#X connect 78 0 69 0;
#X connect 79 0 115 0;
#X connect 80 0 81 0;
#X connect 81 0 82 0;
#X connect 82 0 83 0;
#X connect 83 0 117 0;
#X connect 84 0 117 0;
#X connect 88 0 89 0;
#X connect 89 0 112 0;
#X connect 90 0 112 0;
#X connect 91 0 90 0;
#X connect 94 0 124 0;
#X connect 96 1 98 1;
#X connect 96 2 98 2;
#X connect 96 3 98 3;
#X connect 96 4 98 4;
#X connect 96 5 98 5;
#X connect 96 6 98 6;
#X connect 96 7 98 7;
#X connect 97 0 96 1;
#X connect 97 1 96 2;
#X connect 97 2 96 3;
#X connect 97 3 96 4;
#X connect 97 4 96 5;
#X connect 97 5 96 6;
#X connect 97 6 96 7;
#X connect 98 1 99 0;
#X connect 98 2 99 1;
#X connect 98 3 99 2;
#X connect 98 4 99 3;
#X connect 98 5 99 4;
#X connect 98 6 99 5;
#X connect 98 7 99 6;
#X connect 99 0 57 0;
#X connect 100 1 104 1;
#X connect 100 2 104 2;
#X connect 100 3 104 3;
#X connect 100 4 104 4;
#X connect 100 5 104 5;
#X connect 100 6 104 6;
#X connect 100 7 104 7;
#X connect 101 0 102 0;
#X connect 102 0 100 1;
#X connect 102 1 100 2;
#X connect 102 2 100 3;
#X connect 102 3 100 4;
#X connect 102 4 100 5;
#X connect 102 5 100 6;
#X connect 102 6 100 7;
#X connect 104 1 105 0;
#X connect 104 2 105 1;
#X connect 104 3 105 2;
#X connect 104 4 105 3;
#X connect 104 5 105 4;
#X connect 104 6 105 5;
#X connect 104 7 105 6;
#X connect 105 0 103 0;
#X connect 106 0 107 0;
#X connect 107 0 111 1;
#X connect 107 1 111 2;
#X connect 107 2 111 3;
#X connect 107 3 111 4;
#X connect 107 4 111 5;
#X connect 107 5 111 6;
#X connect 107 6 111 7;
#X connect 109 1 110 0;
#X connect 109 2 110 1;
#X connect 109 3 110 2;
#X connect 109 4 110 3;
#X connect 109 5 110 4;
#X connect 109 6 110 5;
#X connect 109 7 110 6;
#X connect 110 0 108 0;
#X connect 111 1 109 1;
#X connect 111 2 109 2;
#X connect 111 3 109 3;
#X connect 111 4 109 4;
#X connect 111 5 109 5;
#X connect 111 6 109 6;
#X connect 111 7 109 7;
#X connect 112 1 121 0;
#X connect 112 2 121 1;
#X connect 112 3 121 2;
#X connect 112 4 121 3;
#X connect 112 5 121 4;
#X connect 112 6 121 5;
#X connect 112 7 121 6;
#X connect 112 8 121 7;
#X connect 113 0 117 1;
#X connect 113 1 117 2;
#X connect 113 2 117 3;
#X connect 113 3 117 4;
#X connect 113 4 117 5;
#X connect 113 5 117 6;
#X connect 113 6 117 7;
#X connect 115 1 116 0;
#X connect 115 2 116 1;
#X connect 115 3 116 2;
#X connect 115 4 116 3;
#X connect 115 5 116 4;
#X connect 115 6 116 5;
#X connect 115 7 116 6;
#X connect 116 0 114 0;
#X connect 117 1 115 1;
#X connect 117 2 115 2;
#X connect 117 3 115 3;
#X connect 117 4 115 4;
#X connect 117 5 115 5;
#X connect 117 6 115 6;
#X connect 117 7 115 7;
#X connect 118 0 113 0;
#X connect 119 1 120 1;
#X connect 119 2 120 2;
#X connect 119 3 120 3;
#X connect 119 4 120 4;
#X connect 119 5 120 5;
#X connect 119 6 120 6;
#X connect 119 7 120 7;
#X connect 120 1 125 0;
#X connect 120 2 125 1;
#X connect 120 3 125 2;
#X connect 120 4 125 3;
#X connect 120 5 125 4;
#X connect 120 6 125 5;
#X connect 120 7 125 6;
#X connect 121 0 93 0;
#X connect 121 0 92 0;
#X connect 122 1 123 1;
#X connect 122 1 127 1;
#X connect 122 2 123 2;
#X connect 122 2 127 2;
#X connect 124 0 112 1;
#X connect 124 1 112 2;
#X connect 124 2 112 3;
#X connect 124 3 112 4;
#X connect 124 4 112 5;
#X connect 124 5 112 6;
#X connect 124 6 112 7;
#X connect 125 0 63 0;
#X connect 125 0 126 1;
#X connect 127 1 128 2;
#X connect 127 2 128 3;
#X connect 128 1 129 0;
#X connect 128 2 129 1;
#X connect 128 3 129 2;
#X connect 128 4 129 3;
#X connect 128 5 129 4;
#X connect 128 6 129 5;
#X connect 128 7 129 6;
#X connect 129 0 59 0;
