#N canvas 34 25 1577 876 10;
#X obj 14 6 cnv 15 500 25 empty empty abclib_Library 20 12 0 18 #606060 #fcfcfc 0;
#X obj 13 824 abc_helpcredit;
#X obj 14 32 cnv 15 500 25 empty empty abc_2d_ambisonic_fx_processes 20 12 0 12 #606060 #fcfcfc 0;
#X obj 108 154 r cmd;
#X obj 320 415 abc_upanddown;
#X msg 320 460 factor \$1;
#X obj 275 792 s cmd;
#X obj 190 351 loadbang;
#X msg 159 396 0;
#X obj 159 423 vradio 15 1 0 22 empty empty empty 0 -8 0 10 #fcfcfc #000000 #000000 0;
#X msg 189 396 0;
#X floatatom 189 423 5 0 1 0 - - - 0;
#X msg 159 763 functiontype \$1;
#X msg 189 458 fdbk \$1;
#X text 107 468 log(1+x);
#X text 144 426 x;
#X text 132 438 x^2;
#X text 132 454 sin;
#X text 110 484 sqrt(x);
#X text 74 499 1-cos(Pi/2*x);
#X text 62 514 (1-cos(Pi*x))/2;
#X text 97 529 1-(1-x)^2;
#X text 85 543 composite 1;
#X text 133 558 x^3;
#X text 97 573 1-(1-x)^3;
#X text 85 587 composite 2;
#X text 133 602 x^4;
#X text 97 617 1-(1-x)^4;
#X text 85 632 composite 3;
#X text 85 677 composite 4;
#X text 133 647 x^5;
#X text 97 662 1-(1-x)^5;
#X text 85 707 composite 5;
#X text 85 692 2^(10(x-1));
#X text 73 724 1-sqrt(1-x^2);
#X text 61 739 sqrt(1-(x-1)^2);
#X msg 251 376 96000;
#X floatatom 251 423 5 0 1 0 - - - 0;
#X msg 251 460 delay \$1;
#X obj 320 376 tgl 25 1 empty empty empty 17 7 0 10 #dfdfdf #000000 #000000 1 1;
#X obj 17 73 abc_gain -127;
#X obj 1103 771 tgl 15 0 empty empty DSP_on/off 17 7 0 10 #dfdfdf #2f004d #000000 0 1;
#X msg 1103 801 \; pd dsp \$1 \;;
#X obj 590 100 loadbang;
#X msg 519 136 400;
#X floatatom 519 157 5 0 0 0 - - - 0;
#X msg 519 177 window \$1;
#X floatatom 590 157 5 0 0 0 - - - 0;
#X msg 590 136 300;
#X floatatom 666 156 5 0 1 0 - - - 0;
#X msg 590 177 deltime \$1;
#X msg 666 176 feedback \$1;
#X obj 432 103 abc_gain -127;
#X obj 154 317 throw~ dec;
#X obj 261 153 receive~ source1;
#X text 187 561 FX DECORRELATOR CONTROLS;
#X obj 159 791 s cmd2;
#X obj 780 104 abc_gain -127;
#X obj 999 92 loadbang;
#X floatatom 866 150 5 0 0 0 - - - 0;
#X floatatom 953 150 5 0 0 0 - - - 0;
#X floatatom 1029 149 5 0 0 0 - - - 0;
#X msg 953 170 deltime \$1;
#X msg 1029 169 feedback \$1;
#X msg 866 170 grainsize \$1;
#X floatatom 1115 149 5 0 0 0 - - - 0;
#X msg 1115 169 rarefaction \$1;
#X msg 1115 128 0.5;
#X obj 1241 101 abc_gain -127;
#X obj 1328 142 loadbang;
#X floatatom 1328 188 5 0 0 0 - - - 0;
#X msg 1328 213 f0 \$1;
#X obj 1372 213 r cmd2;
#X text 1384 141 function type to be chosen on the bottom left of the patch, f 32;
#X text 1032 431 SOURCES;
#X obj 453 436 tgl 15 0 empty empty empty 17 7 0 10 #dfdfdf #000000 #000000 0 1;
#X msg 453 462 stereo \$1;
#X msg 521 462 directangles \$1;
#X obj 521 436 tgl 15 0 empty empty empty 17 7 0 10 #dfdfdf #000000 #000000 0 1;
#X obj 486 579 dac~ 1;
#X obj 532 579 abc_meter8_m;
#X obj 660 436 catch~ dec 7;
#X text 429 514 COMMON DECODER AT ORDER 3, f 14;
#X obj 141 263 abc_gain7~, f 16;
#X obj 154 294 snake~ in 7;
#X obj 534 348 throw~ dec;
#X obj 521 294 abc_gain7~, f 16;
#X obj 534 325 snake~ in 7;
#X obj 880 354 throw~ dec;
#X obj 867 300 abc_gain7~, f 16;
#X obj 880 331 snake~ in 7;
#X obj 521 515 abc_2d_decoder3~;
#X obj 1344 349 throw~ dec;
#X obj 1331 295 abc_gain7~, f 16;
#X obj 1344 326 snake~ in 7;
#X obj 532 546 snake~ in 8, f 16;
#X obj 660 460 snake~ out 7;
#X text 529 6 we provide 2D SYN processes on ambisonic components: 2D SYN decorrelators \, 2D SYN delays \, 2D SYN granulators \, 2D SYN ring modulators;
#X text 166 99 SYN DECORRELATOR;
#X text 523 85 SYN DELAY;
#X text 871 81 SYN GRANULATOR;
#X text 1340 82 SYN RING MODULATOR;
#X obj 912 469 abc_addsynth9~, f 20;
#X obj 904 506 abc_cosrandenv3~;
#X obj 952 548 *~ 0.2;
#X obj 108 187 abc_2d_syn_decorrelation3~;
#X obj 1070 468 abc_env_noise 30 0.85 0;
#X obj 1070 519 send~ source2;
#X obj 952 584 send~ source1;
#X obj 519 265 abc_2d_syn_delay3~;
#X obj 624 238 receive~ source2;
#X msg 666 135 0.2;
#X msg 866 129 200;
#X msg 953 129 1000;
#X msg 1029 128 0.2;
#X obj 865 270 abc_2d_syn_grain3~;
#X obj 970 240 receive~ source3;
#X obj 1070 609 send~ source3;
#X obj 1070 558 abc_env_noise 550 0.6 0;
#X obj 1445 237 receive~ source1;
#X obj 1328 265 abc_2d_syn_ringmod3~;
#X msg 1328 165 110;
#X connect 3 0 105 0;
#X connect 4 0 5 0;
#X connect 5 0 6 0;
#X connect 7 0 8 0;
#X connect 7 0 10 0;
#X connect 7 0 36 0;
#X connect 8 0 9 0;
#X connect 9 0 12 0;
#X connect 10 0 11 0;
#X connect 11 0 13 0;
#X connect 12 0 6 0;
#X connect 12 0 56 0;
#X connect 13 0 6 0;
#X connect 36 0 37 0;
#X connect 37 0 38 0;
#X connect 38 0 6 0;
#X connect 39 0 4 0;
#X connect 40 0 83 0;
#X connect 41 0 42 0;
#X connect 43 0 44 0;
#X connect 43 0 48 0;
#X connect 43 0 111 0;
#X connect 44 0 45 0;
#X connect 45 0 46 0;
#X connect 46 0 109 0;
#X connect 47 0 50 0;
#X connect 48 0 47 0;
#X connect 49 0 51 0;
#X connect 50 0 109 0;
#X connect 51 0 109 0;
#X connect 52 0 86 0;
#X connect 54 0 105 1;
#X connect 57 0 89 0;
#X connect 58 0 112 0;
#X connect 58 0 113 0;
#X connect 58 0 114 0;
#X connect 58 0 67 0;
#X connect 59 0 64 0;
#X connect 60 0 62 0;
#X connect 61 0 63 0;
#X connect 62 0 115 0;
#X connect 63 0 115 0;
#X connect 64 0 115 0;
#X connect 65 0 66 0;
#X connect 66 0 115 0;
#X connect 67 0 65 0;
#X connect 68 0 93 0;
#X connect 69 0 121 0;
#X connect 70 0 71 0;
#X connect 71 0 120 0;
#X connect 72 0 120 0;
#X connect 75 0 76 0;
#X connect 76 0 91 0;
#X connect 77 0 91 0;
#X connect 78 0 77 0;
#X connect 81 0 96 0;
#X connect 83 1 84 0;
#X connect 83 2 84 1;
#X connect 83 3 84 2;
#X connect 83 4 84 3;
#X connect 83 5 84 4;
#X connect 83 6 84 5;
#X connect 83 7 84 6;
#X connect 84 0 53 0;
#X connect 86 1 87 0;
#X connect 86 2 87 1;
#X connect 86 3 87 2;
#X connect 86 4 87 3;
#X connect 86 5 87 4;
#X connect 86 6 87 5;
#X connect 86 7 87 6;
#X connect 87 0 85 0;
#X connect 89 1 90 0;
#X connect 89 2 90 1;
#X connect 89 3 90 2;
#X connect 89 4 90 3;
#X connect 89 5 90 4;
#X connect 89 6 90 5;
#X connect 89 7 90 6;
#X connect 90 0 88 0;
#X connect 91 1 95 0;
#X connect 91 2 95 1;
#X connect 91 3 95 2;
#X connect 91 4 95 3;
#X connect 91 5 95 4;
#X connect 91 6 95 5;
#X connect 91 7 95 6;
#X connect 91 8 95 7;
#X connect 93 1 94 0;
#X connect 93 2 94 1;
#X connect 93 3 94 2;
#X connect 93 4 94 3;
#X connect 93 5 94 4;
#X connect 93 6 94 5;
#X connect 93 7 94 6;
#X connect 94 0 92 0;
#X connect 95 0 80 0;
#X connect 95 0 79 0;
#X connect 96 0 91 1;
#X connect 96 1 91 2;
#X connect 96 2 91 3;
#X connect 96 3 91 4;
#X connect 96 4 91 5;
#X connect 96 5 91 6;
#X connect 96 6 91 7;
#X connect 102 1 103 1;
#X connect 102 2 103 2;
#X connect 102 3 103 3;
#X connect 102 4 103 1;
#X connect 102 5 103 2;
#X connect 102 6 103 3;
#X connect 102 7 103 1;
#X connect 102 8 103 2;
#X connect 102 9 103 3;
#X connect 103 1 104 0;
#X connect 103 2 104 0;
#X connect 103 3 104 0;
#X connect 104 0 108 0;
#X connect 105 1 83 1;
#X connect 105 2 83 2;
#X connect 105 3 83 3;
#X connect 105 4 83 4;
#X connect 105 5 83 5;
#X connect 105 6 83 6;
#X connect 105 7 83 7;
#X connect 106 0 107 0;
#X connect 109 1 86 1;
#X connect 109 2 86 2;
#X connect 109 3 86 3;
#X connect 109 4 86 4;
#X connect 109 5 86 5;
#X connect 109 6 86 6;
#X connect 109 7 86 7;
#X connect 110 0 109 1;
#X connect 111 0 49 0;
#X connect 112 0 59 0;
#X connect 113 0 60 0;
#X connect 114 0 61 0;
#X connect 115 1 89 1;
#X connect 115 2 89 2;
#X connect 115 3 89 3;
#X connect 115 4 89 4;
#X connect 115 5 89 5;
#X connect 115 6 89 6;
#X connect 115 7 89 7;
#X connect 116 0 115 1;
#X connect 118 0 117 0;
#X connect 119 0 120 1;
#X connect 120 1 93 1;
#X connect 120 2 93 2;
#X connect 120 3 93 3;
#X connect 120 4 93 4;
#X connect 120 5 93 5;
#X connect 120 6 93 6;
#X connect 120 7 93 7;
#X connect 121 0 70 0;
