#N canvas 77 266 2325 1073 10;
#X obj 14 6 cnv 15 500 25 empty empty abclib_Library 20 12 0 18 #606060 #fcfcfc 0;
#X obj 13 1026 abc_helpcredit;
#X obj 14 32 cnv 15 500 25 empty empty abc_utilities 20 12 0 12 #606060 #fcfcfc 0;
#X obj 1119 964 tgl 15 0 empty empty DSP_on/off 17 7 0 10 #dfdfdf #2f004d #000000 0 1;
#X msg 1119 994 \; pd dsp \$1 \;;
#X text 529 6 we provide utility objects: matrices and bus selectors \, busplusses and busmults \, multiple gains \, a phasor between 0 and 2*PI \, a multiplicator by 2*PI \, linedrive \, cartesian to polar \, polar to cartesian;
#N canvas 0 25 1593 353 randomcells 0;
#X obj 34 31 loadbang;
#X msg 34 52 1;
#X obj 34 72 metro 10000;
#X obj 35 150 random 1000;
#X floatatom 35 192 5 0 0 0 - - - 0;
#X obj 35 171 expr $f1 / 1000 * 0.4 -0.2;
#X obj 35 237 outlet;
#X obj 201 147 random 1000;
#X floatatom 201 189 5 0 0 0 - - - 0;
#X obj 201 168 expr $f1 / 1000 * 0.4 -0.2;
#X obj 201 234 outlet;
#X obj 367 146 random 1000;
#X floatatom 367 188 5 0 0 0 - - - 0;
#X obj 367 167 expr $f1 / 1000 * 0.4 -0.2;
#X obj 367 233 outlet;
#X obj 532 144 random 1000;
#X floatatom 532 186 5 0 0 0 - - - 0;
#X obj 532 165 expr $f1 / 1000 * 0.4 -0.2;
#X obj 532 231 outlet;
#X obj 697 144 random 1000;
#X floatatom 697 186 5 0 0 0 - - - 0;
#X obj 697 165 expr $f1 / 1000 * 0.4 -0.2;
#X obj 697 231 outlet;
#X obj 863 142 random 1000;
#X floatatom 863 184 5 0 0 0 - - - 0;
#X obj 863 163 expr $f1 / 1000 * 0.4 -0.2;
#X obj 863 229 outlet;
#X obj 1032 139 random 1000;
#X floatatom 1032 181 5 0 0 0 - - - 0;
#X obj 1032 160 expr $f1 / 1000 * 0.4 -0.2;
#X obj 1032 226 outlet;
#X obj 1197 139 random 1000;
#X floatatom 1197 181 5 0 0 0 - - - 0;
#X obj 1197 160 expr $f1 / 1000 * 0.4 -0.2;
#X obj 1197 226 outlet;
#X obj 1363 137 random 1000;
#X floatatom 1363 179 5 0 0 0 - - - 0;
#X obj 1363 158 expr $f1 / 1000 * 0.4 -0.2;
#X obj 1363 224 outlet;
#X connect 0 0 1 0;
#X connect 1 0 2 0;
#X connect 2 0 3 0;
#X connect 2 0 7 0;
#X connect 2 0 11 0;
#X connect 2 0 15 0;
#X connect 2 0 19 0;
#X connect 2 0 23 0;
#X connect 2 0 27 0;
#X connect 2 0 31 0;
#X connect 2 0 35 0;
#X connect 3 0 5 0;
#X connect 4 0 6 0;
#X connect 5 0 4 0;
#X connect 7 0 9 0;
#X connect 8 0 10 0;
#X connect 9 0 8 0;
#X connect 11 0 13 0;
#X connect 12 0 14 0;
#X connect 13 0 12 0;
#X connect 15 0 17 0;
#X connect 16 0 18 0;
#X connect 17 0 16 0;
#X connect 19 0 21 0;
#X connect 20 0 22 0;
#X connect 21 0 20 0;
#X connect 23 0 25 0;
#X connect 24 0 26 0;
#X connect 25 0 24 0;
#X connect 27 0 29 0;
#X connect 28 0 30 0;
#X connect 29 0 28 0;
#X connect 31 0 33 0;
#X connect 32 0 34 0;
#X connect 33 0 32 0;
#X connect 35 0 37 0;
#X connect 36 0 38 0;
#X connect 37 0 36 0;
#X restore 142 117 pd randomcells;
#X obj 181 332 abc_matrix3;
#X msg 123 180 m-0 \$1;
#X msg 170 180 m-1 \$1;
#X msg 217 180 m-2 \$1;
#X msg 123 207 m-3 \$1;
#X msg 170 207 m-4 \$1;
#X msg 217 207 m-5 \$1;
#X msg 123 232 m-6 \$1;
#X msg 170 232 m-7 \$1;
#X msg 217 232 m-8 \$1;
#X obj 341 289 abc_addsynth5~;
#X obj 308 147 loadbang;
#X msg 272 186 10000;
#X floatatom 272 207 5 0 0 0 - - - 0;
#X msg 272 227 ramp \$1;
#X obj 315 475 abc_chopan3~;
#X floatatom 340 207 5 0 0 0 - - - 0;
#X msg 340 186 415;
#X msg 340 228 f0 \$1;
#X obj 354 510 dac~;
#X obj 26 258 abc_gain -127;
#X text 196 86 MATRICES;
#X obj 551 127 abc_gain -127;
#X obj 644 183 vradio 15 1 0 2 empty empty empty 0 -8 0 10 #fcfcfc #000000 #000000 0;
#X msg 644 244 leftOrRight \$1;
#X obj 825 198 abc_multinoise8~;
#X obj 809 245 abc_substractsynth8~;
#X obj 940 245 abc_cosrandenv8~;
#X obj 950 198 abc_addsynth8~;
#X obj 740 182 loadbang;
#X msg 740 203 7000;
#X floatatom 740 224 5 0 0 0 - - - 0;
#X msg 740 244 ramp \$1;
#X obj 865 410 abc_stereoout -15;
#X text 661 180 substractive;
#X text 662 196 additive;
#X text 641 164 Synthesis;
#X obj 841 315 abc_busselect8~;
#X obj 856 356 abc_chopan8~;
#X text 749 84 BUS SELECTORS;
#X text 171 635 CHOWNING PANNERS;
#X text 1202 85 BUS SUMS;
#X obj 1279 532 abc_stereoout -30;
#X obj 1108 122 abc_gain -127;
#X obj 1313 144 abc_upanddown;
#X obj 1313 124 tgl 15 1 empty empty empty 17 7 0 10 #fcfcfc #000000 #000000 1 1;
#X obj 1311 82 loadbang;
#X msg 1312 103 1;
#X obj 1313 199 * 10;
#X obj 1313 220 + 0.1;
#X obj 1313 243 t b f;
#X msg 1235 147 220;
#X floatatom 1235 168 5 0 0 0 - - - 0;
#X msg 1235 341 f0 \$1;
#X obj 1292 283 +;
#X floatatom 1292 304 5 0 0 0 - - - 0;
#X msg 1292 340 f0 \$1;
#X obj 1130 388 loadbang;
#X msg 1130 419 gain -6;
#X text 1332 441 creates 4 frequency beats between 2 close harmonic sounds with 4 partials, f 26;
#X obj 1192 387 abc_addsynth4~;
#X obj 1292 387 abc_addsynth4~;
#X obj 1239 442 abc_busplus4~;
#X obj 1249 471 abc_gain4~;
#X obj 1245 498 abc_chopan4~;
#X text 1476 82 BUS MULTIPLICATIONS;
#X obj 1497 156 abc_gain -127;
#X obj 1607 209 loadbang;
#X obj 1664 227 + 0.1;
#X msg 1607 245 220;
#X floatatom 1607 266 5 0 0 0 - - - 0;
#X msg 1607 304 f0 \$1;
#X floatatom 1664 267 5 0 0 0 - - - 0;
#X msg 1664 303 f0 \$1;
#X obj 1502 351 loadbang;
#X msg 1502 382 gain -6;
#X obj 1664 206 * 20;
#X text 1705 401 ring modulation on a set of 7 harmonics of the 220 Hz A with 7 harmonics of a LF fundamental (between 0.1 and 20.1 Hz), f 30;
#X obj 1564 350 abc_addsynth4~;
#X obj 1664 350 abc_addsynth4~;
#X obj 1611 405 abc_busmult4~;
#X obj 1620 438 abc_gain4~;
#X obj 1612 471 abc_chopan4~;
#X obj 1647 504 abc_stereoout -20;
#X obj 158 703 loadbang;
#X msg 158 724 30;
#X floatatom 158 745 5 0 90 0 - - - 0;
#X msg 158 765 phi0 \$1;
#X text 40 680 Half angle of the stereophony (in degrees);
#X obj 389 607 loadbang;
#X msg 389 628 gain -10;
#X obj 404 898 abc_stereoout -15;
#X obj 302 603 abc_gain -127;
#X obj 389 655 abc_addsynth16~;
#X obj 388 751 abc_cosrandenv16~;
#X obj 401 855 abc_chopan16~;
#X obj 696 607 loadbang;
#X msg 696 672 1;
#X obj 696 711 metro 50;
#X obj 696 691 tgl 15 0 empty empty empty 17 7 0 10 #fcfcfc #000000 #000000 0 1;
#X obj 668 780 snapshot~;
#X floatatom 668 801 5 0 0 0 - - - 0;
#X obj 586 712 abc_phasor2pi~;
#X msg 586 650 0.2;
#X floatatom 586 671 5 0 0 0 - - - 0;
#X msg 586 691 freq \$1;
#X obj 738 781 cyclone/scope~ 130 130 256 3 128 0 7 0 0 0 0 205 229 232 74 79 77 96 98 102 0 empty;
#X text 759 916 cyclone/scope~;
#X text 543 602 PHASOR BETWEEN 0 AND 2*PI;
#X obj 990 634 phasor~ 1;
#X obj 921 676 abc_mult2pi~;
#X obj 1106 643 loadbang;
#X msg 1106 664 1;
#X obj 1106 703 metro 50;
#X obj 1106 736 snapshot~;
#X obj 1106 683 tgl 15 0 empty empty empty 17 7 0 10 #fcfcfc #000000 #000000 0 1;
#X floatatom 1106 757 5 0 0 0 - - - 0;
#X obj 1035 737 snapshot~;
#X floatatom 1035 758 5 0 0 0 - - - 0;
#X text 933 758 theta in radians;
#X obj 991 781 cyclone/scope~ 130 130 256 3 128 0 7 0 0 0 0 205 229 232 74 79 77 96 98 102 0 empty;
#X text 1012 916 cyclone/scope~;
#X text 888 603 MULTIPLIER BY 2*PI;
#X obj 1445 723 abc_2d_squaretrajectory~;
#X obj 1423 784 abc_cartopol~;
#X obj 1379 824 abc_2d_map1~;
#X text 1440 694 generates a square trajectory in cartesian;
#X obj 1369 891 abc_2d_decoder1~;
#X obj 1256 843 tgl 15 0 empty empty empty 17 7 0 10 #dfdfdf #000000 #000000 0 1;
#X msg 1256 863 stereo \$1;
#X obj 1402 649 abc_env_noise 200 0.3 0;
#X obj 1264 651 abc_gain -127;
#X obj 1363 939 abc_quadriout 0 1 2 3 4;
#X obj 1521 784 abc_xy_scope;
#X text 1377 606 CARTOPOL;
#X obj 1867 621 phasor~ 0.03;
#X obj 1819 657 cos~;
#X obj 1819 678 +~ 1;
#X obj 1890 675 abc_mult2pi~;
#X obj 1959 699 *~ 10;
#X obj 1873 739 abc_poltocar~;
#X obj 1842 784 abc_xy_scope;
#X obj 1819 699 *~ 0.45;
#X text 1875 597 POLTOCAR;
#X obj 1969 144 loadbang;
#X msg 1969 165 1;
#X obj 1969 186 metro 50;
#X obj 2087 141 phasor~ 1;
#X obj 2087 162 *~ 127;
#X obj 2127 243 snapshot~;
#X floatatom 2127 264 5 0 0 1 input_as_a_phasor_*~_127 - - 0;
#X obj 2008 400 abc_linedrive~;
#X msg 2009 354 expcurve \$1;
#X obj 2008 446 snapshot~;
#X floatatom 2008 467 5 0 0 1 exponential_result - - 0;
#X msg 1999 310 1.06;
#X msg 2034 310 2;
#X obj 2133 509 hsl 128 15 0 127 0 0 empty empty input -2 -8 0 10 #fcfcfc #000000 #000000 0 1;
#X obj 2133 543 hsl 128 15 0 1 0 0 empty empty linedrive -2 -8 0 10 #fcfcfc #000000 #000000 0 1;
#X text 1963 82 LINE DRIVE;
#X connect 3 0 4 0;
#X connect 6 0 8 0;
#X connect 6 1 9 0;
#X connect 6 2 10 0;
#X connect 6 3 11 0;
#X connect 6 4 12 0;
#X connect 6 5 13 0;
#X connect 6 6 14 0;
#X connect 6 7 15 0;
#X connect 6 8 16 0;
#X connect 7 1 22 1;
#X connect 7 2 22 2;
#X connect 7 3 22 3;
#X connect 8 0 7 0;
#X connect 9 0 7 0;
#X connect 10 0 7 0;
#X connect 11 0 7 0;
#X connect 12 0 7 0;
#X connect 13 0 7 0;
#X connect 14 0 7 0;
#X connect 15 0 7 0;
#X connect 16 0 7 0;
#X connect 17 1 7 1;
#X connect 17 2 7 1;
#X connect 17 3 7 2;
#X connect 17 4 7 2;
#X connect 17 5 7 3;
#X connect 18 0 19 0;
#X connect 18 0 24 0;
#X connect 19 0 20 0;
#X connect 20 0 21 0;
#X connect 21 0 7 0;
#X connect 22 1 26 0;
#X connect 22 2 26 1;
#X connect 23 0 25 0;
#X connect 24 0 23 0;
#X connect 25 0 17 0;
#X connect 27 0 22 0;
#X connect 29 0 45 0;
#X connect 30 0 31 0;
#X connect 31 0 44 0;
#X connect 32 1 33 1;
#X connect 32 2 33 2;
#X connect 32 3 33 3;
#X connect 32 4 33 4;
#X connect 32 5 33 5;
#X connect 32 6 33 6;
#X connect 32 7 33 7;
#X connect 32 8 33 8;
#X connect 33 1 44 1;
#X connect 33 2 44 2;
#X connect 33 3 44 3;
#X connect 33 4 44 4;
#X connect 33 5 44 5;
#X connect 33 6 44 6;
#X connect 33 7 44 7;
#X connect 33 8 44 8;
#X connect 34 1 44 9;
#X connect 34 2 44 10;
#X connect 34 3 44 11;
#X connect 34 4 44 12;
#X connect 34 5 44 13;
#X connect 34 6 44 14;
#X connect 34 7 44 15;
#X connect 34 8 44 16;
#X connect 35 1 34 1;
#X connect 35 2 34 2;
#X connect 35 3 34 3;
#X connect 35 4 34 4;
#X connect 35 5 34 5;
#X connect 35 6 34 6;
#X connect 35 7 34 7;
#X connect 35 8 34 8;
#X connect 36 0 37 0;
#X connect 37 0 38 0;
#X connect 38 0 39 0;
#X connect 39 0 44 0;
#X connect 44 1 45 1;
#X connect 44 2 45 2;
#X connect 44 3 45 3;
#X connect 44 4 45 4;
#X connect 44 5 45 5;
#X connect 44 6 45 6;
#X connect 44 7 45 7;
#X connect 44 8 45 8;
#X connect 45 1 40 0;
#X connect 45 2 40 1;
#X connect 50 0 67 0;
#X connect 50 0 68 0;
#X connect 51 0 55 0;
#X connect 51 0 83 0;
#X connect 52 0 51 0;
#X connect 53 0 54 0;
#X connect 53 0 58 0;
#X connect 54 0 52 0;
#X connect 55 0 56 0;
#X connect 56 0 57 0;
#X connect 57 0 61 0;
#X connect 57 1 61 1;
#X connect 58 0 59 0;
#X connect 59 0 60 0;
#X connect 59 0 61 0;
#X connect 60 0 67 0;
#X connect 61 0 62 0;
#X connect 62 0 63 0;
#X connect 63 0 68 0;
#X connect 64 0 65 0;
#X connect 65 0 70 0;
#X connect 67 1 69 1;
#X connect 67 2 69 2;
#X connect 67 3 69 3;
#X connect 67 4 69 4;
#X connect 68 1 69 5;
#X connect 68 2 69 6;
#X connect 68 3 69 7;
#X connect 68 4 69 8;
#X connect 69 1 70 1;
#X connect 69 2 70 2;
#X connect 69 3 70 3;
#X connect 69 4 70 4;
#X connect 70 1 71 1;
#X connect 70 2 71 2;
#X connect 70 3 71 3;
#X connect 70 4 71 4;
#X connect 71 1 49 0;
#X connect 71 2 49 1;
#X connect 73 0 85 0;
#X connect 73 0 86 0;
#X connect 74 0 76 0;
#X connect 75 0 79 0;
#X connect 76 0 77 0;
#X connect 77 0 78 0;
#X connect 78 0 85 0;
#X connect 79 0 80 0;
#X connect 80 0 86 0;
#X connect 81 0 82 0;
#X connect 82 0 88 0;
#X connect 83 0 75 0;
#X connect 85 1 87 1;
#X connect 85 2 87 2;
#X connect 85 3 87 3;
#X connect 85 4 87 4;
#X connect 86 1 87 5;
#X connect 86 2 87 6;
#X connect 86 3 87 7;
#X connect 86 4 87 8;
#X connect 87 1 88 1;
#X connect 87 2 88 2;
#X connect 87 3 88 3;
#X connect 87 4 88 4;
#X connect 88 1 89 1;
#X connect 88 2 89 2;
#X connect 88 3 89 3;
#X connect 88 4 89 4;
#X connect 89 1 90 0;
#X connect 89 2 90 1;
#X connect 91 0 92 0;
#X connect 92 0 93 0;
#X connect 93 0 94 0;
#X connect 94 0 102 0;
#X connect 96 0 97 0;
#X connect 97 0 100 0;
#X connect 99 0 102 0;
#X connect 100 1 101 1;
#X connect 100 2 101 2;
#X connect 100 3 101 3;
#X connect 100 4 101 4;
#X connect 100 5 101 5;
#X connect 100 6 101 6;
#X connect 100 7 101 7;
#X connect 100 8 101 8;
#X connect 100 9 101 9;
#X connect 100 10 101 10;
#X connect 100 11 101 11;
#X connect 100 12 101 12;
#X connect 100 13 101 13;
#X connect 100 14 101 14;
#X connect 100 15 101 15;
#X connect 100 16 101 16;
#X connect 101 1 102 1;
#X connect 101 2 102 2;
#X connect 101 3 102 3;
#X connect 101 4 102 4;
#X connect 101 5 102 5;
#X connect 101 6 102 6;
#X connect 101 7 102 7;
#X connect 101 8 102 8;
#X connect 101 9 102 9;
#X connect 101 10 102 10;
#X connect 101 11 102 11;
#X connect 101 12 102 12;
#X connect 101 13 102 13;
#X connect 101 14 102 14;
#X connect 101 15 102 15;
#X connect 101 16 102 16;
#X connect 102 1 98 0;
#X connect 102 2 98 1;
#X connect 103 0 104 0;
#X connect 103 0 110 0;
#X connect 104 0 106 0;
#X connect 105 0 107 0;
#X connect 106 0 105 0;
#X connect 107 0 108 0;
#X connect 109 1 107 0;
#X connect 109 1 113 0;
#X connect 110 0 111 0;
#X connect 111 0 112 0;
#X connect 112 0 109 0;
#X connect 116 0 117 1;
#X connect 116 0 121 0;
#X connect 117 1 124 0;
#X connect 117 1 127 0;
#X connect 118 0 119 0;
#X connect 119 0 122 0;
#X connect 120 0 121 0;
#X connect 120 0 124 0;
#X connect 121 0 123 0;
#X connect 122 0 120 0;
#X connect 124 0 125 0;
#X connect 130 1 131 1;
#X connect 130 1 140 1;
#X connect 130 2 131 2;
#X connect 130 2 140 2;
#X connect 131 1 132 2;
#X connect 131 2 132 3;
#X connect 132 1 134 1;
#X connect 132 2 134 2;
#X connect 132 3 134 3;
#X connect 134 1 139 0;
#X connect 134 2 139 1;
#X connect 134 3 139 2;
#X connect 134 4 139 3;
#X connect 135 0 136 0;
#X connect 136 0 134 0;
#X connect 137 0 132 1;
#X connect 138 0 134 0;
#X connect 142 0 143 0;
#X connect 142 0 145 1;
#X connect 143 0 144 0;
#X connect 144 0 149 0;
#X connect 145 1 146 0;
#X connect 146 0 147 2;
#X connect 147 1 148 1;
#X connect 147 2 148 2;
#X connect 149 0 147 1;
#X connect 151 0 152 0;
#X connect 152 0 153 0;
#X connect 153 0 156 0;
#X connect 153 0 160 0;
#X connect 154 0 155 0;
#X connect 155 0 156 0;
#X connect 155 0 158 1;
#X connect 156 0 157 0;
#X connect 157 0 164 0;
#X connect 158 1 160 0;
#X connect 159 0 158 0;
#X connect 160 0 161 0;
#X connect 161 0 165 0;
#X connect 162 0 159 0;
#X connect 163 0 159 0;
