#N canvas 212 193 1878 1068 10;
#X obj 14 6 cnv 15 500 25 empty empty abclib_Library 20 12 0 18 #606060 #fcfcfc 0;
#X obj 13 1026 abc_helpcredit;
#X obj 14 32 cnv 15 500 25 empty empty abc_synthesis 20 12 0 12 #606060 #fcfcfc 0;
#X obj 667 904 tgl 15 0 empty empty DSP_on/off 17 7 0 10 #dfdfdf #2f004d #000000 0 1;
#X msg 667 934 \; pd dsp \$1 \;;
#X text 529 6 we provide objects for multichannel synthesis: classical additive synthesis \, classical substractive synthesis \, Risset's bell synthesis on 11 partials \, soundcoat and soundgrain generators \, rain drops \, bank of oscillators inspired by Jupiter by Philippe Manoury \, PAFs from Miller Puckette's model.;
#X text 196 86 ADDITIVE vs SUBSTRACTIVE SYNTHESIS;
#X obj 34 104 abc_gain -127;
#X obj 127 160 vradio 15 1 0 2 empty empty empty 0 -8 0 10 #fcfcfc #000000 #000000 0;
#X msg 127 221 leftOrRight \$1;
#X obj 308 175 abc_multinoise8~;
#X obj 292 222 abc_substractsynth8~;
#X obj 223 159 loadbang;
#X msg 223 180 7000;
#X floatatom 223 201 5 0 0 0 - - - 0;
#X msg 223 221 ramp \$1;
#X obj 335 429 abc_stereoout -15;
#X text 144 157 substractive;
#X text 145 173 additive;
#X text 124 141 Synthesis;
#X obj 324 292 abc_busselect8~;
#X obj 321 342 abc_cosrandenv8~;
#X obj 423 222 abc_addsynth8~;
#X obj 324 380 abc_chopan8~, f 15;
#X text 672 84 RISSET'S BELL;
#X obj 582 153 abc_gain -127;
#X obj 607 385 abc_meter;
#X obj 855 106 bng 50 250 50 0 empty empty triggers_the_bell 0 -10 0 10 #fcfcfc #000000 #000000;
#X obj 855 161 t b b;
#X obj 855 187 del 100;
#X msg 910 187 1;
#X msg 855 208 0;
#X obj 684 180 loadbang;
#X msg 684 207 440;
#X floatatom 684 228 5 0 0 0 - - - 0;
#X msg 684 248 freq \$1;
#X floatatom 737 227 5 0 0 0 - - - 0;
#X msg 738 247 dur \$1;
#X msg 737 206 30000;
#X msg 855 240 gate \$1;
#X obj 705 396 abc_stereoout -15;
#X obj 684 284 abc_rissetsbell~, f 29;
#X obj 721 349 abc_chopan11~;
#X obj 1073 387 abc_meter;
#X obj 1166 232 loadbang;
#X msg 1166 253 3000;
#X floatatom 1166 274 5 0 0 0 - - - 0;
#X msg 1166 294 randwin \$1;
#X obj 1140 387 abc_stereoout -15;
#X obj 1047 130 abc_gain -127;
#X obj 1047 323 abc_soundcoat~;
#X text 1048 78 SOUNDCOAT;
#X text 1296 76 SOUNDGRAIN;
#X obj 1365 378 abc_meter;
#X obj 1409 227 loadbang;
#X floatatom 1409 269 5 0 0 0 - - - 0;
#X obj 1290 125 abc_gain -127;
#X msg 1409 248 1;
#X msg 1409 289 freqmult \$1;
#X obj 1432 378 abc_stereoout -15;
#X obj 1290 315 abc_soundgrain~;
#X obj 1591 312 abc_drops~;
#X obj 1586 377 abc_stereoout -15;
#X obj 1591 119 abc_gain -127;
#X obj 1559 283 r dr;
#X obj 1681 190 loadbang;
#X msg 1681 217 \; dr dropperiod 1000 \; dr dropthinness 50 \; dr qf 50 \; dr limiter 1 \; dr avgfreq 1407 \; dr attackdur 5 \;;
#X obj 1703 377 abc_meter;
#X text 1590 75 DROPS;
#X obj 282 604 loadbang;
#X floatatom 192 668 5 0 0 0 - - - 0;
#X msg 192 697 k \$1;
#X floatatom 249 668 5 0 0 0 - - - 0;
#X msg 249 697 f0 \$1;
#X floatatom 311 668 5 0 0 0 - - - 0;
#X floatatom 365 668 5 0 0 0 - - - 0;
#X msg 311 697 resg \$1;
#X msg 365 697 resq \$1;
#X msg 311 647 10;
#X msg 365 647 60;
#X msg 249 647 220;
#X msg 192 647 1.004;
#N canvas 1687 256 321 298 factorAndOscFilterGeneration 0;
#X obj 54 30 osc~ 0.05;
#X obj 54 72 *~ 2;
#X obj 54 97 +~ 2.02;
#X obj 132 72 +~ 1;
#X obj 132 96 *~ 0.2;
#X obj 54 135 snapshot~;
#X obj 132 135 snapshot~;
#X obj 233 50 loadbang;
#X msg 233 71 1;
#X obj 233 95 metro 20;
#X obj 132 156 * -1;
#X obj 132 177 + 0.4;
#X obj 55 235 outlet;
#X obj 132 234 outlet;
#X connect 0 0 1 0;
#X connect 0 0 3 0;
#X connect 1 0 2 0;
#X connect 2 0 5 0;
#X connect 3 0 4 0;
#X connect 4 0 6 0;
#X connect 5 0 12 0;
#X connect 6 0 10 0;
#X connect 7 0 8 0;
#X connect 8 0 9 0;
#X connect 9 0 5 0;
#X connect 9 0 6 0;
#X connect 10 0 11 0;
#X connect 11 0 13 0;
#X restore 424 663 pd factorAndOscFilterGeneration;
#X floatatom 424 696 5 0 0 0 - - - 0;
#X msg 424 716 fa \$1;
#X floatatom 607 697 5 0 0 0 - - - 0;
#X msg 607 717 osc2filter \$1;
#X obj 247 887 abc_stereoout -30;
#X obj 93 577 abc_gain -127;
#X obj 230 783 abc_jupiterbank2~;
#X obj 242 839 abc_chopan14~;
#X text 251 575 JUPITER BANK OF OSCILLATORS;
#X obj 895 626 r p1;
#N canvas 515 50 143 300 perfectThird 0;
#X obj 56 258 outlet;
#X obj 30 10 inlet;
#X obj 30 31 route f0;
#X obj 30 56 * 1.25;
#X msg 30 103 f0 \$1;
#X connect 1 0 2 0;
#X connect 2 0 3 0;
#X connect 2 1 0 0;
#X connect 3 0 4 0;
#X connect 4 0 0 0;
#X restore 1006 663 pd perfectThird;
#X obj 895 810 abc_puckettespaf~;
#X obj 1007 810 abc_puckettespaf~;
#X obj 997 850 abc_stereoout -20;
#X obj 799 616 abc_gain -127;
#N canvas 24 318 697 519 pafControl1 0;
#X obj 27 27 inlet;
#X obj 100 251 spigot;
#X obj 308 248 spigot;
#X obj 573 251 spigot;
#X obj 127 370 loadbang;
#X msg 127 391 350;
#X obj 102 442 outlet;
#X text 122 421 f0;
#X obj 146 49 *~ 5;
#X obj 146 70 +~ 349.228;
#X obj 146 161 snapshot~;
#X obj 332 370 loadbang;
#X obj 307 442 outlet;
#X msg 332 391 50;
#X text 327 421 bw;
#X obj 575 443 outlet;
#X text 595 422 a;
#X obj 308 49 +~ 1;
#X obj 308 70 *~ 100;
#X obj 308 91 +~ 50;
#X obj 308 162 snapshot~;
#X obj 445 34 loadbang;
#X msg 445 55 1;
#X obj 572 116 abc_upanddown;
#X obj 572 161 * 0.15;
#X obj 572 182 + 0.08;
#X floatatom 572 203 5 0 0 0 - - - 0;
#X obj 146 28 osc~ 0.09;
#X obj 308 28 osc~ 0.11;
#X obj 445 76 metro 20;
#X obj 572 90 tgl 15 0 empty empty empty 17 7 0 10 #fcfcfc #000000 #000000 0 1;
#X connect 0 0 1 1;
#X connect 0 0 2 1;
#X connect 0 0 3 1;
#X connect 1 0 6 0;
#X connect 2 0 12 0;
#X connect 3 0 15 0;
#X connect 4 0 5 0;
#X connect 5 0 6 0;
#X connect 8 0 9 0;
#X connect 9 0 10 0;
#X connect 10 0 1 0;
#X connect 11 0 13 0;
#X connect 13 0 12 0;
#X connect 17 0 18 0;
#X connect 18 0 19 0;
#X connect 19 0 20 0;
#X connect 20 0 2 0;
#X connect 21 0 22 0;
#X connect 22 0 29 0;
#X connect 23 0 24 0;
#X connect 24 0 25 0;
#X connect 25 0 26 0;
#X connect 26 0 3 0;
#X connect 27 0 8 0;
#X connect 28 0 17 0;
#X connect 29 0 20 0;
#X connect 29 0 10 0;
#X connect 30 0 23 0;
#X restore 1161 699 pd pafControl1;
#X obj 1161 663 tgl 15 0 empty empty empty 17 7 0 10 #fcfcfc #000000 #000000 0 1;
#X floatatom 1161 746 5 0 0 0 - - - 0;
#X msg 1161 768 f0 \$1;
#X floatatom 1201 746 5 0 0 0 - - - 0;
#X floatatom 1242 747 5 0 0 0 - - - 0;
#X msg 1201 768 bw \$1;
#X obj 1161 825 s p1;
#X msg 1242 768 a \$1;
#X obj 1356 667 loadbang;
#X obj 1161 613 loadbang;
#X msg 1161 634 1;
#X msg 1310 727 500;
#X floatatom 1310 748 5 0 0 0 - - - 0;
#X msg 1310 768 cf \$1;
#X floatatom 1356 748 5 0 0 0 - - - 0;
#X msg 1356 727 1;
#X msg 1356 768 wf \$1;
#X floatatom 1401 749 5 0 0 0 - - - 0;
#X msg 1401 728 1;
#X msg 1401 769 sigma \$1;
#X text 973 583 PHASE ALIGNED FORMANTS;
#X connect 3 0 4 0;
#X connect 7 0 23 0;
#X connect 8 0 9 0;
#X connect 9 0 20 0;
#X connect 10 1 11 1;
#X connect 10 2 11 2;
#X connect 10 3 11 3;
#X connect 10 4 11 4;
#X connect 10 5 11 5;
#X connect 10 6 11 6;
#X connect 10 7 11 7;
#X connect 10 8 11 8;
#X connect 11 1 20 1;
#X connect 11 2 20 2;
#X connect 11 3 20 3;
#X connect 11 4 20 4;
#X connect 11 5 20 5;
#X connect 11 6 20 6;
#X connect 11 7 20 7;
#X connect 11 8 20 8;
#X connect 12 0 13 0;
#X connect 13 0 14 0;
#X connect 14 0 15 0;
#X connect 15 0 20 0;
#X connect 20 1 21 1;
#X connect 20 2 21 2;
#X connect 20 3 21 3;
#X connect 20 4 21 4;
#X connect 20 5 21 5;
#X connect 20 6 21 6;
#X connect 20 7 21 7;
#X connect 20 8 21 8;
#X connect 21 1 23 1;
#X connect 21 2 23 2;
#X connect 21 3 23 3;
#X connect 21 4 23 4;
#X connect 21 5 23 5;
#X connect 21 6 23 6;
#X connect 21 7 23 7;
#X connect 21 8 23 8;
#X connect 22 1 20 9;
#X connect 22 2 20 10;
#X connect 22 3 20 11;
#X connect 22 4 20 12;
#X connect 22 5 20 13;
#X connect 22 6 20 14;
#X connect 22 7 20 15;
#X connect 22 8 20 16;
#X connect 23 1 16 0;
#X connect 23 2 16 1;
#X connect 25 0 42 0;
#X connect 27 0 28 0;
#X connect 28 0 29 0;
#X connect 28 1 30 0;
#X connect 29 0 31 0;
#X connect 30 0 39 0;
#X connect 31 0 39 0;
#X connect 32 0 33 0;
#X connect 32 0 38 0;
#X connect 33 0 34 0;
#X connect 34 0 35 0;
#X connect 35 0 41 0;
#X connect 36 0 37 0;
#X connect 37 0 41 0;
#X connect 38 0 36 0;
#X connect 39 0 41 0;
#X connect 41 1 42 1;
#X connect 41 2 42 2;
#X connect 41 3 42 3;
#X connect 41 4 42 4;
#X connect 41 5 42 5;
#X connect 41 6 42 6;
#X connect 41 7 42 7;
#X connect 41 8 42 8;
#X connect 41 9 42 9;
#X connect 41 10 42 10;
#X connect 41 11 42 11;
#X connect 42 1 26 0;
#X connect 42 1 40 0;
#X connect 42 2 40 1;
#X connect 44 0 45 0;
#X connect 45 0 46 0;
#X connect 46 0 47 0;
#X connect 47 0 50 0;
#X connect 49 0 50 0;
#X connect 50 1 43 0;
#X connect 50 1 48 0;
#X connect 50 1 48 1;
#X connect 54 0 57 0;
#X connect 55 0 58 0;
#X connect 56 0 60 0;
#X connect 57 0 55 0;
#X connect 58 0 60 0;
#X connect 60 1 53 0;
#X connect 60 1 59 0;
#X connect 60 1 59 1;
#X connect 61 1 62 0;
#X connect 61 1 62 1;
#X connect 61 1 67 0;
#X connect 63 0 61 0;
#X connect 64 0 61 0;
#X connect 65 0 66 0;
#X connect 69 0 81 0;
#X connect 69 0 80 0;
#X connect 69 0 78 0;
#X connect 69 0 79 0;
#X connect 70 0 71 0;
#X connect 71 0 89 0;
#X connect 72 0 73 0;
#X connect 73 0 89 0;
#X connect 74 0 76 0;
#X connect 75 0 77 0;
#X connect 76 0 89 0;
#X connect 77 0 89 0;
#X connect 78 0 74 0;
#X connect 79 0 75 0;
#X connect 80 0 72 0;
#X connect 81 0 70 0;
#X connect 82 0 83 0;
#X connect 82 1 85 0;
#X connect 83 0 84 0;
#X connect 84 0 89 0;
#X connect 85 0 86 0;
#X connect 86 0 89 0;
#X connect 88 0 89 0;
#X connect 89 1 90 1;
#X connect 89 2 90 2;
#X connect 89 3 90 3;
#X connect 89 4 90 4;
#X connect 89 5 90 5;
#X connect 89 6 90 6;
#X connect 89 7 90 7;
#X connect 89 8 90 8;
#X connect 89 9 90 9;
#X connect 89 10 90 10;
#X connect 89 11 90 11;
#X connect 89 12 90 12;
#X connect 89 13 90 13;
#X connect 89 14 90 14;
#X connect 90 1 87 0;
#X connect 90 2 87 1;
#X connect 92 0 93 0;
#X connect 92 0 94 0;
#X connect 93 0 95 0;
#X connect 94 1 96 0;
#X connect 95 1 96 1;
#X connect 97 0 94 0;
#X connect 97 0 95 0;
#X connect 98 0 100 0;
#X connect 98 1 102 0;
#X connect 98 2 103 0;
#X connect 99 0 98 0;
#X connect 100 0 101 0;
#X connect 101 0 105 0;
#X connect 102 0 104 0;
#X connect 103 0 106 0;
#X connect 104 0 105 0;
#X connect 106 0 105 0;
#X connect 107 0 110 0;
#X connect 107 0 114 0;
#X connect 107 0 117 0;
#X connect 108 0 109 0;
#X connect 109 0 99 0;
#X connect 110 0 111 0;
#X connect 111 0 112 0;
#X connect 112 0 105 0;
#X connect 113 0 115 0;
#X connect 114 0 113 0;
#X connect 115 0 105 0;
#X connect 116 0 118 0;
#X connect 117 0 116 0;
#X connect 118 0 105 0;
