#N canvas 80 231 2201 1073 10;
#X obj 14 6 cnv 15 500 25 empty empty abclib_Library 20 12 0 18 #606060 #fcfcfc 0;
#X obj 13 1026 abc_helpcredit;
#X obj 14 32 cnv 15 500 25 empty empty abc_utilities 20 12 0 12 #606060 #fcfcfc 0;
#X obj 1119 964 tgl 15 0 empty empty DSP_on/off 17 7 0 10 #dfdfdf #2f004d #000000 0 1;
#X msg 1119 994 \; pd dsp \$1 \;;
#X text 196 86 ABC_GAIN;
#X obj 187 184 abc_multinoise11~;
#X obj 178 238 abc_substractsynth11~;
#X obj 144 184 r s11;
#X obj 199 371 abc_stereoout -15;
#X obj 51 150 abc_gain -127;
#X obj 188 285 abc_cosrandenv11~;
#X obj 202 340 abc_chopan11~, f 14;
#X msg 326 147 \; s11 f0 440 \; s11 fmult-0 0.56 \; s11 fmult-1 0.56 \; s11 fmult-2 0.92 \; s11 fmult-3 0.92 \; s11 fmult-4 1.19 \; s11 fmult-5 1.7 \; s11 fmult-6 2 \; s11 fmult-7 2.74 \; s11 fmult-8 3 \; s11 fmult-9 3.76 \; s11 fmult-10 4.07 \; s11 fbeat-1 1 \; s11 fbeat-3 1.7 \; s11 filterQ 70 \;;
#X obj 326 121 loadbang;
#X text 681 84 ABC_ENV_NOISE;
#X obj 556 232 abc_meter;
#X obj 555 117 abc_env_noise 123 0.4 -30;
#X obj 776 391 dac~;
#X obj 804 160 abc_gain -127;
#X obj 731 360 abc_gain1~;
#X text 1202 85 ABC_SLIDER2MAP;
#X obj 1018 382 tgl 15 0 empty empty empty 17 7 0 10 #dfdfdf #000000 #000000 0 1;
#X msg 1018 404 stereo \$1;
#X obj 1112 299 abc_soundcoat~;
#X obj 1207 117 abc_slider2map;
#X text 1249 268 generates the polar coordinates of the source, f 16;
#X obj 1094 186 loadbang;
#X msg 1094 210 1;
#X obj 1094 234 tgl 15 0 empty empty empty 17 7 0 10 #fcfcfc #000000 #000000 0 1;
#X msg 1094 258 directangles \$1;
#X obj 1000 173 abc_gain -127;
#X obj 1331 438 abc_ambi_scope3;
#X obj 1140 352 abc_2d_map3~, f 27;
#X obj 1126 438 abc_2d_decoder3~, f 31;
#X obj 1148 485 snake~ in 8;
#X obj 1148 514 abc_meter8_m;
#X obj 1103 516 dac~ 1;
#X text 1466 86 ABC_SIMPLEFMBURST;
#X obj 1468 116 abc_simplefmburst;
#X obj 1468 205 abc_stereoout -15;
#X obj 1468 156 *~ 0.3;
#X obj 1683 236 abc_2d_encoder1~;
#X obj 1683 121 loadbang;
#X msg 1683 145 0.1;
#X floatatom 1683 169 5 0 0 0 - - - 0;
#X msg 1683 192 speed \$1;
#X obj 1777 121 abc_env_noise 200 0.3 0;
#X obj 163 562 loadbang;
#X obj 163 583 del 1000;
#X obj 163 632 abc_simplefmburst;
#X text 152 836 original;
#X obj 185 796 abc_delay1~;
#X msg 339 693 dur-0 \$1;
#X obj 278 538 vsl 15 128 1 128 0 0 empty empty tempo 0 -9 0 10 #fcfcfc #000000 #000000 0 1;
#X obj 278 480 loadbang;
#X msg 278 502 80;
#X floatatom 278 674 5 0 0 0 - - - 0;
#X msg 278 694 tempo \$1;
#X obj 339 524 abc_musdur 3;
#X obj 460 536 vsl 15 128 0 1 0 0 empty empty Feedback 0 -9 0 10 #fcfcfc #000000 #000000 0 1;
#X floatatom 339 673 5 0 0 0 - - - 0;
#X floatatom 460 672 5 0 0 0 - - - 0;
#X msg 460 692 fdbk-0 \$1;
#X obj 486 812 loadbang;
#X msg 486 834 1;
#X obj 486 858 tgl 15 0 empty empty empty 17 7 0 10 #fcfcfc #000000 #000000 0 1;
#X obj 486 903 s top;
#X obj 181 604 r top;
#X text 256 838 echo;
#X obj 552 628 loadbang;
#X msg 552 650 30;
#X floatatom 552 671 5 0 0 0 - - - 0;
#X msg 552 691 updatefreq \$1;
#X obj 75 823 abc_meter;
#X obj 291 826 abc_meter;
#X text 75 977 original;
#X text 298 980 echo;
#X obj 486 880 metro 10000;
#X obj 163 672 *~ 0.3;
#X obj 180 863 abc_gain2~;
#X obj 64 511 abc_gain -127;
#X obj 209 931 dac~;
#X text 172 461 ABC_MUSDUR;
#X obj 711 555 abc_gain -127;
#X obj 807 847 abc_stereoout 0;
#X obj 798 556 abc_multinoise2~;
#X obj 779 742 abc_substractsynth2~;
#X obj 794 806 abc_cosrandenv2~;
#X text 764 522 ABC_STEREOOUT;
#X text 1171 671 ABC_METER[N]_M;
#X text 1482 508 ABC_AMBI_SCOPE[N];
#X obj 1577 301 abc_ambi_scope1_m;
#X obj 1714 264 snake~ in 3;
#X text 1731 367 ABC_AMBI_SCOPE[N]_M;
#X obj 1437 717 abc_generator;
#X obj 1437 677 r gen2;
#X obj 2078 904 abc_meter;
#X obj 2153 905 dac~;
#X obj 1834 882 loadbang;
#X msg 1834 902 \; gen2 gain -127 \; gen2 phasorfreq 330 \; gen2 sinusfreq 880 \; gen2 noisepulserate 1 \; gen2 phasorpulserate 1.01 \; gen2 sinuspulserate 0.99 \; gen2 noisepulseratio 3 \; gen2 phasorpulseratio 4 \; gen2 sinuspulseratio 2 \; gen2 noiseon 1 \; gen2 phasoron 1 \; gen2 sinuson 1 \;;
#X text 1732 689 ABC_GENERATOR;
#X text 529 6 we provide abc_abstractions: abc_env_noise \, abc_gain \, abv_slider2map \, abs_simplefmburst \, abc_ambi_scope \, abc_musdur \, abc_stereoout \, abc_generator;
#X connect 3 0 4 0;
#X connect 6 1 7 1;
#X connect 6 2 7 2;
#X connect 6 3 7 3;
#X connect 6 4 7 4;
#X connect 6 5 7 5;
#X connect 6 6 7 6;
#X connect 6 7 7 7;
#X connect 6 8 7 8;
#X connect 6 9 7 9;
#X connect 6 10 7 10;
#X connect 6 11 7 11;
#X connect 7 1 11 1;
#X connect 7 2 11 2;
#X connect 7 3 11 3;
#X connect 7 4 11 4;
#X connect 7 5 11 5;
#X connect 7 6 11 6;
#X connect 7 7 11 7;
#X connect 7 8 11 8;
#X connect 7 9 11 9;
#X connect 7 10 11 10;
#X connect 7 11 11 11;
#X connect 8 0 7 0;
#X connect 10 0 12 0;
#X connect 11 1 12 1;
#X connect 11 2 12 2;
#X connect 11 3 12 3;
#X connect 11 4 12 4;
#X connect 11 5 12 5;
#X connect 11 6 12 6;
#X connect 11 7 12 7;
#X connect 11 8 12 8;
#X connect 11 9 12 9;
#X connect 11 10 12 10;
#X connect 11 11 12 11;
#X connect 12 1 9 0;
#X connect 12 2 9 1;
#X connect 14 0 13 0;
#X connect 17 0 16 0;
#X connect 17 0 20 1;
#X connect 19 0 20 0;
#X connect 20 1 18 0;
#X connect 20 1 18 1;
#X connect 22 0 23 0;
#X connect 23 0 34 0;
#X connect 24 1 33 1;
#X connect 25 0 33 2;
#X connect 25 1 33 3;
#X connect 27 0 28 0;
#X connect 28 0 29 0;
#X connect 29 0 30 0;
#X connect 30 0 34 0;
#X connect 31 0 34 0;
#X connect 33 1 32 1;
#X connect 33 1 34 1;
#X connect 33 2 32 2;
#X connect 33 2 34 2;
#X connect 33 3 32 3;
#X connect 33 3 34 3;
#X connect 33 4 32 4;
#X connect 33 4 34 4;
#X connect 33 5 32 5;
#X connect 33 5 34 5;
#X connect 33 6 32 6;
#X connect 33 6 34 6;
#X connect 33 7 32 7;
#X connect 33 7 34 7;
#X connect 34 1 35 0;
#X connect 34 2 35 1;
#X connect 34 3 35 2;
#X connect 34 4 35 3;
#X connect 34 5 35 4;
#X connect 34 6 35 5;
#X connect 34 7 35 6;
#X connect 34 8 35 7;
#X connect 35 0 36 0;
#X connect 35 0 37 0;
#X connect 39 0 41 0;
#X connect 41 0 40 0;
#X connect 41 0 40 1;
#X connect 42 1 93 0;
#X connect 42 2 93 1;
#X connect 42 3 93 2;
#X connect 43 0 44 0;
#X connect 44 0 45 0;
#X connect 45 0 46 0;
#X connect 46 0 42 0;
#X connect 47 0 42 1;
#X connect 48 0 49 0;
#X connect 49 0 50 0;
#X connect 50 0 79 0;
#X connect 52 1 75 0;
#X connect 52 1 80 2;
#X connect 53 0 52 0;
#X connect 54 0 57 0;
#X connect 55 0 56 0;
#X connect 56 0 54 0;
#X connect 57 0 58 0;
#X connect 58 0 52 0;
#X connect 59 0 61 0;
#X connect 60 0 62 0;
#X connect 61 0 53 0;
#X connect 62 0 63 0;
#X connect 63 0 52 0;
#X connect 64 0 65 0;
#X connect 65 0 66 0;
#X connect 66 0 78 0;
#X connect 68 0 50 0;
#X connect 70 0 71 0;
#X connect 71 0 72 0;
#X connect 72 0 73 0;
#X connect 73 0 52 0;
#X connect 78 0 67 0;
#X connect 79 0 52 1;
#X connect 79 0 74 0;
#X connect 79 0 80 1;
#X connect 80 1 82 0;
#X connect 80 2 82 1;
#X connect 81 0 80 0;
#X connect 84 0 87 0;
#X connect 86 1 87 1;
#X connect 86 2 87 2;
#X connect 87 1 88 1;
#X connect 87 2 88 2;
#X connect 88 1 85 0;
#X connect 88 2 85 1;
#X connect 93 0 92 1;
#X connect 95 1 98 0;
#X connect 95 1 98 1;
#X connect 95 1 97 0;
#X connect 96 0 95 0;
#X connect 99 0 100 0;
