#N canvas 208 407 1830 881 10;
#X obj 14 6 cnv 15 500 25 empty empty abclib_Library 20 12 0 18 #606060 #fcfcfc 0;
#X obj 13 836 abc_helpcredit;
#X obj 14 32 cnv 15 500 25 empty empty abc_2d_ambisonic_geometry 20 12 0 12 #606060 #fcfcfc 0;
#N canvas 92 130 97 146 voice1 0;
#X obj 18 12 phasor~ 3;
#X obj 18 33 *~ 110;
#X obj 18 54 +~ 220;
#X obj 18 75 osc~;
#X obj 18 96 outlet~;
#X connect 0 0 1 0;
#X connect 1 0 2 0;
#X connect 2 0 3 0;
#X connect 3 0 4 0;
#X restore 1264 242 pd voice1;
#X obj 55 180 abc_gain -127;
#X obj 52 401 tgl 15 0 empty empty empty 17 7 0 10 #dfdfdf #000000 #000000 0 1;
#X msg 52 425 stereo \$1;
#X obj 93 544 abc_meter8_m;
#X obj 50 545 dac~ 1;
#X obj 425 737 tgl 15 0 empty empty DSP_on/off 17 7 0 10 #dfdfdf #000000 #000000 0 1;
#X msg 425 767 \; pd dsp \$1 \;;
#X text 527 12 We provide objects to process geometric transformations of the ambisonic sound field: 2D maps \, 2D mirrors \, 2D rotates \, 2D spatial trajectories (square \, Z \, square and Z \, random);
#X obj 142 325 abc_soundcoat~;
#X obj 236 191 abc_slider2map;
#X text 237 160 generates polar coordinates of the source, f 26;
#X obj 509 310 vradio 15 1 0 3 empty empty empty 0 -8 0 10 #fcfcfc #000000 #000000 0;
#X obj 509 360 expr 1-$f1;
#X floatatom 509 381 5 0 0 0 - - - 0;
#X obj 509 255 loadbang;
#X msg 509 401 factor \$1;
#X obj 957 464 tgl 15 0 empty empty empty 17 7 0 10 #dfdfdf #000000 #000000 0 1;
#X msg 957 488 stereo \$1;
#X msg 509 284 1;
#X text 537 307 1 = Original sound field;
#X text 537 323 0 = Original + Mirror sound field;
#X text 532 338 -1 = Mirror sound field;
#X text 538 292 Mirror factor;
#X obj 959 509 tgl 15 0 empty empty empty 17 7 0 10 #dfdfdf #000000 #000000 0 1;
#X msg 959 533 directangles \$1;
#X obj 954 267 abc_gain -127;
#X obj 838 632 abc_meter8_m;
#X obj 794 633 dac~ 1;
#X obj 544 108 loadbang;
#X floatatom 544 170 5 0 0 0 - - - 0;
#X msg 544 193 speed \$1;
#X msg 544 146 -0.2;
#X msg 508 147 0;
#X floatatom 617 171 5 0 0 0 - - - 0;
#X msg 617 147 -45;
#X msg 617 194 angle \$1;
#X floatatom 682 171 5 0 0 0 - - - 0;
#X msg 682 147 20;
#X msg 682 194 returntime \$1;
#X text 577 171 t.s-1;
#X text 650 171 deg.;
#X text 716 171 msec;
#X obj 1267 65 loadbang;
#X floatatom 1267 127 5 0 0 0 - - - 0;
#X msg 1267 150 freq \$1;
#X floatatom 1333 126 5 0 0 0 - - - 0;
#X msg 1333 149 size \$1;
#X floatatom 1394 126 5 0 1 0 - - - 0;
#X msg 1394 103 0.22;
#X msg 1394 149 crossfade \$1;
#X msg 1267 103 0.5;
#X obj 1177 64 abc_gain -127;
#X msg 1333 103 0.8;
#X text 185 264 2D map;
#X text 252 381 2D map;
#X text 766 489 2D mirror;
#X obj 1313 676 loadbang;
#X floatatom 1313 738 5 0 0 0 - - - 0;
#X msg 1313 761 speed \$1;
#X msg 1277 715 0;
#X floatatom 1386 739 5 0 0 0 - - - 0;
#X msg 1386 715 -45;
#X msg 1386 762 angle \$1;
#X floatatom 1451 739 5 0 0 0 - - - 0;
#X msg 1451 715 20;
#X msg 1451 762 returntime \$1;
#X text 1346 739 t.s-1;
#X text 1419 739 deg.;
#X text 1485 739 msec;
#X obj 1204 388 r globalRotation;
#X obj 1313 805 s globalRotation;
#X msg 1313 714 0.6;
#X text 1441 199 one of the trajectory generators with interpolation between Z and square;
#X text 1411 422 global rotation of the sound field that can alter the individual rotation of sources;
#X obj 159 380 abc_2d_map3_1~;
#X obj 261 452 abc_ambi_scope3;
#X obj 152 452 abc_2d_decoder3~;
#X obj 93 513 snake~ in 8, f 15;
#X obj 665 262 abc_2d_rotate2~;
#X obj 779 195 abc_cosrandenv5~;
#X obj 785 144 abc_addsynth5~;
#X obj 664 489 abc_2d_mirror2~;
#X obj 625 606 abc_ambi_scope2;
#X obj 764 315 abc_ambi_scope2;
#X obj 825 573 abc_2d_decoder2~;
#X obj 838 605 snake~ in 6, f 15;
#X obj 1267 208 abc_2d_squareandztrajectory~;
#X obj 1309 387 abc_2d_map3~, f 14;
#X obj 1328 242 abc_cartopol~;
#X obj 1307 429 abc_2d_rotate3~;
#X obj 1177 497 abc_2d_stereodecoder3~;
#X obj 1219 531 abc_stereoout -15;
#X obj 1340 496 abc_ambi_scope3;
#X obj 1415 257 abc_xy_scope;
#X connect 3 0 91 1;
#X connect 4 0 80 0;
#X connect 5 0 6 0;
#X connect 6 0 80 0;
#X connect 9 0 10 0;
#X connect 12 1 78 1;
#X connect 13 0 78 2;
#X connect 13 1 78 3;
#X connect 15 0 16 0;
#X connect 16 0 17 0;
#X connect 17 0 19 0;
#X connect 18 0 22 0;
#X connect 19 0 85 0;
#X connect 20 0 21 0;
#X connect 21 0 88 0;
#X connect 22 0 15 0;
#X connect 27 0 28 0;
#X connect 28 0 88 0;
#X connect 29 0 88 0;
#X connect 32 0 35 0;
#X connect 32 0 38 0;
#X connect 32 0 41 0;
#X connect 33 0 34 0;
#X connect 34 0 82 0;
#X connect 35 0 33 0;
#X connect 36 0 33 0;
#X connect 37 0 39 0;
#X connect 38 0 37 0;
#X connect 39 0 82 0;
#X connect 40 0 42 0;
#X connect 41 0 40 0;
#X connect 42 0 82 0;
#X connect 46 0 54 0;
#X connect 46 0 56 0;
#X connect 46 0 52 0;
#X connect 47 0 48 0;
#X connect 48 0 90 0;
#X connect 49 0 50 0;
#X connect 50 0 90 0;
#X connect 51 0 53 0;
#X connect 52 0 51 0;
#X connect 53 0 90 0;
#X connect 54 0 47 0;
#X connect 55 0 94 0;
#X connect 56 0 49 0;
#X connect 60 0 75 0;
#X connect 60 0 65 0;
#X connect 60 0 68 0;
#X connect 61 0 62 0;
#X connect 62 0 74 0;
#X connect 63 0 61 0;
#X connect 64 0 66 0;
#X connect 65 0 64 0;
#X connect 66 0 74 0;
#X connect 67 0 69 0;
#X connect 68 0 67 0;
#X connect 69 0 74 0;
#X connect 73 0 93 0;
#X connect 75 0 61 0;
#X connect 78 1 80 1;
#X connect 78 1 79 1;
#X connect 78 2 80 2;
#X connect 78 2 79 2;
#X connect 78 3 80 3;
#X connect 78 3 79 3;
#X connect 78 4 80 4;
#X connect 78 4 79 4;
#X connect 78 5 80 5;
#X connect 78 5 79 5;
#X connect 78 6 80 6;
#X connect 78 6 79 6;
#X connect 78 7 80 7;
#X connect 78 7 79 7;
#X connect 80 1 81 0;
#X connect 80 2 81 1;
#X connect 80 3 81 2;
#X connect 80 4 81 3;
#X connect 80 5 81 4;
#X connect 80 6 81 5;
#X connect 80 7 81 6;
#X connect 80 8 81 7;
#X connect 81 0 8 0;
#X connect 81 0 7 0;
#X connect 82 1 87 1;
#X connect 82 1 85 1;
#X connect 82 2 87 2;
#X connect 82 2 85 2;
#X connect 82 3 87 3;
#X connect 82 3 85 3;
#X connect 82 4 87 4;
#X connect 82 4 85 4;
#X connect 82 5 87 5;
#X connect 82 5 85 5;
#X connect 83 1 82 1;
#X connect 83 2 82 2;
#X connect 83 3 82 3;
#X connect 83 4 82 4;
#X connect 83 5 82 5;
#X connect 84 1 83 1;
#X connect 84 2 83 2;
#X connect 84 3 83 3;
#X connect 84 4 83 4;
#X connect 84 5 83 5;
#X connect 85 1 86 1;
#X connect 85 1 88 1;
#X connect 85 2 86 2;
#X connect 85 2 88 2;
#X connect 85 3 86 3;
#X connect 85 3 88 3;
#X connect 85 4 86 4;
#X connect 85 4 88 4;
#X connect 85 5 86 5;
#X connect 85 5 88 5;
#X connect 88 1 89 0;
#X connect 88 2 89 1;
#X connect 88 3 89 2;
#X connect 88 4 89 3;
#X connect 88 5 89 4;
#X connect 88 6 89 5;
#X connect 89 0 30 0;
#X connect 89 0 31 0;
#X connect 90 1 92 1;
#X connect 90 1 97 1;
#X connect 90 2 92 2;
#X connect 90 2 97 2;
#X connect 91 1 93 1;
#X connect 91 2 93 2;
#X connect 91 3 93 3;
#X connect 91 4 93 4;
#X connect 91 5 93 5;
#X connect 91 6 93 6;
#X connect 91 7 93 7;
#X connect 92 1 91 2;
#X connect 92 2 91 3;
#X connect 93 1 94 1;
#X connect 93 1 96 1;
#X connect 93 2 94 2;
#X connect 93 2 96 2;
#X connect 93 3 94 3;
#X connect 93 3 96 3;
#X connect 93 4 94 4;
#X connect 93 4 96 4;
#X connect 93 5 94 5;
#X connect 93 5 96 5;
#X connect 93 6 94 6;
#X connect 93 6 96 6;
#X connect 93 7 94 7;
#X connect 93 7 96 7;
#X connect 94 1 95 0;
#X connect 94 2 95 1;
