#N canvas 144 339 1464 855 10;
#X obj 14 6 cnv 15 500 25 empty empty abclib_Library 20 12 0 18 #606060 #fcfcfc 0;
#X obj 13 824 abc_helpcredit;
#X obj 14 32 cnv 15 500 25 empty empty abc_2d_general_ambisonic_objects 20 12 0 12 #606060 #fcfcfc 0;
#X obj 452 213 *~ 0.2;
#X obj 213 126 loadbang;
#X floatatom 213 188 5 0 0 0 - - - 0;
#X msg 213 211 speed \$1;
#X msg 213 164 -0.2;
#X msg 180 164 0;
#X floatatom 286 189 5 0 0 0 - - - 0;
#X msg 286 165 -45;
#X msg 286 212 angle \$1;
#X floatatom 351 189 5 0 0 0 - - - 0;
#X msg 351 165 20;
#X msg 351 212 returntime \$1;
#X text 246 189 t.s-1;
#X text 319 189 deg.;
#X text 385 189 msec;
#X text 522 9 we provide 2D general ambisonic objects: - 2D encoders \, stereoencoders or multiencoders - 2D decoders - 2D ambisonic optimizers - 2D ambisonic scopes;
#X obj 716 358 abc_linrandenv2~;
#N canvas 92 130 97 146 voice1 0;
#X obj 18 12 phasor~ 3;
#X obj 18 33 *~ 110;
#X obj 18 54 +~ 220;
#X obj 18 75 osc~;
#X obj 18 96 outlet~;
#X connect 0 0 1 0;
#X connect 1 0 2 0;
#X connect 2 0 3 0;
#X connect 3 0 4 0;
#X restore 588 84 pd voice1;
#N canvas 92 130 97 146 voice2 0;
#X obj 18 75 osc~;
#X obj 18 96 outlet~;
#X obj 18 12 phasor~ 2;
#X obj 18 33 *~ 50;
#X obj 18 54 +~ 660;
#X connect 0 0 1 0;
#X connect 2 0 3 0;
#X connect 3 0 4 0;
#X connect 4 0 0 0;
#X restore 650 84 pd voice2;
#X obj 851 731 tgl 15 0 empty empty DSP_on/off 17 7 0 10 #dfdfdf #000000 #000000 0 1;
#X msg 851 761 \; pd dsp \$1 \;;
#X obj 680 395 abc_2d_stereoencoder1~;
#X obj 716 316 r envs;
#X obj 683 252 hsl 128 15 0 120 0 0 empty empty Opening\ angle -2 -8 0 10 #dfdfdf #000000 #000000 0 1;
#X floatatom 680 272 5 0 0 0 - - - 0;
#X obj 680 193 loadbang;
#X msg 680 214 60;
#X msg 680 292 angle \$1;
#X obj 687 534 abc_2d_decoder1~;
#X obj 581 432 tgl 15 0 empty empty empty 17 7 0 10 #dfdfdf #000000 #000000 0 1;
#X msg 581 454 directangles \$1;
#X obj 581 386 tgl 15 0 empty empty empty 17 7 0 10 #dfdfdf #000000 #000000 0 1;
#X msg 581 408 stereo \$1;
#X obj 591 194 abc_gain -127;
#X obj 668 577 abc_quadriout 0 1 2 3 4;
#X obj 161 304 vradio 15 1 0 3 empty empty empty 0 -8 0 10 #dfdfdf #000000 #000000 0;
#X floatatom 161 360 5 0 0 0 - - - 0;
#X obj 161 249 loadbang;
#X msg 161 278 2;
#X msg 161 380 optimtype \$1;
#X text 187 293 optimtype value;
#X text 186 308 0 = basic \, no effect;
#X text 186 321 1 = maxRe optimization;
#X text 186 333 2 = inPhase optimization;
#X obj 588 128 s~ v1;
#X obj 650 128 s~ v2;
#X obj 762 316 r~ v1;
#X obj 809 316 r~ v2;
#X obj 1259 418 r~ v1;
#X obj 1299 418 r~ v2;
#X obj 1307 392 abc_soundcoat~;
#X obj 712 83 abc_env_noise 200 0.3 0;
#X obj 712 128 s~ v3;
#X obj 1336 417 r~ v3;
#X msg 1160 201 0.4 -0.5 2 -1.9;
#X obj 1160 179 loadbang;
#X obj 1160 226 unpack 0 0 0 0;
#X msg 1269 201 0 0 0 0;
#X floatatom 1160 253 5 0 0 0 - - - 0;
#X floatatom 1195 253 5 0 0 0 - - - 0;
#X floatatom 1230 253 5 0 0 0 - - - 0;
#X floatatom 1265 254 5 0 0 0 - - - 0;
#X msg 1160 285 s-0 \$1;
#X msg 1195 306 s-1 \$1;
#X msg 1229 327 s-2 \$1;
#X msg 1265 347 s-3 \$1;
#X text 396 263 2D encoder;
#X text 396 409 2D optimizer;
#X text 1311 486 2D multiencoder;
#X text 1295 592 in multichannel mode;
#X text 683 62 SOURCES;
#X obj 64 222 abc_gain -127;
#X obj 303 508 throw~ dec;
#X obj 1061 285 abc_gain -127;
#X obj 1193 630 throw~ dec;
#X text 822 395 2D stereo encoder at order 1;
#X obj 65 481 tgl 15 0 empty empty empty 17 7 0 10 #dfdfdf #000000 #000000 0 1;
#X msg 65 507 stereo \$1;
#X msg 133 507 directangles \$1;
#X obj 133 481 tgl 15 0 empty empty empty 17 7 0 10 #dfdfdf #000000 #000000 0 1;
#X obj 164 529 catch~ dec 7;
#X text 184 601 COMMON DECODER AT ORDER 3;
#X obj 285 263 abc_2d_encoder3~;
#X obj 285 405 abc_2d_optim3~, f 16;
#X obj 285 451 abc_gain7~, f 16;
#X obj 303 484 snake~ in 7;
#X obj 65 600 abc_2d_decoder3~;
#X obj 164 551 snake~ out 7;
#X obj 237 659 abc_ambi_scope3_m;
#X obj 823 505 abc_ambi_scope1;
#X obj 80 631 snake~ in 8;
#X obj 1159 486 abc_2d_multiencoder3_4~;
#X obj 1168 530 abc_gain7~, f 20;
#X obj 1193 592 snake~ in 7, f 13;
#X obj 80 659 abc_meter8_m;
#X obj 34 661 dac~ 1;
#X obj 437 128 abc_addsynth5~;
#X obj 435 163 abc_cosrandenv5~;
#X connect 3 0 85 1;
#X connect 4 0 7 0;
#X connect 4 0 10 0;
#X connect 4 0 13 0;
#X connect 5 0 6 0;
#X connect 6 0 85 0;
#X connect 7 0 5 0;
#X connect 8 0 5 0;
#X connect 9 0 11 0;
#X connect 10 0 9 0;
#X connect 11 0 85 0;
#X connect 12 0 14 0;
#X connect 13 0 12 0;
#X connect 14 0 85 0;
#X connect 19 1 24 1;
#X connect 19 2 24 2;
#X connect 20 0 47 0;
#X connect 21 0 48 0;
#X connect 22 0 23 0;
#X connect 24 1 31 1;
#X connect 24 1 92 0;
#X connect 24 2 31 2;
#X connect 24 2 92 1;
#X connect 24 3 31 3;
#X connect 24 3 92 2;
#X connect 25 0 19 0;
#X connect 26 0 27 0;
#X connect 27 0 30 0;
#X connect 28 0 29 0;
#X connect 29 0 26 0;
#X connect 30 0 24 0;
#X connect 31 1 37 0;
#X connect 31 2 37 1;
#X connect 31 3 37 2;
#X connect 31 4 37 3;
#X connect 32 0 33 0;
#X connect 33 0 31 0;
#X connect 34 0 35 0;
#X connect 35 0 31 0;
#X connect 36 0 31 0;
#X connect 38 0 39 0;
#X connect 39 0 42 0;
#X connect 40 0 41 0;
#X connect 41 0 38 0;
#X connect 42 0 86 0;
#X connect 49 0 19 1;
#X connect 50 0 19 2;
#X connect 51 0 94 1;
#X connect 52 0 94 2;
#X connect 53 1 94 4;
#X connect 54 0 55 0;
#X connect 56 0 94 3;
#X connect 57 0 59 0;
#X connect 58 0 57 0;
#X connect 59 0 61 0;
#X connect 59 1 62 0;
#X connect 59 2 63 0;
#X connect 59 3 64 0;
#X connect 60 0 59 0;
#X connect 61 0 65 0;
#X connect 62 0 66 0;
#X connect 63 0 67 0;
#X connect 64 0 68 0;
#X connect 65 0 94 0;
#X connect 66 0 94 0;
#X connect 67 0 94 0;
#X connect 68 0 94 0;
#X connect 74 0 87 0;
#X connect 76 0 95 0;
#X connect 79 0 80 0;
#X connect 80 0 89 0;
#X connect 81 0 89 0;
#X connect 82 0 81 0;
#X connect 83 0 90 0;
#X connect 83 0 91 1;
#X connect 85 1 86 1;
#X connect 85 2 86 2;
#X connect 85 3 86 3;
#X connect 85 4 86 4;
#X connect 85 5 86 5;
#X connect 85 6 86 6;
#X connect 85 7 86 7;
#X connect 86 1 87 1;
#X connect 86 2 87 2;
#X connect 86 3 87 3;
#X connect 86 4 87 4;
#X connect 86 5 87 5;
#X connect 86 6 87 6;
#X connect 86 7 87 7;
#X connect 87 1 88 0;
#X connect 87 2 88 1;
#X connect 87 3 88 2;
#X connect 87 4 88 3;
#X connect 87 5 88 4;
#X connect 87 6 88 5;
#X connect 87 7 88 6;
#X connect 88 0 75 0;
#X connect 89 1 93 0;
#X connect 89 2 93 1;
#X connect 89 3 93 2;
#X connect 89 4 93 3;
#X connect 89 5 93 4;
#X connect 89 6 93 5;
#X connect 89 7 93 6;
#X connect 89 8 93 7;
#X connect 90 0 89 1;
#X connect 90 1 89 2;
#X connect 90 2 89 3;
#X connect 90 3 89 4;
#X connect 90 4 89 5;
#X connect 90 5 89 6;
#X connect 90 6 89 7;
#X connect 93 0 97 0;
#X connect 93 0 98 0;
#X connect 94 1 95 1;
#X connect 94 2 95 2;
#X connect 94 3 95 3;
#X connect 94 4 95 4;
#X connect 94 5 95 5;
#X connect 94 6 95 6;
#X connect 94 7 95 7;
#X connect 95 1 96 0;
#X connect 95 2 96 1;
#X connect 95 3 96 2;
#X connect 95 4 96 3;
#X connect 95 5 96 4;
#X connect 95 6 96 5;
#X connect 95 7 96 6;
#X connect 96 0 77 0;
#X connect 99 1 100 1;
#X connect 99 2 100 2;
#X connect 99 3 100 3;
#X connect 99 4 100 4;
#X connect 99 5 100 5;
#X connect 100 1 3 0;
#X connect 100 2 3 0;
#X connect 100 3 3 0;
#X connect 100 4 3 0;
#X connect 100 5 3 0;
