#N canvas 134 119 2311 1068 10;
#X obj 14 6 cnv 15 500 25 empty empty abclib_Library 20 12 0 18 #606060 #fcfcfc 0;
#X obj 13 1026 abc_helpcredit;
#X obj 14 32 cnv 15 500 25 empty empty abc_multichannel 20 12 0 12 #606060 #fcfcfc 0;
#X obj 17 73 abc_gain -127;
#X obj 667 904 tgl 15 0 empty empty DSP_on/off 17 7 0 10 #dfdfdf #2f004d #000000 0 1;
#X msg 667 934 \; pd dsp \$1 \;;
#X text 529 6 we provide multichannel processes: delays (parallel) \, delays (sequential) \, flangers \, frequency shifters \, granulators \, harmonizers \, reverberation;
#X text 196 86 DELAYS (PARALLEL);
#N canvas 920 41 218 232 aleafreq 0;
#X obj 38 8 loadbang;
#X msg 38 29 1;
#X obj 38 50 tgl 16 0 empty empty empty 0 -8 0 10 #fcfcfc #000000 #000000 0 1;
#X obj 38 71 metro 12000;
#X obj 38 92 random 8;
#X obj 38 113 + 1;
#X obj 38 134 * 110;
#X floatatom 38 155 5 0 0 0 - - - 0;
#X msg 38 175 f0 \$1;
#X obj 38 196 outlet;
#X obj 88 197 outlet;
#X connect 0 0 1 0;
#X connect 1 0 2 0;
#X connect 2 0 3 0;
#X connect 3 0 4 0;
#X connect 4 0 5 0;
#X connect 5 0 6 0;
#X connect 6 0 7 0;
#X connect 7 0 8 0;
#X connect 7 0 10 0;
#X connect 8 0 9 0;
#X restore 108 146 pd aleafreq;
#X obj 108 187 abc_addsynth4~;
#X floatatom 171 168 5 0 0 0 - - - 0;
#X obj 102 262 abc_cosrandenv4~;
#X obj 151 363 abc_chopan8~, f 20;
#X obj 409 143 loadbang;
#X obj 102 229 r envs;
#X msg 245 174 \; envs freq 4 \; envs rarefaction 0.95 \;, f 23;
#X msg 409 173 \; dels dur00 1 \; dels fdbk00 0.2 \; dels gain00 0 \; dels dur01 1.5 \; dels fdbk01 0.4 \; dels gain01 -3 \; dels dur02 2 \; dels fdbk02 0.6 \; dels gain02 -6 \; dels dur03 2.5 \; dels fdbk03 0.8 \; dels gain03 -9 \;;
#X obj 227 311 abc_delay4~;
#X obj 225 410 dac~;
#X obj 227 262 r dels;
#X obj 684 183 loadbang;
#X obj 684 204 del 1000;
#X obj 684 253 abc_simplefmburst;
#X text 706 310 original;
#X msg 916 318 dur-0 \$1;
#X obj 855 163 vsl 15 128 1 128 0 0 empty empty tempo 0 -9 0 10 #fcfcfc #000000 #000000 0 1;
#X obj 855 105 loadbang;
#X msg 855 127 80;
#X floatatom 855 299 5 0 0 0 - - - 0;
#X msg 855 319 tempo \$1;
#X obj 916 149 abc_musdur 3;
#X floatatom 916 298 5 0 0 0 - - - 0;
#X obj 702 225 r top;
#X obj 705 390 abc_delaychain3~;
#X text 914 130 echo 1;
#X floatatom 1032 298 5 0 0 0 - - - 0;
#X msg 1032 318 dur-1 \$1;
#X obj 1032 149 abc_musdur 2;
#X floatatom 1149 299 5 0 0 0 - - - 0;
#X msg 1149 319 dur-2 \$1;
#X text 1032 130 echo 2;
#X text 1146 131 echo 3;
#X obj 796 163 vsl 15 128 0 0.999 0 0 empty empty fdbk 0 -9 0 10 #fcfcfc #000000 #000000 0 1;
#X obj 796 105 loadbang;
#X floatatom 796 299 5 0 0 0 - - - 0;
#X msg 796 319 fdbk \$1;
#X msg 796 127 0.25;
#X obj 717 420 abc_chopan3~;
#X obj 1149 150 abc_musdur 4;
#X obj 684 293 *~ 0.3;
#X obj 579 195 abc_gain -127;
#X obj 760 457 dac~;
#X text 639 84 DELAYS (SEQUENTIAL);
#X text 1340 82 HARMONIZERS;
#X obj 1460 133 loadbang;
#X obj 1460 154 del 1000;
#X obj 1460 203 abc_simplefmburst;
#X text 1409 266 original;
#X obj 1597 137 loadbang;
#X floatatom 1597 203 5 0 0 0 - - - 0;
#X obj 1478 175 r top;
#X obj 1517 312 abc_delaychain3~;
#X text 1622 314 echoes 1 to 3;
#X obj 1500 369 abc_chopan4~;
#X floatatom 1668 202 5 0 0 0 - - - 0;
#X floatatom 1742 202 5 0 0 0 - - - 0;
#X msg 1597 178 200;
#X msg 1668 177 -300;
#X msg 1742 177 500;
#X msg 1597 223 trans-0 \$1;
#X msg 1668 222 trans-1 \$1;
#X msg 1742 222 trans-2 \$1;
#X obj 1519 340 abc_harmo3~;
#X obj 1460 242 *~ 0.3;
#X obj 1537 401 dac~;
#X obj 1315 145 abc_gain -127;
#X obj 428 613 loadbang;
#X obj 278 586 r top;
#X obj 278 609 del 5000;
#X obj 278 631 bng 15 250 50 0 empty empty empty 17 7 0 10 #fcfcfc #000000 #000000;
#N canvas 1116 82 249 299 noisenv 0;
#X obj 140 23 inlet;
#X obj 140 44 t b b;
#X msg 167 75 -0.25;
#X msg 140 101 0.25 50;
#X obj 42 73 noise~;
#X obj 42 94 *~ 0.2;
#X obj 106 211 *~;
#X obj 140 162 cos~;
#X obj 106 255 outlet~;
#X obj 140 142 line~;
#X obj 179 44 loadbang;
#X connect 0 0 1 0;
#X connect 1 0 3 0;
#X connect 1 1 2 0;
#X connect 2 0 9 0;
#X connect 3 0 9 0;
#X connect 4 0 5 0;
#X connect 5 0 6 0;
#X connect 6 0 8 0;
#X connect 7 0 6 1;
#X connect 9 0 7 0;
#X connect 10 0 2 0;
#X restore 278 651 pd noisenv;
#X obj 18 693 tgl 15 0 empty empty empty 17 7 0 10 #dfdfdf #000000 #000000 0 1;
#X msg 18 713 stereo \$1;
#X obj 18 647 loadbang;
#X msg 18 669 1;
#X obj 187 725 abc_freqshift6~;
#X msg 545 668 \; harmos fr-0 100 \; harmos gain-0 0 \; harmos fr-1 -200 \; harmos gain-1 2 \; harmos fr-2 300 \; harmos gain-2 4 \; harmos fr-3 -400 \; harmos gain-3 6 \; harmos fr-4 500 \; harmos gain-4 8 \; harmos fr-5 -50 \; harmos gain-5 10 \;;
#X obj 87 686 r harmos;
#X obj 119 468 abc_gain -127;
#X obj 197 791 snake~ in 8;
#X obj 185 690 abc_delaychain6~;
#X obj 179 757 abc_2d_decoder3~;
#X obj 197 823 abc_meter8_m;
#X obj 154 824 dac~ 1;
#X obj 185 651 r dels2;
#X msg 428 670 \; dels2 dur-0 0.5 \; dels2 dur-1 1 \; dels2 dur-2 0.5 \; dels2 dur-3 1 \; dels2 dur-4 0.5 \; dels2 dur-5 0.25 \; dels2 tempo 200 \;;
#X obj 406 850 loadbang;
#X msg 406 872 1;
#X obj 406 896 tgl 15 0 empty empty empty 17 7 0 10 #fcfcfc #000000 #000000 0 1;
#X obj 406 941 s top;
#X obj 406 918 metro 10000;
#X obj 1072 534 loadbang;
#X obj 900 504 abc_addsynth7~ --------;
#X obj 906 608 abc_grain7~ ---------;
#X obj 866 541 r gctrl2;
#X obj 893 778 abc_2d_decoder3~ --------;
#X msg 1072 568 \; gctrl2 gs-0 100 \; gctrl2 dt-0 500 \; gctrl2 fdbk-0 0.1 \; gctrl2 gs-1 100 \; gctrl2 dt-1 750 \; gctrl2 fdbk-1 0.2 \; gctrl2 gs-2 100 \; gctrl2 dt-2 1000 \; gctrl2 fdbk-2 0.3 \; gctrl2 gs-3 100 \; gctrl2 dt-3 1250 \; gctrl2 fdbk-3 0.4 \; gctrl2 gs-4 100 \; gctrl2 dt-4 1500 \; gctrl2 fdbk-4 0.5 \; gctrl2 gs-5 100 \; gctrl2 dt-5 1750 \; gctrl2 fdbk-5 0.6 \; gctrl2 gs-6 100 \; gctrl2 dt-6 2000 \; gctrl2 fdbk-6 0.7 \;;
#X obj 805 585 abc_gain -127;
#X obj 736 680 loadbang;
#X msg 736 701 1;
#X obj 736 724 tgl 15 0 empty empty empty 17 7 0 10 #dfdfdf #000000 #000000 0 1;
#X msg 736 746 stereo \$1;
#X obj 933 811 snake~ in 8;
#X obj 933 838 abc_meter8_m;
#X obj 890 840 dac~ 1;
#X text 930 470 GRANULATORS;
#X text 253 483 FREQUENCY SHIFTERS;
#X obj 1671 574 loadbang;
#X msg 1671 595 f0 50;
#X obj 1671 616 abc_soundcoat~;
#X floatatom 1424 596 5 0 0 0 - - - 0;
#X msg 1424 616 rate \$1;
#X floatatom 1478 596 5 0 0 0 - - - 0;
#X msg 1478 616 depth \$1;
#X floatatom 1539 596 5 0 0 0 - - - 0;
#X msg 1539 616 offset \$1;
#X floatatom 1606 596 5 0 0 0 - - - 0;
#X msg 1606 616 fdbk \$1;
#X obj 1521 692 abc_flanger7~;
#X obj 1356 598 tgl 15 0 empty empty empty 17 7 0 10 #dfdfdf #000000 #000000 0 1;
#X msg 1356 618 stereo \$1;
#X obj 1424 575 r rate2;
#X obj 1478 575 r depth2;
#X obj 1539 575 r offset2;
#X obj 1606 575 r fdbk2;
#X obj 1642 735 loadbang;
#X msg 1642 762 \; rate2 100 \; depth2 10 \; offset2 5 \; fdbk2 0.6 \;;
#X obj 1267 454 abc_gain -127;
#X obj 1523 821 snake~ in 8;
#X obj 1523 847 abc_meter8_m;
#X obj 1478 847 dac~ 1;
#X obj 1506 755 abc_2d_decoder3~;
#X obj 2044 278 loadbang;
#X msg 2044 314 110;
#X obj 2044 344 vsl 15 128 0 127 0 0 empty empty empty 0 -9 0 10 #fcfcfc #000000 #000000 0 1;
#X floatatom 2044 480 5 0 0 0 - - - 0;
#X msg 2044 500 revDur \$1;
#X obj 2114 344 vsl 15 128 0 127 0 0 empty empty empty 0 -9 0 10 #fcfcfc #000000 #000000 0 1;
#X floatatom 2114 480 5 0 0 0 - - - 0;
#X msg 2114 314 85;
#X msg 2114 500 revGain \$1;
#X obj 1916 454 abc_simplefmburst;
#X text 2131 342 rev4 gain 0 to 127;
#X text 1903 343 rev4 duration 0 to 127;
#X obj 1817 399 abc_gain -127;
#X obj 2044 553 abc_rev4quadri~;
#X obj 1916 494 *~ 0.15;
#X obj 2045 653 abc_stereoout -15;
#X obj 1995 599 abc_2d_stereodecoder2~;
#X text 1512 529 FLANGERS;
#X text 2010 238 REV4 REVERBERATION;
#X connect 3 0 12 0;
#X connect 4 0 5 0;
#X connect 8 0 9 0;
#X connect 8 1 10 0;
#X connect 9 1 11 1;
#X connect 9 2 11 2;
#X connect 9 3 11 3;
#X connect 9 4 11 4;
#X connect 11 1 17 1;
#X connect 11 1 12 1;
#X connect 11 2 17 2;
#X connect 11 2 12 2;
#X connect 11 3 17 3;
#X connect 11 3 12 3;
#X connect 11 4 17 4;
#X connect 11 4 12 4;
#X connect 12 1 18 0;
#X connect 12 2 18 1;
#X connect 13 0 15 0;
#X connect 13 0 16 0;
#X connect 14 0 11 0;
#X connect 17 1 12 5;
#X connect 17 2 12 6;
#X connect 17 3 12 7;
#X connect 17 4 12 8;
#X connect 19 0 17 0;
#X connect 20 0 21 0;
#X connect 21 0 22 0;
#X connect 22 0 49 0;
#X connect 24 0 33 0;
#X connect 25 0 28 0;
#X connect 26 0 27 0;
#X connect 27 0 25 0;
#X connect 28 0 29 0;
#X connect 29 0 33 0;
#X connect 30 0 31 0;
#X connect 31 0 24 0;
#X connect 32 0 22 0;
#X connect 33 1 47 1;
#X connect 33 2 47 2;
#X connect 33 3 47 3;
#X connect 35 0 36 0;
#X connect 36 0 33 0;
#X connect 37 0 35 0;
#X connect 38 0 39 0;
#X connect 39 0 33 0;
#X connect 42 0 44 0;
#X connect 43 0 46 0;
#X connect 44 0 45 0;
#X connect 45 0 33 0;
#X connect 46 0 42 0;
#X connect 47 1 51 0;
#X connect 47 2 51 1;
#X connect 48 0 38 0;
#X connect 49 0 33 1;
#X connect 50 0 47 0;
#X connect 54 0 55 0;
#X connect 55 0 56 0;
#X connect 56 0 73 0;
#X connect 58 0 66 0;
#X connect 58 0 67 0;
#X connect 58 0 68 0;
#X connect 59 0 69 0;
#X connect 60 0 56 0;
#X connect 61 1 72 1;
#X connect 61 2 72 2;
#X connect 61 3 72 3;
#X connect 63 1 74 0;
#X connect 63 2 74 1;
#X connect 64 0 70 0;
#X connect 65 0 71 0;
#X connect 66 0 59 0;
#X connect 67 0 64 0;
#X connect 68 0 65 0;
#X connect 69 0 72 0;
#X connect 70 0 72 0;
#X connect 71 0 72 0;
#X connect 72 1 63 2;
#X connect 72 2 63 3;
#X connect 72 3 63 4;
#X connect 73 0 63 1;
#X connect 73 0 61 1;
#X connect 75 0 63 0;
#X connect 76 0 95 0;
#X connect 76 0 86 0;
#X connect 77 0 78 0;
#X connect 78 0 79 0;
#X connect 79 0 80 0;
#X connect 80 0 90 1;
#X connect 80 0 91 1;
#X connect 81 0 82 0;
#X connect 82 0 91 0;
#X connect 83 0 84 0;
#X connect 84 0 81 0;
#X connect 85 1 91 2;
#X connect 85 2 91 3;
#X connect 85 3 91 4;
#X connect 85 4 91 5;
#X connect 85 5 91 6;
#X connect 85 6 91 7;
#X connect 87 0 85 0;
#X connect 88 0 91 0;
#X connect 89 0 92 0;
#X connect 89 0 93 0;
#X connect 90 1 85 1;
#X connect 90 2 85 2;
#X connect 90 3 85 3;
#X connect 90 4 85 4;
#X connect 90 5 85 5;
#X connect 90 6 85 6;
#X connect 91 1 89 0;
#X connect 91 2 89 1;
#X connect 91 3 89 2;
#X connect 91 4 89 3;
#X connect 91 5 89 4;
#X connect 91 6 89 5;
#X connect 91 7 89 6;
#X connect 91 8 89 7;
#X connect 94 0 90 0;
#X connect 96 0 97 0;
#X connect 97 0 98 0;
#X connect 98 0 100 0;
#X connect 100 0 99 0;
#X connect 101 0 106 0;
#X connect 102 1 103 1;
#X connect 102 2 103 2;
#X connect 102 3 103 3;
#X connect 102 4 103 4;
#X connect 102 5 103 5;
#X connect 102 6 103 6;
#X connect 102 7 103 7;
#X connect 103 1 105 1;
#X connect 103 2 105 2;
#X connect 103 3 105 3;
#X connect 103 4 105 4;
#X connect 103 5 105 5;
#X connect 103 6 105 6;
#X connect 103 7 105 7;
#X connect 104 0 103 0;
#X connect 105 1 112 0;
#X connect 105 2 112 1;
#X connect 105 3 112 2;
#X connect 105 4 112 3;
#X connect 105 5 112 4;
#X connect 105 6 112 5;
#X connect 105 7 112 6;
#X connect 105 8 112 7;
#X connect 107 0 105 0;
#X connect 108 0 109 0;
#X connect 109 0 110 0;
#X connect 110 0 111 0;
#X connect 111 0 105 0;
#X connect 112 0 113 0;
#X connect 112 0 114 0;
#X connect 117 0 118 0;
#X connect 118 0 119 0;
#X connect 119 1 128 1;
#X connect 120 0 121 0;
#X connect 121 0 128 0;
#X connect 122 0 123 0;
#X connect 123 0 128 0;
#X connect 124 0 125 0;
#X connect 125 0 128 0;
#X connect 126 0 127 0;
#X connect 127 0 128 0;
#X connect 128 1 141 1;
#X connect 128 2 141 2;
#X connect 128 3 141 3;
#X connect 128 4 141 4;
#X connect 128 5 141 5;
#X connect 128 6 141 6;
#X connect 128 7 141 7;
#X connect 129 0 130 0;
#X connect 130 0 141 0;
#X connect 131 0 120 0;
#X connect 132 0 122 0;
#X connect 133 0 124 0;
#X connect 134 0 126 0;
#X connect 135 0 136 0;
#X connect 137 0 141 0;
#X connect 138 0 139 0;
#X connect 138 0 140 0;
#X connect 141 1 138 0;
#X connect 141 2 138 1;
#X connect 141 3 138 2;
#X connect 141 4 138 3;
#X connect 141 5 138 4;
#X connect 141 6 138 5;
#X connect 141 7 138 6;
#X connect 141 8 138 7;
#X connect 142 0 143 0;
#X connect 142 0 149 0;
#X connect 143 0 144 0;
#X connect 144 0 145 0;
#X connect 145 0 146 0;
#X connect 146 0 155 0;
#X connect 147 0 148 0;
#X connect 148 0 150 0;
#X connect 149 0 147 0;
#X connect 150 0 155 0;
#X connect 151 0 156 0;
#X connect 154 0 158 0;
#X connect 155 1 158 2;
#X connect 155 2 158 3;
#X connect 155 3 158 4;
#X connect 155 4 158 5;
#X connect 156 0 155 1;
#X connect 156 0 158 1;
#X connect 158 1 157 0;
#X connect 158 2 157 1;
