#N canvas 670 122 444 255 10;
#X obj 61 5 inlet~;
#X obj 61 25 snake~ out 3;
#X obj 37 71 cyclone/scope~ 130 130 16 3 256 -1 1 0 0 0 0 205 229 232 74 79 77 96 98 102 0 empty;
#X text 56 202 cyclone/scope~;
#X obj 226 94 sel 1 0;
#X obj 226 69 snapshot~;
#X obj 225 5 loadbang;
#X msg 225 26 1;
#X obj 225 47 metro 10;
#X msg 226 134 fgcolor 1 0 0;
#X msg 245 163 fgcolor 0 0 1;
#X connect 0 0 1 0;
#X connect 1 0 2 0;
#X connect 1 1 2 1;
#X connect 1 2 5 0;
#X connect 4 0 9 0;
#X connect 4 1 10 0;
#X connect 5 0 4 0;
#X connect 6 0 7 0;
#X connect 7 0 8 0;
#X connect 8 0 5 0;
#X connect 9 0 2 0;
#X connect 10 0 2 0;
#X coords 0 -1 1 1 144 170 1 30 50;
