#N struct 1025-template-master float x float x2 float color float colort
float xs float ys symbol sym;
#N canvas 58 28 1284 746 10;
#X obj 651 9 inlet~;
#X obj 651 69 *~;
#X obj 688 69 *~;
#X obj 651 94 sqrt~;
#X obj 771 275 rmstodb~;
#X obj 461 352 metro 20;
#X obj 771 302 dbtopow~;
#X obj 651 44 rfft~;
#X obj 541 240 *~ 0;
#X obj 570 216 == 0;
#X obj 680 216 == 1;
#X obj 800 216 == 2;
#X obj 680 179 r \$0-scale-mode;
#X obj 651 275 rmstodb~;
#X obj 651 240 *~ 0;
#X obj 771 240 *~ 0;
#X obj 651 327 clip~ 0 100;
#X obj 255 485 r \$0-fft-size;
#X obj 783 7 r \$0-fft-size;
#X obj 279 550 * 0.5;
#X msg 279 594 resize \$1;
#X obj 651 118 /~ 2047;
#X obj 731 85 - 1;
#X obj 128 571 * 0.125;
#X msg 783 32 set \$1 2;
#X obj 461 303 r \$0-onoff;
#X msg 128 599 xticks \$1 \$1 1;
#N canvas 0 22 450 278 (subpatch) 0;
#X array \$0-spectrum 512 float 4;
#X coords 0 0.5 512 0 300 140 2 0 0;
#X restore 136 174 graph;
#X text 130 321 0;
#X text 206 313 π;
#X text 206 320 –;
#X text 281 313 π;
#X text 281 320 –;
#X text 281 329 4;
#X text 429 313 π;
#X text 429 320 –;
#X text 429 329 2;
#X text 206 329 8;
#X text 355 320 –;
#X text 355 329 8;
#X text 352 313 3π;
#X obj 783 58 switch~ 2048 2;
#X obj 873 7 r \$0-onoff;
#X text 149 344 Gain g / Normalized Frequency ω (rad/sample);
#X obj 651 459 tabwrite~ \$0-spectrum;
#X obj 279 664 send \$0-spectrum;
#X text 240 102 Spectrogram;
#X obj 395 594 pack 1 1024;
#X msg 395 624 bounds 0 \$1 \$2 0;
#N canvas 181 358 663 300 cadre 0;
#X text 162 102 FFT Size;
#X text 242 102 Amplitude Scale;
#X obj 165 118 nbx 5 14 2 1e+37 0 0 \$0-fft-size \$0-fft-sizei empty
0 -8 0 10 -262144 -1 -1 1024 256;
#X msg 145 77 set \$1;
#N canvas 0 22 450 300 toPowerOf2 0;
#X obj 230 98 log;
#X obj 230 120 /;
#X obj 230 47 t f b;
#X obj 260 100 log;
#X obj 260 76 f 2;
#X obj 230 142 int;
#X obj 230 164 max 1;
#X obj 229 233 pow, f 5;
#X obj 229 189 t b f;
#X obj 229 211 f 2;
#X obj 230 23 inlet;
#X obj 229 255 outlet;
#X connect 0 0 1 0;
#X connect 1 0 5 0;
#X connect 2 0 0 0;
#X connect 2 1 4 0;
#X connect 3 0 1 1;
#X connect 4 0 3 0;
#X connect 5 0 6 0;
#X connect 6 0 8 0;
#X connect 7 0 11 0;
#X connect 8 0 9 0;
#X connect 8 1 7 1;
#X connect 9 0 7 0;
#X connect 10 0 2 0;
#X restore 145 145 pd toPowerOf2;
#X obj 127 118 tgl 15 0 \$0-onoff \$0-onoffi empty 17 7 0 10 -262144
-1 -1 0 1;
#X msg 495 114 pos 0.045 0.1;
#X obj 248 33 r \$0-scale-modei;
#X obj 248 75 f 0;
#X obj 385 16 loadbang;
#X msg 490 88 size 160 14;
#X obj 246 156 s \$0-scale-mode;
#X msg 439 67 set Rms Decibel Power;
#X msg 500 149 toggle 1;
#X obj 385 38 t b b b b;
#X obj 244 118 Tabh;
#X text 119 102 OnOff;
#X connect 2 0 4 0;
#X connect 3 0 2 0;
#X connect 4 0 3 0;
#X connect 6 0 15 1;
#X connect 7 0 8 0;
#X connect 8 0 15 0;
#X connect 9 0 14 0;
#X connect 10 0 15 1;
#X connect 12 0 15 1;
#X connect 13 0 15 1;
#X connect 14 0 8 0;
#X connect 14 1 13 0;
#X connect 14 2 10 0;
#X connect 14 2 6 0;
#X connect 14 3 12 0;
#X connect 15 0 11 0;
#X coords 0 -1 1 1 346 40 2 100 100;
#X restore 100 120 pd cadre;
#X obj 255 522 t f b f f, f 11;
#X obj 430 441 r \$0-scale-mode;
#N canvas 134 277 552 378 mapscale 0;
#X obj 275 130 t b b;
#X obj 275 109 sel 0 1 2, f 26;
#X obj 275 51 inlet;
#X msg 128 159 yticks 0 20 1;
#X obj 326 130 t b b;
#X obj 326 152 f 100;
#X obj 376 130 t b b;
#X obj 306 255 outlet;
#X obj 236 275 outlet;
#X obj 275 152 f 0.5;
#X msg 128 129 yticks 0 0.5 1;
#X obj 376 152 f 0.1;
#X msg 127 193 yticks 0 0.02 1;
#X obj 118 64 f 30;
#X obj 118 86 / 2048;
#X obj 90 18 inlet;
#X obj 118 108 * -1;
#X obj 90 135 *;
#X obj 19 208 f;
#X msg 18 229 ylabel \$1 0 0.1 0.2 0.3 0.4 0.5;
#X obj 19 258 f;
#X msg 19 278 ylabel \$1 0 20 40 60 80 100;
#X obj 90 165 * 0.5;
#X obj 19 307 f;
#X msg 19 333 ylabel \$1 0 0.02 0.04 0.06 0.08 0.1;
#X obj 90 40 t b f b;
#X obj 275 73 f 0;
#X connect 0 0 10 0;
#X connect 0 0 18 0;
#X connect 0 1 9 0;
#X connect 1 0 0 0;
#X connect 1 1 4 0;
#X connect 1 2 6 0;
#X connect 2 0 26 0;
#X connect 3 0 8 0;
#X connect 4 0 5 0;
#X connect 4 1 3 0;
#X connect 4 1 20 0;
#X connect 5 0 7 0;
#X connect 6 0 12 0;
#X connect 6 0 23 0;
#X connect 6 1 11 0;
#X connect 9 0 7 0;
#X connect 10 0 8 0;
#X connect 11 0 7 0;
#X connect 12 0 8 0;
#X connect 13 0 14 0;
#X connect 14 0 16 0;
#X connect 15 0 25 0;
#X connect 16 0 17 1;
#X connect 17 0 22 0;
#X connect 17 0 18 1;
#X connect 17 0 20 1;
#X connect 18 0 19 0;
#X connect 19 0 8 0;
#X connect 20 0 21 0;
#X connect 21 0 8 0;
#X connect 22 0 23 1;
#X connect 23 0 24 0;
#X connect 24 0 8 0;
#X connect 25 0 26 0;
#X connect 25 1 17 0;
#X connect 25 2 13 0;
#X connect 26 0 1 0;
#X restore 430 517 pd mapscale;
#X obj 319 550 * 0.5;
#X obj 541 327 clip~ 0 0.5;
#X obj 771 327 clip~ 0 0.1;
#X obj 731 56 / 4;
#X obj 1070 161 loadbang;
#X msg 1070 186 0;
#X obj 1070 239 loadbang;
#X obj 1070 319 loadbang;
#X obj 924 96 inlet;
#X obj 1070 211 s \$0-onoffi;
#X obj 1070 289 s \$0-fft-sizei;
#X msg 1070 264 1024;
#X obj 1070 369 s \$0-scale-modei;
#X msg 1070 344 0;
#X obj 924 118 route onoff fftsize ampscale;
#X connect 0 0 7 0;
#X connect 1 0 3 0;
#X connect 2 0 3 0;
#X connect 3 0 21 0;
#X connect 4 0 6 0;
#X connect 5 0 44 0;
#X connect 6 0 55 0;
#X connect 7 0 1 0;
#X connect 7 0 1 1;
#X connect 7 1 2 0;
#X connect 7 1 2 1;
#X connect 8 0 54 0;
#X connect 9 0 8 1;
#X connect 10 0 14 1;
#X connect 11 0 15 1;
#X connect 12 0 11 0;
#X connect 12 0 10 0;
#X connect 12 0 9 0;
#X connect 13 0 16 0;
#X connect 14 0 13 0;
#X connect 15 0 4 0;
#X connect 16 0 44 0;
#X connect 17 0 50 0;
#X connect 17 0 52 0;
#X connect 18 0 24 0;
#X connect 18 0 56 0;
#X connect 19 0 20 0;
#X connect 20 0 45 0;
#X connect 21 0 8 0;
#X connect 21 0 14 0;
#X connect 21 0 15 0;
#X connect 22 0 21 1;
#X connect 23 0 26 0;
#X connect 24 0 41 0;
#X connect 25 0 5 0;
#X connect 26 0 45 0;
#X connect 42 0 41 0;
#X connect 47 0 48 0;
#X connect 48 0 45 0;
#X connect 50 0 23 0;
#X connect 50 1 47 0;
#X connect 50 2 53 0;
#X connect 50 3 19 0;
#X connect 51 0 52 1;
#X connect 52 0 45 0;
#X connect 52 1 47 0;
#X connect 53 0 47 1;
#X connect 54 0 44 0;
#X connect 55 0 44 0;
#X connect 56 0 22 0;
#X connect 57 0 58 0;
#X connect 58 0 62 0;
#X connect 59 0 64 0;
#X connect 60 0 66 0;
#X connect 61 0 67 0;
#X connect 64 0 63 0;
#X connect 66 0 65 0;
#X connect 67 0 62 0;
#X connect 67 1 63 0;
#X connect 67 2 65 0;
#X coords 0 -1 1 1 346 260 2 100 100;
