#N canvas 181 200 1464 866 10;
#X obj 14 6 cnv 15 500 25 empty empty abclib_Library 20 12 0 18 #606060 #fcfcfc 0;
#X obj 13 824 abc_helpcredit;
#X obj 14 32 cnv 15 500 25 empty empty abc_2d_general_ambisonic_objects 20 12 0 12 #606060 #fcfcfc 0;
#X obj 368 438 abc_2d_scope3_m;
#X obj 318 484 abc_ambi_scope_m;
#N canvas 92 130 97 146 voice1 0;
#X obj 18 12 phasor~ 3;
#X obj 18 33 *~ 110;
#X obj 18 54 +~ 220;
#X obj 18 75 osc~;
#X obj 18 96 outlet~;
#X connect 0 0 1 0;
#X connect 1 0 2 0;
#X connect 2 0 3 0;
#X connect 3 0 4 0;
#X restore 562 80 pd voice1;
#N canvas 92 130 97 146 voice2 0;
#X obj 18 75 osc~;
#X obj 18 96 outlet~;
#X obj 18 12 phasor~ 2;
#X obj 18 33 *~ 50;
#X obj 18 54 +~ 660;
#X connect 0 0 1 0;
#X connect 2 0 3 0;
#X connect 3 0 4 0;
#X connect 4 0 0 0;
#X restore 624 80 pd voice2;
#X obj 71 217 abc_gain -127;
#X obj 181 388 tgl 15 0 empty empty empty 17 7 0 10 #fcfcfc #000000 #000000 0 1;
#X msg 181 412 stereo \$1;
#X obj 157 438 abc_2d_decoder3_m;
#X obj 98 486 abc_meter8_m;
#X obj 256 468 dac~ 1;
#X obj 550 679 tgl 15 0 empty empty DSP_on/off 17 7 0 10 #fcfcfc #000000 #000000 0 1;
#X msg 550 709 \; pd dsp \$1 \;;
#X obj 676 450 abc_2d_stereoencoder1~;
#X obj 683 589 abc_2d_decoder1~;
#X text 413 345 in multichannel mode;
#X obj 577 487 tgl 15 0 empty empty empty 17 7 0 10 #fcfcfc #000000 #000000 0 1;
#X msg 577 509 directangles \$1;
#X obj 577 441 tgl 15 0 empty empty empty 17 7 0 10 #fcfcfc #000000 #000000 0 1;
#X msg 577 463 stereo \$1;
#X obj 587 249 abc_gain -127;
#X obj 664 632 abc_quadriout 0 1 2 3 4;
#X obj 819 514 snake~ in 3;
#X obj 809 576 abc_ambi_scope_m;
#X obj 811 546 abc_2d_scope1_m;
#X obj 562 124 s~ v1;
#X obj 624 124 s~ v2;
#X obj 979 196 abc_2d_multiencoder3_4_m;
#X obj 1079 128 r~ v1;
#X obj 1119 128 r~ v2;
#X obj 1120 172 snake~ in 4;
#X obj 1127 102 abc_soundcoat~;
#X obj 686 79 abc_env_noise 200 0.3 0;
#X obj 686 124 s~ v3;
#X obj 1156 127 r~ v3;
#X msg 1237 195 0.4 -0.5 2 -1.9;
#X obj 1237 173 loadbang;
#X obj 1237 220 unpack 0 0 0 0;
#X msg 1346 195 0 0 0 0;
#X floatatom 1237 247 5 0 0 0 - - - 0;
#X floatatom 1272 247 5 0 0 0 - - - 0;
#X floatatom 1307 247 5 0 0 0 - - - 0;
#X floatatom 1342 248 5 0 0 0 - - - 0;
#X obj 1237 389 s multi1;
#X obj 979 174 r multi1;
#X obj 1170 552 abc_2d_scope3_m;
#X obj 1170 581 abc_ambi_scope_m;
#X obj 1003 518 tgl 15 0 empty empty empty 17 7 0 10 #fcfcfc #000000 #000000 0 1;
#X msg 1003 540 directangles \$1;
#X obj 1003 472 tgl 15 0 empty empty empty 17 7 0 10 #fcfcfc #000000 #000000 0 1;
#X msg 1003 494 stereo \$1;
#X obj 1013 280 abc_gain -127;
#X obj 1013 590 abc_2d_decoder3_8_m;
#X obj 1124 617 dac~ 1;
#X msg 1237 279 s-0 \$1;
#X msg 1272 300 s-1 \$1;
#X msg 1306 321 s-2 \$1;
#X msg 1342 341 s-3 \$1;
#X text 529 6 We provide objects to process geometric transformations of the ambisonic sound field: 2D maps \, 2D mirrors \, 2D rotates \, 2D spatial trajectories (square \, Z \, square and Z \, random);
#X obj 169 329 abc_2d_map3_1_m;
#X obj 175 263 abc_soundcoat~;
#X obj 287 90 abc_slider2map;
#X obj 256 291 snake~ in 3;
#X text 292 244 generates polar coordinates of the source;
#X obj 628 186 abc_addsynth5_m;
#X obj 616 209 abc_cosrandenv5_m;
#X obj 715 252 snake~ out 5;
#X obj 747 299 *~ 0.2;
#X obj 726 389 abc_2d_mirror1~;
#X connect 3 1 4 1;
#X connect 5 0 27 0;
#X connect 6 0 28 0;
#X connect 7 0 10 0;
#X connect 8 0 9 0;
#X connect 9 0 10 0;
#X connect 10 1 11 0;
#X connect 10 1 12 0;
#X connect 13 0 14 0;
#X connect 15 1 16 1;
#X connect 15 1 24 0;
#X connect 15 2 16 2;
#X connect 15 2 24 1;
#X connect 15 3 16 3;
#X connect 15 3 24 2;
#X connect 16 1 23 0;
#X connect 16 2 23 1;
#X connect 16 3 23 2;
#X connect 16 4 23 3;
#X connect 18 0 19 0;
#X connect 19 0 16 0;
#X connect 20 0 21 0;
#X connect 21 0 16 0;
#X connect 22 0 16 0;
#X connect 24 0 26 1;
#X connect 26 1 25 1;
#X connect 29 1 47 1;
#X connect 29 1 54 1;
#X connect 30 0 32 0;
#X connect 31 0 32 1;
#X connect 32 0 29 1;
#X connect 33 1 32 3;
#X connect 34 0 35 0;
#X connect 36 0 32 2;
#X connect 37 0 39 0;
#X connect 38 0 37 0;
#X connect 39 0 41 0;
#X connect 39 1 42 0;
#X connect 39 2 43 0;
#X connect 39 3 44 0;
#X connect 40 0 39 0;
#X connect 41 0 56 0;
#X connect 42 0 57 0;
#X connect 43 0 58 0;
#X connect 44 0 59 0;
#X connect 46 0 29 0;
#X connect 47 1 48 1;
#X connect 49 0 50 0;
#X connect 50 0 54 0;
#X connect 51 0 52 0;
#X connect 52 0 54 0;
#X connect 53 0 54 0;
#X connect 54 1 55 0;
#X connect 56 0 45 0;
#X connect 57 0 45 0;
#X connect 58 0 45 0;
#X connect 59 0 45 0;
#X connect 61 1 3 1;
#X connect 61 1 10 1;
#X connect 62 1 64 0;
#X connect 63 0 64 1;
#X connect 63 1 64 2;
#X connect 64 0 61 1;
#X connect 66 1 67 1;
#X connect 67 1 68 0;
#X connect 68 0 69 0;
#X connect 68 1 69 0;
#X connect 68 2 69 0;
#X connect 68 3 69 0;
#X connect 68 4 69 0;
