#N canvas 670 122 621 256 10;
#X obj 166 12 inlet~;
#X obj 77 88 cyclone/scope~ 130 130 16 3 256 -1 1 0 0 0 0 255 255 255 0 0 0 96 98 102 0 empty;
#X text 258 129 uses cyclone/scope~;
#X text 257 144 requires the installation of cyclone library;
#X obj 120 12 inlet;
#X text 6 11 receives the control messages of cyclone/scope~, f 14;
#X text 293 11 receives the X and Y signals, f 29;
#X obj 213 12 inlet~;
#X connect 0 0 1 0;
#X connect 4 0 1 0;
#X connect 7 0 1 1;
#X coords 0 -1 1 1 144 154 1 70 70;
