#N canvas 799 63 567 738 10;
#X floatatom 55 77 5 0 0 2 target - - 0;
#X floatatom 135 78 5 0 1000 2 enum - - 0;
#X obj 98 76 bng 17 250 50 0 empty empty go 3 7 0 10 #fcfcfc #000000
#000000;
#X obj 135 659 outlet;
#X obj 98 111 t b b b b;
#X obj 51 158 del 100;
#X obj 51 201 int;
#X obj 90 262 moses 1001;
#X floatatom 90 292 5 0 0 0 - - - 0;
#X obj 51 232 moses 1;
#X obj 90 323 - 1;
#X obj 147 292 bng 15 250 50 0 empty empty empty 17 7 0 10 #fcfcfc
#000000 #000000;
#X obj 105 158 del 30;
#X obj 105 187 int;
#X obj 90 354 bng 15 250 50 0 empty empty empty 17 7 0 10 #fcfcfc #000000
#000000;
#X obj 147 322 t b b;
#X msg 174 348 1;
#X obj 277 279 spigot;
#X msg 217 254 0;
#X msg 310 253 1;
#X obj 310 229 loadbang;
#X msg 91 514 1;
#X msg 129 514 -1;
#X msg 169 514 0;
#X floatatom 135 567 5 0 0 0 - - - 0;
#X obj 92 567 +;
#X obj 129 470 t b b;
#X obj 154 408 t b b;
#X obj 104 439 del 10;
#X obj 263 431 int;
#X obj 263 452 pipe 100;
#X text 188 52 goes from 0 to a certain event \, switches off the dac
(if it is on) during the enumeration \, and then restores the previous
dac status;
#X obj 264 187 r pd;
#X obj 264 208 route dsp;
#X floatatom 264 229 5 0 0 0 - - - 0;
#X obj 382 209 del 30;
#X msg 382 230 0;
#X msg 382 304 \; pd dsp \$1;
#X obj 382 262 tgl 15 0 empty empty empty 17 7 0 10 #fcfcfc #000000
#000000 0 1;
#X obj 55 20 inlet;
#X obj 99 20 inlet;
#X connect 0 0 6 1;
#X connect 2 0 4 0;
#X connect 4 0 5 0;
#X connect 4 1 35 0;
#X connect 4 2 18 0;
#X connect 4 3 27 0;
#X connect 5 0 6 0;
#X connect 6 0 9 0;
#X connect 7 0 8 0;
#X connect 7 1 11 0;
#X connect 8 0 10 0;
#X connect 9 0 11 0;
#X connect 9 1 7 0;
#X connect 10 0 13 1;
#X connect 10 0 14 0;
#X connect 11 0 15 0;
#X connect 12 0 13 0;
#X connect 13 0 9 0;
#X connect 14 0 12 0;
#X connect 14 0 21 0;
#X connect 15 0 29 0;
#X connect 15 1 16 0;
#X connect 16 0 17 1;
#X connect 17 0 29 1;
#X connect 18 0 17 1;
#X connect 19 0 17 1;
#X connect 20 0 19 0;
#X connect 21 0 25 0;
#X connect 22 0 25 0;
#X connect 23 0 25 1;
#X connect 24 0 3 0;
#X connect 24 0 25 1;
#X connect 24 0 1 0;
#X connect 25 0 24 0;
#X connect 26 0 22 0;
#X connect 26 1 23 0;
#X connect 27 0 28 0;
#X connect 27 1 26 0;
#X connect 28 0 21 0;
#X connect 29 0 30 0;
#X connect 30 0 38 0;
#X connect 32 0 33 0;
#X connect 33 0 34 0;
#X connect 34 0 17 0;
#X connect 35 0 36 0;
#X connect 36 0 38 0;
#X connect 38 0 37 0;
#X connect 39 0 0 0;
#X connect 40 0 2 0;
#X coords 0 -1 1 1 120 45 1 50 50;
