#N canvas 717 98 1643 858 10;
#X obj 14 6 cnv 15 500 25 empty empty abclib_Library 20 12 0 18 #606060 #fcfcfc 0;
#X obj 13 824 abc_helpcredit;
#X obj 14 32 cnv 15 500 25 empty empty abc_2d_ambisonic_geometry 20 12 0 12 #606060 #fcfcfc 0;
#X obj 368 487 abc_2d_scope3_m;
#N canvas 92 130 97 146 voice1 0;
#X obj 18 12 phasor~ 3;
#X obj 18 33 *~ 110;
#X obj 18 54 +~ 220;
#X obj 18 75 osc~;
#X obj 18 96 outlet~;
#X connect 0 0 1 0;
#X connect 1 0 2 0;
#X connect 2 0 3 0;
#X connect 3 0 4 0;
#X restore 1468 217 pd voice1;
#X obj 71 266 abc_gain -127;
#X obj 181 437 tgl 15 0 empty empty empty 17 7 0 10 #fcfcfc #000000 #000000 0 1;
#X msg 181 461 stereo \$1;
#X obj 157 487 abc_2d_decoder3_m;
#X obj 98 535 abc_meter8_m;
#X obj 256 517 dac~ 1;
#X obj 495 725 tgl 15 0 empty empty DSP_on/off 17 7 0 10 #dfdfdf #000000 #000000 0 1;
#X msg 495 755 \; pd dsp \$1 \;;
#X text 413 394 in multichannel mode;
#X text 527 12 We provide objects to process geometric transformations of the ambisonic sound field: 2D maps \, 2D mirrors \, 2D rotates \, 2D spatial trajectories (square \, Z \, square and Z \, random);
#X obj 169 378 abc_2d_map3_1_m;
#X obj 175 312 abc_soundcoat~;
#X obj 287 139 abc_slider2map;
#X obj 256 340 snake~ in 3;
#X text 292 293 generates polar coordinates of the source;
#X obj 775 393 vradio 15 1 0 3 empty empty empty 0 -8 0 10 #fcfcfc #000000 #000000 0;
#X obj 775 443 expr 1-$f1;
#X floatatom 775 464 5 0 0 0 - - - 0;
#X obj 775 338 loadbang;
#X msg 775 484 factor \$1;
#X obj 1017 430 tgl 15 0 empty empty empty 17 7 0 10 #fcfcfc #000000 #000000 0 1;
#X msg 1017 454 stereo \$1;
#X msg 775 367 1;
#X text 803 390 1 = Original sound field;
#X text 803 406 0 = Original + Mirror sound field;
#X text 798 421 -1 = Mirror sound field;
#X text 804 375 Mirror factor;
#X obj 1019 475 tgl 15 0 empty empty empty 17 7 0 10 #fcfcfc #000000 #000000 0 1;
#X msg 1019 499 directangles \$1;
#X obj 1014 233 abc_gain -127;
#X obj 667 338 abc_2d_scope3_m;
#X obj 883 605 abc_meter8_m;
#X obj 1040 603 dac~ 1;
#X obj 604 74 loadbang;
#X floatatom 604 136 5 0 0 0 - - - 0;
#X msg 604 159 speed \$1;
#X msg 604 112 -0.2;
#X msg 568 113 0;
#X floatatom 677 137 5 0 0 0 - - - 0;
#X msg 677 113 -45;
#X msg 677 160 angle \$1;
#X floatatom 742 137 5 0 0 0 - - - 0;
#X msg 742 113 20;
#X msg 742 160 returntime \$1;
#X text 637 137 t.s-1;
#X text 710 137 deg.;
#X text 776 137 msec;
#X obj 851 142 abc_addsynth5_m;
#X obj 839 161 abc_cosrandenv5_m;
#X obj 710 188 abc_2d_rotate2_m_ui;
#X obj 775 507 abc_2d_mirror2_m;
#X obj 781 542 abc_2d_scope2_m;
#X obj 907 573 abc_2d_decoder2_m;
#X obj 1267 99 loadbang;
#X floatatom 1267 161 5 0 0 0 - - - 0;
#X msg 1267 184 freq \$1;
#X floatatom 1333 160 5 0 0 0 - - - 0;
#X msg 1333 183 size \$1;
#X floatatom 1394 160 5 0 1 0 - - - 0;
#X msg 1394 137 0.22;
#X msg 1394 183 crossfade \$1;
#X msg 1267 137 0.5;
#X obj 1177 98 abc_gain -127;
#X obj 1267 243 abc_2d_squareandztrajectory_2map_m;
#X obj 1177 393 abc_2d_stereodecoder3_m;
#X obj 1202 427 abc_stereoout_m -15;
#X obj 1292 281 abc_2d_map3_m;
#X obj 1181 485 abc_ambi_scope_m;
#X msg 1333 137 0.8;
#X text 122 193 2D map;
#X text 267 379 2D map;
#X text 877 507 2D mirror;
#X obj 1274 356 abc_2d_rotate3_m;
#X obj 1379 605 loadbang;
#X floatatom 1379 667 5 0 0 0 - - - 0;
#X msg 1379 690 speed \$1;
#X msg 1343 644 0;
#X floatatom 1452 668 5 0 0 0 - - - 0;
#X msg 1452 644 -45;
#X msg 1452 691 angle \$1;
#X floatatom 1517 668 5 0 0 0 - - - 0;
#X msg 1517 644 20;
#X msg 1517 691 returntime \$1;
#X text 1412 668 t.s-1;
#X text 1485 668 deg.;
#X text 1551 668 msec;
#X obj 1274 330 r globalRotation;
#X obj 1379 734 s globalRotation;
#X obj 1331 393 abc_2d_scope3_m;
#X msg 1379 643 0.6;
#X text 1404 270 one of the trajectory generators with interpolation between Z and square;
#X text 1404 319 global rotation of the sound field that can alter the individual rotation of sources;
#X obj 318 533 abc_xy_scope_m;
#X obj 617 446 abc_xy_scope_m;
#X obj 731 604 abc_xy_scope_m;
#X obj 1181 643 abc_xy_scope_m;
#X connect 3 1 97 1;
#X connect 4 0 68 1;
#X connect 5 0 8 0;
#X connect 6 0 7 0;
#X connect 7 0 8 0;
#X connect 8 1 9 0;
#X connect 8 1 10 0;
#X connect 11 0 12 0;
#X connect 15 1 3 1;
#X connect 15 1 8 1;
#X connect 16 1 18 0;
#X connect 17 0 18 1;
#X connect 17 1 18 2;
#X connect 18 0 15 1;
#X connect 20 0 21 0;
#X connect 21 0 22 0;
#X connect 22 0 24 0;
#X connect 23 0 27 0;
#X connect 24 0 55 0;
#X connect 25 0 26 0;
#X connect 26 0 57 0;
#X connect 27 0 20 0;
#X connect 32 0 33 0;
#X connect 33 0 57 0;
#X connect 34 0 57 0;
#X connect 35 1 98 1;
#X connect 38 0 41 0;
#X connect 38 0 44 0;
#X connect 38 0 47 0;
#X connect 39 0 40 0;
#X connect 40 0 54 0;
#X connect 41 0 39 0;
#X connect 42 0 39 0;
#X connect 43 0 45 0;
#X connect 44 0 43 0;
#X connect 45 0 54 0;
#X connect 46 0 48 0;
#X connect 47 0 46 0;
#X connect 48 0 54 0;
#X connect 52 1 53 1;
#X connect 53 1 54 1;
#X connect 54 1 35 1;
#X connect 54 1 55 1;
#X connect 55 1 56 1;
#X connect 55 1 57 1;
#X connect 56 1 99 1;
#X connect 57 1 36 0;
#X connect 57 1 37 0;
#X connect 58 0 66 0;
#X connect 58 0 73 0;
#X connect 58 0 64 0;
#X connect 59 0 60 0;
#X connect 60 0 68 0;
#X connect 61 0 62 0;
#X connect 62 0 68 0;
#X connect 63 0 65 0;
#X connect 64 0 63 0;
#X connect 65 0 68 0;
#X connect 66 0 59 0;
#X connect 67 0 69 0;
#X connect 68 1 71 1;
#X connect 68 2 72 1;
#X connect 69 1 70 0;
#X connect 71 1 77 1;
#X connect 73 0 61 0;
#X connect 77 1 69 1;
#X connect 77 1 93 1;
#X connect 78 0 94 0;
#X connect 78 0 83 0;
#X connect 78 0 86 0;
#X connect 79 0 80 0;
#X connect 80 0 92 0;
#X connect 81 0 79 0;
#X connect 82 0 84 0;
#X connect 83 0 82 0;
#X connect 84 0 92 0;
#X connect 85 0 87 0;
#X connect 86 0 85 0;
#X connect 87 0 92 0;
#X connect 91 0 77 0;
#X connect 93 1 100 1;
#X connect 94 0 79 0;
