#N canvas 1012 203 651 627 10;
#X obj 43 16 loadbang;
#X obj 43 40 f \$1;
#X obj 112 17 loadbang;
#X obj 112 41 f \$2;
#X obj 412 120 bng 15 250 50 0 empty empty empty 17 7 0 10 #dfdfdf #000000 #000000;
#X floatatom 103 119 5 0 0 1 grain_size - - 0;
#X floatatom 203 119 5 0 1 1 rarefaction - - 0;
#X obj 85 285 noise~;
#X obj 186 284 noise~;
#X obj 186 308 +~ 1;
#X obj 186 332 *~ 0.5;
#X obj 186 399 samphold~ 0.001;
#X obj 289 293 phasor~ 5;
#X obj 102 184 expr 1000 / $f1;
#X floatatom 102 208 5 0 0 0 - - - 0;
#X obj 348 351 -~ 0.5;
#X obj 348 375 *~ 0.5;
#X obj 348 399 cos~;
#X obj 186 439 *~;
#X obj 85 489 *~;
#X obj 175 17 loadbang;
#X obj 175 41 f \$3;
#X floatatom 311 119 5 -127 18 1 level_[dB] - - 0;
#X obj 454 358 dbtorms;
#X floatatom 454 335 5 0 0 0 - - - 0;
#X obj 454 311 expr ($f1 + 127) / 127 * 100;
#X floatatom 454 379 15 0 0 0 - - - 0;
#X msg 454 399 \$1 20;
#X obj 454 420 line~;
#X obj 85 527 *~;
#X obj 85 565 outlet~;
#X obj 186 372 gt~;
#X connect 0 0 1 0;
#X connect 1 0 5 0;
#X connect 2 0 3 0;
#X connect 3 0 6 0;
#X connect 4 0 3 0;
#X connect 4 0 1 0;
#X connect 4 0 21 0;
#X connect 5 0 13 0;
#X connect 6 0 31 1;
#X connect 7 0 19 0;
#X connect 8 0 9 0;
#X connect 9 0 10 0;
#X connect 10 0 31 0;
#X connect 11 0 18 0;
#X connect 12 0 11 1;
#X connect 12 0 15 0;
#X connect 13 0 14 0;
#X connect 14 0 12 0;
#X connect 15 0 16 0;
#X connect 16 0 17 0;
#X connect 17 0 18 1;
#X connect 18 0 19 1;
#X connect 19 0 29 0;
#X connect 20 0 21 0;
#X connect 21 0 22 0;
#X connect 22 0 25 0;
#X connect 23 0 26 0;
#X connect 24 0 23 0;
#X connect 25 0 24 0;
#X connect 26 0 27 0;
#X connect 27 0 28 0;
#X connect 28 0 29 1;
#X connect 29 0 30 0;
#X connect 31 0 11 0;
#X coords 0 -1 1 1 330 37 1 100 100;
