#N canvas 851 316 220 365 12;
#X obj 35 64 vsl 15 128 -127 18 0 0 empty empty gain 0 -9 0 10 -262144
-1 -1 11123 1;
#X obj 36 2 loadbang;
#X floatatom 35 198 5 0 0 0 - - -;
#X obj 36 26 f \$1;
#X obj 56 179 bng 15 250 50 0 empty empty empty 17 7 0 10 -262144 -1
-1;
#X msg 35 238 @gain \$1;
#X obj 35 284 outlet;
#X connect 0 0 2 0;
#X connect 1 0 3 0;
#X connect 2 0 5 0;
#X connect 3 0 0 0;
#X connect 4 0 3 0;
#X connect 5 0 6 0;
#X coords 0 -1 1 1 50 170 2 30 50;
