#N canvas 1108 228 550 440 10;
#X obj 183 95 bng 15 250 50 0 empty empty empty 17 7 0 10 #fcfcfc #000000
#000000;
#X obj 182 119 t b b, f 15;
#X obj 118 186 del 20000;
#X obj 182 188 t b b, f 10;
#X msg 239 210 1;
#X msg 182 211 0 15000;
#X obj 271 180 t b b, f 11;
#X msg 271 209 1 15000;
#X msg 334 209 0;
#X obj 58 384 outlet;
#X floatatom 56 69 5 0 1 0 - - - 0;
#X obj 145 268 line 0;
#X obj 144 46 inlet;
#X obj 145 74 sel 0;
#X msg 146 113 stop;
#X obj 183 73 sel 1;
#X obj 182 165 del 20000;
#X obj 145 141 t a a a;
#X connect 0 0 1 0;
#X connect 1 0 16 0;
#X connect 1 1 6 0;
#X connect 2 0 0 0;
#X connect 3 0 5 0;
#X connect 3 1 4 0;
#X connect 4 0 11 0;
#X connect 5 0 11 0;
#X connect 6 0 7 0;
#X connect 6 1 8 0;
#X connect 7 0 11 0;
#X connect 8 0 11 0;
#X connect 10 0 9 0;
#X connect 11 0 10 0;
#X connect 12 0 13 0;
#X connect 12 0 15 0;
#X connect 13 0 14 0;
#X connect 14 0 17 0;
#X connect 15 0 0 0;
#X connect 16 0 2 0;
#X connect 16 0 3 0;
#X connect 17 0 11 0;
#X connect 17 1 2 0;
#X connect 17 2 16 0;
#X coords 0 -1 1 1 50 40 1 50 50;
