#N canvas 494 182 946 667 10;
#X declare -lib Gem;
#X obj 252 29 inlet~;
#X text 197 7 X between -1 and 1;
#X text 350 7 Y between -1 and 1;
#X obj 18 4 loadbang;
#X obj 56 152 vsl 15 128 0 5 0 0 empty empty size 0 -9 0 10 -262144
-1 -1 0 1;
#X floatatom 56 287 5 0 0 0 - - -;
#X obj 172 604 scopeXYZ~ 1024;
#X msg 169 287 draw point;
#X msg 203 318 draw line;
#X obj 257 385 *~;
#X obj 290 384 *~;
#X obj 737 36 declare -lib Gem;
#X obj 351 602 scopeXYZ~ 1024;
#X obj 93 439 color 1 0 0;
#X obj 515 386 color 0 0 1;
#X obj 608 35 inlet~;
#X text 603 9 + (1) / - (0);
#X obj 276 438 *~;
#X obj 310 437 *~;
#X obj 608 174 *~ -1;
#X obj 608 198 +~ 1;
#X obj 346 437 *~;
#X obj 380 436 *~;
#X obj 568 525 color 0.3 0.3 0.3;
#X obj 568 605 circle;
#X msg 488 505 draw line;
#X obj 654 603 circle;
#X obj 730 602 circle;
#X obj 799 602 circle;
#X obj 488 477 loadbang;
#X obj 748 506 t f f f f;
#X obj 739 542 * 0.75;
#X obj 783 542 * 0.5;
#X obj 827 542 * 0.25;
#X obj 93 287 bng 15 250 50 0 empty empty empty 17 7 0 10 -262144 -1
-1;
#X msg 381 107 dimen 200 200;
#X msg 302 107 color 1 1 1;
#X obj 80 219 vradio 15 1 0 2 empty empty empty 0 -8 0 10 -262144 -1
-1 0;
#X obj 169 264 select 0 1;
#X text 96 218 points;
#X text 96 234 lines;
#X obj 381 200 gemwin;
#X msg 471 107 title abc_ambi_scope;
#X obj 93 415 gemhead 1;
#X obj 568 494 gemhead 2;
#X obj 516 362 gemhead 0;
#X obj 80 199 tgl 15 0 empty empty display 17 7 0 10 -262144 -1 -1
0 1;
#X obj 18 47 t b b b b b b b;
#X obj 252 50 *~;
#X obj 377 27 inlet~;
#X obj 377 48 *~;
#N canvas 688 555 542 369 onegenwinonly 0;
#X text 197 137 There is only one genwin by instance of Pd But to avoid
several windows on the same scene \, we prevent several creations by
only activating the first one;
#X obj 113 45 r gemwinnumber;
#X floatatom 98 115 5 0 0 0 - - -;
#X obj 98 164 < 1;
#X obj 98 187 select 1;
#X obj 179 195 + 1;
#X obj 164 246 f;
#X obj 99 216 t b b;
#X obj 164 300 s gemwinnumber;
#X obj 98 94 f 0;
#X obj 47 44 inlet;
#X obj 126 330 outlet;
#X obj 48 114 bng 15 250 50 0 empty empty empty 17 7 0 10 -262144 -1
-1;
#X floatatom 164 273 5 0 0 0 - - -;
#X floatatom 113 70 5 0 0 0 - - -;
#X obj 98 135 t f f;
#X connect 1 0 14 0;
#X connect 2 0 15 0;
#X connect 3 0 4 0;
#X connect 4 0 7 0;
#X connect 5 0 6 1;
#X connect 6 0 13 0;
#X connect 7 0 6 0;
#X connect 7 1 11 0;
#X connect 9 0 2 0;
#X connect 10 0 9 0;
#X connect 10 0 12 0;
#X connect 13 0 8 0;
#X connect 14 0 9 1;
#X connect 15 0 3 0;
#X connect 15 1 5 0;
#X restore 182 107 pd onegenwinonly;
#X obj 18 25 del \$0;
#X msg 182 137 create \, 1;
#X obj 135 11 loadbang;
#X obj 135 32 f \$1;
#X obj 56 330 s gemwinsize;
#X obj 122 76 r gemwinsize;
#X obj 122 97 change;
#X obj 72 87 f \$2;
#X obj 32 86 f \$3;
#X connect 0 0 48 0;
#X connect 3 0 52 0;
#X connect 4 0 5 0;
#X connect 5 0 10 1;
#X connect 5 0 9 1;
#X connect 5 0 30 0;
#X connect 5 0 56 0;
#X connect 7 0 6 0;
#X connect 7 0 12 0;
#X connect 8 0 6 0;
#X connect 8 0 12 0;
#X connect 9 0 17 0;
#X connect 9 0 21 0;
#X connect 10 0 18 0;
#X connect 10 0 22 0;
#X connect 13 0 6 0;
#X connect 14 0 12 0;
#X connect 15 0 17 1;
#X connect 15 0 18 1;
#X connect 15 0 19 0;
#X connect 17 0 6 1;
#X connect 18 0 6 2;
#X connect 19 0 20 0;
#X connect 20 0 21 1;
#X connect 20 0 22 1;
#X connect 21 0 12 1;
#X connect 22 0 12 2;
#X connect 23 0 24 0;
#X connect 23 0 26 0;
#X connect 23 0 27 0;
#X connect 23 0 28 0;
#X connect 25 0 24 0;
#X connect 25 0 26 0;
#X connect 25 0 27 0;
#X connect 25 0 28 0;
#X connect 29 0 25 0;
#X connect 30 0 24 1;
#X connect 30 1 31 0;
#X connect 30 2 32 0;
#X connect 30 3 33 0;
#X connect 31 0 26 1;
#X connect 32 0 27 1;
#X connect 33 0 28 1;
#X connect 34 0 47 0;
#X connect 34 0 55 0;
#X connect 35 0 41 0;
#X connect 36 0 41 0;
#X connect 37 0 38 0;
#X connect 38 0 7 0;
#X connect 38 1 8 0;
#X connect 42 0 41 0;
#X connect 43 0 13 0;
#X connect 44 0 23 0;
#X connect 45 0 14 0;
#X connect 46 0 48 1;
#X connect 46 0 50 1;
#X connect 47 1 60 0;
#X connect 47 2 59 0;
#X connect 47 3 51 0;
#X connect 47 4 36 0;
#X connect 47 5 35 0;
#X connect 47 6 42 0;
#X connect 48 0 9 0;
#X connect 49 0 50 0;
#X connect 50 0 10 0;
#X connect 51 0 53 0;
#X connect 52 0 47 0;
#X connect 53 0 41 0;
#X connect 54 0 55 0;
#X connect 55 0 46 0;
#X connect 57 0 58 0;
#X connect 58 0 4 0;
#X connect 59 0 37 0;
#X connect 60 0 4 0;
#X coords 0 -1 1 1 90 185 1 50 120;
