#N canvas 653 113 787 425 12;
#X obj 105 106 tgl 15 0 empty empty DSP 17 7 0 10 -262144 -1 -1 0 1
;
#X msg 107 337 \; pd dsp \$1 \;;
#X obj 279 10 inlet~;
#X obj 279 56 *~;
#X obj 199 11 loadbang;
#X obj 199 35 f \$1;
#X obj 209 105 bng 15 250 50 0 empty empty empty 17 7 0 10 -262144
-1 -1;
#X obj 335 9 inlet~;
#X obj 335 56 *~;
#X floatatom 145 104 5 -127 18 1 dB - -;
#X obj 211 212 dbtorms;
#X obj 211 182 expr ($f1 + 127) * 100 / 127;
#X floatatom 211 236 5 0 0 0 - - -;
#X msg 211 259 \$1 20;
#X obj 211 283 line~;
#X obj 287 141 dac~ 1 2 3 4;
#X obj 390 9 inlet~;
#X obj 390 56 *~;
#X obj 441 10 inlet~;
#X obj 441 57 *~;
#X text 103 121 quadri;
#X connect 0 0 1 0;
#X connect 2 0 3 0;
#X connect 3 0 15 0;
#X connect 4 0 5 0;
#X connect 5 0 9 0;
#X connect 6 0 5 0;
#X connect 7 0 8 0;
#X connect 8 0 15 1;
#X connect 9 0 11 0;
#X connect 10 0 12 0;
#X connect 11 0 10 0;
#X connect 12 0 13 0;
#X connect 13 0 14 0;
#X connect 14 0 8 1;
#X connect 14 0 3 1;
#X connect 14 0 17 1;
#X connect 14 0 19 1;
#X connect 16 0 17 0;
#X connect 17 0 15 2;
#X connect 18 0 19 0;
#X connect 19 0 15 3;
#X coords 0 -1 1 1 130 40 2 100 100;
