#N canvas 714 76 975 672 10;
#X declare -lib Gem;
#X obj 352 30 inlet~;
#X obj 252 31 inlet~;
#X text 194 7 X between -1 and 1;
#X text 347 7 Y between -1 and 1;
#X obj 167 49 loadbang;
#X obj 53 152 vsl 15 128 0 5 0 0 empty empty size 0 -9 0 10 -262144
-1 -1 6350 1;
#X floatatom 53 287 5 0 0 0 - - -;
#X obj 169 604 scopeXYZ~ 1024;
#X msg 193 193 create \, 1;
#X obj 194 238 gemwin;
#X msg 166 287 draw point;
#X msg 172 310 draw line;
#X msg 178 333 draw linestrip;
#X obj 254 385 *~;
#X obj 287 384 *~;
#X obj 658 37 declare -lib Gem;
#X obj 348 602 scopeXYZ~ 1024;
#X obj 73 359 color 1 0 0;
#X obj 512 353 color 0 0 1;
#X obj 512 33 inlet~;
#X text 525 9 + (1) / - (0);
#X obj 73 335 gemhead 1;
#X obj 513 329 gemhead 0;
#X obj 273 438 *~;
#X obj 307 437 *~;
#X obj 514 172 *~ -1;
#X obj 514 196 +~ 1;
#X obj 343 437 *~;
#X obj 377 436 *~;
#X obj 565 495 gemhead 2;
#X obj 565 525 color 0.3 0.3 0.3;
#X obj 565 605 circle;
#X msg 485 505 draw line;
#X obj 651 603 circle;
#X obj 727 602 circle;
#X obj 796 602 circle;
#X obj 485 477 loadbang;
#X obj 745 506 t f f f f;
#X obj 736 542 * 0.75;
#X obj 780 542 * 0.5;
#X obj 824 542 * 0.25;
#X obj 76 207 tgl 15 0 empty empty display 17 7 0 10 -262144 -1 -1
1 1;
#X msg 265 193 destroy;
#X obj 218 163 select 1 0;
#X msg 323 193 title abc_ambi_scope;
#X msg 53 90 2.5;
#X obj 90 287 bng 15 250 50 0 empty empty empty 17 7 0 10 -262144 -1
-1;
#X msg 87 90 1;
#X msg 334 152 dimen 200 200;
#X msg 355 118 color 1 1 1;
#X connect 0 0 14 0;
#X connect 1 0 13 0;
#X connect 4 0 45 0;
#X connect 4 0 10 0;
#X connect 4 0 44 0;
#X connect 4 0 48 0;
#X connect 4 0 47 0;
#X connect 4 0 49 0;
#X connect 5 0 6 0;
#X connect 6 0 14 1;
#X connect 6 0 13 1;
#X connect 6 0 37 0;
#X connect 8 0 9 0;
#X connect 10 0 7 0;
#X connect 10 0 16 0;
#X connect 11 0 7 0;
#X connect 11 0 16 0;
#X connect 12 0 7 0;
#X connect 12 0 16 0;
#X connect 13 0 23 0;
#X connect 13 0 27 0;
#X connect 14 0 24 0;
#X connect 14 0 28 0;
#X connect 17 0 7 0;
#X connect 18 0 16 0;
#X connect 19 0 23 1;
#X connect 19 0 24 1;
#X connect 19 0 25 0;
#X connect 21 0 17 0;
#X connect 22 0 18 0;
#X connect 23 0 7 1;
#X connect 24 0 7 2;
#X connect 25 0 26 0;
#X connect 26 0 27 1;
#X connect 26 0 28 1;
#X connect 27 0 16 1;
#X connect 28 0 16 2;
#X connect 29 0 30 0;
#X connect 30 0 31 0;
#X connect 30 0 33 0;
#X connect 30 0 34 0;
#X connect 30 0 35 0;
#X connect 32 0 31 0;
#X connect 32 0 33 0;
#X connect 32 0 34 0;
#X connect 32 0 35 0;
#X connect 36 0 32 0;
#X connect 37 0 31 1;
#X connect 37 1 38 0;
#X connect 37 2 39 0;
#X connect 37 3 40 0;
#X connect 38 0 33 1;
#X connect 39 0 34 1;
#X connect 40 0 35 1;
#X connect 41 0 43 0;
#X connect 42 0 9 0;
#X connect 43 0 8 0;
#X connect 43 1 42 0;
#X connect 44 0 9 0;
#X connect 45 0 5 0;
#X connect 46 0 45 0;
#X connect 47 0 41 0;
#X connect 48 0 9 0;
#X connect 49 0 9 0;
#X coords 0 -1 1 1 90 185 1 50 120;
