#N canvas 89 31 724 640 12;
#X obj 43 16 loadbang;
#X obj 43 40 f \$1;
#X obj 112 17 loadbang;
#X obj 112 41 f \$2;
#X obj 352 108 bng 15 250 50 0 empty empty empty 17 7 0 10 -262144
-1 -1;
#X floatatom 105 106 5 0 0 1 grain_size - -;
#X floatatom 225 107 5 0 1 1 rarefaction - -;
#X obj 85 285 noise~;
#X obj 186 284 noise~;
#X obj 186 308 +~ 1;
#X obj 186 332 *~ 0.5;
#X obj 186 372 >~;
#X obj 186 399 samphold~ 0.001;
#X obj 289 293 phasor~ 5;
#X obj 104 184 expr 1000 / $f1;
#X floatatom 104 208 5 0 0 0 - - -;
#X obj 348 351 -~ 0.5;
#X obj 348 375 *~ 0.5;
#X obj 348 399 cos~;
#X obj 186 439 *~;
#X obj 85 489 *~;
#X obj 85 534 outlet~;
#X obj 384 204 cnv 15 100 60 empty empty empty 20 12 0 14 -233017 -66577
0;
#X connect 0 0 1 0;
#X connect 1 0 5 0;
#X connect 2 0 3 0;
#X connect 3 0 6 0;
#X connect 4 0 3 0;
#X connect 4 0 1 0;
#X connect 5 0 14 0;
#X connect 6 0 11 1;
#X connect 7 0 20 0;
#X connect 8 0 9 0;
#X connect 9 0 10 0;
#X connect 10 0 11 0;
#X connect 11 0 12 0;
#X connect 12 0 19 0;
#X connect 13 0 12 1;
#X connect 13 0 16 0;
#X connect 14 0 15 0;
#X connect 15 0 13 0;
#X connect 16 0 17 0;
#X connect 17 0 18 0;
#X connect 18 0 19 1;
#X connect 19 0 20 1;
#X connect 20 0 21 0;
#X coords 0 -1 1 1 272 30 2 100 100;
