#N canvas 612 970 834 256 10;
#X obj 77 98 cyclone/scope~ 130 130 16 3 256 -1 1 0 0 0 0 255 255 255 0 0 0 96 98 102 0 empty;
#X text 223 141 uses cyclone/scope~;
#X text 223 156 requires the installation of cyclone library;
#X obj 2 5 inlet;
#X obj 2 27 route refresh;
#X msg 2 50 refresh \$1;
#X text 224 175 the inlet enables to receive the refresh control for abc_2d_scope objects and message controls for cyclone/scope~ object as well;
#X obj 145 5 inlet~;
#X obj 190 5 inlet~;
#X obj 235 5 inlet~;
#X obj 280 5 inlet~;
#X obj 325 5 inlet~;
#X obj 370 5 inlet~;
#X obj 415 5 inlet~;
#X obj 460 5 inlet~;
#X obj 505 5 inlet~;
#X obj 550 5 inlet~;
#X obj 595 5 inlet~;
#X obj 640 5 inlet~;
#X obj 685 5 inlet~;
#X obj 730 5 inlet~;
#X obj 775 5 inlet~;
#X obj 115 50 abc_2d_scope7~, f 76;
#X connect 3 0 4 0;
#X connect 4 0 5 0;
#X connect 4 1 0 0;
#X connect 5 0 22 0;
#X connect 7 0 22 1;
#X connect 8 0 22 2;
#X connect 9 0 22 3;
#X connect 10 0 22 4;
#X connect 11 0 22 5;
#X connect 12 0 22 6;
#X connect 13 0 22 7;
#X connect 14 0 22 8;
#X connect 15 0 22 9;
#X connect 16 0 22 10;
#X connect 17 0 22 11;
#X connect 18 0 22 12;
#X connect 19 0 22 13;
#X connect 20 0 22 14;
#X connect 21 0 22 15;
#X connect 22 1 0 0;
#X connect 22 2 0 1;
#X coords 0 -1 1 1 144 154 1 70 80;
