#N canvas 439 368 506 469 10;
#X obj 85 82 vradio 15 1 0 7 empty empty Duration 0 -8 0 10 #dfdfdf #000000 #000000 0;
#X obj 94 226 select 0 1 2 3 4 5 6;
#X floatatom 153 67 5 0 0 0 - - - 0;
#X msg 94 290 4;
#X floatatom 197 352 5 0 0 0 - - - 0;
#X msg 130 290 2;
#X msg 164 290 1;
#X msg 197 290 0.5;
#X msg 229 290 0.25;
#X msg 268 290 0.125;
#X msg 314 290 0.333;
#X text 105 95 half;
#X text 104 79 whole;
#X text 104 110 quarter;
#X obj 198 395 outlet;
#X text 105 126 8th;
#X obj 85 2 loadbang;
#X text 103 141 16th;
#X text 103 172 triplet;
#X obj 85 26 f \$1;
#X text 103 157 32nd;
#X connect 0 0 1 0;
#X connect 1 0 3 0;
#X connect 1 1 5 0;
#X connect 1 2 6 0;
#X connect 1 3 7 0;
#X connect 1 4 8 0;
#X connect 1 5 9 0;
#X connect 1 6 10 0;
#X connect 3 0 4 0;
#X connect 4 0 2 0;
#X connect 4 0 14 0;
#X connect 5 0 4 0;
#X connect 6 0 4 0;
#X connect 7 0 4 0;
#X connect 8 0 4 0;
#X connect 9 0 4 0;
#X connect 10 0 4 0;
#X connect 16 0 19 0;
#X connect 19 0 0 0;
#X coords 0 -1 1 1 110 140 1 80 50;
