#N canvas 457 48 397 354 10;
#X obj 30 30 inlet;
#X obj 30 297 outlet;
#X obj 116 297 outlet~;
#X text 2 9 control messages;
#X obj 117 30 inlet~;
#X text 166 29 source;
#X obj 100 180 abc_cartopol~;
#X obj 116 225 snake~ in 3;
#X text 126 273 to map;
#X obj 215 298 outlet~;
#X obj 215 226 snake~ in 2;
#X text 225 274 to XY display;
#X obj 31 130 abc_2d_randomtrajectory~;
#X connect 0 0 12 0;
#X connect 4 0 7 0;
#X connect 6 1 7 1;
#X connect 6 2 7 2;
#X connect 7 0 2 0;
#X connect 10 0 9 0;
#X connect 12 0 1 0;
#X connect 12 1 6 1;
#X connect 12 1 10 0;
#X connect 12 2 6 2;
#X connect 12 2 10 1;
