#N canvas 393 115 1286 825 10;
#X obj 651 9 inlet~;
#X obj 581 33 r \$0-onoff;
#N canvas 0 22 450 278 (subpatch) 0;
#X array \$0-wave 512 float 4;
#X coords 0 1 512 -1 300 140 2 0 0;
#X restore 136 174 graph;
#X obj 775 27 r \$0-onoff;
#N canvas 377 263 450 300 cadre 0;
#X obj 235 118 nbx 5 14 2 1e+37 0 0 \$0-buffer-size \$0-buffer-sizei
empty 0 -8 0 10 -262144 -1 -1 512 256;
#X obj 127 118 tgl 15 0 \$0-onoff \$0-onoffi empty 17 7 0 10 -262144
-1 -1 0 1;
#X text 232 102 Buffer Size;
#X obj 165 118 nbx 5 14 2 1e+37 0 0 \$0-tick-time \$0-tick-timei empty
0 -8 0 10 -262144 -1 -1 86 256;
#X obj 305 118 nbx 5 14 0.1 1e+37 0 0 \$0-range \$0-rangei empty 0
-8 0 10 -262144 -1 -1 1 256;
#X text 162 102 Tick Time;
#X text 302 102 Amplitude Range;
#X text 118 102 OnOff;
#X coords 0 -1 1 1 346 40 2 100 100;
#X restore 100 120 pd cadre;
#X obj 1070 161 loadbang;
#X msg 1070 186 0;
#X obj 1070 239 loadbang;
#X obj 1070 319 loadbang;
#X obj 924 96 inlet;
#X obj 1070 211 s \$0-onoffi;
#X text 260 102 Scope;
#X obj 581 92 metro 86;
#X obj 651 189 tabwrite~ \$0-wave;
#X obj 775 144 switch~;
#X text 179 344 Amplitude a / Time t (samples);
#X obj 651 149 clip~ -1 1;
#X obj 1070 289 s \$0-tick-timei;
#X msg 1070 264 86;
#X obj 626 63 r \$0-tick-time;
#X msg 1070 344 512;
#X obj 1070 369 s \$0-buffer-sizei;
#X obj 1070 399 loadbang;
#X msg 1070 424 1;
#X obj 1070 449 s \$0-rangei;
#X obj 679 97 r \$0-range;
#X obj 679 119 * -1;
#X msg 613 625 resize \$1;
#X obj 404 451 t f b f f, f 11;
#X obj 279 664 send \$0-wave;
#X obj 404 394 r \$0-buffer-size;
#X msg 423 624 bounds 0 \$2 \$1 \$3;
#X obj 423 594 pack 512 -1 1;
#N canvas 472 157 541 391 abscissa 0;
#X obj 240 102 * 0.125;
#X msg 299 165 xticks \$1 \$1 1;
#X obj 118 134 until;
#X obj 118 156 f 0;
#X obj 148 156 + 1;
#X obj 118 200 *;
#X obj 147 112 f 0;
#X obj 118 250 list prepend;
#X obj 205 143 t b b;
#X obj 118 271 list;
#X obj 98 90 t b b b f b, f 15;
#X obj 97 293 list;
#X obj 97 315 list trim;
#X obj 118 222 int;
#X obj 118 112 f 9;
#X obj 118 178 / 8;
#X obj 260 323 outlet;
#X obj 266 17 r \$0-range;
#X obj 111 37 f 512;
#X obj 110 10 inlet;
#X obj 205 165 f 1.3;
#X msg 205 195 xlabel \$1;
#X obj 266 39 t b f;
#X obj 293 63 * -1.1;
#X connect 0 0 1 0;
#X connect 1 0 16 0;
#X connect 2 0 3 0;
#X connect 3 0 4 0;
#X connect 3 0 15 0;
#X connect 4 0 3 1;
#X connect 5 0 13 0;
#X connect 6 0 3 1;
#X connect 7 0 9 0;
#X connect 8 0 20 0;
#X connect 8 1 7 1;
#X connect 9 0 11 1;
#X connect 9 0 7 1;
#X connect 10 0 11 0;
#X connect 10 1 14 0;
#X connect 10 2 6 0;
#X connect 10 3 5 1;
#X connect 10 4 8 0;
#X connect 11 0 12 0;
#X connect 12 0 16 0;
#X connect 13 0 7 0;
#X connect 14 0 2 0;
#X connect 15 0 5 0;
#X connect 17 0 22 0;
#X connect 18 0 10 0;
#X connect 18 0 0 0;
#X connect 19 0 18 0;
#X connect 20 0 21 0;
#X connect 21 0 7 0;
#X connect 22 0 18 0;
#X connect 22 1 23 0;
#X connect 23 0 20 1;
#X restore 168 557 pd abscissa;
#X obj 395 495 r \$0-range;
#X obj 450 572 * -1;
#X obj 423 547 t b f;
#X obj 395 517 t f f;
#N canvas 683 199 541 391 ordinate 0;
#X obj 118 134 until;
#X obj 118 156 f 0;
#X obj 148 156 + 1;
#X obj 118 200 *;
#X obj 118 310 list prepend;
#X obj 205 136 t b b;
#X obj 118 331 list;
#X obj 97 353 list;
#X obj 97 375 list trim;
#X obj 260 383 outlet;
#X obj 110 10 inlet;
#X obj 266 39 t b f;
#X obj 111 37 f 1;
#X obj 298 128 * 0.2;
#X obj 118 112 f 11;
#X obj 97 84 t b b b f b, f 15;
#X obj 167 113 f 0;
#X msg 205 195 ylabel \$1;
#X msg 299 165 yticks 0 \$1 5;
#X obj 118 178 / 10;
#X obj 118 222 -;
#X obj 178 142 * 2;
#X obj 266 -3 r \$0-buffer-size;
#X obj 266 19 int;
#X obj 205 165 f 2;
#X obj 293 63 * -0.0292968;
#X connect 0 0 1 0;
#X connect 1 0 2 0;
#X connect 1 0 19 0;
#X connect 2 0 1 1;
#X connect 3 0 20 0;
#X connect 4 0 6 0;
#X connect 5 0 24 0;
#X connect 5 1 4 1;
#X connect 6 0 7 1;
#X connect 6 0 4 1;
#X connect 7 0 8 0;
#X connect 8 0 9 0;
#X connect 10 0 12 0;
#X connect 11 0 12 0;
#X connect 11 1 25 0;
#X connect 12 0 13 0;
#X connect 12 0 15 0;
#X connect 13 0 18 0;
#X connect 14 0 0 0;
#X connect 15 0 7 0;
#X connect 15 1 14 0;
#X connect 15 2 16 0;
#X connect 15 3 20 1;
#X connect 15 3 21 0;
#X connect 15 4 5 0;
#X connect 16 0 1 1;
#X connect 17 0 4 0;
#X connect 18 0 9 0;
#X connect 19 0 3 0;
#X connect 20 0 4 0;
#X connect 21 0 3 1;
#X connect 22 0 23 0;
#X connect 23 0 11 0;
#X connect 24 0 17 0;
#X connect 25 0 24 1;
#X restore 258 557 pd ordinate;
#X obj 404 416 int;
#X obj 476 458 s \$0-buffer-sizei;
#X msg 444 423 set \$1;
#X obj 775 99 f 0;
#X obj 832 99 f 64;
#X obj 775 121 pack f 64, f 10;
#X obj 832 46 r \$0-buffer-size;
#X obj 832 68 t b f;
#X obj 924 118 route onoff ticktime buffersize amprange;
#X connect 0 0 16 0;
#X connect 1 0 12 0;
#X connect 3 0 42 0;
#X connect 5 0 6 0;
#X connect 6 0 10 0;
#X connect 7 0 18 0;
#X connect 8 0 20 0;
#X connect 9 0 47 0;
#X connect 12 0 13 0;
#X connect 16 0 13 0;
#X connect 18 0 17 0;
#X connect 19 0 12 1;
#X connect 20 0 21 0;
#X connect 22 0 23 0;
#X connect 23 0 24 0;
#X connect 25 0 26 0;
#X connect 25 0 16 2;
#X connect 26 0 16 1;
#X connect 27 0 29 0;
#X connect 28 0 33 0;
#X connect 28 2 32 0;
#X connect 28 3 27 0;
#X connect 30 0 39 0;
#X connect 31 0 29 0;
#X connect 32 0 31 0;
#X connect 33 0 29 0;
#X connect 34 0 37 0;
#X connect 34 0 38 0;
#X connect 35 0 32 2;
#X connect 36 0 32 0;
#X connect 36 1 35 0;
#X connect 36 1 32 1;
#X connect 37 1 36 0;
#X connect 38 0 29 0;
#X connect 39 0 28 0;
#X connect 39 0 41 0;
#X connect 41 0 40 0;
#X connect 42 0 44 0;
#X connect 43 0 44 1;
#X connect 44 0 14 0;
#X connect 45 0 46 0;
#X connect 46 0 42 0;
#X connect 46 1 43 0;
#X connect 47 0 10 0;
#X connect 47 1 17 0;
#X connect 47 2 21 0;
#X connect 47 3 24 0;
#X coords 0 -1 1 1 346 260 2 100 100;
