#N canvas 1108 228 550 440 10;
#X obj 292 7 loadbang;
#X obj 292 48 bng 15 250 50 0 empty empty empty 17 7 0 10 #fcfcfc #000000
#000000;
#X obj 292 73 t b b;
#X obj 456 129 del 20000;
#X obj 456 176 del 20000;
#X obj 375 156 t b b;
#X msg 407 205 1;
#X msg 344 205 0 15000;
#X obj 268 154 t b b;
#X msg 237 203 1 15000;
#X msg 300 203 0;
#X obj 54 384 outlet;
#X floatatom 52 69 5 0 1 0 - - - 0;
#X obj 269 294 line 0;
#X obj 269 339 spigot;
#X obj 88 69 tgl 15 0 empty empty auto 17 7 0 10 #fcfcfc #000000 #000000
0 1;
#X msg 163 38 1;
#X connect 0 0 1 0;
#X connect 0 0 16 0;
#X connect 1 0 2 0;
#X connect 2 0 3 0;
#X connect 2 1 8 0;
#X connect 3 0 4 0;
#X connect 3 0 5 0;
#X connect 4 0 1 0;
#X connect 5 0 7 0;
#X connect 5 1 6 0;
#X connect 6 0 13 0;
#X connect 7 0 13 0;
#X connect 8 0 9 0;
#X connect 8 1 10 0;
#X connect 9 0 13 0;
#X connect 10 0 13 0;
#X connect 12 0 11 0;
#X connect 13 0 14 0;
#X connect 14 0 12 0;
#X connect 15 0 14 1;
#X connect 16 0 15 0;
#X coords 0 -1 1 1 80 40 1 50 50;
