#N canvas 593 109 660 305 10;
#X obj 122 54 env~;
#X obj 122 76 - 100;
#X obj 155 0 inlet~;
#X obj 81 54 env~;
#X obj 81 76 - 100;
#X obj 134 122 vu 10 120 empty empty -1 -8 0 10 #404040 #000000 0 0;
#X obj 119 122 vu 10 120 empty empty -1 -8 0 10 #404040 #000000 0 0;
#X obj 104 122 vu 10 120 empty empty -1 -8 0 10 #404040 #000000 0 0;
#X obj 41 53 env~;
#X obj 41 75 - 100;
#X obj 4 53 env~;
#X obj 4 75 - 100;
#X obj 164 122 vu 10 120 empty empty -1 -8 0 10 #404040 #000000 0 0;
#X obj 149 122 vu 10 120 empty empty -1 -8 0 10 #404040 #000000 0 0;
#X obj 194 122 vu 10 120 empty empty -1 -8 0 10 #404040 #000000 0 0;
#X obj 278 55 env~;
#X obj 278 77 - 100;
#X obj 237 55 env~;
#X obj 237 77 - 100;
#X obj 197 54 env~;
#X obj 197 76 - 100;
#X obj 160 54 env~;
#X obj 160 76 - 100;
#X obj 179 122 vu 10 120 empty empty -1 -8 0 10 #404040 #000000 0 0;
#X obj 329 122 vu 10 120 empty empty -1 -8 0 10 #404040 #000000 1 0;
#X obj 436 56 env~;
#X obj 436 78 - 100;
#X obj 395 56 env~;
#X obj 395 78 - 100;
#X obj 355 55 env~;
#X obj 355 77 - 100;
#X obj 318 55 env~;
#X obj 318 77 - 100;
#X obj 592 57 env~;
#X obj 592 79 - 100;
#X obj 551 57 env~;
#X obj 551 79 - 100;
#X obj 511 56 env~;
#X obj 511 78 - 100;
#X obj 474 56 env~;
#X obj 474 78 - 100;
#X obj 155 20 snake~ out 16 -----------------------------;
#X obj 239 122 vu 10 120 empty empty -1 -8 0 10 #404040 #000000 0 0;
#X obj 224 122 vu 10 120 empty empty -1 -8 0 10 #404040 #000000 0 0;
#X obj 209 122 vu 10 120 empty empty -1 -8 0 10 #404040 #000000 0 0;
#X obj 269 122 vu 10 120 empty empty -1 -8 0 10 #404040 #000000 0 0;
#X obj 254 122 vu 10 120 empty empty -1 -8 0 10 #404040 #000000 0 0;
#X obj 299 122 vu 10 120 empty empty -1 -8 0 10 #404040 #000000 0 0;
#X obj 284 122 vu 10 120 empty empty -1 -8 0 10 #404040 #000000 0 0;
#X obj 314 122 vu 10 120 empty empty -1 -8 0 10 #404040 #000000 0 0;
#X connect 0 0 1 0;
#X connect 1 0 13 0;
#X connect 2 0 41 0;
#X connect 3 0 4 0;
#X connect 4 0 5 0;
#X connect 8 0 9 0;
#X connect 9 0 6 0;
#X connect 10 0 11 0;
#X connect 11 0 7 0;
#X connect 15 0 16 0;
#X connect 16 0 44 0;
#X connect 17 0 18 0;
#X connect 18 0 14 0;
#X connect 19 0 20 0;
#X connect 20 0 23 0;
#X connect 21 0 22 0;
#X connect 22 0 12 0;
#X connect 25 0 26 0;
#X connect 26 0 45 0;
#X connect 27 0 28 0;
#X connect 28 0 46 0;
#X connect 29 0 30 0;
#X connect 30 0 42 0;
#X connect 31 0 32 0;
#X connect 32 0 43 0;
#X connect 33 0 34 0;
#X connect 34 0 24 0;
#X connect 35 0 36 0;
#X connect 36 0 49 0;
#X connect 37 0 38 0;
#X connect 38 0 47 0;
#X connect 39 0 40 0;
#X connect 40 0 48 0;
#X connect 41 0 10 0;
#X connect 41 1 8 0;
#X connect 41 2 3 0;
#X connect 41 3 0 0;
#X connect 41 4 21 0;
#X connect 41 5 19 0;
#X connect 41 6 17 0;
#X connect 41 7 15 0;
#X connect 41 8 31 0;
#X connect 41 9 29 0;
#X connect 41 10 27 0;
#X connect 41 11 25 0;
#X connect 41 12 39 0;
#X connect 41 13 37 0;
#X connect 41 14 35 0;
#X connect 41 15 33 0;
#X coords 0 -1 1 1 270 150 1 100 100;
