#N canvas 593 109 374 391 10;
#X obj 174 54 env~;
#X obj 174 76 - 100;
#X obj 105 5 inlet~;
#X obj 105 54 env~;
#X obj 105 76 - 100;
#X obj 105 28 snake~ out 2;
#X obj 106 122 vu 10 120 empty empty -1 -8 0 10 #404040 #000000 0 0;
#X obj 121 122 vu 10 120 empty empty -1 -8 0 10 #404040 #000000 1 0;
#X connect 0 0 1 0;
#X connect 1 0 7 0;
#X connect 2 0 5 0;
#X connect 3 0 4 0;
#X connect 4 0 6 0;
#X connect 5 0 3 0;
#X connect 5 1 0 0;
#X coords 0 -1 1 1 60 150 1 100 100;
