#N canvas 37 51 1464 866 10;
#X obj 14 6 cnv 15 500 25 empty empty abclib_Library 20 12 0 18 #606060 #fcfcfc 0;
#X obj 13 824 abc_helpcredit;
#X obj 14 32 cnv 15 500 25 empty empty abc_2d_general_ambisonic_objects 20 12 0 12 #606060 #fcfcfc 0;
#X obj 351 94 abc_addsynth5_m;
#X obj 339 117 abc_cosrandenv5_m;
#X obj 438 160 snake~ out 5;
#X obj 470 207 *~ 0.2;
#X obj 259 259 abc_2d_encoder3_m;
#X obj 187 122 loadbang;
#X floatatom 187 184 5 0 0 0 - - - 0;
#X msg 187 207 speed \$1;
#X msg 187 160 -0.2;
#X msg 154 160 0;
#X floatatom 260 185 5 0 0 0 - - - 0;
#X msg 260 161 -45;
#X msg 260 208 angle \$1;
#X floatatom 325 185 5 0 0 0 - - - 0;
#X msg 325 161 20;
#X msg 325 208 returntime \$1;
#X text 220 185 t.s-1;
#X text 293 185 deg.;
#X text 359 185 msec;
#X obj 369 531 abc_2d_scope3_m;
#X text 529 6 we provide 2D general ambisonic objects: - 2D encoders \, stereoencoders or multiencoders - 2D decoders - 2D ambisonic optimizers - 2D ambisonic scopes;
#X obj 319 577 abc_ambi_scope_m;
#X obj 712 413 abc_linrandenv2~;
#N canvas 92 130 97 146 voice1 0;
#X obj 18 12 phasor~ 3;
#X obj 18 33 *~ 110;
#X obj 18 54 +~ 220;
#X obj 18 75 osc~;
#X obj 18 96 outlet~;
#X connect 0 0 1 0;
#X connect 1 0 2 0;
#X connect 2 0 3 0;
#X connect 3 0 4 0;
#X restore 562 80 pd voice1;
#N canvas 92 130 97 146 voice2 0;
#X obj 18 75 osc~;
#X obj 18 96 outlet~;
#X obj 18 12 phasor~ 2;
#X obj 18 33 *~ 50;
#X obj 18 54 +~ 660;
#X connect 0 0 1 0;
#X connect 2 0 3 0;
#X connect 3 0 4 0;
#X connect 4 0 0 0;
#X restore 624 80 pd voice2;
#X obj 56 391 abc_gain -127;
#X obj 153 528 tgl 15 0 empty empty empty 17 7 0 10 #fcfcfc #000000 #000000 0 1;
#X msg 153 552 stereo \$1;
#X obj 129 578 abc_2d_decoder3_m;
#X obj 70 607 abc_meter8_m;
#X obj 228 608 dac~ 1;
#X obj 550 679 tgl 15 0 empty empty DSP_on/off 17 7 0 10 #fcfcfc #000000 #000000 0 1;
#X msg 550 709 \; pd dsp \$1 \;;
#X obj 676 450 abc_2d_stereoencoder1~;
#X obj 712 371 r envs;
#X obj 679 307 hsl 128 15 0 120 0 0 empty empty Opening\ angle -2 -8 0 10 #feffc6 #000000 #000000 0 1;
#X floatatom 676 327 5 0 0 0 - - - 0;
#X obj 676 248 loadbang;
#X msg 676 269 60;
#X msg 676 347 angle \$1;
#X obj 683 589 abc_2d_decoder1~;
#X text 379 286 in multichannel mode;
#X obj 577 487 tgl 15 0 empty empty empty 17 7 0 10 #fcfcfc #000000 #000000 0 1;
#X msg 577 509 directangles \$1;
#X obj 577 441 tgl 15 0 empty empty empty 17 7 0 10 #fcfcfc #000000 #000000 0 1;
#X msg 577 463 stereo \$1;
#X obj 587 249 abc_gain -127;
#X obj 664 632 abc_quadriout 0 1 2 3 4;
#X obj 819 514 snake~ in 3;
#X obj 809 576 abc_ambi_scope_m;
#X obj 811 546 abc_2d_scope1_m;
#X obj 270 490 abc_2d_optim3_m;
#X obj 183 357 vradio 15 1 0 3 empty empty empty 0 -8 0 10 #feffc6 #000000 #000000 0;
#X floatatom 183 413 5 0 0 0 - - - 0;
#X obj 183 302 loadbang;
#X msg 183 331 2;
#X msg 183 433 optimtype \$1;
#X text 209 346 optimtype value;
#X text 208 361 0 = basic \, no effect;
#X text 208 374 1 = maxRe optimization;
#X text 208 386 2 = inPhase optimization;
#X obj 562 124 s~ v1;
#X obj 624 124 s~ v2;
#X obj 758 371 r~ v1;
#X obj 805 371 r~ v2;
#X obj 1006 196 abc_2d_multiencoder3_4_m;
#X obj 1106 128 r~ v1;
#X obj 1146 128 r~ v2;
#X obj 1147 172 snake~ in 4;
#X obj 1154 102 abc_soundcoat~;
#X obj 686 79 abc_env_noise 200 0.3 0;
#X obj 686 124 s~ v3;
#X obj 1183 127 r~ v3;
#X msg 1264 195 0.4 -0.5 2 -1.9;
#X obj 1264 173 loadbang;
#X obj 1264 220 unpack 0 0 0 0;
#X msg 1373 195 0 0 0 0;
#X floatatom 1264 247 5 0 0 0 - - - 0;
#X floatatom 1299 247 5 0 0 0 - - - 0;
#X floatatom 1334 247 5 0 0 0 - - - 0;
#X floatatom 1369 248 5 0 0 0 - - - 0;
#X obj 1264 389 s multi1;
#X obj 1006 174 r multi1;
#X obj 1197 552 abc_2d_scope3_m;
#X obj 1197 581 abc_ambi_scope_m;
#X obj 1030 518 tgl 15 0 empty empty empty 17 7 0 10 #fcfcfc #000000 #000000 0 1;
#X msg 1030 540 directangles \$1;
#X obj 1030 472 tgl 15 0 empty empty empty 17 7 0 10 #fcfcfc #000000 #000000 0 1;
#X msg 1030 494 stereo \$1;
#X obj 1040 280 abc_gain -127;
#X obj 1040 590 abc_2d_decoder3_8_m;
#X obj 1151 617 dac~ 1;
#X msg 1264 279 s-0 \$1;
#X msg 1299 300 s-1 \$1;
#X msg 1333 321 s-2 \$1;
#X msg 1369 341 s-3 \$1;
#X obj 1011 642 abc_meter8_m;
#X connect 3 1 4 1;
#X connect 4 1 5 0;
#X connect 5 0 6 0;
#X connect 5 1 6 0;
#X connect 5 2 6 0;
#X connect 5 3 6 0;
#X connect 5 4 6 0;
#X connect 6 0 7 1;
#X connect 7 1 54 1;
#X connect 8 0 11 0;
#X connect 8 0 14 0;
#X connect 8 0 17 0;
#X connect 9 0 10 0;
#X connect 10 0 7 0;
#X connect 11 0 9 0;
#X connect 12 0 9 0;
#X connect 13 0 15 0;
#X connect 14 0 13 0;
#X connect 15 0 7 0;
#X connect 16 0 18 0;
#X connect 17 0 16 0;
#X connect 18 0 7 0;
#X connect 22 1 24 1;
#X connect 25 1 36 1;
#X connect 25 2 36 2;
#X connect 26 0 64 0;
#X connect 27 0 65 0;
#X connect 28 0 31 0;
#X connect 29 0 30 0;
#X connect 30 0 31 0;
#X connect 31 1 32 0;
#X connect 31 1 33 0;
#X connect 34 0 35 0;
#X connect 36 1 43 1;
#X connect 36 1 51 0;
#X connect 36 2 43 2;
#X connect 36 2 51 1;
#X connect 36 3 43 3;
#X connect 36 3 51 2;
#X connect 37 0 25 0;
#X connect 38 0 39 0;
#X connect 39 0 42 0;
#X connect 40 0 41 0;
#X connect 41 0 38 0;
#X connect 42 0 36 0;
#X connect 43 1 50 0;
#X connect 43 2 50 1;
#X connect 43 3 50 2;
#X connect 43 4 50 3;
#X connect 45 0 46 0;
#X connect 46 0 43 0;
#X connect 47 0 48 0;
#X connect 48 0 43 0;
#X connect 49 0 43 0;
#X connect 51 0 53 1;
#X connect 53 1 52 1;
#X connect 54 1 22 1;
#X connect 54 1 31 1;
#X connect 55 0 56 0;
#X connect 56 0 59 0;
#X connect 57 0 58 0;
#X connect 58 0 55 0;
#X connect 59 0 54 0;
#X connect 66 0 25 1;
#X connect 67 0 25 2;
#X connect 68 1 86 1;
#X connect 68 1 93 1;
#X connect 69 0 71 0;
#X connect 70 0 71 1;
#X connect 71 0 68 1;
#X connect 72 1 71 3;
#X connect 73 0 74 0;
#X connect 75 0 71 2;
#X connect 76 0 78 0;
#X connect 77 0 76 0;
#X connect 78 0 80 0;
#X connect 78 1 81 0;
#X connect 78 2 82 0;
#X connect 78 3 83 0;
#X connect 79 0 78 0;
#X connect 80 0 95 0;
#X connect 81 0 96 0;
#X connect 82 0 97 0;
#X connect 83 0 98 0;
#X connect 85 0 68 0;
#X connect 86 1 87 1;
#X connect 88 0 89 0;
#X connect 89 0 93 0;
#X connect 90 0 91 0;
#X connect 91 0 93 0;
#X connect 92 0 93 0;
#X connect 93 1 94 0;
#X connect 95 0 84 0;
#X connect 96 0 84 0;
#X connect 97 0 84 0;
#X connect 98 0 84 0;
