#N canvas 1533 301 386 508 10;
#X obj 93 68 bng 15 250 50 0 empty empty empty 17 7 0 10 -262144 -1
-1;
#X obj 243 33 inlet;
#X obj 243 143 t b b;
#X obj 207 181 del 30;
#X msg 275 182 0.8 10;
#X msg 207 205 0 100;
#X obj 276 265 line~;
#X obj 276 303 *~;
#X obj 276 340 *~;
#X obj 34 156 phasor~ 440;
#X obj 34 276 cos~;
#X obj 74 187 osc~ 220;
#X obj 74 211 *~ 5;
#X obj 34 243 +~;
#X obj 203 390 *~;
#X obj 202 452 outlet~;
#X connect 0 0 2 0;
#X connect 1 0 2 0;
#X connect 2 0 3 0;
#X connect 2 1 4 0;
#X connect 3 0 5 0;
#X connect 4 0 6 0;
#X connect 5 0 6 0;
#X connect 6 0 7 0;
#X connect 6 0 7 1;
#X connect 7 0 8 0;
#X connect 7 0 8 1;
#X connect 8 0 14 1;
#X connect 9 0 13 0;
#X connect 10 0 14 0;
#X connect 11 0 12 0;
#X connect 12 0 13 1;
#X connect 13 0 10 0;
#X connect 14 0 15 0;
#X coords 0 -1 1 1 100 35 1 50 50;
