#N canvas 851 316 220 365 10;
#X obj 35 73 vsl 15 128 -127 18 0 0 empty empty empty 0 -9 0 10 #fcfcfc
#000000 #000000 0 1;
#X obj 35 2 loadbang;
#X floatatom 35 207 5 0 0 0 - - - 0;
#X obj 35 26 f \$1;
#X obj 54 188 bng 15 250 50 0 empty empty empty 17 7 0 10 #fcfcfc #000000
#000000;
#X obj 35 284 outlet;
#X msg 35 238 gain \$1;
#X msg 56 158 0;
#X text 67 209 dB;
#X connect 0 0 2 0;
#X connect 1 0 3 0;
#X connect 2 0 6 0;
#X connect 3 0 0 0;
#X connect 4 0 3 0;
#X connect 6 0 5 0;
#X connect 7 0 0 0;
#X coords 0 -1 1 1 55 180 1 30 50;
