#N canvas 792 184 317 524 10;
#X obj 171 116 vsl 15 128 -1 1 0 0 empty empty Y 0 -9 0 10 #dfdfdf #000000 #000000 0 1;
#X floatatom 106 231 5 0 0 0 - - - 0;
#X msg 107 280 \$1 20;
#X obj 107 302 line~;
#X obj 36 174 hsl 128 15 -1 1 0 0 empty empty X -2 -8 0 10 #dfdfdf #000000 #000000 0 1;
#X floatatom 68 231 5 0 0 0 - - - 0;
#X msg 68 280 \$1 20;
#X obj 68 301 line~;
#X obj 112 46 loadbang;
#X msg 112 67 0;
#X obj 31 392 abc_cartopol~;
#X obj 106 419 -~ 1.5708;
#X obj 93 155 bng 16 250 50 0 empty empty reset -8 -8 0 10 #dfdfdf #000000 #000000;
#X obj 21 46 inlet~;
#X obj 22 444 snake~ in 3;
#X obj 22 489 outlet~;
#X obj 222 448 snake~ in 2;
#X obj 222 490 outlet~;
#X connect 0 0 1 0;
#X connect 1 0 2 0;
#X connect 2 0 3 0;
#X connect 3 0 10 2;
#X connect 3 0 16 1;
#X connect 4 0 5 0;
#X connect 5 0 6 0;
#X connect 6 0 7 0;
#X connect 7 0 10 1;
#X connect 7 0 16 0;
#X connect 8 0 9 0;
#X connect 9 0 0 0;
#X connect 9 0 4 0;
#X connect 10 1 14 1;
#X connect 10 2 11 0;
#X connect 11 0 14 2;
#X connect 12 0 9 0;
#X connect 13 0 14 0;
#X connect 14 0 15 0;
#X connect 16 0 17 0;
#X coords 0 -1 1 1 160 150 1 30 100;
