#N canvas 670 122 621 256 10;
#X obj 166 12 inlet~;
#X obj 166 32 snake~ out 3;
#X obj 77 94 cyclone/scope~ 130 130 16 3 256 -1 1 0 0 0 0 255 255 255 0 0 0 96 98 102 0 empty;
#X text 258 129 uses cyclone/scope~;
#X text 257 144 requires the installation of cyclone library;
#X obj 120 12 inlet;
#X text 251 5 receives the bus of 3 signals (X \, Y \, color=1 or 0) from the scope objects, f 29;
#X text 6 11 receives the control messages of cyclone/scope~, f 14;
#X connect 0 0 1 0;
#X connect 1 0 2 0;
#X connect 1 1 2 1;
#X connect 5 0 2 0;
#X coords 0 -1 1 1 144 160 1 70 70;
