#N canvas 1000 230 1560 866 10;
#X obj 14 6 cnv 15 500 25 empty empty abclib_Library 20 12 0 18 #606060 #fcfcfc 0;
#X obj 13 824 abc_helpcredit;
#X obj 14 32 cnv 15 500 25 empty empty abc_2d_ambisonic_fx_processes 20 12 0 12 #606060 #fcfcfc 0;
#X obj 865 462 abc_env_noise 200 0.3 0;
#X text 529 6 we provide 2D FX processes on ambisonic components: 2D FX decorrelators \, 2D FX delays \, 2D FX granulators \, 2D FX ring modulators;
#X obj 894 541 abc_2d_map3_m;
#X obj 881 511 abc_2d_randomtrajectory_2map_m;
#X obj 982 545 abc_ambi_scope_m;
#X obj 39 189 abc_2d_fx_decorrelation3_m;
#X obj 39 167 r cmd;
#X obj 320 415 abc_upanddown;
#X msg 320 460 factor \$1;
#X obj 275 792 s cmd;
#X obj 190 351 loadbang;
#X msg 159 396 0;
#X obj 159 423 vradio 15 1 0 22 empty empty empty 0 -8 0 10 #fcfcfc #000000 #000000 0;
#X msg 189 396 0;
#X floatatom 189 423 5 0 1 0 - - - 0;
#X msg 159 763 functiontype \$1;
#X msg 189 458 fdbk \$1;
#X text 107 468 log(1+x);
#X text 144 426 x;
#X text 132 438 x^2;
#X text 132 454 sin;
#X text 110 484 sqrt(x);
#X text 74 499 1-cos(Pi/2*x);
#X text 62 514 (1-cos(Pi*x))/2;
#X text 97 529 1-(1-x)^2;
#X text 85 543 composite 1;
#X text 133 558 x^3;
#X text 97 573 1-(1-x)^3;
#X text 85 587 composite 2;
#X text 133 602 x^4;
#X text 97 617 1-(1-x)^4;
#X text 85 632 composite 3;
#X text 85 677 composite 4;
#X text 133 647 x^5;
#X text 97 662 1-(1-x)^5;
#X text 85 707 composite 5;
#X text 85 692 2^(10(x-1));
#X text 73 724 1-sqrt(1-x^2);
#X text 61 739 sqrt(1-(x-1)^2);
#X msg 251 376 96000;
#X floatatom 251 423 5 0 1 0 - - - 0;
#X msg 251 460 delay \$1;
#X obj 320 376 tgl 25 1 empty empty empty 17 7 0 10 #dfdfdf #000000 #000000 1 1;
#X obj 297 106 abc_gain -127;
#X obj 838 757 tgl 15 0 empty empty DSP_on/off 17 7 0 10 #dfdfdf #ffffff #000000 0 1;
#X msg 838 787 \; pd dsp \$1 \;;
#X obj 519 256 abc_2d_fx_delay3_m;
#X obj 590 100 loadbang;
#X msg 519 136 400;
#X floatatom 519 157 5 0 0 0 - - - 0;
#X msg 519 177 window \$1;
#X floatatom 590 157 5 0 0 0 - - - 0;
#X msg 590 136 300;
#X floatatom 666 156 5 0 1 0 - - - 0;
#X msg 590 177 deltime \$1;
#X msg 666 176 feedback \$1;
#X msg 666 135 0.1;
#X obj 129 287 abc_gain7_m;
#X obj 561 302 abc_gain7_m;
#X text 148 92 FX DECORRELATOR;
#X obj 432 103 abc_gain -127;
#X obj 192 311 throw~ dec;
#X obj 624 331 throw~ dec;
#X text 523 85 FX DELAY;
#X obj 969 710 send~ source1 7;
#X obj 624 228 receive~ source1;
#X obj 192 166 receive~ source1;
#X text 187 561 FX DECORRELATOR CONTROLS;
#X obj 159 791 s cmd2;
#X obj 1259 463 abc_addsynth7_m;
#X obj 1247 493 abc_cosrandenv7_m;
#X obj 1346 526 send~ source2 7;
#X obj 902 303 abc_gain7_m;
#X obj 773 104 abc_gain -127;
#X obj 965 332 throw~ dec;
#X obj 965 229 receive~ source1;
#X text 864 81 FX GRANULATORS;
#X obj 860 257 abc_2d_fx_grain3_m;
#X obj 992 92 loadbang;
#X floatatom 859 150 5 0 0 0 - - - 0;
#X floatatom 946 150 5 0 0 0 - - - 0;
#X floatatom 1022 149 5 0 0 0 - - - 0;
#X msg 946 170 deltime \$1;
#X msg 1022 169 feedback \$1;
#X msg 859 170 grainsize \$1;
#X floatatom 1108 149 5 0 0 0 - - - 0;
#X msg 1108 169 rarefaction \$1;
#X msg 1108 128 0.5;
#X msg 859 129 400;
#X msg 946 129 300;
#X msg 1022 128 0.4;
#X obj 1352 301 abc_gain7_m;
#X obj 1211 102 abc_gain -127;
#X obj 1415 330 throw~ dec;
#X obj 1415 227 receive~ source2;
#X obj 1298 255 abc_2d_fx_ringmod3_m;
#X obj 1298 143 loadbang;
#X msg 1298 166 220;
#X floatatom 1298 189 5 0 0 0 - - - 0;
#X msg 1298 214 f0 \$1;
#X obj 1358 213 r cmd2;
#X text 1310 83 FX RING MODULATORS;
#X text 1358 157 function type to be chosen on the bottom left of the patch;
#X text 1191 432 SOURCES;
#X obj 490 428 tgl 15 0 empty empty empty 17 7 0 10 #dfdfdf #000000 #000000 0 1;
#X msg 490 454 stereo \$1;
#X msg 558 454 directangles \$1;
#X obj 490 500 abc_2d_decoder3_m;
#X obj 558 428 tgl 15 0 empty empty empty 17 7 0 10 #dfdfdf #000000 #000000 0 1;
#X obj 589 537 dac~ 1;
#X obj 488 565 abc_meter8_m;
#X obj 696 540 abc_2d_scope3_m;
#X obj 646 565 abc_ambi_scope_m;
#X obj 589 476 catch~ dec 7;
#X text 609 501 COMMON DECODER AT ORDER 3;
#X connect 3 0 6 1;
#X connect 5 1 67 0;
#X connect 6 1 5 1;
#X connect 6 2 7 1;
#X connect 8 1 60 1;
#X connect 9 0 8 0;
#X connect 10 0 11 0;
#X connect 11 0 12 0;
#X connect 13 0 14 0;
#X connect 13 0 16 0;
#X connect 13 0 42 0;
#X connect 14 0 15 0;
#X connect 15 0 18 0;
#X connect 16 0 17 0;
#X connect 17 0 19 0;
#X connect 18 0 12 0;
#X connect 18 0 71 0;
#X connect 19 0 12 0;
#X connect 42 0 43 0;
#X connect 43 0 44 0;
#X connect 44 0 12 0;
#X connect 45 0 10 0;
#X connect 46 0 60 0;
#X connect 47 0 48 0;
#X connect 49 1 61 1;
#X connect 50 0 51 0;
#X connect 50 0 55 0;
#X connect 50 0 59 0;
#X connect 51 0 52 0;
#X connect 52 0 53 0;
#X connect 53 0 49 0;
#X connect 54 0 57 0;
#X connect 55 0 54 0;
#X connect 56 0 58 0;
#X connect 57 0 49 0;
#X connect 58 0 49 0;
#X connect 59 0 56 0;
#X connect 60 1 64 0;
#X connect 61 1 65 0;
#X connect 63 0 61 0;
#X connect 68 0 49 1;
#X connect 69 0 8 1;
#X connect 72 1 73 1;
#X connect 73 1 74 0;
#X connect 75 1 77 0;
#X connect 76 0 75 0;
#X connect 78 0 80 1;
#X connect 80 1 75 1;
#X connect 81 0 91 0;
#X connect 81 0 92 0;
#X connect 81 0 93 0;
#X connect 81 0 90 0;
#X connect 82 0 87 0;
#X connect 83 0 85 0;
#X connect 84 0 86 0;
#X connect 85 0 80 0;
#X connect 86 0 80 0;
#X connect 87 0 80 0;
#X connect 88 0 89 0;
#X connect 89 0 80 0;
#X connect 90 0 88 0;
#X connect 91 0 82 0;
#X connect 92 0 83 0;
#X connect 93 0 84 0;
#X connect 94 1 96 0;
#X connect 95 0 94 0;
#X connect 97 0 98 1;
#X connect 98 1 94 1;
#X connect 99 0 100 0;
#X connect 100 0 101 0;
#X connect 101 0 102 0;
#X connect 102 0 98 0;
#X connect 103 0 98 0;
#X connect 107 0 108 0;
#X connect 108 0 110 0;
#X connect 109 0 110 0;
#X connect 110 1 112 0;
#X connect 110 1 113 0;
#X connect 110 1 114 1;
#X connect 111 0 109 0;
#X connect 114 1 115 1;
#X connect 116 0 110 1;
