#N canvas 375 230 791 621 10;
#N canvas 61 26 1238 797 \$0-data 0;
#X coords 0 -1 1 1 200 18 2 10 10;
#X restore 10 10 pd \$0-data;
#N canvas 98 196 527 295 \$0-template-master 0;
#X obj 25 103 outlet;
#X obj 25 58 route click;
#X obj 25 80 get \$0-template-master sym;
#X obj 25 21 struct \$0-template-master float x float x2 float color
float colort float xs float ys symbol sym;
#X obj 27 164 filledpolygon color 0 1 0 -1 x2 -1 x2 1 0 1;
#X obj 26 192 drawsymbol sym xs ys colort;
#X connect 1 0 2 0;
#X connect 2 0 0 0;
#X connect 3 0 1 0;
#X restore 157 115 pd \$0-template-master;
#X obj 167 137 inlet;
#X obj 345 148 inlet;
#X obj 360 92 text define \$0-symbols;
#N canvas 628 61 480 650 fill_data 0;
#X obj 18 557 set -symbol \$0-template-master sym, f 35;
#X obj 55 399 f, f 7;
#X obj 126 257 /, f 12;
#X obj 94 328 *;
#X msg 18 534 symbol \$1;
#N canvas 100 44 455 370 list_to_text 0;
#X obj 153 25 inlet;
#X obj 153 108 list length;
#X obj 153 150 until;
#X obj 154 130 t f b, f 14;
#X obj 216 192 f 0, f 4;
#X obj 237 150 f 0;
#X obj 248 192 + 1, f 4;
#X obj 153 172 t b b, f 11;
#X obj 153 226 list split, f 11;
#X obj 153 194 list, f 5;
#X obj 153 46 t a a b, f 10;
#X msg 210 67 clear;
#X obj 184 249 list split 1;
#X obj 210 87 s \$0-symbols;
#X obj 184 279 text set \$0-symbols, f 26;
#X connect 0 0 10 0;
#X connect 1 0 3 0;
#X connect 2 0 7 0;
#X connect 3 0 2 0;
#X connect 3 1 5 0;
#X connect 4 0 6 0;
#X connect 4 0 8 1;
#X connect 4 0 14 1;
#X connect 5 0 4 1;
#X connect 6 0 4 1;
#X connect 7 0 9 0;
#X connect 7 1 4 0;
#X connect 8 1 12 0;
#X connect 9 0 8 0;
#X connect 10 0 1 0;
#X connect 10 1 9 1;
#X connect 10 2 11 0;
#X connect 11 0 13 0;
#X connect 12 0 14 0;
#X restore 82 132 pd list_to_text;
#N canvas 0 22 450 300 clear_data 0;
#X obj 37 37 inlet;
#X obj 37 59 bang;
#X obj 37 81 f \$0;
#X msg 37 103 \; pd-\$1-data clear;
#X connect 0 0 1 0;
#X connect 1 0 2 0;
#X connect 2 0 3 0;
#X restore 340 218 pd clear_data;
#N canvas 0 22 450 300 get_pointer 0;
#X obj 76 21 inlet;
#X obj 76 43 bang;
#X obj 76 65 f \$0;
#X obj 76 109 pointer;
#X obj 76 131 outlet;
#X msg 76 87 traverse pd-\$1-data \, bang;
#X connect 0 0 1 0;
#X connect 1 0 2 0;
#X connect 2 0 5 0;
#X connect 3 0 4 0;
#X connect 5 0 3 0;
#X restore 268 340 pd get_pointer;
#N canvas 0 22 140 150 counter 0;
#X obj 21 13 inlet;
#X obj 21 35 t f b, f 7;
#X obj 21 57 until;
#X obj 21 79 f 0, f 7;
#X obj 71 79 + 1;
#X obj 60 57 f 0;
#X obj 21 101 outlet;
#X connect 0 0 1 0;
#X connect 1 0 2 0;
#X connect 1 1 5 0;
#X connect 2 0 3 0;
#X connect 3 0 4 0;
#X connect 3 0 6 0;
#X connect 4 0 3 1;
#X connect 5 0 3 1;
#X restore 55 267 pd counter;
#X obj 55 193 t f b f b b, f 48;
#X obj 18 303 t f b f, f 13;
#X obj 55 111 t b a;
#X obj 55 154 text size \$0-symbols;
#X obj 18 511 text get \$0-symbols;
#X obj 55 14 inlet;
#X obj 13 222 s \$0-lsize;
#X obj 126 215 f 1;
#X obj 55 457 append \$0-template-master x x2 color colort xs ys,
f 36;
#X obj 340 16 inlet;
#X obj 175 14 inlet;
#X obj 175 58 t b f;
#X obj 175 36 unpack f f;
#X obj 55 429 pack f f 999 0 0.02 0.1, f 60;
#X obj 379 329 clip -1 1;
#X obj 379 287 * 2;
#X obj 379 309 - 1;
#X obj 289 309 clip 0 1, f 13;
#X obj 289 288 / 1;
#X obj 126 237 t f b f, f 13;
#X connect 1 0 22 0;
#X connect 2 0 3 1;
#X connect 2 0 22 1;
#X connect 2 0 26 2;
#X connect 3 0 1 1;
#X connect 4 0 0 0;
#X connect 7 0 17 6;
#X connect 8 0 10 0;
#X connect 9 0 8 0;
#X connect 9 1 16 0;
#X connect 9 2 2 1;
#X connect 9 3 7 0;
#X connect 9 4 6 0;
#X connect 10 0 13 0;
#X connect 10 1 1 0;
#X connect 10 2 3 0;
#X connect 11 0 12 0;
#X connect 11 1 5 0;
#X connect 12 0 9 0;
#X connect 12 0 15 0;
#X connect 13 0 4 0;
#X connect 14 0 11 0;
#X connect 16 0 28 0;
#X connect 17 0 0 1;
#X connect 18 0 6 0;
#X connect 19 0 21 0;
#X connect 20 0 12 0;
#X connect 20 1 27 0;
#X connect 21 0 20 0;
#X connect 21 1 24 0;
#X connect 22 0 17 0;
#X connect 23 0 22 5;
#X connect 24 0 25 0;
#X connect 25 0 23 0;
#X connect 26 0 22 4;
#X connect 27 0 26 0;
#X connect 28 0 2 0;
#X connect 28 1 27 0;
#X connect 28 2 27 1;
#X restore 345 281 pd fill_data;
#X text 499 91 List of symbols;
#X obj 157 206 outlet;
#X obj 238 206 outlet;
#N canvas 0 22 450 300 find_symbol 0;
#X obj 148 92 text search \$0-symbols;
#X obj 148 114 t f f, f 8;
#X obj 97 162 spigot 0, f 14;
#X obj 193 137 != -1;
#X obj 148 186 f -1;
#X obj 148 72 symbol;
#X obj 97 33 t s s, f 9;
#X obj 148 228 outlet;
#X obj 98 228 outlet;
#X obj 97 3 inlet, f 9;
#X obj 193 159 sel 1;
#X msg 193 181 symbol;
#X connect 0 0 1 0;
#X connect 1 0 4 0;
#X connect 1 1 3 0;
#X connect 2 0 7 0;
#X connect 3 0 2 1;
#X connect 3 0 10 0;
#X connect 4 0 8 0;
#X connect 5 0 0 0;
#X connect 6 0 2 0;
#X connect 6 1 5 0;
#X connect 9 0 6 0;
#X connect 10 0 11 0;
#X connect 11 0 7 0;
#X restore 157 180 pd find_symbol;
#N canvas 220 221 266 174 route_input 0;
#X obj 20 14 inlet;
#X obj 20 37 route bang float symbol;
#X obj 65 59 moses 0;
#X obj 65 82 moses 0, f 10;
#X obj 122 59 r \$0-lsize;
#X obj 20 153 outlet;
#X obj 64 103 text get \$0-symbols;
#X connect 0 0 1 0;
#X connect 1 0 5 0;
#X connect 1 1 2 0;
#X connect 1 2 5 0;
#X connect 2 1 3 0;
#X connect 3 0 6 0;
#X connect 4 0 3 1;
#X connect 6 0 5 0;
#X restore 167 158 pd route_input;
#X obj 420 256 bng 15 250 50 0 empty empty empty 17 7 0 10 -262144
-1 -1;
#X obj 359 115 namecanvas \$0-master;
#X obj 345 170 route set pos size toggle;
#N canvas 0 22 450 362 color_data 0;
#X obj 209 163 bang;
#X obj 209 185 f \$0;
#X obj 178 239 pointer;
#X msg 209 207 traverse pd-\$1-data \, bang;
#X obj 166 62 r \$0-lsize;
#X obj 151 40 t b b f, f 20;
#X obj 151 106 f;
#N canvas 0 22 140 150 counter 0;
#X obj 21 13 inlet;
#X obj 21 35 t f b, f 7;
#X obj 21 57 until;
#X obj 21 79 f 0, f 7;
#X obj 71 79 + 1;
#X obj 60 57 f 0;
#X obj 21 101 outlet;
#X connect 0 0 1 0;
#X connect 1 0 2 0;
#X connect 1 1 5 0;
#X connect 2 0 3 0;
#X connect 3 0 4 0;
#X connect 3 0 6 0;
#X connect 4 0 3 1;
#X connect 5 0 3 1;
#X restore 151 127 pd counter;
#X msg 178 207 next;
#X obj 43 226 sel, f 13;
#X msg 43 248 0 999;
#X msg 118 248 999 0;
#X obj 43 309 set \$0-template-master color colort, f 23;
#X obj 151 149 t f b;
#X obj 151 19 inlet;
#X connect 0 0 1 0;
#X connect 1 0 3 0;
#X connect 2 0 12 2;
#X connect 3 0 2 0;
#X connect 4 0 6 1;
#X connect 5 0 6 0;
#X connect 5 1 0 0;
#X connect 5 2 9 1;
#X connect 6 0 7 0;
#X connect 7 0 13 0;
#X connect 8 0 2 0;
#X connect 9 0 10 0;
#X connect 9 1 11 0;
#X connect 10 0 12 0;
#X connect 11 0 12 0;
#X connect 13 0 9 0;
#X connect 13 1 8 0;
#X connect 14 0 5 0;
#X restore 184 352 pd color_data;
#N canvas 0 22 450 300 resize_cnv 0;
#X obj 57 172 s \$0-master;
#X obj 137 172 s pd-\$0-data;
#X msg 57 95 donecanvasdialog 0 0 2 0 -1 1 1 \$1 \$2 10 10;
#X msg 24 66 dirty 0;
#X obj 24 44 t b a, f 6;
#X obj 24 24 inlet, f 6;
#X connect 2 0 0 0;
#X connect 2 0 1 0;
#X connect 3 0 0 0;
#X connect 4 0 3 0;
#X connect 4 1 2 0;
#X connect 5 0 4 0;
#X restore 418 231 pd resize_cnv;
#X obj 157 228 t b f;
#X obj 157 257 spigot 1;
#X obj 202 232 == 0;
#X obj 157 301 f -1;
#X obj 157 279 delay 100;
#X connect 1 0 9 0;
#X connect 2 0 10 0;
#X connect 3 0 13 0;
#X connect 9 0 7 0;
#X connect 9 0 16 0;
#X connect 9 1 8 0;
#X connect 10 0 9 0;
#X connect 11 0 5 2;
#X connect 13 0 5 0;
#X connect 13 1 5 1;
#X connect 13 2 15 0;
#X connect 13 3 18 0;
#X connect 16 0 17 0;
#X connect 16 1 14 0;
#X connect 17 0 20 0;
#X connect 18 0 17 1;
#X connect 19 0 14 0;
#X connect 20 0 19 0;
#X coords 0 -1 1 1 200 18 2 10 10;
